<?xml version="1.0" encoding="utf-8"?>
<!-- Generator: Adobe Illustrator 16.0.2, SVG Export Plug-In . SVG Version: 6.00 Build 0)  -->
<!DOCTYPE svg PUBLIC "-//W3C//DTD SVG 1.1//EN" "http://www.w3.org/Graphics/SVG/1.1/DTD/svg11.dtd">
<svg version="1.1" id="Layer_1" xmlns="http://www.w3.org/2000/svg" xmlns:xlink="http://www.w3.org/1999/xlink" x="0px" y="0px"
	 width="352px" height="397px" viewBox="0 0 352 397" enable-background="new 0 0 352 397" xml:space="preserve">
<g>
	<linearGradient id="SVGID_1_" gradientUnits="userSpaceOnUse" x1="174.9243" y1="261.5166" x2="174.9243" y2="0.3335">
		<stop  offset="0.2438" style="stop-color:#E7EFEE"/>
		<stop  offset="1" style="stop-color:#C9E2DC"/>
	</linearGradient>
	<path fill="url(#SVGID_1_)" d="M187.028,0.666h-21.464C81.008,5.742,12.578,70.618,1.999,153.574v44.886
		c2.892,22.649,10.093,43.951,20.759,63.057c23.227-21.778,45.19-45.007,65.654-71.227c35.136-45.019,88.94-23.058,128.468,5.49
		c7.686,6.588,19.764,8.784,27.45,4.392c36.94-17.53,69.955-40.415,103.52-61.938C331.308,62.764,266.258,5.461,187.028,0.666z"/>
	<g>
		<g>
			<defs>
				<circle id="SVGID_2_" cx="176.253" cy="176.016" r="175.683"/>
			</defs>
			<clipPath id="SVGID_3_">
				<use xlink:href="#SVGID_2_"  overflow="visible"/>
			</clipPath>
		</g>
		<linearGradient id="SVGID_4_" gradientUnits="userSpaceOnUse" x1="187.0449" y1="351.6992" x2="187.0449" y2="138.2344">
			<stop  offset="0" style="stop-color:#A2BDBD"/>
			<stop  offset="1" style="stop-color:#B8CCCB"/>
		</linearGradient>
		<path fill="url(#SVGID_4_)" d="M351.332,161.422c-0.652-7.888-1.825-15.628-3.482-23.188
			c-33.564,21.523-66.579,44.408-103.52,61.938c-7.687,4.393-19.765,2.196-27.45-4.392c-39.528-28.548-93.332-50.509-128.468-5.49
			c-20.464,26.22-42.427,49.448-65.654,71.227c30.03,53.797,87.509,90.183,153.495,90.183c92.129,0,167.684-70.917,175.079-161.139
			V161.422z"/>
	</g>
</g>
<g>
	<path fill="#8DAE63" d="M261.042,367.363c0,0,0-23.289,37.846-35.177c-8.491,5.822-20.136,22.562-20.136,22.562
		s18.438-11.887,29.839-8.006c-9.461,2.911-19.893,22.076-19.893,22.076s11.159-8.49,22.318-7.277
		c-10.188,4.124-22.318,11.159-22.561,19.407c7.035-11.159,22.561-7.763,22.561-7.763s-16.011,1.213-20.135,10.917
		C284.331,388.227,261.042,367.363,261.042,367.363z"/>
	<path fill="#8DAE63" d="M203.596,377.791c0,0,2.338-33.66-25.245-61.242c3.74,13.09,10.098,44.624,10.098,44.624
		c-4.593-11.549-15.775-17.836-26.46-24.521c7.273,8.704,14.113,17.762,15.379,31.365c0,0-3.843-9.875-22.859-7.056
		c4.208,4.208,20.57,25.245,20.57,25.245L203.596,377.791z"/>
	<path fill="#84856F" d="M249.835,348.986c-9.047-0.139-21.682,1.119-35.098,2.664c-20.706,2.386-32.907,24.878-32.907,24.878
		c-9.244,2.727-9.613,15.336-9.613,15.336s38.91,0,74.076,0c-0.422-1.957-0.713-3.84-0.867-5.547
		C243.696,373.349,254.095,360.38,249.835,348.986z"/>
	<path fill="#707157" d="M275.744,370.735c-3.328-3.067-8.135-17.04-14.79-20.107c-2.343-1.079-6.203-1.566-11.119-1.642
		c4.26,11.394-6.139,24.362-4.409,37.331c0.154,1.707,0.445,3.59,0.867,5.547c21.781,0,42.128,0,50.896,0
		C293.491,377.21,279.071,373.802,275.744,370.735z"/>
	<path opacity="0.4" fill="#84856F" d="M207.157,374.532c0,0,28.979-0.139,50.886-0.139
		C258.043,374.394,230.729,366.49,207.157,374.532z"/>
</g>
<g>
	<path fill="none" stroke="#B09859" stroke-width="1.8195" stroke-linecap="round" stroke-miterlimit="10" d="M89.235,170.689
		c0,0-1.213-5.216-5.094-3.032c-3.882,2.183,5.094,4.973,5.094,4.973s-13.585,1.334-10.917,7.278
		c2.668,5.943,10.432-5.458,10.432-5.458s-34.206,62.59-6.429,73.143c27.777,10.553,26.564-54.341,16.982-54.705
		c-9.583-0.364-15.769,53.492,5.701,57.01c21.469,3.518,27.292-16.497,22.561-35.419"/>
	<g>
		<path fill="#28240B" d="M160.341,394.847c-12.546,2.405-24.918,2.447-37.107,0l0.944-7.521h35.661L160.341,394.847z"/>
		<path fill="#948E79" d="M151.633,353.493H129.55c-1.237,0-2.21-1.003-2.174-2.24l0.118-4.023c0.036-1.237,1.069-2.24,2.306-2.24
			h22.083c1.237,0,2.21,1.003,2.174,2.24l-0.118,4.023C153.902,352.49,152.87,353.493,151.633,353.493z"/>
		<polygon fill="#4B411E" points="155.719,383.449 151.69,359.897 154.024,351.911 130.925,352.033 128.341,382.236 		"/>
		<path fill="#4B411E" d="M128.403,352.023l0.616,9.229l-5.163,24.986l0.896,2.548c11.595,2.89,23.317,2.967,35.176,0
			c0,0-2.399-17.467-12.591-17.346c0.002-6.011-8.75-19.417-8.75-19.417H128.403z"/>
		<polyline fill="none" stroke="#332709" stroke-width="0.7278" stroke-linecap="round" stroke-miterlimit="10" points="
			132.782,352.664 135.015,354.965 135.042,371.706 130.941,376.193 		"/>
		<polyline fill="none" stroke="#332709" stroke-width="0.7278" stroke-linecap="round" stroke-miterlimit="10" points="
			150.041,352.664 147.672,354.965 146.688,371.287 		"/>
		<path fill="#8B8959" d="M148.021,356.399h-13.646c-0.335,0-0.599-0.271-0.589-0.606l0,0c0.01-0.335,0.29-0.606,0.625-0.606h13.646
			c0.335,0,0.599,0.271,0.588,0.606l0,0C148.635,356.128,148.356,356.399,148.021,356.399z"/>
		<path fill="#8B8959" d="M147.939,359.189h-13.646c-0.335,0-0.598-0.271-0.588-0.606l0,0c0.01-0.335,0.289-0.606,0.624-0.606
			h13.646c0.335,0,0.599,0.271,0.589,0.606l0,0C148.554,358.918,148.274,359.189,147.939,359.189z"/>
		<path fill="#8B8959" d="M147.857,361.979h-13.646c-0.335,0-0.599-0.271-0.589-0.606l0,0c0.01-0.335,0.29-0.606,0.625-0.606h13.646
			c0.335,0,0.599,0.271,0.589,0.606l0,0C148.472,361.708,148.192,361.979,147.857,361.979z"/>
		<path fill="#8B8959" d="M147.775,364.77h-13.646c-0.335,0-0.598-0.271-0.588-0.606l0,0c0.01-0.336,0.289-0.606,0.624-0.606h13.646
			c0.335,0,0.599,0.271,0.589,0.606l0,0C148.39,364.498,148.11,364.77,147.775,364.77z"/>
		<path fill="#8B8959" d="M147.694,367.559h-13.646c-0.335,0-0.599-0.271-0.589-0.606l0,0c0.01-0.335,0.29-0.606,0.624-0.606h13.646
			c0.335,0,0.599,0.271,0.589,0.606l0,0C148.308,367.287,148.029,367.559,147.694,367.559z"/>
		<path fill="#8B8959" d="M147.612,370.349h-13.646c-0.335,0-0.599-0.271-0.588-0.606l0,0c0.01-0.335,0.289-0.606,0.624-0.606
			h13.646c0.335,0,0.599,0.271,0.589,0.606l0,0C148.226,370.077,147.947,370.349,147.612,370.349z"/>
		<path fill="none" stroke="#B7B3A5" stroke-width="0.7278" stroke-miterlimit="10" d="M134.436,356.399
			c-0.02,0.67-0.334,1.213-0.703,1.213s-0.651-0.543-0.632-1.213c0.02-0.67,0.334-1.213,0.703-1.213
			C134.172,355.187,134.455,355.729,134.436,356.399z"/>
		<path fill="none" stroke="#B7B3A5" stroke-width="0.7278" stroke-miterlimit="10" d="M134.359,359.008
			c-0.02,0.67-0.334,1.213-0.703,1.213c-0.368,0-0.651-0.543-0.631-1.213s0.334-1.213,0.703-1.213
			C134.096,357.795,134.379,358.338,134.359,359.008z"/>
		<path fill="none" stroke="#B7B3A5" stroke-width="0.7278" stroke-miterlimit="10" d="M134.283,361.615
			c-0.02,0.67-0.334,1.213-0.703,1.213c-0.369,0-0.651-0.543-0.632-1.213s0.334-1.213,0.703-1.213
			C134.02,360.402,134.302,360.945,134.283,361.615z"/>
		<path fill="none" stroke="#B7B3A5" stroke-width="0.7278" stroke-miterlimit="10" d="M134.206,364.224
			c-0.02,0.67-0.334,1.213-0.703,1.213c-0.368,0-0.651-0.543-0.631-1.213c0.02-0.67,0.334-1.213,0.703-1.213
			C133.943,363.011,134.226,363.554,134.206,364.224z"/>
		<path fill="none" stroke="#B7B3A5" stroke-width="0.7278" stroke-miterlimit="10" d="M134.129,366.831
			c-0.02,0.67-0.334,1.213-0.703,1.213c-0.368,0-0.651-0.543-0.631-1.213s0.334-1.213,0.703-1.213
			C133.867,365.618,134.149,366.161,134.129,366.831z"/>
		<path fill="none" stroke="#B7B3A5" stroke-width="0.7278" stroke-miterlimit="10" d="M134.141,369.737
			c-0.02,0.67-0.334,1.213-0.703,1.213c-0.368,0-0.651-0.543-0.631-1.213s0.334-1.213,0.703-1.213S134.161,369.067,134.141,369.737z
			"/>
		<path fill="none" stroke="#B7B3A5" stroke-width="0.7278" stroke-miterlimit="10" d="M149.068,356.399
			c-0.02,0.67-0.334,1.213-0.703,1.213c-0.368,0-0.651-0.543-0.631-1.213s0.334-1.213,0.703-1.213S149.088,355.729,149.068,356.399z
			"/>
		<path fill="none" stroke="#B7B3A5" stroke-width="0.7278" stroke-miterlimit="10" d="M148.992,359.008
			c-0.02,0.67-0.334,1.213-0.703,1.213c-0.369,0-0.651-0.543-0.632-1.213s0.334-1.213,0.703-1.213
			C148.729,357.795,149.012,358.338,148.992,359.008z"/>
		<path fill="none" stroke="#B7B3A5" stroke-width="0.7278" stroke-miterlimit="10" d="M148.916,361.615
			c-0.02,0.67-0.334,1.213-0.703,1.213s-0.651-0.543-0.631-1.213c0.02-0.67,0.334-1.213,0.703-1.213
			C148.652,360.402,148.935,360.945,148.916,361.615z"/>
		<path fill="none" stroke="#B7B3A5" stroke-width="0.7278" stroke-miterlimit="10" d="M148.839,364.224
			c-0.02,0.67-0.334,1.213-0.703,1.213c-0.368,0-0.651-0.543-0.631-1.213s0.334-1.213,0.703-1.213S148.859,363.554,148.839,364.224z
			"/>
		<path fill="none" stroke="#B7B3A5" stroke-width="0.7278" stroke-miterlimit="10" d="M148.763,366.831
			c-0.02,0.67-0.334,1.213-0.703,1.213c-0.369,0-0.651-0.543-0.632-1.213c0.02-0.67,0.334-1.213,0.703-1.213
			C148.5,365.618,148.782,366.161,148.763,366.831z"/>
		<path fill="none" stroke="#B7B3A5" stroke-width="0.7278" stroke-miterlimit="10" d="M148.774,369.737
			c-0.02,0.67-0.334,1.213-0.703,1.213c-0.369,0-0.651-0.543-0.632-1.213c0.02-0.67,0.334-1.213,0.703-1.213
			C148.511,368.524,148.794,369.067,148.774,369.737z"/>
		<path fill="none" stroke="#332709" stroke-width="0.7278" stroke-linecap="round" stroke-miterlimit="10" d="M131.598,376.656
			c0,0,13.394-10.007,22.085-2.365"/>
		<path fill="#4B411E" d="M133.434,352.338c0,0-0.364-1.89,2.288-2.834c2.652-0.945,12.228-1.681,13.13-0.21
			c0.902,1.47,0.754,2.939,0.754,2.939S139.835,352.443,133.434,352.338z"/>
	</g>
	<g>
		<path fill="#4B411E" d="M207.754,318.298l-0.305,13.691l-2.663,12.684c-1.2,3.624,1.499,7.36,5.316,7.36h45.522
			c3.192,0,5.78-2.588,5.78-5.78l0,0c0-2.481-1.583-4.686-3.935-5.479l-17.486-5.892c-5.217-1.758-9.173-6.061-10.488-11.406
			l-1.235-5.02L207.754,318.298z"/>
		<path fill="#4B411E" d="M217.389,322.659l6.795-0.711c0,0,1.42,8.723,6.188,12.982c4.767,4.26,17.748,7.911,17.748,7.911v4.462
			h-31.44L217.389,322.659z"/>
		<path fill="none" stroke="#332709" stroke-width="0.8114" stroke-linecap="round" stroke-miterlimit="10" d="M219.025,322.487
			l5.158-0.539c0,0,1.42,8.723,6.188,12.982c4.767,4.26,17.748,7.911,17.748,7.911v3.042"/>
		<path fill="#28240B" d="M206.128,350.817v1.762c0,2.814,2.282,5.097,5.097,5.097l0,0l1.591-2.79h2.525l1.685,2.79h3.846
			l1.591-2.79h2.526l1.685,2.79h3.846l1.591-2.79h2.526l1.685,2.79h3.846l1.591-2.79h2.526l1.685,2.79h3.846l1.591-2.79h2.526
			l1.685,2.79h1.133c2.215,0,4.01-1.796,4.01-4.011v-2.848H206.128z"/>
		<g>
			<path fill="#8B8959" d="M230.243,323.298l-6.538,1.299c-0.232,0.047-0.457-0.104-0.503-0.336l-0.044-0.22
				c-0.046-0.231,0.104-0.457,0.336-0.503l6.538-1.299c0.232-0.047,0.457,0.104,0.503,0.336l0.044,0.22
				C230.625,323.026,230.475,323.252,230.243,323.298z"/>
			<path fill="#8B8959" d="M229.251,325.262c-0.038,0.045-5.009,1.024-5.054,0.985c-0.175,0.035-0.386-0.114-0.42-0.289
				c-0.045-0.038-0.083-0.27-0.045-0.314c-0.033-0.174,1.166-1.605,1.34-1.641c0.039-0.045,5.01-1.023,5.055-0.985
				c0.174-0.035,0.385,0.115,0.42,0.289c0.045,0.038,0.082,0.271,0.043,0.315C230.625,323.796,229.425,325.228,229.251,325.262z"/>
			<path fill="#8B8959" d="M229.005,328.976c-0.077,0.09-3.481,0.749-3.571,0.672c-0.115,0.023-0.313-0.125-0.336-0.241
				c-0.09-0.077-0.121-0.321-0.045-0.411c-0.022-0.116,2.229-2.754,2.344-2.777c0.077-0.089,3.481-0.748,3.57-0.672
				c0.117-0.023,0.314,0.126,0.337,0.242c0.09,0.076,0.122,0.321,0.044,0.41C231.371,326.314,229.121,328.952,229.005,328.976z"/>
			<path fill="#8B8959" d="M229.739,333.419c-0.115,0.134-1.953,0.474-2.087,0.358c-0.059,0.012-0.242-0.136-0.253-0.193
				c-0.135-0.116-0.161-0.373-0.045-0.508c-0.012-0.059,3.29-3.902,3.348-3.914c0.115-0.133,1.952-0.474,2.087-0.357
				c0.058-0.012,0.241,0.136,0.252,0.193c0.135,0.116,0.161,0.373,0.046,0.507C233.098,329.563,229.797,333.407,229.739,333.419z"/>
			<path fill="#8B8959" d="M236.042,332.524l-4.351,5.051c-0.154,0.179-0.425,0.199-0.604,0.045l-0.17-0.146
				c-0.179-0.154-0.199-0.424-0.045-0.604l4.352-5.05c0.153-0.179,0.424-0.199,0.603-0.045l0.17,0.146
				C236.177,332.076,236.196,332.346,236.042,332.524z"/>
			<path fill="#8B8959" d="M239.655,334.726l-3.831,5.355c-0.137,0.189-0.4,0.233-0.59,0.098l-0.18-0.129
				c-0.189-0.137-0.234-0.4-0.098-0.59l3.832-5.354c0.135-0.189,0.398-0.233,0.589-0.097l0.18,0.128
				C239.748,334.273,239.791,334.537,239.655,334.726z"/>
			<path fill="#8B8959" d="M242.785,336.002l-3.313,5.658c-0.117,0.2-0.375,0.269-0.575,0.15l-0.19-0.111
				c-0.2-0.118-0.268-0.375-0.15-0.575l3.313-5.658c0.117-0.201,0.375-0.268,0.575-0.15l0.19,0.111
				C242.835,335.544,242.903,335.802,242.785,336.002z"/>
			<path fill="#8B8959" d="M244.934,336.548l-2.794,5.961c-0.1,0.213-0.351,0.303-0.563,0.203l-0.2-0.094
				c-0.211-0.1-0.302-0.35-0.203-0.561l2.794-5.961c0.1-0.213,0.352-0.303,0.562-0.205l0.201,0.096
				C244.941,336.085,245.033,336.337,244.934,336.548z"/>
			<path fill="#8B8959" d="M245.604,336.558l-2.275,6.266c-0.081,0.223-0.326,0.337-0.548,0.256l-0.211-0.076
				c-0.222-0.081-0.337-0.326-0.256-0.548l2.275-6.266c0.081-0.223,0.326-0.337,0.548-0.257l0.211,0.077
				C245.57,336.09,245.686,336.336,245.604,336.558z"/>
		</g>
		<path fill="#948E79" d="M228.53,319.86h-20.297c-0.805,0-1.457-0.652-1.457-1.458v-5.074c0-0.805,0.652-1.457,1.457-1.457h20.297
			c0.806,0,1.458,0.652,1.458,1.457v5.074C229.988,319.208,229.336,319.86,228.53,319.86z"/>
		<circle fill="none" stroke="#B7B3A5" stroke-width="0.8114" stroke-miterlimit="10" cx="221.648" cy="325.634" r="1.116"/>
		<circle fill="none" stroke="#B7B3A5" stroke-width="0.8114" stroke-miterlimit="10" cx="223.407" cy="330.84" r="1.116"/>
		<circle fill="none" stroke="#B7B3A5" stroke-width="0.8114" stroke-miterlimit="10" cx="226.584" cy="334.965" r="1.116"/>
		<circle fill="none" stroke="#B7B3A5" stroke-width="0.8114" stroke-miterlimit="10" cx="229.897" cy="339.224" r="1.116"/>
		<circle fill="none" stroke="#B7B3A5" stroke-width="0.8114" stroke-miterlimit="10" cx="234.225" cy="341.929" r="1.115"/>
		<circle fill="none" stroke="#B7B3A5" stroke-width="0.8114" stroke-miterlimit="10" cx="238.687" cy="343.483" r="1.116"/>
	</g>
	<path fill="#F1B279" d="M182.755,88.085c0,0,0.729-2.547,4.246-2.547s6.55,3.639,6.55,3.639s0.971,2.911,0.971,5.458
		c0,2.547-4.488,7.035-4.488,7.035l-2.622-8.372L182.755,88.085z"/>
	<path fill="#BFA976" stroke="#BFA976" stroke-width="0.1819" stroke-miterlimit="10" d="M202.648,96.819l0.843,0.527
		c3.144,1.965,5.21,5.265,5.604,8.951l0.103,0.954c0,0,14.191,29.597,17.831,38.208c3.639,8.612,8.656,11.719,8.127,18.801
		c-0.971,12.979-12.211,12.62-15.485,10.558c-3.275-2.062-13.02-12.741-15.567-19.897c-2.547-7.157-12.251-28.99-12.251-28.99
		L202.648,96.819z"/>
	<polygon fill="#401915" points="202.562,136.394 189.123,183.304 192.217,184.941 208.566,139.669 	"/>
	<path fill="#747445" d="M101.607,115.256c0,0-16.557,15.284-14.374,35.116c2.184,19.832-0.91,52.401,10.917,68.776
		s75.508,7.46,82.968-7.278c7.46-14.737,11.28-60.042,10.553-80.42s-15.102-36.207-52.765-36.207
		C101.244,95.242,101.607,115.256,101.607,115.256z"/>
	<path fill="#7E8352" d="M101.607,115.256c0,0,11.462-1.273,12.736,17.285c1.273,18.559,0.182,44.213,1.637,66.229
		s-5.276,21.287-15.465,22.197s-11.827-33.114-12.19-49.489s-4.548-27.656,1.819-39.482
		C96.513,120.168,101.607,115.256,101.607,115.256z"/>
	<path fill="#899561" d="M87.416,186.579c0,0-0.243,8.854,0.364,13.464s-3.639,13.585,4.246,15.405
		c7.884,1.819,16.132-0.85,17.588-5.701c1.456-4.853,2.911-25.23-0.849-31.052C93.117,183.789,87.416,186.579,87.416,186.579z"/>
	<path fill="#8E9859" d="M87.178,190.619c-0.891,0.331-1.844-0.335-1.831-1.286c0.02-1.499,0.317-3.693,1.558-5.949
		c2.226-4.047,23.269-8.094,24.281-5.261c0.765,2.143-0.438,5.675-1.069,7.269c-0.197,0.496-0.665,0.831-1.197,0.856
		C106.101,186.384,96.702,187.09,87.178,190.619z"/>
	<path fill="#596045" d="M187.411,93.299c0,0-10.631-14.428-38.221-15.44c-27.591-1.013-49.106,14.428-49.106,14.428
		s7.087,1.012,9.366,9.619c1.577,5.957,1.136,13.899,0.716,18.224c-0.173,1.786,1.208,3.339,3.001,3.374
		c5.123,0.101,16.699-0.481,38.808-5.145c32.4-6.834,34.931-13.669,34.931-13.669L187.411,93.299z"/>
	<path fill="#4A3F34" d="M137.211,83.116c0,0-3.187-6.56-0.511-10.84c2.675-4.281,18.525-4.854,19.595-0.931
		c1.07,3.924-0.089,9.899-0.089,9.899l1.516,0.178c0,0,3.032-10.344-0.625-13.109s-25.059-2.229-26.128,3.478
		c-1.07,5.707,2.675,10.255,2.675,10.255L137.211,83.116z"/>
	<path fill="#EDA793" d="M156.313,93.787l2.42-2.816c2.278-2.649,3.563-6.008,3.635-9.501l0.738-35.717l15.041-1.456l8.248,3.518
		l-0.364,37.724c0,0,0.85,6.429,7.642,9.219c-3.443,0.454-0.723,20.634-4.457,20.681C175.978,115.604,156.313,93.787,156.313,93.787
		z"/>
	<path fill="#BFA976" stroke="#BFA976" stroke-width="0.1819" stroke-miterlimit="10" d="M130.901,106.159l0.91-6.55
		c0,0,3.275-6.914,36.207-7.278c4.975-0.055,19.923,20.105,19.923,20.105s3.628-4.349,1.092-19.014
		c14.29,1.567,15.557,4.549,15.557,4.549s1.638,8.733,1.819,16.921c0.183,8.188-5.641,22.925-5.641,22.925
		s-4.002,21.833-4.548,29.476c-0.546,7.642-0.364,27.656-0.364,27.656l-56.767-0.182c0,0-2.547-53.856-2.729-58.769
		C136.177,131.085,130.537,113.8,130.901,106.159z"/>
	<g>
		<path fill="none" stroke="#7E6D43" stroke-width="0.5458" stroke-linecap="round" stroke-miterlimit="10" d="M158.192,123.535
			c0,0-2.274,8.643-2.274,11.645s8.188,10.826,9.644,12.281s10.371-10.917,10.371-10.917l-1.729-13.373"/>
		<polygon fill="#594933" points="176.673,125.813 157.738,124.354 157.738,120.896 176.673,122.356 		"/>
	</g>
	<g>
		<path fill="none" stroke="#7E6D43" stroke-width="0.3704" stroke-linecap="round" stroke-miterlimit="10" d="M200.833,126.56
			c0,0,0.463,7.755,0.208,10.36s-5.228,8.469-6.116,9.568c-0.89,1.098-4.529-10.644-4.529-10.644l2.045-11.408"/>
		<polygon fill="#594933" points="190.917,126.45 201.003,127.321 201.297,124.321 191.211,123.451 		"/>
	</g>
	<path fill="none" stroke="#7E6D43" stroke-width="0.5458" stroke-linecap="round" stroke-miterlimit="10" d="M188.426,112.921
		c0,0-0.553,9.533-0.188,14.9c0.363,5.368-2.449,21.762-2.449,21.762s-2.341,11.952-4.122,23.057
		c-0.273,1.706,0.937,4.687,0.7,6.306c-0.69,4.723-3.341,14.605-3.366,17.048"/>
	<path fill="none" stroke="#7E6D43" stroke-width="0.5458" stroke-linecap="round" stroke-miterlimit="10" d="M204.621,111.832
		c0,0-0.881,12.715-2.641,20.637c-1.761,7.922-3.717,18.876-3.717,18.876"/>
	<path fill="none" stroke="#7E6D43" stroke-width="0.5458" stroke-linecap="round" stroke-miterlimit="10" d="M179.354,106.995
		c0,0,4.747,3.991,5.178,6.796c0.432,2.804-0.323,22.543-1.402,28.584c-1.078,6.041-4.638,26.858-5.069,28.153
		c-0.431,1.294,0.432,4.638,0.432,7.011s-3.56,16.072-3.56,16.072"/>
	
		<ellipse transform="matrix(0.9805 0.1964 -0.1964 0.9805 27.4685 -34.2394)" fill="#CFBDB1" cx="186.395" cy="121.397" rx="0.546" ry="1.137"/>
	
		<ellipse transform="matrix(0.9805 0.1964 -0.1964 0.9805 29.7517 -33.8867)" fill="#CFBDB1" cx="185.758" cy="133.087" rx="0.546" ry="1.138"/>
	
		<ellipse transform="matrix(0.9805 0.1964 -0.1964 0.9805 31.4767 -33.5443)" fill="#CFBDB1" cx="184.894" cy="141.957" rx="0.546" ry="1.137"/>
	
		<ellipse transform="matrix(0.9805 0.1964 -0.1964 0.9805 33.8468 -32.8854)" fill="#CFBDB1" cx="182.756" cy="154.238" rx="0.546" ry="1.137"/>
	
		<ellipse transform="matrix(0.9805 0.1964 -0.1964 0.9805 36.46 -32.1301)" fill="#CFBDB1" cx="180.254" cy="167.793" rx="0.546" ry="1.137"/>
	
		<ellipse transform="matrix(0.9805 0.1964 -0.1964 0.9805 38.6072 -31.9532)" fill="#CFBDB1" cx="180.436" cy="178.71" rx="0.546" ry="1.137"/>
	
		<ellipse transform="matrix(0.9805 0.1964 -0.1964 0.9805 40.2663 -31.4008)" fill="#CFBDB1" cx="178.479" cy="187.352" rx="0.546" ry="1.137"/>
	<path fill="none" stroke="#7E6D43" stroke-width="0.5458" stroke-linecap="round" stroke-miterlimit="10" d="M169.458,173.185
		c0,0,13.399-1.165,23.983,1.068"/>
	<path fill="none" stroke="#7E6D43" stroke-width="0.5458" stroke-linecap="round" stroke-miterlimit="10" d="M169.847,169.786
		c0,0,7.088,2.719,12.817,2.428c5.729-0.292,8.447-1.359,8.447-1.359"/>
	<path fill="#BFA976" stroke="#BFA976" stroke-width="0.1819" stroke-miterlimit="10" d="M131.811,99.609l-4.609,8.005
		c0,0,0.485,4.124-0.606,7.157c-1.092,3.032-9.87,35.701-11.204,40.189c-1.334,4.488-2.062,11.523-0.97,15.163
		c0.614,2.047,2.61,3.71,5.836,4.255c5.109,0.863,10.182-1.714,12.681-6.253c1.497-2.717,3.276-6.176,4.65-9.526
		c2.912-7.096,3.32-38.431,3.32-38.431S145.76,106.826,131.811,99.609z"/>
	<polygon fill="#401915" points="181.846,140.183 132.72,192.947 126.898,189.126 174.568,139.273 	"/>
	<path fill="#BFA976" stroke="#BFA976" stroke-width="0.1819" stroke-miterlimit="10" d="M115.027,159.327
		c0,0,2.001-7.824,9.097-12.19c7.096-4.367,40.801-9.501,40.801-9.501s2.547,1.273,3.821,6.004c1.273,4.73,0.364,8.551,0.364,8.551
		s-38.207,22.289-43.53,22.238S115.027,170.244,115.027,159.327z"/>
	<path fill="#F0B29A" d="M167.199,150.008l15.638-5.906c3.633-1.372,4.729-1.679,5.923-5.375c0.122-0.377,0.245-0.748,0.366-1.104
		c0.254-0.739-0.07-4.037-0.185-4.81c-0.233-1.589,1.555-3.515,1.275-5.01c-0.361-1.931-1.967-3.383-3.924-3.551l-4.492-0.387
		c-0.451-0.039-0.906,0.008-1.34,0.138l-8.167,2.442l-1.998,0.813c0,0-3.083-0.171-3.683,3.555
		c-0.436,2.708-0.514,4.198-0.514,4.198l-3.721,3.897C162.377,138.909,167.108,141.457,167.199,150.008z"/>
	
		<line fill="none" stroke="#CEB29A" stroke-width="0.7772" stroke-linecap="round" stroke-miterlimit="10" x1="189.477" y1="130.405" x2="184.985" y2="133.671"/>
	<polyline fill="none" stroke="#CEB29A" stroke-width="0.7772" stroke-linecap="round" stroke-miterlimit="10" points="
		188.915,134.181 185.853,136.682 185.394,137.855 	"/>
	
		<line fill="none" stroke="#CEB29A" stroke-width="0.7772" stroke-linecap="round" stroke-miterlimit="10" x1="188.915" y1="137.906" x2="185.547" y2="140.611"/>
	<path opacity="0.5" fill="none" stroke="#CEB29A" stroke-width="0.7772" stroke-linecap="round" stroke-miterlimit="10" d="
		M182.849,128.779c0,0,1.486,2.298,1.486,4.055s-0.54,3.244-0.338,4.798c0.203,1.555,1.263,3.434,0.361,4.217"/>
	<path fill="none" stroke="#CEB29A" stroke-width="0.7772" stroke-linecap="round" stroke-miterlimit="10" d="M178.861,127.427
		c0,0,1.893-1.622,4.798-1.96"/>
	<path fill="#F1E3B2" d="M159.103,139.152c0,0,0.121-0.849,1.819-2.062s4.488-2.184,5.58-1.577s4.003,0.364,5.337,7.035
		c1.334,6.671-0.364,9.219-0.364,9.219l-6.671,3.882l-1.577-0.607c0,0,1.819-4.002,0-9.34
		C161.407,140.365,159.103,139.152,159.103,139.152z"/>
	<path fill="#BFA976" stroke="#BFA976" stroke-width="0.1819" stroke-miterlimit="10" d="M207.282,149.029
		c0,0-1.272,1.885,1.751,8.708c2.451,5.53,5.502,11.821,8.725,14.824c0.751,0.7,1.753,1.07,2.782,1.025l4.626-0.201
		c1.695-0.073,3.246-0.966,4.152-2.389l2.379-3.737c0.548-0.861,0.724-1.904,0.487-2.896c-0.881-3.68-0.493-2.882-3.148-10.217
		c-3.912-6.154-8.744-12.734-8.744-12.734L207.282,149.029z"/>
	<path fill="#F0B29A" d="M160.627,55.907c0,0-2.184-5.701-6.671-3.153c-4.488,2.547-3.032,14.07,0.849,16.375
		s6.792-0.122,6.792-0.122s1.334,5.58,4.367,8.976c3.033,3.396,11.553,8.188,17.498,8.188c5.943,0,12.342-8.309,12.827-14.252
		c0.485-5.943-0.121-18.073-0.121-18.073v-9.704c0,0-2.427-5.216-12.615-5.216c-10.189,0-22.198,3.639-22.198,3.639L160.627,55.907z
		"/>
	<path fill="#81542E" d="M157.283,44.054c0,0-1.213,5.216,0.243,9.098s4.124,5.337,4.124,5.337l0.849,5.58l3.275-1.091
		l-0.122-11.281c0,0,2.668-0.606,4.124-3.396s1.334-7.156,1.334-7.156s6.915-1.334,13.342-1.456
		c6.429-0.121,11.645,4.246,11.645,4.246v16.375l1.214-0.728c0,0,1.091-12.251,1.455-17.224
		c3.275-14.192-1.698-18.316-11.159-19.287c-9.461-0.97-25.594,8.733-25.594,8.733S155.342,34.351,157.283,44.054z"/>
	<path fill="#3B1F1C" d="M150.369,91.846c0,0-2.062-1.941-5.095-1.941c-3.032,0-3.76,4.852-3.76,4.852l3.639-0.121l24.145,32.381
		c1.919-0.103,3.843,0.572,5.469,1.631l2.166-0.474l3.032-1.516L150.369,91.846z"/>
	<path fill="#3B1F1C" d="M192.58,93.787c0,0,1.941-2.184,4.488-2.184c2.548,0,4.609,3.518,4.609,3.518l11.402,30.931l-1.305,0.94
		l-5.751-4.293C206.024,122.699,197.796,98.76,192.58,93.787z"/>
	<path fill="#B8CC93" d="M100.083,92.287c0,0-11.132-2.401-15.215-3.98c-8.828,6.107-6.92,13.866-6.29,22.953
		c0.993,14.319,11.145,18.214,11.145,18.214s8.202-5.376,20.231-8.583C112.166,104.322,109.157,94.428,100.083,92.287z"/>
	<path fill="#CAD9AF" d="M94.838,107.985c1.455,11.543-1.441,21.368-6.469,21.945c-5.028,0.577-10.284-8.313-11.739-19.855
		c0.354-0.095,1.559-0.171,1.506-0.762c-0.956-10.753,0.196-20.636,4.962-21.183C88.127,87.552,93.382,96.442,94.838,107.985z"/>
	<path fill="#D9CF9B" d="M155.979,92.063l0.185-1.661c0.019-0.168,0.074-0.33,0.163-0.474l2.367-3.846
		c0.247-0.402,0.715-0.611,1.18-0.527l10.021,1.815c4.499,0.815,5.1,1.684,9.951,5.93c0.377,1.629,2.501,9.614,1.82,11.038
		c0,0-11.75-11.579-24.498-11.007C156.465,93.364,155.901,92.761,155.979,92.063z"/>
	<polygon fill="#D9CF9B" points="194.389,93.23 195.506,104.199 190.842,100.521 	"/>
	<path fill="#F1E3B2" d="M192.963,88.55c-2.034,1.375-3.761-2.207-5.75-0.768l0.52,1.423c1.044,2.86,1.181,5.552,1.452,8.584
		l0.484,5.731c0,0,4.853-6.338,4.853-8.885c0-2.547-0.971-5.458-0.971-5.458S193.338,88.923,192.963,88.55z"/>
	<path fill="none" stroke="#7E6D43" stroke-width="0.5458" stroke-linecap="round" stroke-miterlimit="10" d="M122.043,148.419
		c0,0,3.889-3.582,13.66-5.317c9.771-1.735,23.416-3.932,23.416-3.932"/>
	<path fill="none" stroke="#7E6D43" stroke-width="0.5458" stroke-linecap="round" stroke-miterlimit="10" d="M219.751,143.519
		l2.669,0.606c0,0,3.518,1.698,10.674,13.585"/>
	<path fill="none" stroke="#7E6D43" stroke-width="0.5458" stroke-linecap="round" stroke-miterlimit="10" d="M137.875,142.669
		c0,0-3.881-2.426-12.251-0.849"/>
	<path fill="none" stroke="#7E6D43" stroke-width="0.5458" stroke-linecap="round" stroke-miterlimit="10" d="M136.784,98.032
		c0,0,10.068,0,11.766,14.192c1.698,14.192-0.825,20.043-0.825,20.043l-5.482,9.675"/>
	<path fill="#F1E3B2" d="M155.706,92.695c0,0,8.733,4.609,13.828,7.035c5.094,2.426,8.126,4.609,8.126,4.609l2.184-11.038
		c0,0-1.213-6.065-20.256-8.006C155.828,85.781,155.706,92.695,155.706,92.695z"/>
	<path opacity="0.7" fill="#B8CC93" d="M78.136,109.313c0,0,3.457,16.618,9.583,16.132c6.125-0.485,3.457-33.66-4.003-33.296
		c-7.459,0.364-2.123,28.262,2.305,27.353s2.184-16.981-0.485-18.255l-0.303,1.152c0,0,2.001,2.972,2.001,8.006
		c0,5.034,0.061,7.824-1.516,7.884c-1.577,0.061-4.245-9.825-4.488-15.89s0.606-9.097,2.305-9.158
		c1.698-0.061,6.004,4.063,6.429,14.616c0.424,10.553,0.25,16.524-2.547,16.739C82.685,124.96,78.136,109.313,78.136,109.313z"/>
	<path fill="none" stroke="#7E6D43" stroke-width="0.5458" stroke-linecap="round" stroke-miterlimit="10" d="M207.682,151.706
		c0,0-0.606,1.213,0.243,3.881c0.849,2.668,3.396,11.645,8.188,15.89"/>
	<path fill="#50594D" d="M155.19,43.66l1.729,1.911c0,0,5.641-4.276,13.828-6.55s24.744-2.274,28.384,1.092
		c4.231-1.917,0.448-21.658-4.913-22.016c-8.014-0.535-27.292,0.728-33.933,4.822C153.644,27.012,156.646,35.291,155.19,43.66z"/>
	<path fill="#B5A26E" d="M169.924,39.243l4.521-3.315c0,0,6.125-6.732,17.544-7.642c11.42-0.91,22.112-1.091,22.424,4.003
		s-17.44,7.824-17.44,7.824S194.736,37.332,169.924,39.243z"/>
	<path fill="#81542E" d="M165.349,62.249c0,0,1.819,8.37,6.004,10.614l5.495-1.839c0,0,4.111-5.945,10.419-6.066
		s7.825,4.955,7.825,4.955l1.066-0.264v-9.704l1.395-0.546c0,0,0.242,7.035,0.606,11.16c0,0,4.912,3.154,5.034,7.035
		c0.121,3.881-0.91,6.065-0.91,6.065s2.851,1.031,1.213,5.822c-1.638,4.791-4.063,3.699-4.063,3.699s-4.609,6.429-9.946,6.308
		c-5.337-0.121-7.217-4.427-7.217-4.427s-2.366,3.154-7.157,1.092c-4.792-2.062-3.214-5.701-3.214-5.701s-6.308,1.456-7.521-2.668
		s0.546-6.065,0.546-6.065s-2.547,0-2.79-3.335c-0.243-3.336,0.971-3.882,0.971-3.882l-0.485-10.735L165.349,62.249z"/>
	<path opacity="0.5" fill="#D6B29A" d="M152.067,59.095c0,0,0.485-4.548,3.639-4.73s4.367,3.578,4.488,5.519
		c0,0-3.032-0.424-3.032,1.759s3.093,1.819,3.093,1.819s0.849,4.367-1.88,4.549s-3.76-2.972-3.76-2.972s1.88,1.88,2.972,1.759
		c1.092-0.122,1.334-1.941,1.334-1.941s-2.547,0.303-3.093-2.305c-0.546-2.608,2.062-4.124,2.062-4.124s-0.667-3.033-2.366-3.214
		C153.826,55.032,152.067,59.095,152.067,59.095z"/>
	
		<ellipse transform="matrix(0.9516 0.3072 -0.3072 0.9516 40.6045 -35.9249)" fill="#7E6D43" cx="134.405" cy="111.003" rx="5.709" ry="7.883"/>
	
		<ellipse transform="matrix(0.9516 0.3072 -0.3072 0.9516 40.6063 -35.9261)" fill="#9A6D43" cx="134.405" cy="111.003" rx="4.908" ry="6.744"/>
	<path fill="none" stroke="#E3E8E8" stroke-width="0.9097" stroke-linecap="round" stroke-miterlimit="10" d="M116.163,120.896
		l-2.547,4.003c0,0-3.366-1.638-3.912,2.365c-0.546,4.003,4.458,2.547,5.367,0.546s-0.91-2.638-0.91-2.638"/>
	<g>
		<polygon fill="#9FA9B1" points="105.257,123.118 105.696,121.534 112.123,122.824 111.393,125.594 		"/>
		
			<ellipse transform="matrix(0.9874 0.1581 -0.1581 0.9874 23.4253 -14.6356)" fill="#9FA9B1" cx="103.731" cy="139.964" rx="14.814" ry="14.921"/>
		
			<ellipse transform="matrix(0.9874 0.158 -0.158 0.9874 23.1007 -14.7043)" fill="#BDC4C8" cx="104.002" cy="137.892" rx="14.814" ry="14.921"/>
		<path fill="#383D42" d="M105.093,121.778c2.875,0.415,5.424,1.042,7.42,2.032l1.466-3.58c-2.806-1.524-5.528-2.395-8.375-1.765
			L105.093,121.778z"/>
		<circle fill="none" stroke="#9FA9B1" stroke-width="0.5458" stroke-miterlimit="10" cx="104.108" cy="138.156" r="12.736"/>
	</g>
	<g>
		<path fill="#BF7449" stroke="#BF7449" stroke-width="0.1819" stroke-miterlimit="10" d="M232.516,297.878
			c0.355-7.479,5.485-39.563,5.485-39.563c0.815-3.511-0.494-9.103-2.636-11.561c-5.441-13.203-24.912-33.241-37.6-46.257
			l-1.543-2.892v-5.458h-57.856l-0.272,9.006c0,0-5.731,15.282-5.458,28.928c0.149,7.467-0.583,41.872-1.915,70.274
			c-0.433,9.228-0.281,21.029-0.379,27.985c-1.081,4.465-3.628,7.146-4.636,10.763c-1.145,4.107-0.393,4.711,2.559,8.577
			s20.807,0.604,24.673,0.604s4.5-4.712,3.113-8.699c-0.17-0.49-0.326-1.014-0.468-1.555c-1.166-4.447,0.162-9.688,1.194-14.07
			c1.32-5.602,1.264-13.828,3.305-19.365c1.239-5.642,1.866-11.426,1.87-17.255l0.907-6.194l1.301-6.021l0.905-6.854l6.754-38.736
			l0.904-3.274l1.205,1.092l36.7,34.696c-3.134,15.304-6.076,13.911-2.364,32.869c-0.182,0.372-3.563,12.67-2.867,16.236
			c0.496,2.541,1.753,3.941,3.51,4.576c0.023,0.208,0.048,0.413,0.07,0.623h16.859l0.025-0.642c1.537-0.06,2.551-0.101,2.551-0.101
			s3.548-0.818,3.821-6.459C232.332,307.091,232.256,303.318,232.516,297.878z"/>
		<path fill="none" stroke="#7E4826" stroke-width="0.5458" stroke-linecap="round" stroke-miterlimit="10" d="M173.925,224.696
			l38.036,36.141c-0.5,12.495-4.535,17.093,0.537,32.556c0.952,2.903-3.485,6.826-3.078,10.838
			c-1.822,2.691-1.259,8.161-0.515,11.501"/>
		<rect x="137.724" y="193.038" fill="#403126" width="58.859" height="6.376"/>
		<rect x="143.455" y="192.401" fill="#BF7449" width="1.638" height="7.732"/>
		<rect x="154.463" y="192.401" fill="#BF7449" width="1.637" height="7.732"/>
		<rect x="166.471" y="192.401" fill="#BF7449" width="1.638" height="7.732"/>
		<rect x="188.941" y="192.401" fill="#BF7449" width="1.638" height="7.732"/>
		<rect x="172.385" y="192.765" fill="#B7B1B1" width="8.733" height="7.549"/>
		<path fill="none" stroke="#7E4826" stroke-width="0.5458" stroke-linecap="round" stroke-miterlimit="10" d="M142.181,201.407
			l0.524,5.14c0.609,5.975-0.477,12-3.133,17.387l-2.395,4.856l-0.158,38.938l-4.077,29.256c-0.279,2.004-0.44,4.028-0.48,6.062
			l-0.75,28.121c-3.382,3.2-4.826,7.041-5.742,12.614"/>
		<path fill="#C47F57" d="M142.251,279.735c2.28,0,4.082-1.58,4.083-3.58l0.003-13.272c0-0.185-0.117-0.335-0.261-0.335H130.05
			c-0.144,0-0.261,0.15-0.261,0.335l-0.003,12.978c0,2.115,2.005,3.875,4.417,3.875H142.251z"/>
		<path fill="#A64826" d="M145.415,264.912h-14.929c-0.904,0-1.632-0.832-1.626-1.857l0.025-4.164
			c0.006-1.026,0.744-1.857,1.648-1.857h14.929c0.904,0,1.632,0.831,1.626,1.857l-0.025,4.164
			C147.057,264.08,146.319,264.912,145.415,264.912z"/>
		<path fill="none" stroke="#7E4826" stroke-width="0.5458" stroke-linecap="round" stroke-miterlimit="10" d="M137.178,228.79
			l3.912,1.274c0,0,3.275-4.094,5.185-13.191c1.911-9.098-0.182-15.556-0.182-15.556"/>
		<path fill="none" stroke="#7E4826" stroke-width="0.5458" stroke-linecap="round" stroke-miterlimit="10" d="M184.666,201.59
			c0,0,7.005-2.547,13.1-1.092"/>
		<path fill="none" stroke="#7E4826" stroke-width="0.5458" stroke-linecap="round" stroke-miterlimit="10" d="M173.172,224.333
			c0,0-1.456,3.275-1.858,6.095c-0.401,2.82-4.919,33.023-6.402,36.48"/>
		<path fill="none" stroke="#7E4826" stroke-width="0.5458" stroke-linecap="round" stroke-miterlimit="10" d="M211.152,261.48
			c0,0,2.376-2.716,7.468-4.243"/>
		<path fill="none" stroke="#7E4826" stroke-width="0.5458" stroke-linecap="round" stroke-miterlimit="10" d="M160.781,276.17
			c0,0-1.937,1.112-2.863,3.496c-0.926,2.384-2.596,4.132-2.596,4.132"/>
		<path fill="none" stroke="#7E4826" stroke-width="0.4055" stroke-linecap="round" stroke-miterlimit="10" d="M172.029,223.919
			l4.024,0.381c0,0,1.523-6.471,0.87-8.863c-0.652-2.394-0.489-3.916-0.489-3.916l1.359-2.827l-1.414-6.091l-3.045,0.271
			c0,0,1.686,4.297,1.577,5.112c-0.108,0.815-1.74,3.644-1.74,3.644s0.598,1.957,0.652,3.807
			C173.878,217.285,172.029,223.919,172.029,223.919z"/>
		<path fill="none" stroke="#7E4826" stroke-width="0.4055" stroke-linecap="round" stroke-miterlimit="10" d="M167.836,212.477
			c0,0,2.729-1.214,11.584-0.364"/>
		<path fill="none" stroke="#7E4826" stroke-width="0.4055" stroke-linecap="round" stroke-miterlimit="10" d="M166.805,215.872
			c0,0,9.583-0.303,13.707,0.364"/>
	</g>
	<path fill="#81542E" d="M171.368,48.737c0.201,0.415,0.763,0.477,1.052,0.119c0.759-0.941,2.232-2.335,4.29-2.335
		c1.966,0,3.33,1.273,4.064,2.208c0.301,0.382,0.9,0.294,1.076-0.159l0.429-1.107c0.081-0.21,0.044-0.448-0.1-0.622
		c-0.634-0.769-2.569-2.784-5.457-2.784c-3.015,0-4.851,3.148-5.348,4.125C171.285,48.355,171.283,48.561,171.368,48.737
		L171.368,48.737z"/>
	<path fill="#81542E" d="M197.075,52.098c-0.204,0.319-0.66,0.339-0.897,0.043c-0.558-0.699-1.665-1.719-3.446-1.869
		c-1.813-0.153-3.23,0.688-3.984,1.277c-0.301,0.235-0.743,0.1-0.862-0.264l-0.334-1.024c-0.066-0.205-0.009-0.429,0.149-0.576
		c0.646-0.597,2.475-2.026,4.982-1.814c2.628,0.222,4.034,2.833,4.431,3.702C197.191,51.743,197.177,51.94,197.075,52.098
		L197.075,52.098z"/>
	<path fill="#F0B29A" d="M180.853,74.751c-1.218-1.382-0.907-3.28,0.692-4.387c1.315-0.911,3.213-1.801,5.621-1.823
		c4.962-0.045,6.388,1.456,6.615,3.093c0.149,1.067-0.404,2.984-2.418,4.253c-1.076,0.679-1.942-2.74-3.969-2.661
		c-0.933,0.036-2.384,3.849-3.107,3.657C182.716,76.466,181.609,75.61,180.853,74.751z"/>
	<path fill="none" stroke="#BA7753" stroke-width="0.6724" stroke-linecap="round" stroke-miterlimit="10" d="M183.19,70.743
		c0,0,1.121,0.607,4.256,0.409c3.134-0.197,3.664-1.129,3.664-1.129"/>
	<linearGradient id="SVGID_5_" gradientUnits="userSpaceOnUse" x1="187.2695" y1="66.229" x2="187.2695" y2="53.8994">
		<stop  offset="0" style="stop-color:#CD7C53"/>
		<stop  offset="0.7669" style="stop-color:#F0B29A"/>
	</linearGradient>
	<path fill="url(#SVGID_5_)" d="M187.493,53.899l0.758,3.104c0,0,3.538,5.018,3.538,6.714s-2.636,2.311-5.09,2.491
		c-2.455,0.181-4.115-0.866-3.936-2.707c0.181-1.841,1.119-4.693,1.119-4.693"/>
	<g>
		<defs>
			<path id="SVGID_6_" d="M180.645,54.003c0,1.729-1.496,3.13-3.342,3.13c-1.847,0-3.343-1.401-3.343-3.13
				c0-1.729,1.708-2.069,3.555-2.069C179.36,51.934,180.645,52.275,180.645,54.003z"/>
		</defs>
		<clipPath id="SVGID_7_">
			<use xlink:href="#SVGID_6_"  overflow="visible"/>
		</clipPath>
		<path clip-path="url(#SVGID_7_)" fill="#EFECE8" d="M180.645,54.003c0,1.729-1.496,3.13-3.342,3.13
			c-1.847,0-3.343-1.401-3.343-3.13c0-1.729,1.708-2.069,3.555-2.069C179.36,51.934,180.645,52.275,180.645,54.003z"/>
		<ellipse clip-path="url(#SVGID_7_)" fill="#3D2C1B" cx="176.505" cy="53.933" rx="1.978" ry="2.373"/>
		<ellipse clip-path="url(#SVGID_7_)" cx="176.505" cy="53.933" rx="1.202" ry="1.781"/>
		<ellipse clip-path="url(#SVGID_7_)" fill="#8B8B8B" cx="177.615" cy="53.03" rx="0.637" ry="0.683"/>
	</g>
	<g>
		<defs>
			<path id="SVGID_8_" d="M189.016,53.785c-0.115,1.725,1.225,3.219,2.991,3.336c1.768,0.117,3.293-1.186,3.407-2.911
				s-1.498-2.173-3.266-2.291C190.382,51.802,189.13,52.06,189.016,53.785z"/>
		</defs>
		<clipPath id="SVGID_9_">
			<use xlink:href="#SVGID_8_"  overflow="visible"/>
		</clipPath>
		<path clip-path="url(#SVGID_9_)" fill="#EFECE8" d="M189.016,53.785c-0.115,1.725,1.225,3.219,2.991,3.336
			c1.768,0.117,3.293-1.186,3.407-2.911s-1.498-2.173-3.266-2.291C190.382,51.802,189.13,52.06,189.016,53.785z"/>
		<ellipse clip-path="url(#SVGID_9_)" fill="#3D2C1B" cx="191.561" cy="53.796" rx="1.977" ry="2.373"/>
		<ellipse clip-path="url(#SVGID_9_)" cx="191.243" cy="53.705" rx="1.202" ry="1.782"/>
		<ellipse clip-path="url(#SVGID_9_)" fill="#8B8B8B" cx="192.398" cy="53.03" rx="0.637" ry="0.683"/>
	</g>
	<path fill="#F0B29A" d="M196.796,132.493c-0.703-2.302,0.128-4.796,2.059-6.233c2.555-1.903,6.123-4.404,7.482-4.614
		c2.217-0.341,4.547,2.307,4.547,2.307l1.279,1.791c0,0,2.302-0.597,3.666,1.194s2.729,11.083,2.217,12.107
		c0.085,1.023,1.108,4.774,1.108,4.774s-5.798,4.689-10.913,5.03c-1.876-4.092-2.217-4.604-2.217-4.604s-2.624-1.503-4.073-2.697
		C200.831,140.625,198.378,137.68,196.796,132.493z"/>
	<polyline fill="none" stroke="#CEB29A" stroke-width="0.7772" stroke-linecap="round" stroke-miterlimit="10" points="
		204.473,122.552 208.031,127.271 209.114,127.735 	"/>
	
		<line fill="none" stroke="#CEB29A" stroke-width="0.7772" stroke-linecap="round" stroke-miterlimit="10" x1="201.532" y1="124.485" x2="204.627" y2="129.901"/>
	<path opacity="0.5" fill="none" stroke="#CEB29A" stroke-width="0.7772" stroke-linecap="round" stroke-miterlimit="10" d="
		M200.326,135.57c0,0,0.518-1.555,1.619-2.332c1.101-0.777,3.433-0.907,3.433-0.907s1.036-2.267,2.914-2.396
		c1.879-0.13,3.238-0.583,3.238-0.583"/>
	<path opacity="0.5" fill="none" stroke="#CEB29A" stroke-width="0.7772" stroke-linecap="round" stroke-miterlimit="10" d="
		M216.129,138.161c0,0-3.303,4.728-8.484,5.635"/>
	<polyline fill="none" stroke="#CEB29A" stroke-width="0.7772" stroke-linecap="round" stroke-miterlimit="10" points="
		198.206,126.652 200.608,131.525 200.527,132.531 	"/>
	<path fill="none" stroke="#CEB29A" stroke-width="0.7772" stroke-linecap="round" stroke-miterlimit="10" d="M212.163,125.743
		c0,0,1.635,2.119,2.541,3.609"/>
	<path fill="#F1E3B2" d="M205.802,145.884c0,0,1.069,0.615,7.468-2.524c6.399-3.139,4.501-4.216,4.501-4.216
		s0.674-1.054,1.425-0.012c0.751,1.042,2.608,3.532,3.003,5.261c0.394,1.729-0.729,4.579-6.218,6.935
		c-5.488,2.356-8.336,1.287-8.336,1.287S205.499,150.19,205.802,145.884z"/>
	<path fill="#545536" d="M123.795,190.639l4.832-4.166l6.832,4.916l-3.999,8.748C125.176,199.77,122.703,196.543,123.795,190.639z"
		/>
</g>
</svg>
