<?xml version="1.0" encoding="utf-8"?>
<!-- Generator: Adobe Illustrator 16.0.2, SVG Export Plug-In . SVG Version: 6.00 Build 0)  -->
<!DOCTYPE svg PUBLIC "-//W3C//DTD SVG 1.1//EN" "http://www.w3.org/Graphics/SVG/1.1/DTD/svg11.dtd">
<svg version="1.1" id="Layer_1" xmlns="http://www.w3.org/2000/svg" xmlns:xlink="http://www.w3.org/1999/xlink" x="0px" y="0px"
	 width="79.37px" height="178.58px" viewBox="0 0 79.37 178.58" enable-background="new 0 0 79.37 178.58" xml:space="preserve">
<g>
	<g>
		<path opacity="0.1" fill="#171211" d="M67.236,175.117c0,1.856-11.63,3.361-25.563,3.361c-13.933,0-24.893-1.505-24.893-3.361
			s10.96-3.361,24.893-3.361C55.606,171.756,67.236,173.261,67.236,175.117z"/>
	</g>
	<g>
		<g>
			<polygon points="36.976,155.041 39.873,164.658 36.589,166.409 33.005,156.181 			"/>
			<path fill="#2F2421" d="M33.554,162.739c0,0-0.633,3.551-3.04,5.965c-2.408,2.413-4.422,4.924-3.343,6.605
				c0,0,5.285-0.087,10.979-6.164l0.368,0.759l4.407-2.611l-3.048-6.277l-3.611,2.274l-0.023-0.77L33.554,162.739z"/>
			<g>
				<path d="M35.204,170.827c-5.347,4.94-7.803,3.934-8.225,3.997c0.035,0.176,0.098,0.34,0.191,0.485c0,0,5.285-0.087,10.979-6.164
					l0.368,0.759l4.407-2.611l-0.608-1.252C40.757,167.001,39.146,167.184,35.204,170.827z"/>
			</g>
		</g>
		<g>
			<polygon points="44.151,159.713 43.72,169.788 47.323,170.592 48.268,159.739 			"/>
			<path fill="#2F2421" d="M49.353,166.225c0,0,1.485,3.259,4.406,4.939c2.92,1.681,5.826,3.637,5.198,5.554
				c0,0-5.471,1.27-12.467-3.061l-0.169,0.833l-4.9-1.331l1.398-6.889l4.048,1.22l-0.166-0.749L49.353,166.225z"/>
			<g>
				<path d="M50.702,175.072c4.582,1.839,7.896,1.177,8.32,1.124c0.008,0.181-0.011,0.355-0.065,0.521c0,0-5.471,1.27-12.467-3.061
					l-0.169,0.833l-4.9-1.331l0.352-1.732C43.516,171.933,46.304,173.306,50.702,175.072z"/>
			</g>
		</g>
		<path fill="#5D5D5D" d="M53.854,87.541c-1.234,0.49-6.608,2.403-14.573,2.079c-6.441-0.263-8.299-1.64-8.299-1.64l-0.014-0.059
			l-0.093,0.007l-10.628,37.138l0.5,3.345l11.796,33.181c0,0,2.824,1.509,8.527-2.904l-10.125-33.146l8.555-20.063l4.318-0.054
			l4.29,22.271l-6.345,36.799c0,0,2.478,3.05,8.386,2.12l8.092-39.309L53.854,87.541z"/>
	</g>
</g>
<g>
	<g>
		<g>
			<path fill="#0A0A09" d="M50.706,84.306c1.963-0.482,2.916-1.115,2.938-1.123c0.575-0.217,0.499,0.413,0.563,1.08
				c0.084,0.88-0.051,1.351-0.567,1.532c-0.095,0.033-0.549,0.571-2.504,1.107C50.991,86.037,50.847,85.172,50.706,84.306z"/>
			<path fill="#0A0A09" d="M36.64,85.048c2.182,0.229,4.57,0.271,7.158,0.196c1.995-0.059,3.785-0.297,5.288-0.587
				c-0.05,0.902,0.054,1.797,0.186,2.689c-1.53,0.316-3.359,0.571-5.431,0.632c-0.843,0.024-1.667,0.029-2.472,0.015
				c-1.803-0.034-3.464-0.142-5.023-0.341C36.519,86.797,36.622,85.931,36.64,85.048z"/>
			<path fill="#0A0A09" d="M30.24,84.84c0.112-0.661,0.184-1.248,0.757-1.029c1.285,0.485,2.691,0.828,4.212,1.061
				c-0.053,0.861-0.167,1.715-0.282,2.568c-1.578-0.279-3.048-0.676-4.419-1.244C30.108,86.03,30.128,85.508,30.24,84.84z"/>
		</g>
		<path fill="#AEAEAE" d="M40.225,84.863l-0.064,3.504l5.077-0.303l0.06-3.252L40.225,84.863z M41.074,85.449l3.353-0.034
			l-0.04,2.149l-3.355,0.2L41.074,85.449z"/>
	</g>
	<g>
		<polygon fill="#E6BCA5" points="43.631,38.389 43.324,51.122 35.647,47.691 35.889,34.578 		"/>
		<path fill="#D4E8E9" d="M55.992,47.828c0,0-6.554,19.805-8.027,31.369c0,0,0.171,5.507-8.818,5.141
			c-6.35-0.259-8.18-1.616-8.18-1.616l-9.104-37.469c0,0,4.578-2.221,14.255-2.209c0,0-0.018-0.31,2.173,0.854
			c1.681,0.893,2.259,6.981,2.259,6.981s0.327-6.117,1.277-6.619c1.46-0.773,1.199-0.607,2.403-0.929
			c3.647,0.252,7.438,1.361,11.689,2.062L55.992,47.828z"/>
		<path fill="#9ECACB" d="M46.078,43.53c-0.621-0.085-1.237-0.157-1.848-0.199c-1.204,0.321-0.943,0.155-2.403,0.929
			c-0.257,0.136-0.468,0.688-0.639,1.414c0.608-0.086,1.219-0.161,1.841-0.173c0.662-0.013,1.532-0.152,2.342-0.202
			C45.493,44.665,45.726,44.06,46.078,43.53z"/>
		<path fill="#9ECACB" d="M37.53,45.785c0.144-0.012,0.287-0.021,0.438-0.021c0.468,0,0.897,0.061,1.296,0.163
			c0.097-0.011,0.193-0.019,0.289-0.03c-0.325-0.941-0.74-1.722-1.263-1.999c-2.19-1.163-2.173-0.854-2.173-0.854
			c-0.678-0.001-1.324,0.012-1.952,0.031c0.73,0.524,1.466,1.041,2.167,1.607C36.797,44.985,37.183,45.367,37.53,45.785z"/>
		<path fill="#F6CDB1" d="M37.237,6.671c-7.293,1.663-7.098,6.674-7.098,6.674s0.228,3.868,0.371,8.474
			c-0.675-0.928-1.816-1.316-2.987-0.814c-2.482,1.062-0.648,8.882,3.126,8.205c0.162,2.184,0.376,3.886,0.656,4.474
			c1.059,2.225,5.72,5.614,9.852,6.145c4.131,0.529,9.321-2.225,9.321-7.098s0.063-22.917,0.063-22.917S49.313,3.917,37.237,6.671z"
			/>
		<g>
			<path fill="#8E6537" d="M41.263,17.053c0,0-0.486,0.033-1.086,0.013c-0.607-0.012-1.337-0.033-1.971-0.01
				c-0.153,0.021-0.315,0.02-0.461,0.045c-0.145,0.031-0.301,0.031-0.436,0.078c-0.29,0.047-0.563,0.148-0.818,0.259
				c-0.259,0.105-0.489,0.227-0.656,0.322c-0.174,0.089-0.292,0.141-0.292,0.141s-0.005-0.116,0.02-0.321
				c0.022-0.208,0.078-0.505,0.269-0.815c0.077-0.17,0.197-0.331,0.353-0.479c0.143-0.166,0.317-0.316,0.527-0.435
				c0.2-0.142,0.432-0.223,0.671-0.302c0.238-0.085,0.487-0.098,0.734-0.133c0.241,0.009,0.493-0.01,0.72,0.043
				c0.231,0.033,0.453,0.089,0.655,0.167c0.408,0.148,0.752,0.35,1.019,0.562C41.048,16.604,41.263,17.053,41.263,17.053z"/>
		</g>
		<g>
			<path fill="#8E6537" d="M45.605,17.053c0,0,0.113-0.432,0.536-0.853c0.208-0.213,0.49-0.422,0.849-0.576
				c0.352-0.158,0.795-0.233,1.252-0.194c0.457,0.05,0.921,0.24,1.243,0.53c0.181,0.124,0.279,0.312,0.393,0.459
				c0.122,0.145,0.165,0.317,0.219,0.465c0.118,0.288,0.102,0.557,0.098,0.734c-0.01,0.18-0.033,0.282-0.033,0.282
				s-0.104-0.049-0.256-0.131c-0.152-0.081-0.337-0.211-0.557-0.312c-0.109-0.05-0.209-0.12-0.322-0.156
				c-0.114-0.035-0.214-0.099-0.326-0.114c-0.208-0.069-0.409-0.099-0.628-0.125c-0.433-0.049-1.019-0.027-1.528-0.014
				C46.042,17.073,45.605,17.053,45.605,17.053z"/>
		</g>
		<path opacity="0.4" fill="#C77761" d="M27.859,22.351c1.295-0.655,2.439,1.429,2.492,3.653c-1.059-0.159-1.238,1.074-0.647,1.946
			C27.602,28.396,26.486,23.046,27.859,22.351z"/>
		<g>
			<path fill="#E69483" d="M44.071,19.423c0.144,0.295,0.25,0.602,0.358,0.911c0.109,0.309,0.219,0.621,0.304,0.937
				c0.174,0.629,0.329,1.265,0.473,1.902c0.148,0.638,0.246,1.282,0.344,1.929c0.095,0.646,0.208,1.289,0.278,1.938l0.012,0.109
				l-0.09,0.043c-0.79,0.372-1.585,0.732-2.396,1.064c0.742-0.465,1.499-0.9,2.262-1.325l-0.078,0.151
				c-0.146-0.636-0.249-1.276-0.369-1.915c-0.131-0.637-0.208-1.283-0.332-1.92c-0.135-0.634-0.257-1.271-0.36-1.914
				c-0.054-0.321-0.144-0.63-0.199-0.951C44.218,20.062,44.148,19.742,44.071,19.423z"/>
		</g>
		<path fill="#FFFFFF" d="M46.091,32.178c-3.404,3.234-6.54-0.432-6.54-0.432L46.091,32.178z"/>
		<path fill="#8E6537" d="M50.679,11.182c1.513-0.199,4.313-3.217,3.217-6.365c0,0-0.273,1.711-2.669,1.711
			c0,0,1.369-0.547,1.643-1.369c0,0-1.711,1.027-5.749-1.437c-0.362-0.221-0.774-0.454-1.223-0.685
			c-0.607-0.346-1.235-0.64-1.87-0.848c-4.609-1.82-11.185-2.395-13.455,6.219c-0.099,0.299-0.125,0.485-0.125,0.485
			s-3.211-0.349-3.211,5.095c0,2.057,0.768,4.187,1.764,6.803c0.977,0.14,1.592,1.479,1.592,1.479l0.456,3.518
			c-0.002,0.959-0.061,2.566-0.398,3.423c-0.503,1.272-1.188,7.228,6.615,10.239c7.803,3.011,14.988-0.138,13.209-10.267
			c0,0,0.156,2.73-1.076,2.389c-1.231-0.343-0.077-3.875-5.968-3.217c-1.86-0.232-4.379-1.744-6.438,1.786
			c-1.613,2.764-4.571,0.867-4.8-6.126v-1.779c0.003-0.104,0.004-0.203,0.009-0.308l-0.009,0.021v-4.751
			c0,0,2.188-1.883,2.446-4.547c14.33,5.512,18.711-1.469,18.711-1.469S52.333,11.517,50.679,11.182z M38.428,30.688
			c3.063,0.933,5.312-0.318,5.312-0.318c1.783,1.395,4.134,1.276,4.134,1.276c0.342,0.41,1.301,3.49-1.984,4.723
			c-3.286,1.231-2.465-2.396-2.465-2.396l-1.3-0.206c0,0,0.505,2.813-2.396,2.533C35.485,35.89,38.428,30.688,38.428,30.688z"/>
		<path fill="#475059" d="M37.827,45.044c0,0,1.979,0.392,4.844-0.38l0.854,1.614l-1.487,2.13l2.891,29.922l-2.674,2.818
			l-3.252-2.385l0.217-30.139l-2.247-2.157l0.476-1.329"/>
		<polygon fill="#BFDAD9" points="33.158,42.939 36.326,48.046 38.551,43.908 33.922,40.908 		"/>
		<path fill="#474747" d="M28.775,90.183l13.769,2.819l1.192-4.445l1.192,4.12l10.191-2.928l-1.445-24.646l2.245-19.711
			l-9.842-1.862L41.46,68.066l-8.302-25.127c0,0-4.369-0.563-11.332,2.453L28.775,90.183z"/>
		<path fill="#373737" d="M33.158,42.939c0,0-1.78-0.241-2.865-0.024l-1.409,9.432l3.253,0.759L31.053,55.6L41.46,68.066
			L33.158,42.939z"/>
		<polyline fill="#373737" points="46.078,43.53 41.46,68.066 48.507,57.117 45.905,53.54 49.049,52.78 47.965,43.782 
			46.447,43.565 		"/>
		<polygon fill="#BFDAD9" points="46.847,43.076 44.49,48.281 41.827,44.26 46.016,41.471 		"/>
		<circle fill="#373737" cx="41.948" cy="71.59" r="1.03"/>
		<circle fill="#373737" cx="42.707" cy="80.426" r="1.03"/>
		<g>
			<path fill="#F6CDB1" d="M72.222,24.368c0.51,1.587,1.055,3.553,1.581,5.593c-1.695,0.347-3.384,0.727-5.068,1.123
				c-0.39-2.566-0.732-4.857-0.918-6.186c-0.675,0.295-2.118,0.59-3.572-1.285c-1.222-1.577-0.522-2.552,0.2-3.07
				c-0.168-0.503-0.36-1.28-0.583-2.452c-0.464-2.437,4.498-3.91,6.916-3.315c2.418,0.595,2.931,6.076,2.484,7.89
				C72.999,23.736,72.548,24.182,72.222,24.368z"/>
			<path fill="#D4E8E9" d="M74.525,28.885l-0.821-3.625l-6.835,1.28l0.582,3.599C69.809,29.715,72.167,29.299,74.525,28.885z"/>
			<path fill="#474747" d="M66.371,28.768l3.185,13.338l-18.407,2.658c-3.993,1.721,0.639,10.051,0.639,10.051l1.276-0.318
				l26.253-6.792l-4.747-20.199L66.371,28.768z"/>
		</g>
		<g>
			<path fill="#F6CDB1" d="M7.003,22.773c-0.51,1.586-1.055,3.552-1.581,5.592c1.695,0.348,3.384,0.728,5.067,1.123
				c0.391-2.566,0.733-4.857,0.919-6.185c0.675,0.294,2.118,0.589,3.572-1.286c1.222-1.576,0.521-2.551-0.2-3.07
				c0.167-0.503,0.36-1.28,0.583-2.451c0.464-2.438-4.498-3.91-6.916-3.316s-2.931,6.076-2.485,7.889
				C6.226,22.141,6.677,22.586,7.003,22.773z"/>
			<path fill="#D4E8E9" d="M4.699,27.289l0.821-3.624l6.835,1.28l-0.582,3.598C9.416,28.119,7.058,27.703,4.699,27.289z"/>
			<path fill="#474747" d="M12.854,27.173L9.669,40.51l18.407,2.658c3.993,1.722-0.639,10.052-0.639,10.052L26.161,52.9
				l-26.253-6.792l4.746-20.199L12.854,27.173z"/>
		</g>
		<g>
			<path fill="#1D1D24" d="M49.755,22.46c0,0-0.038-0.107-0.105-0.298c-0.06-0.188-0.173-0.45-0.308-0.749
				c-0.261-0.586-0.76-1.382-1.466-1.276c-0.094-0.019-0.448,0.078-0.523,0.133c-0.142,0.068-0.291,0.175-0.404,0.303
				c-0.229,0.265-0.369,0.607-0.463,0.916c-0.087,0.311-0.148,0.588-0.17,0.783c-0.026,0.199-0.041,0.313-0.041,0.313
				s-0.188-0.435-0.174-1.157c0.015-0.356,0.092-0.801,0.374-1.22c0.15-0.202,0.331-0.398,0.59-0.527
				c0.131-0.063,0.276-0.132,0.374-0.148l0.163-0.045c0.113-0.027,0.15-0.019,0.229-0.027c0.271-0.028,0.571,0.037,0.82,0.162
				c0.255,0.123,0.442,0.322,0.589,0.516c0.284,0.398,0.404,0.812,0.472,1.159C49.835,21.998,49.755,22.46,49.755,22.46z"/>
		</g>
		<g>
			<path fill="#1D1D24" d="M39.456,22.768c0,0-0.026-0.111-0.073-0.307c-0.04-0.193-0.125-0.466-0.229-0.776
				c-0.197-0.613-0.622-1.441-1.339-1.375l-0.065-0.003l-0.016-0.002h-0.005c0.059-0.008,0.014-0.002,0.025-0.003l-0.011,0.002
				l-0.042,0.006l-0.167,0.025c-0.13,0.011-0.168,0.054-0.251,0.073c-0.149,0.064-0.309,0.154-0.432,0.277
				c-0.253,0.246-0.427,0.574-0.551,0.871c-0.119,0.3-0.209,0.569-0.251,0.762c-0.047,0.195-0.074,0.307-0.074,0.307
				s-0.14-0.451-0.052-1.168c0.051-0.354,0.172-0.785,0.487-1.175c0.162-0.189,0.36-0.367,0.619-0.479
				c0.129-0.048,0.292-0.117,0.39-0.126l0.166-0.031l0.042-0.008l0.01-0.002l0.042-0.005h0.026h0.104
				c0.271-0.002,0.57,0.06,0.81,0.211c0.252,0.138,0.421,0.357,0.556,0.562c0.249,0.425,0.326,0.85,0.358,1.202
				C39.585,22.316,39.456,22.768,39.456,22.768z"/>
		</g>
	</g>
</g>
</svg>
