<?xml version="1.0" encoding="utf-8"?>
<!-- Generator: Adobe Illustrator 16.0.2, SVG Export Plug-In . SVG Version: 6.00 Build 0)  -->
<!DOCTYPE svg PUBLIC "-//W3C//DTD SVG 1.1//EN" "http://www.w3.org/Graphics/SVG/1.1/DTD/svg11.dtd">
<svg version="1.1" id="Layer_1" xmlns="http://www.w3.org/2000/svg" xmlns:xlink="http://www.w3.org/1999/xlink" x="0px" y="0px"
	 width="90.71px" height="178.58px" viewBox="0 0 90.71 178.58" enable-background="new 0 0 90.71 178.58" xml:space="preserve">
<g>
	<path opacity="0.1" fill="#171211" d="M59.969,171.758c0,1.928-10.498,3.491-23.074,3.491c-12.577,0-22.469-1.563-22.469-3.491
		c0-1.927,9.893-3.49,22.469-3.49C49.471,168.268,59.969,169.831,59.969,171.758z"/>
	<g>
		<polygon fill="#5C202C" points="39.534,156.573 38.451,166.751 34.396,166.996 35.04,155.959 		"/>
		<path fill="#2F2421" d="M32.857,162.297c0,0-2.123,3.039-5.567,4.271c-3.444,1.231-6.53,2.718-6.141,4.74
			c0,0,5.385,2.149,13.684-1.105l0.056,0.862l5.55-0.572l-0.464-7.131l-4.603,0.593l0.296-0.726L32.857,162.297z"/>
		<g>
			<path d="M31.15,170.524c-7.474,2.344-9.539,0.369-9.992,0.25c-0.037,0.179-0.043,0.358-0.009,0.533c0,0,5.385,2.149,13.684-1.105
				l0.056,0.862l5.55-0.572l-0.092-1.422C38.367,169.307,36.661,168.797,31.15,170.524z"/>
		</g>
	</g>
	<g>
		<polygon fill="#5C202C" points="27.867,145.403 20.817,153.048 23.369,156.097 31.373,148.185 		"/>
		<path fill="#2F2421" d="M28.001,154.018c0,0-0.889,3.563,0.496,6.845c1.385,3.28,2.575,6.77,0.766,7.857
			c0,0-5.523-2.667-8.64-10.768l-0.697,0.542l-3.312-4.333l5.766-4.487l2.655,3.676l0.355-0.702L28.001,154.018z"/>
		<g>
			<path d="M23.29,161.89c2.701,4.521,5.978,6.222,6.375,6.464c-0.112,0.147-0.244,0.272-0.402,0.366c0,0-5.523-2.667-8.64-10.768
				l-0.697,0.542l-3.312-4.333l1.45-1.129C19.221,154.6,20.696,157.551,23.29,161.89z"/>
		</g>
	</g>
	<path fill="#7C786F" d="M52.554,108.186l-2.42-25.388c-0.845,0.332-6.717,2.485-15.686,2.142c-6.858-0.262-8.834-1.636-8.834-1.636
		l-0.083-0.318l-0.623,0.012l4.433,54.905l-6.687,9.666c0,0,0.098,4.063,5.771,7.292l1.938-2.486l0.658,9.313
		c0,0,2.192,2.625,9.829,1.021l-1.485-21.877l12.858-16.487C54.387,122.399,53.353,114.198,52.554,108.186z M38.29,124.97
		l-2.055-30.28l3.953,0.671l2.622,23.077L38.29,124.97z"/>
	<g>
		<g>
			<path fill="#0A0A09" d="M46.979,84.808c2.129-0.541,3.163-1.25,3.188-1.259c0.624-0.242,0.54,0.462,0.608,1.207
				c0.09,0.983-0.057,1.51-0.618,1.713c-0.103,0.038-0.595,0.639-2.716,1.241C47.284,86.743,47.13,85.775,46.979,84.808z"/>
			<path fill="#0A0A09" d="M31.72,85.657c2.367,0.253,4.958,0.297,7.765,0.209c2.165-0.068,4.105-0.337,5.736-0.663
				c-0.055,1.008,0.056,2.008,0.198,3.005c-1.661,0.355-3.645,0.643-5.892,0.713c-0.914,0.028-1.808,0.035-2.681,0.019
				c-1.955-0.035-3.756-0.152-5.448-0.374C31.587,87.611,31.701,86.643,31.72,85.657z"/>
			<path fill="#0A0A09" d="M24.78,85.432c0.122-0.738,0.201-1.395,0.822-1.152c1.393,0.542,2.917,0.923,4.566,1.18
				c-0.059,0.963-0.183,1.917-0.309,2.871c-1.712-0.311-3.305-0.752-4.792-1.385C24.635,86.763,24.657,86.179,24.78,85.432z"/>
		</g>
		<path fill="#AEAEAE" d="M35.609,85.445l-0.075,3.917l5.507-0.345l0.07-3.634L35.609,85.445z M36.529,86.099l3.636-0.042
			l-0.046,2.401l-3.64,0.229L36.529,86.099z"/>
	</g>
</g>
<g>
	<g>
		<path fill="#DCBCA6" d="M38.822,41.008l-0.341,6.6c0,0,0.199,1.961-4.346,2.223c-4.161,0.239-4.158-2.835-4.158-2.835
			l0.268-10.058L38.822,41.008z"/>
		<path fill="#F2CEB2" d="M31.827,6.241c-8.15,1.792-7.932,7.193-7.932,7.193s0.253,4.168,0.414,9.135
			c-0.754-1.001-2.03-1.418-3.339-0.878c-2.774,1.145-0.724,9.573,3.494,8.845c0.182,2.354,0.42,4.187,0.734,4.822
			c1.184,2.397,6.393,6.051,11.009,6.621c4.617,0.572,10.419-2.397,10.419-7.649s0.07-24.702,0.07-24.702S45.323,3.272,31.827,6.241
			z"/>
		<ellipse fill="#222228" cx="33.221" cy="22.17" rx="1.181" ry="2.072"/>
		<ellipse fill="#222228" cx="43.166" cy="22.626" rx="1.181" ry="2.073"/>
		<g>
			<path fill="#83653C" d="M36.32,17.626c0,0-0.169,0.049-0.417,0.108c-0.25,0.059-0.583,0.129-0.938,0.188
				c-0.714,0.114-1.473,0.17-2.054,0.16c-0.14,0.005-0.286-0.006-0.418-0.013c-0.126,0.011-0.274-0.035-0.4-0.027
				c-0.135-0.012-0.283-0.037-0.423-0.028c-0.148-0.009-0.313-0.024-0.462-0.002c-0.152,0.014-0.328,0.005-0.48,0.022
				c-0.138,0.032-0.29,0.044-0.413,0.063c-0.25,0.036-0.435,0.051-0.435,0.051s-0.044-0.161-0.047-0.432
				c-0.014-0.279,0.025-0.666,0.234-1.087c0.09-0.222,0.241-0.423,0.429-0.626c0.18-0.214,0.41-0.392,0.674-0.543
				c0.259-0.173,0.551-0.268,0.856-0.354c0.303-0.09,0.611-0.095,0.919-0.116c0.293,0.03,0.604,0.033,0.871,0.123
				c0.277,0.066,0.535,0.165,0.764,0.29c0.468,0.235,0.832,0.561,1.1,0.884c0.263,0.334,0.432,0.658,0.524,0.914
				C36.301,17.453,36.32,17.626,36.32,17.626z"/>
		</g>
		<g>
			<path fill="#83653C" d="M41.179,17.487c0,0-0.007-0.163,0.05-0.403c0.051-0.245,0.167-0.555,0.373-0.879
				c0.213-0.312,0.518-0.632,0.947-0.857c0.415-0.238,0.971-0.367,1.557-0.337c0.298,0.043,0.595,0.074,0.875,0.212
				c0.288,0.099,0.534,0.274,0.747,0.462c0.229,0.172,0.366,0.405,0.497,0.611c0.137,0.206,0.188,0.428,0.233,0.627
				c0.097,0.399,0.027,0.747-0.032,0.987c-0.061,0.238-0.135,0.377-0.135,0.377s-0.171-0.024-0.398-0.071
				c-0.112-0.024-0.253-0.044-0.377-0.081c-0.126-0.039-0.294-0.036-0.428-0.058c-0.139-0.016-0.267-0.047-0.397-0.03
				c-0.125,0.007-0.228-0.013-0.328,0.016c-0.093,0.008-0.173,0.019-0.251,0.03c-0.068-0.001-0.152,0.01-0.228,0
				c-0.312-0.034-0.894-0.145-1.502-0.285c-0.301-0.071-0.597-0.148-0.821-0.211C41.337,17.536,41.179,17.487,41.179,17.487z"/>
		</g>
		<path opacity="0.4" fill="#B57662" d="M21.347,23.141c1.446-0.706,2.726,1.541,2.785,3.938c-1.184-0.171-1.384,1.158-0.724,2.098
			C21.058,29.659,19.813,23.891,21.347,23.141z"/>
		<g>
			<path fill="#D39484" d="M39.464,19.986c0.186,0.306,0.319,0.631,0.458,0.96c0.141,0.327,0.278,0.662,0.389,0.999
				c0.21,0.676,0.398,1.359,0.577,2.045c0.165,0.689,0.272,1.387,0.384,2.084c0.11,0.698,0.202,1.398,0.272,2.101l0.022,0.221
				l-0.177,0.075c-0.892,0.379-1.799,0.728-2.727,1.036c0.807-0.551,1.633-1.063,2.475-1.542l-0.154,0.296
				c-0.17-0.683-0.32-1.367-0.451-2.055l-0.189-1.033c-0.059-0.345-0.102-0.693-0.182-1.033c-0.132-0.685-0.254-1.373-0.354-2.068
				c-0.044-0.35-0.128-0.683-0.172-1.035C39.589,20.688,39.525,20.339,39.464,19.986z"/>
		</g>
		<g>
			<path fill="#D39484" d="M33.082,32.718c0,0,0.624,0.18,1.551,0.4c0.926,0.223,2.153,0.508,3.39,0.667
				c0.31,0.032,0.618,0.092,0.923,0.104c0.306,0.013,0.606,0.063,0.897,0.057c0.291,0.002,0.575,0.029,0.842,0.011
				c0.266-0.017,0.525,0.004,0.757-0.028c0.469-0.037,0.869-0.06,1.141-0.121c0.277-0.042,0.442-0.057,0.442-0.057
				s-0.142,0.076-0.401,0.193c-0.258,0.124-0.636,0.279-1.114,0.401c-0.236,0.08-0.5,0.107-0.779,0.158
				c-0.279,0.056-0.575,0.073-0.883,0.089c-0.616,0.042-1.273-0.007-1.924-0.08c-0.647-0.099-1.289-0.229-1.872-0.412
				c-0.586-0.172-1.116-0.384-1.559-0.586C33.608,33.104,33.082,32.718,33.082,32.718z"/>
		</g>
		<path fill="#83653C" d="M35.619,12.438c2.01,1.044,5.257,2.684,5.257,2.684c-6.494,0.149-11.132-3.131-11.132-3.131
			c0,3.131-3.711,5.667-3.711,5.667v5.936l0.023,0.028c0.002,0.065,0.117,2.428,0.12,2.493l-1.49-0.088l-0.663-3.626
			c-0.236-0.286-0.753-0.796-1.526-0.902c-1.103-2.796-1.953-5.071-1.953-7.269c0-5.816,3.557-5.443,3.557-5.443
			s0.852-6.051,11.829-5.891c10.206,0.149,13.76,10.364,13.76,10.364C43.659,16.54,35.619,12.438,35.619,12.438z"/>
	</g>
	<path fill="#F5D7D7" d="M51.194,49.61c0,0-0.777,23.082-2.325,34.797c0,0-5.928,2.559-15.368,2.188
		c-6.669-0.262-8.591-1.637-8.591-1.637l-9.562-37.957c0,0,4.809-2.249,14.972-2.238c0,0-0.018-0.314,2.283,0.864
		c1.765,0.905,2.372,7.073,2.372,7.073s0.344-6.197,1.342-6.706c1.534-0.782,1.26-0.615,2.524-0.941
		c3.831,0.255,7.812,1.379,12.278,2.089L51.194,49.61z"/>
	<polygon fill="#EEBABA" points="41.588,44.797 39.113,50.069 36.316,45.996 40.715,43.17 	"/>
	<polygon fill="#EEBABA" points="27.211,44.658 30.539,49.832 32.875,45.64 28.013,42.601 	"/>
	<path fill="#F6CDB1" d="M80.909,34.061c0,0,0.382-9.937,1.24-9.937s1.145,2.3,1.049,3.956c-0.095,1.656,6.581-2.852,5.533,0.92
		c0,0,2.002,0.276,0.476,2.484c0,0,1.908,1.38-0.285,2.392c0,0,1.908,0.92-0.954,2.024c-2.861,1.104-4.388,2.3-4.388,2.3
		L80.909,34.061z"/>
	<path fill="#F6CDB1" d="M3.489,75.745c0,0,7.221,14.363,17.469,17.822l0.441-4.734c0,0-5.55-4.525-10.324-12.583
		C6.3,68.19,3.489,75.745,3.489,75.745z"/>
	<path fill="#F6CDB1" d="M18.864,92.633c0,0,5.636,4.643,4.266-4.976c0,0,7.412-1.492,0.762-2.034c0,0,7.3-2.79-0.515-1.424
		c0,0,5.806-6.362-2.772-0.085c0,0-1.715,1.441-1.332,5.667L18.864,92.633z"/>
	<path fill="#F5D7D7" d="M15.348,47.002L0.86,75.731c0,0,8.068,12.039,14.022,15.107l3.792-5.458c0,0-6.71-8.343-8.232-11.726
		l8.984-12.89L15.348,47.002z"/>
	<path fill="#F5D7D7" d="M47.386,57.692l19.949,2.739c0,0,11.695-14.087,17.991-21.815l-5.106-4.309c0,0-14.021,13.973-17.113,16.14
		l-12.729-3.446L47.386,57.692z"/>
	<polygon fill="#EEBABA" points="11.499,89.468 17.239,83.119 19.438,85.546 14.038,91.922 	"/>
	<polygon fill="#EEBABA" points="83.787,41.088 77.832,35.542 80.273,33.182 86.289,37.792 	"/>
</g>
</svg>
