<?xml version="1.0" encoding="utf-8"?>
<!-- Generator: Adobe Illustrator 16.0.2, SVG Export Plug-In . SVG Version: 6.00 Build 0)  -->
<!DOCTYPE svg PUBLIC "-//W3C//DTD SVG 1.1//EN" "http://www.w3.org/Graphics/SVG/1.1/DTD/svg11.dtd">
<svg version="1.1" id="Layer_1" xmlns="http://www.w3.org/2000/svg" xmlns:xlink="http://www.w3.org/1999/xlink" x="0px" y="0px"
	 width="283.46px" height="283.46px" viewBox="0 0 283.46 283.46" enable-background="new 0 0 283.46 283.46" xml:space="preserve">
<g>
	<path fill-rule="evenodd" clip-rule="evenodd" fill="#17847D" d="M141.793,284.117c-42.362-0.001-84.725-0.001-127.086-0.001
		c-9.84,0-13.851-4.075-13.85-14.001C0.862,185.281,0.861,100.447,0.86,15.613C0.858,7.676,3.406,3.608,9.517,2.034
		c1.249-0.322,2.591-0.386,3.89-0.386C99.226,1.628,185.045,1.623,270.864,1.63c7.943,0,12.507,4.5,12.509,12.361
		c0.017,85.929,0.021,171.857,0.011,257.786c-0.001,7.832-4.584,12.33-12.534,12.333
		C227.831,284.125,184.812,284.117,141.793,284.117z"/>
	<path fill-rule="evenodd" clip-rule="evenodd" fill="#21A8B1" d="M23.366,155.515c-0.043-12.584-0.117-25.17-0.124-37.758
		c-0.018-29.663-0.008-59.327-0.003-88.99c0.001-4.779,0.014-4.788,4.612-4.788c76.075-0.001,152.149-0.002,228.224,0
		c4.936,0,4.939,0.012,4.939,4.786c0.004,76.184,0.007,152.368,0.009,228.552c0,4.437-0.011,4.445-4.41,4.446
		c-10.727,0.003-21.455-0.083-32.181,0.05c-2.663,0.033-3.593-0.643-3.548-3.447c0.158-10.179-0.177-20.367,0.158-30.536
		c0.168-5.094-5.561-11.631-11.196-11.418c-5.938,0.228-11.173,5.269-11.2,11.401c-0.047,10.179-0.104,20.36,0.049,30.538
		c0.041,2.754-0.788,3.501-3.507,3.472c-12.805-0.136-25.614-0.128-38.419-0.005c-2.664,0.024-3.585-0.645-3.54-3.448
		c0.16-9.958-0.091-19.924,0.104-29.881c0.119-6.09-5.601-12.659-11.489-12.139c-5.967,0.525-10.811,5.368-10.849,12.038
		c-0.057,9.96-0.098,19.924,0.044,29.882c0.038,2.65-0.606,3.592-3.427,3.561c-12.915-0.143-25.832-0.134-38.747-0.001
		c-2.649,0.027-3.325-0.809-3.292-3.359c0.132-10.067,0.116-20.14,0.033-30.209c-0.069-8.464-7.734-13.934-15.241-11
		c-4.172,1.632-7.031,5.822-7.046,10.528c-0.034,10.289-0.086,20.579,0.039,30.867c0.03,2.47-0.726,3.174-3.167,3.15
		c-11.383-0.111-22.767-0.067-34.15-0.013c-1.812,0.009-2.829-0.296-2.821-2.474c0.082-25.063,0.09-50.127,0.118-75.189
		c2.037-0.144,3.297-1.522,4.621-2.847c13.998-14.016,28.005-28.022,42.016-42.025c4.112-4.109,4.804-4.138,9.001,0.024
		c7.928,7.858,15.851,15.723,23.666,23.694c3.455,3.522,7.222,6.688,10.834,10.028c3.651,3.376,8.987,3.27,13.253-0.022
		c1.129-0.871,2.091-1.927,3.096-2.933c21.44-21.434,42.864-42.878,64.333-64.282c1.234-1.232,2.404-3.61,4.368-2.697
		c1.653,0.767,0.93,3.175,0.933,4.872c0.04,14.884,0.062,29.767-0.003,44.651c-0.018,3.885,1.23,7.007,4.234,9.509
		c3.125,2.603,6.601,2.834,10.187,1.518c3.581-1.316,5.57-4.096,6.104-7.882c0.167-1.195,0.112-2.403,0.112-3.607
		c0.003-25.28-0.195-50.563,0.135-75.839c0.087-6.629-5.301-11.573-11.357-11.504c-25.716,0.293-51.436,0.109-77.153,0.135
		c-6.192,0.007-10.251,3.257-10.946,8.607c-0.811,6.247,3.727,11.681,10.199,11.935c5.575,0.218,11.162,0.053,16.743,0.058
		c9.631,0.008,19.262,0.002,28.893,0.003c0.984,0,1.973-0.049,2.953,0.042c0.95,0.09,2.151-0.056,2.54,1.057
		c0.372,1.064-0.565,1.794-1.184,2.538c-0.488,0.588-1.057,1.109-1.597,1.652c-18.495,18.495-36.99,36.99-55.486,55.485
		c-0.542,0.541-1.1,1.065-1.647,1.602c-1.818,1.782-3.604,1.802-5.44,0.006c-2.582-2.526-5.121-5.094-7.676-7.646
		c-8.517-8.508-17.009-17.041-25.545-25.53c-6.404-6.367-11.711-6.363-18.135,0.038c-12.714,12.669-25.38,25.385-38.095,38.052
		C26.168,153.941,25.251,155.461,23.366,155.515z"/>
	<path fill-rule="evenodd" clip-rule="evenodd" fill="#FEFFFF" d="M23.366,155.515c14.392-14.385,28.735-28.816,43.2-43.125
		c4.667-4.616,11.136-4.407,16.1,0.453c11.103,10.871,22.093,21.854,33.106,32.816c3.721,3.703,3.71,3.758,7.29,0.189
		c19.292-19.227,38.574-38.467,57.853-57.708c0.363-0.365,0.873-0.682,0.685-1.832c-1.259,0-2.625,0.001-3.989,0
		c-15.54-0.017-31.08,0.034-46.619-0.077c-7.448-0.054-12.323-6.138-11.041-13.433c0.951-5.411,5.169-8.75,11.358-8.808
		c7.55-0.072,15.101-0.03,22.653-0.03c18.056-0.002,36.118,0.235,54.167-0.113c7.495-0.145,13.119,4.967,13.004,13.244
		c-0.353,25.274-0.101,50.557-0.108,75.837c-0.002,7.638-4.189,12.294-10.971,12.309c-6.416,0.017-11.275-4.627-11.305-11.067
		c-0.072-15.429-0.034-30.86-0.041-46.29c0-1.484,0-2.967,0-4.451c-0.342-0.191-0.682-0.381-1.023-0.571
		c-3.742,3.902-7.416,7.871-11.237,11.694c-19.405,19.42-38.837,38.818-58.291,58.192c-4.855,4.834-11.373,4.83-16.326,0.006
		c-11.444-11.145-22.834-22.346-34.258-33.511c-3.199-3.128-3.22-3.111-6.276-0.058c-14.943,14.923-29.884,29.849-44.829,44.773
		c-0.983,0.982-1.951,2.51-3.128,0.177C23.348,174.593,23.357,165.054,23.366,155.515z"/>
</g>
</svg>
