<?xml version="1.0" encoding="utf-8"?>
<!-- Generator: Adobe Illustrator 16.0.2, SVG Export Plug-In . SVG Version: 6.00 Build 0)  -->
<!DOCTYPE svg PUBLIC "-//W3C//DTD SVG 1.1//EN" "http://www.w3.org/Graphics/SVG/1.1/DTD/svg11.dtd">
<svg version="1.1" id="Layer_1" xmlns="http://www.w3.org/2000/svg" xmlns:xlink="http://www.w3.org/1999/xlink" x="0px" y="0px"
	 width="1196.22px" height="836.22px" viewBox="0 0 1196.22 836.22" enable-background="new 0 0 1196.22 836.22"
	 xml:space="preserve">
<g>
	<path fill-rule="evenodd" clip-rule="evenodd" fill="#185D78" d="M-0.385,473.523c0.575-0.652,1.149-1.306,1.724-1.959
		c2.63,0.891,2.244,3.125,2.127,5.093c-0.911,15.45-0.922,30.895,0.008,46.344c0.118,1.964,0.498,4.207-2.152,5.073
		c-0.569-0.356-1.138-0.712-1.707-1.068C-0.385,509.179-0.385,491.352-0.385,473.523z"/>
	<path fill-rule="evenodd" clip-rule="evenodd" fill="#1B9BC5" d="M1.322,528.074C0.431,509.237,0.41,490.4,1.339,471.563
		c0.102-0.89,0.204-1.781,0.306-2.672c0.699-1.214-0.085-2.682,0.665-3.886c3.972-24.174,12.354-46.762,24.747-67.839
		c17.118-29.114,40.087-52.561,68.831-70.328c3.155-1.95,3.14-1.958,1.743-5.365c-8.885-21.674-14.682-44.105-16.59-67.497
		c-5.438-66.651,13.465-125.455,57.711-175.62c35.57-40.329,80.295-65.217,133.218-74.546
		c82.142-14.48,161.961,15.201,214.427,74.455c3.722,4.204,7.27,8.562,11.065,13.046c5.995-5.868,11.937-11.616,18.349-16.858
		c33.89-27.712,72.591-44.046,116.227-47.313c61.157-4.579,114.571,14.236,159.94,55.575c15.947,14.531,29.176,31.288,40.092,49.886
		c1.926,3.281,1.955,3.264,5.291,1.852c82.926-35.11,175.353-25.728,248.855,26.366c54.68,38.753,89.198,91.429,104.166,156.817
		c5.871,25.647,7.458,51.669,5.262,77.791c-4.809,57.215-25.921,107.812-63.838,151c-39.98,45.536-90.021,73.761-149.718,84.427
		c-29.977,5.356-60.04,5.028-90.026-0.395c-4.808-0.869-4.733-0.813-7.302,3.299c-34.236,54.797-83.351,85.998-147.792,91.955
		c-32.2,2.977-63.193-2.919-92.669-16.384c-0.852-0.389-1.718-0.749-2.563-1.153c-1.258-0.603-2.026-0.205-2.562,1.053
		c-0.855,2.013-1.741,4.017-2.718,5.973c-31.054,62.196-80.16,101.811-147.857,118.148c-7.47,1.803-15.016,2.706-22.749,2.59
		c-14.383-0.217-28.783-0.416-43.154,0.042c-13.164,0.419-25.876-1.647-38.354-5.366c-67.967-20.255-115.434-63.301-142.677-128.727
		c-0.24-0.577-0.553-1.142-0.68-1.744c-0.479-2.274-1.799-2.351-3.823-1.948c-16.332,3.245-32.814,4.358-49.45,3.392
		c-33.267-1.933-64.227-11.394-92.434-29.101C46.795,642.052,16.504,598.575,3.74,542.844C2.628,537.988,1.56,533.09,1.322,528.074z
		"/>
	<path fill-rule="evenodd" clip-rule="evenodd" fill="#185D78" d="M2.31,465.006c0.409,1.403,0.091,2.682-0.665,3.886
		C1.224,467.486,1.557,466.21,2.31,465.006z"/>
	<path fill-rule="evenodd" clip-rule="evenodd" fill="#FFFFFE" d="M684.646,358.226c-2.814,0-5.63-0.031-8.444,0.008
		c-3.682,0.051-3.765,0.06-4.447,3.801c-1.399,7.68-2.642,15.39-4.055,23.067c-4.438,24.105-8.042,48.365-13.187,72.339
		c-1.412,6.579-3.53,12.974-6.606,18.991c-6.525,12.765-16.872,19.719-31.284,20.511c-6.444,0.354-12.813,0.181-18.997-1.921
		c-3.444-1.17-3.813-1.742-2.683-5.087c1.25-3.699,2.728-7.321,3.986-11.019c0.75-2.202,1.894-2.997,4.223-2.121
		c3.879,1.46,7.956,1.618,12.029,1.186c5.741-0.61,9.803-3.671,12.443-8.78c3.931-7.604,5.681-15.849,7.181-24.16
		c4.908-27.196,9.77-54.401,14.649-81.603c0.083-0.461,0.193-0.918,0.258-1.382c0.498-3.564,0.374-3.754-3.189-3.817
		c-3.596-0.064-7.193-0.055-10.789-0.03c-2.259,0.016-3.132-1.081-2.76-3.244c0.716-4.154,1.446-8.307,2.181-12.458
		c0.396-2.245,1.809-3.061,4.009-3.015c3.438,0.071,6.88,0.034,10.319-0.003c3.896-0.042,3.887-0.066,4.735-4.005
		c0.79-3.663,1.585-7.325,2.418-10.979c0.208-0.911,0.558-1.79,0.859-2.677c7.24-21.332,21.316-29.778,43.277-28.847
		c3.909,0.166,7.793,0.644,11.537,1.85c3.021,0.973,3.241,1.383,2.219,4.381c-1.26,3.696-2.604,7.365-3.989,11.017
		c-1.227,3.236-1.537,3.5-4.819,2.689c-3.23-0.798-6.466-1.012-9.761-0.966c-7.994,0.111-13.151,4.332-16.218,11.363
		c-1.818,4.169-2.613,8.669-3.448,13.12c-0.508,2.704-0.255,2.992,2.511,3.031c5.628,0.081,11.259-0.004,16.888,0.044
		c4.543,0.04,4.756,0.306,4.007,4.919c-0.575,3.544-1.336,7.06-1.856,10.611c-0.34,2.322-1.607,3.204-3.814,3.18
		c-3.127-0.034-6.255-0.008-9.382-0.008C684.646,358.216,684.646,358.221,684.646,358.226z"/>
	<path fill-rule="evenodd" clip-rule="evenodd" fill="#FFFFFE" d="M358.865,405.955c0,10.78,0.021,21.56-0.01,32.34
		c-0.013,4.258-0.039,4.366-4.196,5.346c-14.613,3.443-29.309,6.251-44.448,5.647c-6.267-0.25-12.438-0.945-18.45-2.813
		c-16.827-5.23-24.01-18.753-22.411-35.481c1.339-14.017,9.53-23.032,22.109-28.375c5.934-2.52,12.201-3.835,18.672-4.008
		c7.657-0.205,15.288-0.041,22.9,1.049c3.578,0.513,3.614,0.266,3.642-3.412c0.098-12.666-5.319-18.826-18.023-19.803
		c-11.227-0.864-22.099,0.979-32.441,5.575c-0.998,0.444-1.953,0.985-2.949,1.432c-1.373,0.615-2.51,0.278-3.061-1.141
		c-1.581-4.075-3.101-8.173-4.607-12.276c-0.63-1.717-0.049-3.064,1.495-3.983c1.072-0.638,2.131-1.332,3.278-1.805
		c16.914-6.964,34.377-9.15,52.264-4.958c15.071,3.533,23.51,13.508,25.546,28.745c1.166,8.722,0.47,17.47,0.664,26.206
		c0.086,3.903,0.014,7.812,0.014,11.717C358.856,405.955,358.861,405.955,358.865,405.955z"/>
	<path fill-rule="evenodd" clip-rule="evenodd" fill="#FFFFFE" d="M482.594,399.298c-9.999,0-19.999-0.008-29.998,0.003
		c-5.558,0.005-5.558,0.018-4.772,5.332c0.045,0.309,0.083,0.619,0.127,0.929c2.165,15.234,11.093,23.711,26.458,24.779
		c10.525,0.731,20.895-0.123,30.884-3.946c4.005-1.533,4.332-1.291,5.807,2.68c1.142,3.072,2.279,6.149,3.308,9.262
		c1.082,3.272,0.783,3.903-2.434,5.417c-5.71,2.688-11.783,4.104-18.007,4.869c-10.594,1.301-21.235,1.684-31.698-0.691
		c-19.618-4.452-32.347-16.239-36.824-36.153c-3.217-14.309-2.918-28.599,2.037-42.474c6.899-19.318,20.986-29.678,41.271-31.653
		c6.077-0.592,12.163-0.332,18.145,1.213c16.242,4.194,25.886,14.956,30.348,30.704c2.322,8.196,2.612,16.638,1.984,25.097
		c-0.314,4.229-0.828,4.633-5.231,4.645c-10.468,0.029-20.936,0.01-31.404,0.01C482.594,399.312,482.594,399.305,482.594,399.298z"
		/>
	<path fill-rule="evenodd" clip-rule="evenodd" fill="#FFFFFE" d="M1038.078,399.3c-10.47,0-20.939-0.025-31.409,0.015
		c-3.595,0.014-3.613,0.092-3.334,3.716c0.119,1.557,0.228,3.127,0.527,4.653c2.632,13.401,11.157,21.238,25.093,22.53
		c10.664,0.988,21.228,0.251,31.375-3.635c0.729-0.28,1.454-0.575,2.199-0.805c1.765-0.544,3.043-0.064,3.688,1.779
		c1.392,3.979,2.767,7.965,4.23,11.918c0.702,1.893-0.052,3.055-1.688,3.744c-2.587,1.09-5.161,2.291-7.854,3.032
		c-14.239,3.923-28.742,4.722-43.133,1.593c-20.963-4.559-33.474-17.865-37.393-38.953c-2.255-12.135-1.801-24.259,1.562-36.192
		c5.951-21.128,22.578-34.236,44.475-35.177c5.334-0.229,10.63-0.059,15.819,1.273c18.056,4.635,27.744,16.973,31.563,34.583
		c1.535,7.078,1.526,14.274,1.008,21.462c-0.298,4.132-0.664,4.451-4.851,4.468c-10.625,0.039-21.252,0.013-31.878,0.013
		C1038.078,399.312,1038.078,399.306,1038.078,399.3z"/>
	<path fill-rule="evenodd" clip-rule="evenodd" fill="#FFFFFE" d="M701.793,394.145c0.239-10.575,1.446-20.615,5.938-29.97
		c7.968-16.597,21.496-25.101,39.564-26.516c11.967-0.938,23.355,1.133,33.471,8.125c8.396,5.804,14.146,13.653,17.275,23.286
		c5.271,16.218,5.569,32.63,0.063,48.787c-6.495,19.056-20.171,29.484-40.217,31.451c-11.796,1.158-23.057-0.444-33.315-6.831
		c-12.072-7.515-18.231-18.898-21.14-32.394C702.274,404.716,702.039,399.253,701.793,394.145z"/>
	<path fill-rule="evenodd" clip-rule="evenodd" fill="#FFFFFE" d="M576.244,337.355c11.479-0.316,22.314,2.26,32.495,7.545
		c4.774,2.479,4.795,2.608,3.018,7.503c-1.014,2.79-2.014,5.586-3.112,8.342c-1.392,3.495-1.824,3.731-5.116,2.119
		c-5.938-2.908-12.144-4.993-18.632-6.138c-5.527-0.975-11.083-2.015-16.724-0.566c-2.154,0.553-4.141,1.407-5.934,2.693
		c-4.881,3.499-6.658,11.725-0.299,16.457c3.18,2.365,6.764,3.896,10.451,5.195c6.627,2.335,13.312,4.51,19.927,6.878
		c3.98,1.426,7.723,3.374,11.257,5.724c10.091,6.709,13.789,16.267,12.077,27.957c-2.24,15.3-12.601,25.492-28.626,27.979
		c-17.553,2.725-34.232,0.025-49.663-9.13c-5.053-2.998-5.051-2.992-3.131-8.36c1.105-3.089,2.087-6.227,3.32-9.264
		c1.045-2.571,1.859-2.786,4.295-1.463c1.509,0.82,2.933,1.794,4.405,2.682c8.752,5.28,18.28,7.979,28.454,8.446
		c4.268,0.197,8.437-0.353,12.285-2.362c3.832-2.001,6.308-5.02,6.883-9.434c0.482-3.699-0.575-6.766-3.474-9.191
		c-2.316-1.937-4.958-3.289-7.773-4.247c-5.617-1.913-11.273-3.709-16.925-5.514c-5.217-1.666-10.262-3.679-15.128-6.245
		c-19.58-10.327-17.222-35.214-6.422-46.289c6.897-7.073,15.415-10.438,25.062-11.288
		C571.54,337.182,573.899,337.355,576.244,337.355z"/>
	<path fill-rule="evenodd" clip-rule="evenodd" fill="#FFFFFE" d="M216.954,337.372c11.652-0.302,22.617,2.389,32.908,7.818
		c4.194,2.212,4.262,2.476,2.654,6.886c-1.124,3.082-2.219,6.178-3.455,9.216c-1.163,2.856-1.793,3.161-4.593,1.773
		c-6.211-3.081-12.718-5.268-19.524-6.417c-5.371-0.907-10.793-1.918-16.268-0.428c-2.452,0.667-4.735,1.623-6.635,3.328
		c-4.87,4.369-4.772,11.322,0.213,15.545c1.926,1.631,4.162,2.746,6.464,3.748c6.031,2.62,12.354,4.401,18.567,6.502
		c5.19,1.755,10.281,3.737,14.984,6.601c16.494,10.042,19.43,32.327,6.158,46.484c-6.93,7.393-15.855,10.552-25.551,11.347
		c-16.282,1.336-31.759-1.588-45.84-10.351c-4.057-2.524-4.085-2.586-2.486-7.07c1.154-3.237,2.228-6.507,3.487-9.703
		c1.211-3.072,1.976-3.339,4.889-1.521c5.056,3.153,10.198,6.131,15.919,7.884c7.826,2.397,15.769,3.958,23.995,2.319
		c3.628-0.723,6.797-2.311,9.184-5.222c4.11-5.017,3.348-11.789-1.777-15.722c-2.254-1.73-4.81-2.93-7.485-3.824
		c-5.48-1.833-10.982-3.604-16.49-5.352c-5.221-1.656-10.264-3.666-15.126-6.245c-19.607-10.399-17.08-35.363-6.313-46.313
		c6.929-7.047,15.453-10.386,25.09-11.251C212.248,337.194,214.609,337.372,216.954,337.372z"/>
	<path fill-rule="evenodd" clip-rule="evenodd" fill="#FFFFFE" d="M888.495,393.859c0.241-10.448,1.666-20.13,6.114-29.161
		c7.995-16.23,21.294-25.051,39.009-27.024c10.767-1.199,21.551-0.49,32.061,2.565c1.199,0.349,2.394,0.722,3.578,1.121
		c2.008,0.677,2.619,1.891,1.796,3.977c-1.433,3.632-2.632,7.356-4.029,11.002c-1.228,3.201-1.575,3.445-4.838,2.551
		c-6.378-1.746-12.849-2.561-19.451-2.537c-14.801,0.053-24.203,6.802-28.589,20.942c-3.374,10.878-3.375,21.89-0.028,32.777
		c3.758,12.224,13.679,19.528,27.046,20.117c7.384,0.325,14.665-0.264,21.725-2.738c3.531-1.237,3.856-1.03,5.181,2.403
		c1.351,3.497,2.643,7.02,3.846,10.57c0.989,2.919,0.781,3.45-2.174,4.512c-6.353,2.279-12.932,3.67-19.659,4.134
		c-8.922,0.615-17.825,0.497-26.519-1.989c-18.801-5.377-28.997-18.566-33.335-36.976
		C888.932,404.606,888.688,398.972,888.495,393.859z"/>
	<path fill-rule="evenodd" clip-rule="evenodd" fill="#FFFFFE" d="M403.87,371.499c0,22.821,0,45.643,0,68.464
		c0,1.251,0.045,2.504-0.022,3.751c-0.168,3.076-0.537,3.552-3.583,3.608c-5.156,0.097-10.316-0.013-15.474,0.033
		c-2.417,0.021-3.396-1.143-3.292-3.464c0.049-1.091-0.008-2.188-0.008-3.281c0-46.269,0-92.537,0-138.806c0-0.156,0-0.313,0-0.469
		c0.02-6.194,0.02-6.2,6.168-6.211c4.064-0.007,8.129-0.057,12.192,0.022c3.592,0.071,3.88,0.425,4.005,4.136
		c0.043,1.249,0.014,2.501,0.014,3.751C403.87,325.855,403.87,348.677,403.87,371.499z"/>
	<path fill-rule="evenodd" clip-rule="evenodd" fill="#FFFFFE" d="M842.35,348.787c1.692-1.373,3.084-2.605,4.578-3.696
		c8.285-6.047,17.614-7.653,27.591-6.339c2.008,0.265,4.016,0.614,5.983,1.093c3.77,0.917,3.979,1.261,2.799,4.757
		c-1.249,3.697-2.578,7.37-3.969,11.017c-1.289,3.383-1.697,3.618-5.204,3.026c-4.049-0.684-8.043-0.621-12.09,0.16
		c-8.076,1.558-13.362,6.348-16.502,13.763c-2.485,5.869-3.107,12.097-3.151,18.352c-0.116,16.408-0.05,32.817-0.056,49.226
		c0,1.095,0.046,2.191-0.021,3.281c-0.184,3.025-0.597,3.558-3.629,3.627c-4.998,0.112-10.002,0.106-15,0.003
		c-2.972-0.062-3.539-0.711-3.767-3.57c-0.074-0.932-0.025-1.875-0.025-2.812c-0.001-31.567-0.001-63.134-0.001-94.701
		c0-0.938-0.042-1.878,0.02-2.813c0.201-3.019,0.671-3.613,3.602-3.671c4.998-0.1,10.001,0.005,15.001-0.034
		c2.193-0.017,3.046,1.093,3.15,3.156C841.754,344.453,841.332,346.348,842.35,348.787z"/>
	<path fill-rule="evenodd" clip-rule="evenodd" fill="#1B9CC5" d="M336.673,413.29c0,4.061,0.038,8.121-0.011,12.182
		c-0.042,3.512-0.074,3.564-3.391,4.217c-7.53,1.479-15.122,2.186-22.807,1.766c-2.363-0.13-4.652-0.593-6.894-1.252
		c-7.737-2.273-11.656-6.985-11.99-14.27c-0.403-8.781,2.93-14.219,10.58-17.401c3.357-1.396,6.876-2.02,10.452-2.397
		c7.204-0.762,14.319,0.272,21.451,1.059c1.92,0.212,2.665,1.052,2.625,2.981c-0.087,4.37-0.027,8.744-0.027,13.116
		C336.666,413.29,336.669,413.29,336.673,413.29z"/>
	<path fill-rule="evenodd" clip-rule="evenodd" fill="#1C9CC5" d="M472.538,382.312c-7.168-0.003-14.338,0.044-21.506-0.024
		c-3.028-0.029-3.341-0.4-2.801-3.282c0.982-5.259,2.739-10.259,6.029-14.544c6.119-7.968,14.56-9.665,23.877-8.242
		c8.309,1.27,13.639,6.457,16.664,14.059c0.968,2.434,1.5,5.081,1.927,7.68c0.66,4.013,0.349,4.32-3.618,4.345
		C486.252,382.345,479.395,382.313,472.538,382.312z"/>
	<path fill-rule="evenodd" clip-rule="evenodd" fill="#1C9CC5" d="M1027.863,382.311c-7.014,0.001-14.028,0.041-21.042-0.018
		c-3.297-0.027-3.601-0.4-2.962-3.476c0.41-1.977,0.981-3.932,1.633-5.845c4.87-14.303,15.671-19.092,29.368-16.561
		c7.448,1.376,12.354,6.31,15.309,13.159c1.301,3.015,2.085,6.209,2.285,9.5c0.177,2.923-0.03,3.187-3.083,3.216
		C1042.202,382.355,1035.032,382.309,1027.863,382.311z"/>
	<path fill-rule="evenodd" clip-rule="evenodd" fill="#1B9CC5" d="M725.71,393.695c-0.213-7.972,0.727-15.839,3.926-23.28
		c6.71-15.609,28.901-19.486,40.265-7.077c2.793,3.049,4.655,6.662,5.802,10.581c3.86,13.203,3.939,26.46-0.074,39.633
		c-5.302,17.398-19.638,19.852-32.172,16.565c-7.012-1.839-11.305-6.909-13.979-13.442
		C726.472,409.33,725.521,401.636,725.71,393.695z"/>
</g>
</svg>
