<?xml version="1.0" encoding="utf-8"?>
<!-- Generator: Adobe Illustrator 16.0.2, SVG Export Plug-In . SVG Version: 6.00 Build 0)  -->
<!DOCTYPE svg PUBLIC "-//W3C//DTD SVG 1.1//EN" "http://www.w3.org/Graphics/SVG/1.1/DTD/svg11.dtd">
<svg version="1.1" id="Layer_1" xmlns="http://www.w3.org/2000/svg" xmlns:xlink="http://www.w3.org/1999/xlink" x="0px" y="0px"
	 width="708.66px" height="425.2px" viewBox="0 0 708.66 425.2" enable-background="new 0 0 708.66 425.2" xml:space="preserve">
<g>
	<g>
		<path fill="#FFFFFF" d="M520.229,65.213h188.616l-1.815-2.381c3.293-3.208,3.88-8.314,1.56-11.94
			c-1.989-3.108-5.801-4.64-9.521-3.772c-0.004-0.27-0.155-5.311-4.169-7.678c-2.475-1.461-4.969-1.048-5.719-0.892
			c4.871-12.598-1.369-27.028-13.502-31.652c-11.947-4.553-25.544,1.951-29.944,14.512c-6.037-5.019-14.027-6.348-20.73-3.362
			c-7.152,3.186-9.905,9.973-10.467,11.456c-14.684-8.933-31.775-9.015-43.375-0.161c-7.688,5.869-10.836,14.039-12.099,18.253
			c-4.602-5.002-11.787-6.042-17.063-2.73c-4.382,2.751-6.832,8.119-6.255,13.682C530.574,60.769,525.402,62.991,520.229,65.213z"/>
		<path fill="#FFFFFF" d="M192.114,111.735H3.498l1.815-2.38c-3.292-3.208-3.878-8.314-1.558-11.94
			c1.989-3.108,5.801-4.64,9.52-3.773c0.003-0.27,0.154-5.31,4.168-7.678c2.477-1.46,4.97-1.047,5.721-0.892
			c-4.873-12.599,1.368-27.029,13.501-31.652c11.948-4.553,25.543,1.951,29.944,14.511c6.038-5.018,14.027-6.347,20.731-3.361
			c7.153,3.186,9.904,9.974,10.465,11.456c14.684-8.933,31.776-9.015,43.376-0.16c7.688,5.868,10.835,14.039,12.098,18.253
			c4.601-5.002,11.789-6.042,17.064-2.729c4.383,2.75,6.833,8.118,6.254,13.681C181.77,107.292,186.942,109.514,192.114,111.735z"/>
	</g>
	<g>
		<g>
			<g>
				<g>
					<polygon fill="#B7E3DE" points="541.863,304.384 541.271,304.122 544.968,295.142 545.56,295.402 					"/>
				</g>
			</g>
			<g>
				<g>
					<polygon fill="#B7E3DE" points="535.806,299.876 535.399,299.36 542.706,293.184 543.113,293.699 					"/>
				</g>
			</g>
			<g>
				<g>
					<polygon fill="#B7E3DE" points="532.468,292.971 532.339,292.317 541.581,290.363 541.711,291.016 					"/>
				</g>
			</g>
			<g>
				<g>
					<polygon fill="#B7E3DE" points="541.675,287.965 532.613,285.25 532.791,284.611 541.853,287.326 					"/>
				</g>
			</g>
			<g>
				<g>
					<polygon fill="#B7E3DE" points="543.013,285.246 536.208,278.485 536.654,278.007 543.458,284.767 					"/>
				</g>
			</g>
			<g>
				<g>
					<polygon fill="#B7E3DE" points="545.419,283.482 542.431,274.224 543.04,274.015 546.029,283.273 					"/>
				</g>
			</g>
			<g>
				<g>
					<polygon fill="#B7E3DE" points="548.977,283.185 548.343,283.078 549.854,273.441 550.488,273.551 					"/>
				</g>
			</g>
			<g>
				<g>
					<polygon fill="#B7E3DE" points="551.625,284.525 551.111,284.126 556.778,276.32 557.291,276.721 					"/>
				</g>
			</g>
			<g>
				<g>
					<polygon fill="#B7E3DE" points="553.37,286.985 553.094,286.384 561.615,282.197 561.893,282.799 					"/>
				</g>
			</g>
			<g>
				<g>
					
						<rect x="553.818" y="289.533" transform="matrix(0.9991 0.0414 -0.0414 0.9991 12.4814 -22.8785)" fill="#B7E3DE" width="9.434" height="0.666"/>
				</g>
			</g>
			<g>
				<g>
					<polygon fill="#B7E3DE" points="561.014,297.763 552.842,292.885 553.164,292.311 561.336,297.188 					"/>
				</g>
			</g>
			<g>
				<g>
					<polygon fill="#B7E3DE" points="555.736,303.223 550.693,294.975 551.235,294.617 556.28,302.866 					"/>
				</g>
			</g>
			<g>
				<g>
					<polygon fill="#B7E3DE" points="548.611,305.517 547.851,295.787 548.49,295.732 549.252,305.464 					"/>
				</g>
			</g>
		</g>
		<ellipse fill="none" stroke="#B7E3DE" stroke-miterlimit="10" cx="401.589" cy="374.871" rx="6.955" ry="7.195"/>
		<ellipse fill="none" stroke="#B7E3DE" stroke-miterlimit="10" cx="427.466" cy="197.519" rx="6.955" ry="7.197"/>
	</g>
	<g>
		<g>
			<g>
				<g>
					<g>
						<g>
							<path fill="#A3C74F" d="M179.933,203.511c0,0,18.554,7.052,21.441,6.573c1.99-0.328-15.363-34.544-15.363-34.544
								c0.867-1.252,22.059,13.321,27.113,24.94c0,0,4.325-15.596,2.99-25.168s4.923,9.72,4.923,9.72
								c1.106-7.801,2.175-11.33,4.261-18.901c2.165,8.837,3.441,13.302,6.181,22.038c2.54-10.698,10.429-22.177,20.477-26.427
								c-3.307,7.333-4.695,11.041-6.957,18.436c8.637-4.12,13.124-5.819,22.282-8.448c-1.89-3.297-2.862-4.934-4.861-8.183
								c4.908,2.167,7.276,3.354,11.821,5.9c0,0-8.916-15.556-6.109-23.597c0,0,12.534,18.929,17.169,21.095
								c0,0,3.127,0.004,2.899-0.433c-0.229-0.437,0.909-11.397,5.335-14.313c0.344,5.263,0.534,7.833,0.874,13.253
								c7.386-1.815,11.196-2.884,18.768-4.144c-2.205-3.786-3.424-5.493-5.944-9.318c3.818,2.241,5.679,3.251,9.229,5.363
								c0.055-5.067,0.007-7.219,0.096-12.543c0,0,9.308,13.817,10.571,15.087c1.263,1.27,7.081,7.637,7.081,7.637
								c-49.121-2.32-99.002,19.099-132.811,55.211C194.636,215.996,188.238,208.136,179.933,203.511z"/>
						</g>
					</g>
					<g>
						<g>
							<path fill="#A3C74F" d="M316.634,154.677c0,0,13.269,15.158,16.04,16.122c1.912,0.664,1.895-37.977,1.895-37.977
								c1.33-0.692,13.56,22.395,12.823,35.113c0,0,10.829-11.735,13.941-20.855c3.113-9.119,0,10.975,0,10.975
								c4.479-6.378,7.008-8.992,12.253-14.695c-2.047,8.866-2.92,13.435-4.412,22.488c7.049-8.254,19.188-14.632,29.993-13.568
								c-6.219,4.905-9.113,7.523-14.434,12.985c9.498,0.5,14.235,1.15,23.525,3.222c-0.195-3.829-0.32-5.746-0.635-9.583
								c3.375,4.276,4.939,6.465,7.823,10.902c0,0-0.916-18.06,5.178-23.833c0,0,2.605,22.787,5.739,26.932
								c0,0,2.77,1.505,2.763,1.01c-0.006-0.497,5.92-9.658,11.147-10.114c-2.056,4.826-3.04,7.194-5.174,12.159
								c7.356,1.939,11.212,2.822,18.482,5.344c-0.255-4.413-0.567-6.511-1.082-11.108c2.375,3.82,3.57,5.607,5.767,9.184
								c2.323-4.462,3.246-6.391,5.713-11.063c0,0,2.045,16.708,2.594,18.439s2.845,10.166,2.845,10.166
								c-42.464-25.65-96.256-30.642-142.404-14.897C324.055,172.798,321.915,162.763,316.634,154.677z"/>
						</g>
					</g>
					<g>
						<g>
							<path fill="#A3C74F" d="M585.562,289.723c0,0-19.757-0.642-22.26-2.202c-1.728-1.077,26.735-26.092,26.735-26.092
								c-0.351-1.496-25.271,3.816-34.159,12.637c0,0,1.626-16.138,6.324-24.498c4.698-8.362-8.079,7.108-8.079,7.108
								c1.794-7.664,2.079-11.35,2.881-19.178c-5.2,7.356-8,11.005-13.7,18.046c1.513-10.905-1.653-24.604-9.436-32.434
								c0.416,8.08,0.363,12.058-0.213,19.79c-6.521-7.163-10.066-10.477-17.61-16.459c2.945-2.327,4.439-3.469,7.466-5.707
								c-5.333,0.109-7.959,0.293-13.095,0.896c0,0,13.894-10.975,14.197-19.519c0,0-18.467,12.705-23.549,12.918
								c0,0-2.902-1.207-2.533-1.523c0.369-0.315,3.277-10.92,0.227-15.337c-2.222,4.747-3.327,7.055-5.601,11.953
								c-6.193-4.542-9.341-7.009-15.907-11.107c3.414-2.658,5.16-3.77,8.881-6.342c-4.352,0.601-6.442,0.818-10.499,1.402
								c1.782-4.721,2.604-6.697,4.446-11.669c0,0-13.626,9.211-15.257,9.9c-1.632,0.688-9.328,4.342-9.328,4.342
								c46.393,16.859,84.909,56.029,103.208,102.605C567.412,295.611,576.188,290.797,585.562,289.723z"/>
						</g>
					</g>
					<g>
						<path fill="#A3C74F" d="M301.455,425.378c0.152-0.003,0.293-0.022,0.447-0.022h289.987c0.052-2.151,0.08-4.309,0.08-6.472
							c0-21.332-2.515-42.059-7.262-61.876c-0.077-0.352-0.165-0.716-0.254-1.067c-9.269-38.043-26.746-72.694-50.373-101.842
							c-0.254-0.323-0.518-0.636-0.781-0.959c-6.948-8.491-14.416-16.498-22.359-23.991c-0.341-0.314-0.672-0.637-1.023-0.958
							c-12.847-11.972-26.914-22.583-41.981-31.599c-0.352-0.211-0.712-0.423-1.063-0.635c-5.653-3.349-11.443-6.464-17.359-9.349
							c-0.343-0.162-0.683-0.333-1.023-0.494c-3.296-1.594-6.629-3.106-10.002-4.539c-0.438-0.191-0.867-0.372-1.306-0.554
							c-22.994-9.662-47.704-15.854-73.524-17.952c-0.33-0.031-0.664-0.05-0.984-0.081c-5.81-0.443-11.668-0.686-17.584-0.706
							c-0.322-0.01-0.653-0.01-0.975-0.01h-0.155c-22.39,0-44.088,3.066-64.724,8.824c-0.818,0.232-1.647,0.464-2.466,0.707
							c-12.525,3.641-24.661,8.27-36.299,13.817c-0.916,0.424-1.823,0.867-2.729,1.321c-10.011,4.912-19.661,10.499-28.873,16.712
							c-0.302,0.201-0.604,0.402-0.896,0.604c-5.917,4.014-11.658,8.3-17.214,12.819c-0.302,0.242-0.604,0.494-0.907,0.746
							c-6.433,5.275-12.613,10.892-18.5,16.792c-0.321,0.322-0.643,0.646-0.956,0.97c-13.441,13.624-25.391,28.822-35.577,45.303
							c-0.303,0.492-0.604,0.997-0.917,1.491v0.011c-5.292,8.724-10.107,17.781-14.376,27.17c-0.166,0.353-0.332,0.696-0.478,1.049
							c-4.143,9.188-7.769,18.657-10.849,28.399v0.011c-0.127,0.403-0.254,0.797-0.381,1.21
							c-4.552,14.635-7.866,29.843-9.826,45.484c-0.039,0.334-0.078,0.666-0.117,0.989c-1.12,9.288-1.764,18.718-1.9,28.278
							c-0.01,0.334-0.01,0.677-0.01,1.009c-0.01,0.969-0.02,1.927-0.02,2.896c0,2.174,0.041,4.338,0.096,6.498
							c0.171-0.004,0.333-0.025,0.507-0.025h204.308C301.06,425.356,301.254,425.372,301.455,425.378z"/>
					</g>
					<g>
						<g>
							<g>
								<path fill="#A5C94F" d="M437.181,181.02c-3.508,1.372-7.39,2.178-11.161,2.44c-2.407,0.161-4.922,0.211-7.34,0.263
									c-8.344,0.182-16.97,0.362-24.037,4.972c-8.314,5.416-12.105,15.278-15.779,24.809c-0.615,1.604-1.229,3.198-1.863,4.763
									c-2.525,6.241-5.644,9.479-9.278,9.62c-2.203,0.102-4.493-0.997-6.883-3.208c-5.79-5.364-8.822-13.967-7.729-21.926
									c0.799-5.809,2.993-11.094,5.117-16.206c2.554-6.152,5.206-12.516,5.479-19.898c0.048-1.23,0.02-2.42-0.049-3.58
									c-0.33-0.031-0.664-0.05-0.984-0.081c0.077,1.18,0.107,2.381,0.059,3.621c-0.264,7.191-2.876,13.474-5.4,19.545
									c-1.071,2.583-2.163,5.214-3.089,7.937c-0.926,2.723-1.686,5.547-2.097,8.522c-1.149,8.411,1.931,17.155,8.042,22.813
									c2.486,2.309,4.934,3.47,7.292,3.47h0.272c4.055-0.162,7.466-3.61,10.146-10.247c0.636-1.564,1.249-3.156,1.872-4.761
									c3.616-9.389,7.35-19.101,15.391-24.336c6.844-4.467,15.333-4.648,23.541-4.82c2.437-0.051,4.951-0.101,7.388-0.263
									c4.222-0.282,8.549-1.24,12.398-2.895C438.048,181.383,437.619,181.203,437.181,181.02z"/>
							</g>
						</g>
						<g>
							<g>
								<path fill="#A5C94F" d="M237.74,186.94c0.906-0.454,1.813-0.897,2.729-1.321c-4.795,4.508-8.909,9.955-11.97,16.116
									c-8.548,17.195-9.835,39.323-3.616,62.317c0.634,2.318,1.335,4.669,2.018,6.949c2.165,7.21,4.406,14.674,4.562,22.348
									c0.175,8.836-2.397,18.437-7.866,29.329c-12.165,24.204-33.219,43.83-59.284,55.257
									c-15.615,6.848-32.02,10.309-48.093,10.309c-6.19,0-12.321-0.516-18.346-1.544c0.04-0.323,0.078-0.655,0.117-0.989
									c48.844,8.462,101.715-17.649,124.738-63.497c5.4-10.739,7.934-20.18,7.759-28.844c-0.156-7.522-2.369-14.926-4.514-22.077
									c-0.691-2.278-1.394-4.639-2.026-6.979c-6.287-23.227-4.981-45.616,3.684-63.043
									C230.293,195.917,233.743,191.085,237.74,186.94z"/>
							</g>
							<g>
								<path fill="#A5C94F" d="M467.935,196.592c-16.307,6.898-29.448,18.96-36.359,34.048c-1.275,2.795-2.379,5.749-3.44,8.604
									c-1.968,5.285-3.996,10.751-7.252,15.439c-4.678,6.739-10.945,10.307-18.607,10.611
									c-24.252,0.937-55.95-31.186-65.142-42.51c-2.7-3.318-5.419-6.858-8.061-10.268c-14.182-18.386-28.852-37.406-50.53-40.513
									c-0.595-0.081-1.18-0.151-1.774-0.202c0.819-0.243,1.647-0.474,2.466-0.707c21.756,3.409,36.426,22.41,50.599,40.786
									c2.632,3.419,5.361,6.938,8.042,10.257c9.114,11.225,40.51,43.093,64.363,42.146c7.349-0.283,13.354-3.712,17.855-10.197
									c3.179-4.578,5.187-9.974,7.136-15.198c1.063-2.884,2.175-5.85,3.459-8.673c6.923-15.108,19.974-27.212,36.184-34.26
									C467.223,196.168,467.583,196.38,467.935,196.592z"/>
							</g>
						</g>
						<g>
							<g>
								<path fill="#A5C94F" d="M510.939,229.148c-10.85,0.604-21.064,2.994-30.305,9.267c-7.584,5.154-13.55,12.548-19.319,19.698
									c-3.821,4.74-7.768,9.641-12.185,13.896c-21.97,21.159-56.992,25.647-83.272,10.66
									c-13.217-7.533-23.714-19.173-33.871-30.438c-5.839-6.466-11.872-13.16-18.364-19.011
									c-14.007-12.626-38.971-20.796-57.637-11.064c-15.439,8.06-12.378,35.622-9.913,57.77c0.936,8.492,1.833,16.51,1.482,22.097
									c-2.398,37.86-28.735,74.994-67.092,94.621c-23.471,12.011-51.3,18.405-84.5,19.343c0-0.332,0-0.675,0.01-1.009
									c33.033-0.938,60.716-7.291,84.061-19.242c38.044-19.465,64.168-56.276,66.546-93.773
									c0.351-5.506-0.536-13.484-1.481-21.924c-2.496-22.451-5.595-50.407,10.449-58.778c19.046-9.935,44.467-1.644,58.718,11.204
									c6.531,5.879,12.584,12.598,18.433,19.082c10.108,11.205,20.547,22.783,33.628,30.235
									c25.928,14.786,60.472,10.358,82.132-10.508c4.376-4.217,8.304-9.088,12.106-13.809c5.818-7.21,11.823-14.664,19.534-19.888
									c9.151-6.213,19.191-8.683,29.816-9.388C510.268,228.512,510.599,228.834,510.939,229.148z"/>
							</g>
						</g>
						<g>
							<g>
								<path fill="#A5C94F" d="M420.387,337.353c-2.497-10.75-9.943-22.057-20.946-23.064c-4.777-0.436-10.354,0.766-16.25,2.036
									c-7.175,1.543-14.593,3.137-20.236,1.463c-4.844-1.433-9.504-3.872-13.49-7.06c-8.616-6.898-14.152-17.073-19.524-27.774
									l-0.536-1.08c-4.99-9.943-10.147-20.24-18.286-27.774c-7.876-7.303-20.703-12.375-31.581-7.262
									c-14.368,6.748-16.854,26.07-17.253,34.059c-0.672,13.555,1.414,27.433,6.044,40.14c2.047,5.617-3.977,13.1-9.299,19.696
									c-2.496,3.096-4.854,6.021-6.238,8.572c-1.014,1.866-2.096,3.74-3.14,5.558c-3.45,6.001-7.017,12.212-8.909,19.031
									c-2.154,7.766-2.076,19.252,5.225,26.1c7.652,7.171,19.222,6.041,29.457,4.407l22.029-3.499
									c3.314-0.524,7.077-1.12,10.4,0.181c5.42,2.117,9.515,5.629,11.542,9.874l0.097,0.202l0.195,0.061
									c9.591,2.985,19.358,4.457,28.861,4.457c15.869,0,30.998-4.095,43.23-12.051
									C413.923,389.223,425.963,361.345,420.387,337.353z M391.261,402.775c-19.279,12.537-45.841,15.351-71.088,7.535
									c-2.173-4.389-6.414-7.999-11.979-10.166c-3.558-1.403-7.632-0.757-10.897-0.233l-22.02,3.489
									c-10.02,1.595-21.318,2.713-28.658-4.165c-6.969-6.524-7.018-17.577-4.941-25.062c1.852-6.697,5.39-12.849,8.812-18.799
									c1.042-1.814,2.134-3.701,3.148-5.576c1.345-2.473,3.675-5.356,6.141-8.423c4.698-5.828,9.932-12.333,9.932-17.951
									c0-0.949-0.146-1.866-0.468-2.753c-4.582-12.567-6.647-26.302-5.985-39.727c0.39-7.807,2.797-26.665,16.678-33.191
									c10.479-4.92,22.886,0.012,30.528,7.091c8.002,7.412,13.12,17.63,18.072,27.492l0.546,1.089
									c5.42,10.802,11.014,21.079,19.787,28.099c4.085,3.268,8.861,5.769,13.823,7.23c5.877,1.744,13.411,0.121,20.692-1.441
									c5.829-1.261,11.347-2.44,15.967-2.018c10.526,0.957,17.672,11.892,20.089,22.299
									C424.919,361.173,413.066,388.586,391.261,402.775z"/>
							</g>
						</g>
						<g>
							<g>
								<path fill="#A5C94F" d="M448.264,367.992c2.369,4.658,6.861,7.604,11.21,10.447c4.952,3.238,9.62,6.294,11.296,11.629
									c1.706,5.395-0.409,10.721-2.641,16.358c-1.57,3.974-3.198,8.089-3.44,12.313c-0.125,2.209,0.175,4.441,0.831,6.615h1.024
									c-0.683-2.151-1.007-4.365-0.882-6.555c0.234-4.064,1.832-8.097,3.373-11.99c2.204-5.558,4.474-11.307,2.661-17.055
									c-1.783-5.68-6.823-8.986-11.696-12.173c-4.24-2.773-8.627-5.638-10.869-10.055c-0.858-1.685-1.363-3.521-1.666-5.356
									c-0.302-1.835-0.41-3.691-0.479-5.406c-1.909-47.51,32.918-72.574,63.643-94.68c6.843-4.912,14.884-7.394,23.452-7.987
									c-0.254-0.323-0.518-0.636-0.781-0.959c-8.869,0.747-16.754,3.46-23.227,8.119c-30.11,21.673-64.139,46.15-64.139,91.776
									c0,1.24,0.029,2.5,0.078,3.771C446.158,360.356,446.461,364.442,448.264,367.992z"/>
								<path fill="#A5C94F" d="M551.35,425.355c3.063-3.042,5.799-6.566,8.034-10.659c3.891-7.11,5.81-15.29,7.661-23.195
									c2.271-9.712,4.63-19.767,10.693-27.563c2.019-2.593,4.396-4.861,6.969-6.93c-0.077-0.352-0.165-0.716-0.254-1.067
									c-2.758,2.179-5.301,4.579-7.476,7.372c-6.199,7.967-8.577,18.123-10.878,27.957c-1.843,7.836-3.743,15.944-7.563,22.934
									c-2.367,4.33-5.313,8.011-8.62,11.152H551.35z"/>
							</g>
						</g>
						<g>
							<g>
								<path fill="#A5C94F" d="M555.26,291.555c-9.132-9.924-20.342-12.728-32.41-8.119c-21.629,8.25-39.593,37.396-40.617,56.953
									c-0.632,11.951,2.866,21.805,9.583,27.048c1.87,1.463,4.016,2.602,6.101,3.701c3.489,1.846,6.796,3.591,8.89,6.758
									c3.471,5.244,2.087,12.395,0.313,17.467l-0.245,0.686c-1.286,3.651-2.738,7.787-0.983,11.357
									c1.462,2.985,4.726,4.337,7.759,4.337c0.643,0,1.276-0.061,1.881-0.182c3.664-0.717,6.774-3.136,9.338-5.415
									c15.82-14.07,38.562-50.659,40.11-82.78C565.622,309.96,562.356,299.25,555.26,291.555z M564.004,323.314
									c-1.384,28.753-22.077,66.33-39.779,82.063c-2.455,2.188-5.439,4.519-8.88,5.194c-3.089,0.604-7.027-0.444-8.588-3.621
									c-1.559-3.177-0.243-6.929,1.034-10.561l0.243-0.686c1.853-5.294,3.274-12.787-0.419-18.375
									c-2.232-3.378-5.81-5.264-9.26-7.089c-2.037-1.079-4.152-2.198-5.956-3.611c-7.992-6.232-9.26-17.326-9.26-23.71
									c0-0.938,0.028-1.774,0.068-2.481c1.004-19.253,18.696-47.936,39.984-56.063c3.646-1.392,7.212-2.078,10.662-2.078
									c7.594,0,14.621,3.349,20.704,9.954C561.46,299.745,564.638,310.192,564.004,323.314z"/>
							</g>
						</g>
						<g>
							<g>
								<path fill="#A5C94F" d="M541.137,327.58c-0.809-12.021-9.571-22.954-20.83-26.021l-0.185-0.051l-0.167,0.101
									c-2.359,1.292-4.386,3.006-6.022,5.084c-4.191,5.345-4.563,11.445-4.396,14.685c-2.73,6.021-4.192,12.263-4.357,18.556
									c-0.156,5.962-0.302,11.579,3.45,15.129c2.213,2.099,5.039,2.895,7.896,2.895c2.612,0,5.245-0.665,7.467-1.623
									C534.732,351.693,541.946,339.603,541.137,327.58z M523.62,355.405c-4.386,1.896-10.448,2.602-14.339-1.09
									c-3.421-3.237-3.274-8.633-3.129-14.352c0.166-6.202,1.618-12.345,4.32-18.264l0.058-0.121l-0.01-0.132
									c-0.176-3.055,0.126-8.965,4.173-14.119c1.51-1.927,3.382-3.52,5.544-4.74c10.781,3.025,19.155,13.525,19.926,25.063
									C540.941,339.248,533.981,350.928,523.62,355.405z"/>
							</g>
						</g>
						<g>
							<g>
								<path fill="#A5C94F" d="M213.732,252.121c-0.253,27.17-10.245,60.936-37.527,74.229c-11.054,5.386-23.482,6.525-35.49,7.624
									c-6.735,0.615-13.705,1.261-20.372,2.643c-4.269,0.888-8.451,2.088-12.525,3.61c0.126-0.413,0.253-0.807,0.381-1.21v-0.011
									c3.898-1.402,7.895-2.541,11.96-3.379c6.715-1.391,13.704-2.036,20.469-2.651c11.93-1.1,24.261-2.229,35.158-7.544
									c26.884-13.08,36.719-46.453,36.972-73.311c0.137-16.056-2.3-32.202-4.786-47.865c0.292-0.202,0.595-0.403,0.896-0.604
									C211.383,219.495,213.878,235.834,213.732,252.121z"/>
							</g>
						</g>
						<g>
							<g>
								<path fill="#A5C94F" d="M191.069,244.063c-1.667,24.347-12.115,53.564-36.425,62.529c-8.237,3.046-17.146,3.309-25.763,3.57
									c-3.246,0.092-6.541,0.191-9.834,0.444c0.146-0.353,0.312-0.696,0.478-1.049c3.119-0.222,6.248-0.323,9.328-0.404
									c8.538-0.262,17.369-0.524,25.47-3.51c23.861-8.804,34.125-37.627,35.782-61.651c0.605-8.765,0.439-17.487-0.253-26.171
									c0.302-0.252,0.604-0.504,0.907-0.746C191.508,226.021,191.693,235.016,191.069,244.063z"/>
							</g>
						</g>
						<g>
							<g>
								<path fill="#A5C94F" d="M171.35,240.896c-0.126,5.718-0.663,11.689-3.655,16.61c-2.329,3.832-6.004,6.657-9.25,9.147
									c-7.651,5.88-15.537,11.941-24.544,15.723c0.313-0.494,0.614-0.999,0.917-1.491c8.373-3.763,15.819-9.48,23.052-15.038
									c3.324-2.562,6.765-5.204,9.006-8.887c2.866-4.709,3.373-10.518,3.5-16.084c0.039-1.765,0.049-3.53,0.019-5.294
									c0.313-0.324,0.634-0.647,0.956-0.97C171.399,236.7,171.399,238.799,171.35,240.896z"/>
							</g>
						</g>
						<g>
							<g>
								<path fill="#A5C94F" d="M449.512,186.607c-5.508,3.843-11.531,6.676-17.478,8.301c-2.096,0.574-4.318,1.099-6.462,1.594
									c-9.406,2.188-19.135,4.447-23.979,12.535c-2.174,3.61-2.993,7.987-3.782,12.214c-0.858,4.598-1.745,9.358-4.377,13.251
									c-3.753,5.567-10.127,7.907-16.435,7.907c-3.49,0-6.949-0.716-9.952-1.986c-8.839-3.742-15.585-11.447-21.736-19.021
									c-3.266-4.013-6.072-7.694-7.476-12.172c-2.408-7.656-0.117-15.672,2.106-23.429c0.438-1.532,0.877-3.056,1.276-4.569
									c1.618-6.172,2.592-12.545,2.895-18.96c0.322,0,0.653,0,0.975,0.01c-0.303,6.495-1.287,12.949-2.934,19.213
									c-0.4,1.522-0.838,3.055-1.277,4.588c-2.174,7.614-4.436,15.481-2.116,22.843c1.354,4.296,4.104,7.897,7.291,11.83
									c6.083,7.474,12.731,15.078,21.367,18.729c8.091,3.438,19.68,2.651,25.217-5.559c2.515-3.721,3.383-8.37,4.22-12.868
									c0.81-4.317,1.638-8.783,3.909-12.557c5.06-8.441,14.992-10.75,24.593-12.99c2.135-0.494,4.348-1.008,6.434-1.572
									c5.672-1.554,11.413-4.226,16.697-7.827C448.829,186.274,449.169,186.446,449.512,186.607z"/>
							</g>
						</g>
						<g>
							<g>
								<path fill="#A5C94F" d="M391.358,352.884c-2.058-9.752-11.072-16.984-26.795-21.491l-1.911-0.545
									c-10.995-3.115-22.36-6.354-28.072-15.936c-1.599-2.672-2.623-5.738-3.617-8.703c-0.575-1.725-1.169-3.51-1.881-5.215
									c-4.805-11.607-19.476-24.396-32.956-24.396h-0.302c-5.341,0.082-9.182,1.856-11.395,5.274
									c-4.767,7.32-0.907,20.504,1.813,27.714c2.378,6.273,4.474,13.556,2.027,19.989c-1.765,4.65-5.449,7.856-9.357,11.256
									c-3.177,2.764-6.453,5.617-8.607,9.318c-2.602,4.498-3.226,10.096-1.745,15.773c1.755,6.698,6.181,12.606,11.843,15.823
									c9.524,5.396,22.312,4.913,34.213-1.289c1.677-0.868,3.392-1.857,5.049-2.815c6.93-3.983,14.085-8.098,21.327-5.908
									c4.192,1.26,7.584,4.518,10.869,7.674c3.675,3.521,7.466,7.16,12.419,8.108c0.855,0.162,1.704,0.232,2.522,0.232
									c8.53,0,15.275-8.129,17.937-11.882C388.775,370.18,393.201,361.578,391.358,352.884z M383.96,375.273
									c-2.817,3.963-10.323,13-19.494,11.244c-4.689-0.887-8.207-4.274-11.941-7.855c-3.363-3.227-6.843-6.566-11.258-7.896
									c-1.491-0.455-2.982-0.656-4.455-0.656c-6.043,0-11.912,3.378-17.614,6.656c-1.657,0.948-3.363,1.936-5.019,2.794
									c-11.619,6.051-24.067,6.534-33.308,1.301c-5.429-3.075-9.679-8.765-11.365-15.198c-1.414-5.405-0.829-10.729,1.638-14.997
									c2.066-3.551,5.283-6.354,8.393-9.056c3.831-3.34,7.788-6.778,9.64-11.659c2.563-6.757,0.419-14.271-2.018-20.726
									c-2.661-7.03-6.433-19.848-1.93-26.797c2.038-3.126,5.605-4.751,10.605-4.82h0.302c13.091,0,27.361,12.464,32.049,23.781
									c0.702,1.674,1.287,3.438,1.862,5.152c1.004,3.017,2.047,6.133,3.704,8.906c5.916,9.924,17.994,13.354,28.638,16.378
									l1.911,0.535c15.341,4.408,24.135,11.387,26.113,20.745C392.168,361.426,387.869,369.757,383.96,375.273z"/>
							</g>
						</g>
					</g>
					<g>
						<g>
							<path fill="#A25140" d="M567.677,307.992c-23.462,5.336-43.405,20.372-64.469,36.246
								c-12.312,9.279-25.031,18.869-38.697,26.535c-14.669,8.24-27.196,12.102-39.254,12.102c-0.516,0-1.032-0.01-1.549-0.02
								c-20.938-0.575-41.592-13.212-61.409-37.558c-3.673-4.519-7.231-9.218-10.672-13.757
								c-10.119-13.342-19.661-25.948-32.196-34.703c-11.161-7.786-24.72-12.204-38.181-12.415
								c-8.851-0.141-17.75,1.41-27.166,3.066c-5.713,0.999-11.62,2.036-17.594,2.682c-21.522,2.32-38.492-1.876-50.423-12.455
								c-10.03-8.895-16.444-22.643-18.062-38.717c-0.029-0.293-0.059-0.596-0.078-0.888c0.819-0.848,1.638-1.695,2.466-2.53
								c0.313-0.324,0.635-0.647,0.956-0.97c4.542-4.559,9.26-8.945,14.144-13.131c-0.458,5.244-0.557,10.498-0.04,15.642
								c1.151,11.427,5.43,20.948,12.029,26.807c10.137,8.987,25.811,9.41,37.186,8.19c5.419-0.586,10.791-1.532,16.482-2.531
								c9.787-1.716,19.904-3.511,30.383-3.317c16.824,0.271,33.765,5.788,47.713,15.52c14.816,10.358,25.685,24.689,36.182,38.547
								c3.354,4.417,6.814,8.985,10.295,13.271c16.443,20.201,32.741,30.67,48.454,31.104c9.326,0.251,19.494-2.886,31.97-9.895
								c12.633-7.091,24.886-16.317,36.729-25.244c20.372-15.368,41.388-31.203,66.391-38.121
								C562.267,296.848,565.065,302.365,567.677,307.992z"/>
						</g>
						<g>
							<path fill="#5C130A" d="M573.59,320.222c-24.021,5.335-44.438,20.372-66.001,36.247
								c-12.604,9.278-25.627,18.87-39.617,26.535c-15.019,8.239-27.843,12.102-40.186,12.102c-0.53,0-1.058-0.011-1.588-0.02
								c-21.434-0.576-42.58-13.212-62.867-37.558c-3.762-4.519-7.404-9.218-10.927-13.757
								c-10.358-13.344-20.127-25.95-32.96-34.703c-11.427-7.786-25.307-12.203-39.088-12.415
								c-9.061-0.142-18.172,1.411-27.812,3.065c-5.848,0.998-11.895,2.037-18.012,2.683c-22.033,2.321-39.406-1.876-51.622-12.455
								c-10.268-8.896-16.834-22.642-18.491-38.718c-0.03-0.291-0.06-0.596-0.08-0.888c0.838-0.847-3.837-8.696-2.99-9.533
								c0.32-0.322,2.66-3.155,2.99-3.478c4.65-4.559,11.146-7.252,16.147-11.437c-0.47,5.244,1.267,18.316,1.795,23.46
								c1.178,11.425,5.558,20.946,12.313,26.806c10.378,8.986,26.424,9.409,38.07,8.189c5.548-0.585,11.047-1.533,16.875-2.531
								c10.02-1.715,20.377-3.51,31.104-3.318c17.224,0.272,34.567,5.789,48.848,15.522c15.168,10.356,26.295,24.688,37.042,38.545
								c3.433,4.418,6.976,8.985,10.539,13.271c16.833,20.202,33.519,30.67,49.604,31.104c9.551,0.252,19.959-2.884,32.731-9.894
								c12.933-7.09,25.477-16.318,37.602-25.242c20.854-15.371,42.37-31.203,67.966-38.124
								C568.051,309.077,570.915,314.595,573.59,320.222z"/>
						</g>
						<path fill="#279B94" d="M301.455,425.378c0.152-0.003,0.293-0.022,0.447-0.022h291.762c0.193-4.145,0.308-8.311,0.308-12.505
							c0-21.33-2.516-42.055-7.263-61.873c-0.078-0.352-0.166-0.716-0.254-1.067c-2.982-12.235-6.803-24.115-11.424-35.582
							c-23.783,5.445-44.039,20.361-65.443,36.114c-12.603,9.28-25.626,18.871-39.614,26.536
							c-15.021,8.239-27.838,12.103-40.188,12.103c-0.525,0-1.053-0.011-1.579-0.021c-21.434-0.573-42.585-13.21-62.87-37.557
							c-3.763-4.519-7.407-9.219-10.927-13.757c-10.362-13.343-20.128-25.949-32.966-34.704c-2.944-2.007-6.053-3.792-9.28-5.325
							c-4.278-2.057-8.763-3.681-13.353-4.86c-5.391-1.382-10.927-2.138-16.454-2.229c-9.055-0.141-18.169,1.413-27.809,3.066
							c-5.849,0.999-11.892,2.036-18.014,2.683c-22.029,2.319-39.408-1.876-51.622-12.456
							c-10.264-8.895-16.834-22.641-18.491-38.717c-0.03-0.293-0.059-0.595-0.078-0.887l-2.008-6.989
							c-4.943,6.494-9.894,12.989-14.846,19.483c-14.563,20.332-23.969,38.971-29.964,52.747c0,0-4.123,9.459-8.918,24.366
							c-1.774,5.526-3.646,11.8-5.439,18.617c-4.776,18.234-8.968,40.351-9.202,62.438c0,0.495-0.01,1.009-0.01,1.009
							c-0.009,0.969-0.019,1.927-0.019,2.896c0,2.174,0.041,4.338,0.095,6.499c0.174-0.005,0.338-0.026,0.515-0.026h204.308
							C301.06,425.356,301.254,425.372,301.455,425.378z"/>
						<g>
							<path fill="#279B94" d="M312.164,297.717c-1.374,2.038-2.739,4.085-4.074,6.104c-6.862,10.337-13.968,21.026-22.663,30.436
								c-17.234,18.639-38.122,27.815-57.305,25.184c-9.514-1.312-17.965-5.336-26.133-9.218c-3.167-1.513-6.15-2.936-9.191-4.205
								c-26.045-10.883-56.623-9.662-81.79,3.247c-1.979,1.019-3.929,2.107-5.839,3.277c1.793-6.817,3.665-13.091,5.439-18.617
								c27.438-12.103,59.615-12.557,87.297-0.999c3.343,1.402,6.619,2.956,9.787,4.468c7.583,3.612,14.748,7.02,22.234,8.048
								c21.035,2.896,38.921-13.686,45.637-20.946c7.944-8.583,14.417-18.345,21.279-28.673c0.653-0.979,1.306-1.966,1.969-2.965
								C303.401,294.036,307.885,295.66,312.164,297.717z"/>
						</g>
					</g>
				</g>
				<g opacity="0.66">
					<g>
						<g>
							<path fill="#279B94" d="M229.814,362.775c0,0,8.683-18.236,28.717-3.291C258.532,359.484,247.515,375.785,229.814,362.775z"
								/>
						</g>
						<g>
							<polygon fill="#279B94" points="233.265,361.891 224.101,355.768 225.618,369.939 							"/>
						</g>
					</g>
					<g>
						<g>
							<path fill="#279B94" d="M180.083,314.3c0,0-8.683-18.235-28.717-3.292C151.365,311.008,162.382,327.311,180.083,314.3z"/>
						</g>
						<g>
							<polygon fill="#279B94" points="176.633,313.415 185.796,307.292 184.279,321.465 							"/>
						</g>
					</g>
					<g>
						<g>
							<path fill="#279B94" d="M315.069,371.797c0,0,6.075-19.333,27.968-7.506C343.038,364.291,334.386,382.056,315.069,371.797z"
								/>
						</g>
						<g>
							<polygon fill="#279B94" points="318.361,370.411 308.446,365.706 311.906,379.509 							"/>
						</g>
					</g>
					<g>
						<path fill="#279B94" d="M263.484,354.649c-2.507,0-4.546-2.11-4.546-4.704c0-2.593,2.039-4.702,4.546-4.702
							s4.545,2.109,4.545,4.702C268.03,352.539,265.991,354.649,263.484,354.649z M263.484,346.252
							c-1.969,0-3.571,1.657-3.571,3.693c0,2.038,1.602,3.696,3.571,3.696s3.571-1.658,3.571-3.696
							C267.055,347.909,265.454,346.252,263.484,346.252z"/>
					</g>
					<g>
						<path fill="#279B94" d="M252.365,317.998c-2.507,0-4.546-2.11-4.546-4.703s2.039-4.702,4.546-4.702
							c2.506,0,4.546,2.109,4.546,4.702S254.871,317.998,252.365,317.998z M252.365,309.601c-1.969,0-3.572,1.657-3.572,3.694
							s1.603,3.694,3.572,3.694s3.571-1.657,3.571-3.694S254.333,309.601,252.365,309.601z"/>
					</g>
					<g>
						<path fill="#279B94" d="M363.815,362.34c-2.507,0-4.547-2.109-4.547-4.703c0-2.593,2.04-4.704,4.547-4.704
							c2.506,0,4.544,2.111,4.544,4.704C368.359,360.23,366.321,362.34,363.815,362.34z M363.815,353.941
							c-1.97,0-3.573,1.658-3.573,3.695s1.604,3.694,3.573,3.694c1.969,0,3.569-1.657,3.569-3.694S365.784,353.941,363.815,353.941z
							"/>
					</g>
					<g>
						<path fill="#279B94" d="M272.931,345.941c-3.557,0-6.452-2.994-6.452-6.675s2.895-6.675,6.452-6.675s6.452,2.994,6.452,6.675
							S276.488,345.941,272.931,345.941z M272.931,333.601c-3.019,0-5.477,2.541-5.477,5.666c0,3.124,2.458,5.667,5.477,5.667
							c3.02,0,5.477-2.543,5.477-5.667C278.407,336.142,275.95,333.601,272.931,333.601z"/>
					</g>
				</g>
			</g>
			<g>
				<path fill="#114452" d="M364.046,72.575c-2.715,1.438-9.17,4.369-17.602,3.563c-6.077-0.581-10.626-2.859-13.147-4.382
					c-3.809,4.359-10.08,4.877-14.06,1.686c-4.496-3.607-5.173-11.231-0.688-16.063c-0.913,2.623-4.886,2.875-6.662,0.78
					c-1.777-2.096-1.55-5.415-0.199-7.826s3.591-4.125,5.768-5.768c-4.611-1.289-5.047-8.599-1.742-12.167
					c3.305-3.567,8.455-4.34,13.199-4.913c-0.103-2.301-0.033-7.603,3.002-13.159c3.962-7.256,10.311-10.061,12.216-10.818
					c1.07-0.774,9.871-6.917,20.261-3.416c1.182,0.399,13.03,4.614,14.445,16.024c1.119,9.036-5.177,15.552-5.987,16.364
					c9.236,1.904,11.613,4.672,12.339,6.913c1.635,5.05-1.066,11.174-5.824,13.207c5.519-1.787,11.336,4.357,10.743,10.309
					c-0.449,4.49-5.661,9.913-11.624,11.658C371.519,76.604,365.56,73.439,364.046,72.575z"/>
				<g>
					<path fill="#C66858" d="M422.827,162.668c-7.328,0.158-14.656,0.315-21.987,0.473c-1.439-2.685-2.858-5.668-4.168-8.952
						c-3.542-8.885-5.146-17.137-5.852-23.818c5.592-2.021,11.187-4.041,16.779-6.061l5.76,23.84l17.75,3.379L422.827,162.668z"/>
				</g>
				<g>
					<path fill="#8E2517" d="M406.223,151.522l-0.338-0.366c1.994-1.96,4.711-3.146,7.459-3.256l0.018,0.504
						C410.731,148.509,408.128,149.645,406.223,151.522z"/>
				</g>
				<g>
					<path fill="#C66858" d="M284.569,167.199c7.33,0.158,14.659,0.315,21.988,0.473c1.439-2.687,2.859-5.669,4.168-8.952
						c3.542-8.886,5.145-17.137,5.853-23.819c-5.593-2.02-11.187-4.04-16.78-6.06l-5.761,23.839l-17.749,3.379L284.569,167.199z"/>
				</g>
				<g>
					<path fill="#279B94" d="M318.605,155.49c-0.021,5.174-0.043,10.35-0.066,15.525c0,0,37.825,21.435,62.516,9.007l2.53-25.782
						C361.926,154.657,340.265,155.073,318.605,155.49z"/>
				</g>
				<g>
					<path fill="#279B94" d="M315.933,153.917c2.329,2.091,4.459,3.019,5.944,3.482c4.879,1.52,7.766-0.25,18.719-1.035
						c8.782-0.629,8.95,1.766,20.659,1.596c6.104-0.089,11.059-0.812,14.201-1.384c1.749,0.891,4.269,1.768,6.469,0.646
						c4.822-2.463,4.882-12.894,4.956-16.932c0.239-13.125,3.935-29.353,7.948-59.604c-21.293-8.212-36.76-9.081-62.533-7.289
						c-3.292,0.538-7.363,1.554-11.774,3.521c-8.201,3.66-13.713,8.894-16.881,12.456
						C307.739,110.888,311.836,132.403,315.933,153.917z"/>
				</g>
				<g>
					<path fill="#279B94" d="M396.021,82.149c9.205,14.324,18.409,28.646,27.613,42.97c0,0-16.6,18.59-29.679,22.043
						c0,0-6.404,3.896-7.91,3.456c-1.502-0.439-3.907-11.352-3.907-11.352c-1.771-12.951-2.36-23.96-2.516-32.298
						c-0.32-17.232,1.202-23.343,5.234-26.788c0.027-0.021,0.054-0.044,0.08-0.066C388.431,77.184,393.487,78.207,396.021,82.149z"
						/>
				</g>
				<g>
					<path fill="#114452" d="M349.298,160.755c-12.002-2.361-16.473-15.431-16.517-15.563l0.921-0.328
						c0.042,0.127,4.339,12.65,15.777,14.9L349.298,160.755z"/>
				</g>
				<g>
					<rect x="386.163" y="116.159" fill="#114452" width="0.73" height="32.118"/>
				</g>
				<g>
					<g>
						<g>
							<g>
								<g>
									<g>
										<g>
											<g>
												<polygon fill="#C66858" points="362.474,55.67 362.177,64.176 362.148,64.909 361.646,79.783 338.979,76.275 
													341.61,43.32 341.759,41.487 344.205,40.98 345.546,40.702 350.73,45.287 												"/>
											</g>
										</g>
									</g>
								</g>
							</g>
							<g>
								<g>
									<g>
										<g>
											<g>
												<path fill="#114452" d="M362.474,55.67l-0.297,8.505c-1.603,0.667-3.575,0.807-6.007,0.073
													c-6.879-2.076-11.766-12.768-14.56-20.928l0.149-1.833l2.446-0.506l6.525,4.307L362.474,55.67z"/>
											</g>
										</g>
									</g>
								</g>
							</g>
						</g>
						<g>
							<g>
								<g>
									<ellipse fill="#C66858" cx="352.137" cy="77.165" rx="15.599" ry="6.696"/>
								</g>
							</g>
						</g>
					</g>
					<g>
						<g>
							<g>
								<g>
									<g>
										<g>
											<g>
												<path fill="#C66858" d="M334.84,22.695c0.292,2.768,0.583,5.536,0.868,8.304c0.316,1.879,0.738,3.892,1.306,6.006
													c0.227,0.856,0.478,1.728,0.761,2.609c0.365,1.182,0.762,2.315,1.176,3.388c0.267,0.318,0.535,0.639,0.803,0.939
													c0.138,0.168,0.284,0.328,0.413,0.479c0.576,0.654,1.135,1.241,1.646,1.728c0.203,0.201,0.389,0.369,0.567,0.528
													c0.714,0.629,1.323,1.015,1.751,1.04c0.042,0.009,0.081,0.009,0.122,0c0.082,0.009,0.154-0.025,0.219-0.058
													c0.057-0.042,0.106-0.102,0.138-0.185c0.154-0.32,0.138-0.898,0.227-0.915c0.024-0.008,0.048,0.034,0.057,0.042
													c0.098,0.151,0.203,0.293,0.316,0.437c0.349,0.444,0.754,0.847,1.184,1.216c1.054,0.915,2.253,1.695,3.177,2.743
													c2.716,3.095,8.919,5.805,9.298,5.972c2.708,1.166,6.746,2.843,11.747,2.189c1.695-0.235,3.576-0.503,5.287-1.938
													c1.808-1.509,2.342-3.405,3.289-6.911c1.144-4.252,1.34-7.894,1.16-10.594c-0.008-0.076-0.008-0.151-0.017-0.227
													c-0.17-2.281-0.599-3.858-0.915-4.496c-0.146-0.31-0.275-0.645-0.373-0.981c-0.129-0.418-0.219-0.838-0.276-1.266
													c-0.008-0.067-0.017-0.143-0.024-0.21c-0.063-0.604-0.072-1.225-0.024-1.837c0.049-0.504,0.091-0.99,0.123-1.476
													c0.057-1.208,0.04-2.375-0.032-3.481c-0.017-0.277-0.042-0.546-0.066-0.813c-0.008-0.017-0.008-0.033-0.008-0.051
													c-0.033-0.36-0.071-0.721-0.129-1.073c-0.804-6.115-3.373-10.678-5.569-13.58c-0.301-0.394-0.591-0.764-0.876-1.099
													c-0.649-0.722-1.338-1.393-2.06-2.005c-5.894-5.033-14.009-6.534-21.24-3.757
													C340.978,6.381,335.48,13.955,334.84,22.695z"/>
											</g>
										</g>
									</g>
								</g>
							</g>
							<g>
								<g>
									<g>
										<g>
											<g>
												<g>
													<g>
														<g>
															<path fill="#C66858" d="M336.908,42.082c0.969,3.934,3.987,6.534,6.739,5.807c2.753-0.725,4.2-4.503,3.231-8.438
																c-0.969-3.933-3.987-6.534-6.74-5.807C337.385,34.37,335.938,38.148,336.908,42.082z"/>
														</g>
													</g>
												</g>
											</g>
										</g>
										<g>
											<g>
												<g>
													<path fill="#8E2517" d="M339.47,40.584c0.311-0.26,0.643-0.439,1.042-0.5c0.393-0.061,0.78-0.033,1.166,0.061
														c0.218,0.054,0.412,0.142,0.595,0.251c-0.159-0.28-0.331-0.551-0.523-0.809c-0.354-0.476-0.755-0.963-1.181-1.369
														c-0.219-0.208,0.046-0.563,0.302-0.418c0.637,0.364,1.15,0.787,1.604,1.384c0.441,0.58,0.791,1.244,1.037,1.936
														c0.206,0.577,0.349,1.171,0.271,1.79c-0.067,0.54-0.346,1.223-0.939,1.303c-0.44,0.059-0.594-0.512-0.269-0.769
														c0.575-0.457,0.441-1.265,0.209-1.93c-0.114-0.116-0.241-0.218-0.383-0.283c-0.253-0.118-0.596-0.243-0.832-0.293
														c-0.582-0.126-1.193-0.014-1.696,0.266c-0.155,0.086-0.339,0.025-0.434-0.124
														C339.353,40.944,339.33,40.701,339.47,40.584z"/>
												</g>
											</g>
										</g>
									</g>
									<g>
										<g>
											<g>
												<g>
													<g>
														<path fill="#FFFFFF" d="M341.824,46.263c0.074,0.297,0.366,0.478,0.655,0.402c0.289-0.077,0.462-0.38,0.389-0.678
															c-0.073-0.298-0.366-0.478-0.655-0.402C341.925,45.662,341.75,45.964,341.824,46.263z"/>
													</g>
												</g>
											</g>
										</g>
									</g>
									<g>
										<g>
											<g>
												<g>
													<g>
														<path fill="#FFFFFF" d="M339.12,44.626c0.073,0.298,0.366,0.478,0.654,0.402c0.288-0.075,0.462-0.379,0.389-0.677
															c-0.074-0.298-0.367-0.478-0.655-0.402C339.22,44.025,339.046,44.329,339.12,44.626z"/>
													</g>
												</g>
											</g>
										</g>
									</g>
								</g>
							</g>
							<g>
								<g>
									<g opacity="0.32">
										<g>
											<g>
												<g>
													<g>
														<g>
															<g>
																<path fill="#C66858" d="M346.496,35.571c-0.275,2.542,3.264,5.038,7.904,5.574c4.641,0.537,8.624-1.088,8.897-3.63
																	c0.276-2.541-3.263-5.037-7.902-5.574C350.755,31.405,346.771,33.03,346.496,35.571z"/>
															</g>
														</g>
													</g>
												</g>
											</g>
										</g>
									</g>
									<g opacity="0.32">
										<g>
											<g>
												<g>
													<g>
														<g>
															<g>
																<path fill="#C66858" d="M376.11,37.807c0.133,1.627,1.798,2.923,4.179,3.535c0.081-2.468-0.196-4.212-0.461-4.936
																	c-0.12-0.35-0.221-0.727-0.286-1.099c-0.09-0.466-0.138-0.927-0.149-1.393c0-0.073,0-0.155-0.002-0.228
																	C377.28,34.726,375.973,36.242,376.11,37.807z"/>
															</g>
														</g>
													</g>
												</g>
											</g>
										</g>
									</g>
									<g>
										<g>
											<g>
												<g>
													<g>
														<g>
															<g>
																<g>
																	<g>
																		<g>
																			<path fill="#8E2517" d="M372.59,41.444c0.77-0.58,3.115-2.343,2.578-4.542c-0.165-0.688-0.575-1.219-0.97-1.733
																				c-0.11-0.143-0.22-0.285-0.322-0.43c-0.84-1.183-1.28-2.702-1.211-4.166l-0.878-0.045
																				c-0.081,1.694,0.408,3.382,1.38,4.75c0.109,0.155,0.227,0.306,0.343,0.458c0.353,0.458,0.687,0.892,0.807,1.388
																				c0.263,1.079-0.471,2.251-2.244,3.584L372.59,41.444z"/>
																		</g>
																	</g>
																</g>
															</g>
														</g>
													</g>
												</g>
											</g>
										</g>
									</g>
								</g>
								<g>
									<g>
										<g>
											<path fill="#C66858" d="M363.452,46.008c1.494,0.114,2.585-0.185,3.319-0.493c2.205-0.928,3.229-2.795,4.641-2.37
												c0.507,0.153,0.837,0.552,1.509,0.461c0.359-0.048,0.66-0.301,1.31-0.692c1.348,0.25,0.971,3.077-0.021,3.303
												c1.451,5.024-1.797,5.976-5.724,4.059c-1.798-0.711-2.023-1.019-2.623-1.323c-0.326-0.129-0.847-0.388-1.345-0.908
												C363.781,47.277,363.537,46.395,363.452,46.008z"/>
										</g>
									</g>
								</g>
								<g>
									<g>
										<g>
											<g>
												<g>
													<path fill="#8E2517" d="M368.572,47.563c2.271,0.032,4.22-0.46,5.631-0.978l-0.215-0.668
														c-2.011,0.739-5.167,1.424-8.774,0.484c-1.635-0.425-3.197-1.143-4.642-2.133l-0.35,0.594
														c1.507,1.032,3.136,1.78,4.841,2.224C366.292,47.407,367.47,47.546,368.572,47.563z"/>
												</g>
											</g>
										</g>
									</g>
								</g>
							</g>
							<g>
								<g>
									<g>
										<g>
											<g>
												<g>
													<g>
														<g>
															<path fill="#114452" d="M359.583,24.088c-1.03,0.03-2.491,0.208-4.108,0.875c-2.655,1.095-4.302,2.916-5.093,3.93
																c2.58-0.738,5.16-1.476,7.74-2.215c2.179,0.146,4.356,0.291,6.536,0.436l0.753-2.609L359.583,24.088z"/>
														</g>
													</g>
												</g>
											</g>
										</g>
									</g>
								</g>
							</g>
							<g>
								<g>
									<g>
										<g>
											<g>
												<g>
													<g>
														<g>
															<polygon fill="#114452" points="373.355,24.13 372.216,26.984 377.458,26.793 379.081,27.493 379.822,24.072 
																															"/>
														</g>
													</g>
												</g>
											</g>
										</g>
									</g>
								</g>
							</g>
							<g>
								<g>
									<g>
										<g>
											<g>
												<g>
													<g>
														<path fill="#114452" d="M373.92,29.718c0.201-0.353,1.252,1.888,2.955,1.802c1.563-0.079,2.48-2.06,2.654-1.752
															c0.227,0.407-0.928,4.653-2.848,4.639C374.768,34.393,373.673,30.151,373.92,29.718z"/>
													</g>
												</g>
											</g>
										</g>
									</g>
								</g>
								<g>
									<g>
										<g>
											<g>
												<g>
													<g>
														<path fill="#114452" d="M355.659,31.037c0.24-0.369,2.001,1.538,4.392,1.136c2.195-0.369,3.242-2.404,3.524-2.147
															c0.372,0.338-0.727,4.547-3.437,4.896C357.436,35.269,355.364,31.491,355.659,31.037z"/>
													</g>
												</g>
											</g>
										</g>
									</g>
								</g>
							</g>
							<path fill="#114452" d="M376.832,12.235c-1.754-2.38-5.263-6.485-10.965-9.208c-1.989-0.948-14.377-6.636-25.256,0.686
								c-2.954,1.986-5.419,4.679-7.252,7.796c-1.725,2.895-2.895,6.152-3.402,9.5c-0.321,2.087-0.39,4.216-0.166,6.323
								c0.458,4.377,3.587,7.735,7.477,9.521c2.017,0.917,4.64,0.081,5.799-1.855c1.16-1.946,0.712-4.74-0.984-6.193
								c1.881,0.797,4.24,0.151,5.498-1.493c0.703-0.917,1.033-2.097,0.984-3.257c-0.03-0.938-0.312-1.865-0.848-2.632
								c0.926,0.464,1.969,0.604,2.983,0.453c1.013-0.141,1.998-0.584,2.758-1.291c2.448,1.038,5.216,1.002,7.587-0.208
								c2.372-1.21,4.2-3.507,4.896-6.146c1.214,2.875,3.609,5.029,6.565,5.728c1.161,0.273,2.42,0.293,3.543-0.072
								c0.693,0.892,1.539,1.431,2.186,1.737c0.342-0.706,0.732-1.745,0.819-3.026C379.288,15.241,377.34,12.831,376.832,12.235z"/>
							<g>
								<path fill="#114452" d="M352.152,20.032c-0.458,0.636-0.937,1.24-1.452,1.845c-1.014,0.151-2.057,0.011-2.983-0.453
									c0.536,0.767,0.818,1.694,0.848,2.632c-1.55-1.159-2.925-2.551-3.918-4.226c-1.589,1.291-3.636,2.168-5.634,1.986
									c-2.018-0.181-3.948-1.169-5.303-2.722c-1.014,0.917-2.339,1.563-3.753,1.916c0.507-3.348,1.677-6.605,3.402-9.5
									c0.244,0.575,0.527,1.109,0.945,1.594c1.619,1.855,4.065,2.884,6.473,2.733c2.398-0.151,4.056-1.796,5.44-3.833
									C347.025,15.372,349.247,18.327,352.152,20.032z"/>
							</g>
						</g>
					</g>
					<g>
						<g>
							<g>
								<path fill="none" d="M372.287,80.709c-0.026,0.026-0.045,0.045-0.069,0.07"/>
							</g>
						</g>
					</g>
				</g>
				<g>
					<path fill="#114452" d="M403.882,168.851c-17.684,12.091-24.164,22.328-33.552,31.274c-3.927,3.761-9.278,7.595-14.503,10.963
						c-3.626-2.08-7.095-4.297-9.923-6.537c-11.814-9.359-19.866-20.815-46.437-33.169c2.437-0.202,9.435,2.309,16.609,5.233
						c0.38-1.825,1.16-3.69,2.466-5.597c0,0,35.997,22.984,73.915,3.56C397.478,172.007,401.201,170.151,403.882,168.851z"/>
				</g>
				<g opacity="0.5">
					<path fill="#114452" d="M403.882,168.851c-17.684,12.091-24.164,22.328-33.552,31.274c-3.927,3.761-9.278,7.595-14.503,10.963
						c-3.626-2.08-7.095-4.297-9.923-6.537c-11.814-9.359-19.866-20.815-46.437-33.169c2.437-0.202,9.435,2.309,16.609,5.233
						c0.38-1.825,1.16-3.69,2.466-5.597c0,0,35.997,22.984,73.915,3.56C397.478,172.007,401.201,170.151,403.882,168.851z"/>
				</g>
				<g>
					<g>
						<g>
							<g>
								<g>
									<g>
										<path fill="#C66858" d="M396.557,238.342l22.979,13.155c0,0,5.28,1.879-3.036-12.029
											c-8.316-13.91-13.801-20.685-13.801-20.685l-11.648,6.646L396.557,238.342z"/>
									</g>
								</g>
							</g>
							<g>
								<g>
									<g>
										<g>
											<path fill="#FDFDFB" d="M410.828,213.228l-12.151,7.396l-2.712,1.587l16.231,18.615l-13.93-0.896l3.946,10.537
												c2.105-1.869,25.771,12.005,25.771,12.005l-0.008-0.02c2.813,2.886,13.517-1.418,13.022-1.477l-27.896-49.038
												L410.828,213.228z"/>
										</g>
									</g>
								</g>
							</g>
							<g>
								<g>
									<g>
										<g>
											<path fill="#279B94" d="M420.38,249.405c0.122,0.217,0.141,0.49,0.025,0.731c-1.359,2.835-1.491,6.279-0.35,9.213
												c0.153,0.394-0.031,0.841-0.41,1c-0.381,0.156-0.814-0.035-0.966-0.428c-1.296-3.333-1.148-7.248,0.396-10.468
												c0.182-0.381,0.627-0.533,0.996-0.345C420.205,249.178,420.309,249.282,420.38,249.405z"/>
										</g>
									</g>
								</g>
								<g>
									<g>
										<g>
											<path fill="#279B94" d="M415.993,247.001c0.123,0.217,0.142,0.491,0.026,0.731c-1.363,2.833-1.492,6.277-0.353,9.215
												c0.151,0.392-0.031,0.839-0.411,0.997c-0.38,0.157-0.813-0.03-0.964-0.427c-1.297-3.337-1.148-7.25,0.397-10.468
												c0.183-0.381,0.629-0.535,0.994-0.346C415.816,246.771,415.923,246.877,415.993,247.001z"/>
										</g>
									</g>
								</g>
								<g>
									<g>
										<g>
											<path fill="#279B94" d="M411.935,245.176c0.124,0.217,0.141,0.489,0.026,0.731c-1.361,2.834-1.492,6.278-0.351,9.213
												c0.153,0.394-0.031,0.841-0.41,0.998c-0.382,0.157-0.814-0.028-0.966-0.425c-1.297-3.335-1.148-7.248,0.397-10.469
												c0.182-0.379,0.626-0.533,0.995-0.347C411.759,244.947,411.865,245.051,411.935,245.176z"/>
										</g>
									</g>
								</g>
								<g>
									<g>
										<g>
											<path fill="#279B94" d="M410.027,213.419l27.722,48.729c0.208,0.365,0.091,0.835-0.263,1.051
												c-0.354,0.215-0.808,0.094-1.016-0.272l-27.72-48.73c-0.209-0.364-0.092-0.833,0.263-1.049
												C409.366,212.934,409.82,213.054,410.027,213.419z"/>
										</g>
									</g>
								</g>
							</g>
							<g>
								<g>
									<path fill="#279B94" d="M405.906,224.811c-0.611,0.7-0.677,1.702-0.244,2.479c-0.703,0.521-1.04,1.465-0.761,2.362
										c0.279,0.898,1.086,1.459,1.951,1.458c0.085,0.892,0.706,1.666,1.599,1.863c0.891,0.199,1.765-0.243,2.195-1.02
										c0.789,0.369,1.747,0.2,2.359-0.5c0.611-0.7,0.679-1.703,0.244-2.478c0.704-0.521,1.041-1.465,0.761-2.363
										c-0.28-0.897-1.085-1.459-1.951-1.458c-0.086-0.893-0.707-1.665-1.598-1.862c-0.893-0.199-1.765,0.242-2.197,1.019
										C407.478,223.941,406.52,224.11,405.906,224.811z M410.288,228.318c-0.114,0.084-0.221,0.181-0.318,0.294
										c-0.099,0.112-0.181,0.231-0.253,0.358c-0.128-0.061-0.264-0.108-0.407-0.139c-0.142-0.031-0.284-0.047-0.424-0.047
										c-0.016-0.145-0.043-0.29-0.088-0.434c-0.044-0.145-0.104-0.278-0.174-0.405c0.114-0.085,0.222-0.182,0.32-0.294
										s0.181-0.232,0.252-0.358c0.127,0.061,0.263,0.108,0.405,0.139c0.143,0.031,0.285,0.047,0.425,0.047
										c0.015,0.145,0.042,0.29,0.088,0.433C410.158,228.057,410.218,228.191,410.288,228.318z"/>
								</g>
								<g>
									<path fill="#FFFFFF" d="M408.682,226.705c0.796-0.432,1.78-0.115,2.197,0.71c0.418,0.825,0.11,1.843-0.687,2.274
										c-0.797,0.433-1.781,0.115-2.198-0.711C407.577,228.154,407.884,227.137,408.682,226.705z"/>
								</g>
							</g>
						</g>
						<g>
							<polygon fill="#C66858" points="391.05,225.429 376.777,223.679 369.823,237.383 403.233,240.273 							"/>
						</g>
					</g>
					<g>
						<g>
							<g>
								<g>
									<path fill="#114452" d="M299.466,171.384c0,0-19.149-10.692-30.242-2.427c-20.284,15.113,14.133,44.19,53.505,58.389
										c39.371,14.197,52.153,12.261,52.153,12.261s8.555-2.436,5.521-16.779c0,0-22.695-8.927-34.504-18.28
										C334.091,195.196,326.042,183.737,299.466,171.384z"/>
								</g>
							</g>
						</g>
					</g>
					<g>
						<g>
							<g>
								<g>
									<g>
										<g>
											<path fill="#114452" d="M378.871,226.999c-8.258-2.055-25.083-10.039-45.011-21.362
												c-14.904-8.469-32.093-19.291-34.615-23.043c-1.363-2.027-1.706-3.687-1.021-4.93c1.025-1.86,3.979-2.053,5.324-2.039
												c0.347,0.003,0.619,0.308,0.593,0.666l0,0c-0.022,0.324-0.284,0.576-0.598,0.573c-1.324-0.009-3.626,0.225-4.281,1.415
												c-0.542,0.986,0.225,2.507,0.964,3.607c2.034,3.027,16.421,12.56,34.208,22.665
												c15.317,8.704,35.106,18.853,44.715,21.243L378.871,226.999z"/>
										</g>
									</g>
								</g>
							</g>
						</g>
					</g>
					<g>
						<g>
							<g>
								<g>
									<g>
										<g>
											<path fill="#114452" d="M377.317,220.922c-0.931,7.54-2.818,14.394-6.936,19.648c0,0,3.524,2.626,6.744,0.743
												c2.459-1.439,7.2-13.216,5.393-19.502C380.462,220.649,378.688,220.243,377.317,220.922z"/>
										</g>
									</g>
								</g>
							</g>
						</g>
					</g>
				</g>
				<g>
					<path fill="#C66858" d="M390.188,83.34c-5.871,3.413-26.1,14.089-46.41,11.103c-10.553-1.556-20.092-6.326-20.092-6.326
						c-4.206-2.121-7.603-4.374-10.127-6.259c1.858-1.608,4.099-3.288,6.652-4.763c0.106-0.058,0.206-0.117,0.312-0.176
						c4.319-2.429,9.532-4.248,15.376-4.139c12.128,0.235,22.971-0.036,28.147-0.205c2.723-0.088,5.44,0.118,8.121,0.631
						c0.028,0,0.057,0.007,0.085,0.015c2.481,0.477,5.574,1.218,8.524,2.311c3.397,1.27,6.596,3.008,8.439,5.364
						C389.57,81.352,389.897,82.181,390.188,83.34z"/>
				</g>
				<g>
					<g>
						<g>
							<g>
								<g>
									<g>
										<path fill="#C66858" d="M326.225,239.041l-20.918,16.431c0,0-4.964,2.643,1.338-12.357
											c6.301-14.999,10.791-22.518,10.791-22.518l12.449,4.848L326.225,239.041z"/>
									</g>
								</g>
							</g>
							<g>
								<g>
									<g>
										<g>
											<path fill="#FDFDFB" d="M308.62,216.306l13.052,5.515l2.902,1.166l-13.482,20.833l13.662-2.953l-2.446,11.015
												c-2.341-1.538-23.84,15.705-23.84,15.705l0.004-0.021c-2.383,3.273-13.572,0.602-13.092,0.471l20.81-52.671
												L308.62,216.306z"/>
										</g>
									</g>
								</g>
							</g>
							<g>
								<g>
									<g>
										<g>
											<path fill="#279B94" d="M304.182,253.526c-0.091,0.231-0.071,0.505,0.076,0.728c1.74,2.604,2.346,5.993,1.625,9.065
												c-0.097,0.413,0.148,0.827,0.545,0.928c0.396,0.1,0.801-0.154,0.896-0.564c0.821-3.492,0.131-7.343-1.843-10.302
												c-0.233-0.349-0.696-0.436-1.033-0.194C304.324,253.274,304.234,253.393,304.182,253.526z"/>
										</g>
									</g>
								</g>
								<g>
									<g>
										<g>
											<path fill="#279B94" d="M308.19,250.496c-0.091,0.231-0.072,0.505,0.076,0.727c1.741,2.603,2.347,5.991,1.626,9.066
												c-0.097,0.411,0.147,0.827,0.544,0.927c0.399,0.101,0.801-0.15,0.896-0.565c0.82-3.495,0.13-7.345-1.845-10.299
												c-0.233-0.351-0.696-0.438-1.033-0.196C308.333,250.242,308.243,250.362,308.19,250.496z"/>
										</g>
									</g>
								</g>
								<g>
									<g>
										<g>
											<path fill="#279B94" d="M311.954,248.087c-0.092,0.233-0.072,0.506,0.076,0.727c1.739,2.604,2.345,5.994,1.624,9.067
												c-0.097,0.411,0.147,0.827,0.544,0.927c0.398,0.101,0.803-0.149,0.896-0.563c0.821-3.493,0.132-7.346-1.844-10.304
												c-0.232-0.348-0.694-0.435-1.032-0.193C312.096,247.836,312.006,247.954,311.954,248.087z"/>
										</g>
									</g>
								</g>
								<g>
									<g>
										<g>
											<path fill="#279B94" d="M309.438,216.375l-20.68,52.341c-0.154,0.393,0.026,0.841,0.406,1.001
												c0.38,0.16,0.812-0.027,0.967-0.421l20.679-52.339c0.156-0.394-0.026-0.84-0.405-1.001
												C310.025,215.796,309.592,215.983,309.438,216.375z"/>
										</g>
									</g>
								</g>
							</g>
							<g>
								<g>
									<path fill="#279B94" d="M312.692,226.893c-0.536-0.704-1.46-1.01-2.315-0.683c-0.855,0.328-1.362,1.187-1.324,2.08
										c-0.856,0.128-1.576,0.804-1.729,1.734c-0.152,0.931,0.312,1.813,1.08,2.227c-0.322,0.829-0.117,1.813,0.586,2.414
										c0.703,0.604,1.674,0.628,2.404,0.146c0.535,0.704,1.46,1.012,2.315,0.683c0.855-0.328,1.362-1.185,1.323-2.081
										c0.857-0.127,1.577-0.803,1.729-1.733c0.152-0.93-0.312-1.813-1.081-2.227c0.322-0.831,0.116-1.813-0.586-2.414
										C314.393,226.435,313.421,226.41,312.692,226.893z M311.363,230.733c0.024-0.149,0.032-0.299,0.026-0.442
										c0.138-0.021,0.277-0.057,0.415-0.109c0.137-0.053,0.264-0.12,0.383-0.198c0.087,0.115,0.186,0.222,0.298,0.317
										c0.112,0.097,0.232,0.177,0.356,0.245c-0.051,0.134-0.091,0.275-0.116,0.426c-0.024,0.148-0.031,0.296-0.026,0.44
										c-0.139,0.022-0.278,0.059-0.415,0.11c-0.137,0.053-0.264,0.12-0.383,0.197c-0.087-0.113-0.187-0.221-0.299-0.317
										c-0.112-0.097-0.232-0.177-0.356-0.244C311.298,231.022,311.338,230.881,311.363,230.733z"/>
								</g>
								<g>
									<path fill="#FFFFFF" d="M312.612,229.323c-0.848-0.309-1.777,0.152-2.076,1.029c-0.299,0.879,0.146,1.841,0.995,2.15
										c0.848,0.308,1.778-0.151,2.077-1.029C313.907,230.595,313.461,229.634,312.612,229.323z"/>
								</g>
							</g>
						</g>
						<g>
							<polygon fill="#C66858" points="329.886,225.444 343.768,221.596 352.548,234.125 319.886,241.943 							"/>
						</g>
					</g>
					<g>
						<g>
							<g>
								<g>
									<g>
										<g>
											<path fill="#114452" d="M413.632,162.698c0,0,18.121-12.464,29.898-5.288c21.538,13.125-10.156,45.345-48.102,63.22
												c-37.947,17.875-50.849,17.161-50.849,17.161s-8.734-1.613-6.983-16.185c0,0,21.808-11.044,32.737-21.477
												C381.263,189.696,388.263,177.521,413.632,162.698z"/>
										</g>
									</g>
								</g>
							</g>
						</g>
					</g>
					<g>
						<g>
							<g>
								<g>
									<path fill="#114452" d="M380.49,227.355c-2.09,0.711-4.213,1.425-6.406,2.139c-8.489,2.766-18.182,5.66-26.961,7.89
										l-0.031,1.299c7.927-1.999,17.229-4.71,27.352-8.006c1.977-0.645,3.993-1.321,6.016-2.01L380.49,227.355z"/>
								</g>
							</g>
						</g>
					</g>
					<g>
						<g>
							<g>
								<g>
									<path fill="#114452" d="M339.492,225.615c8.04-2.829,24.087-12.377,42.928-25.543
										c14.089-9.847,30.246-22.256,32.426-26.233c1.177-2.148,1.372-3.833,0.579-5.005c-1.186-1.755-4.144-1.667-5.481-1.525
										c-0.347,0.036-0.59,0.365-0.533,0.718l0,0c0.051,0.321,0.333,0.547,0.646,0.515c1.318-0.135,3.632-0.12,4.389,1.002
										c0.628,0.931-0.001,2.517-0.64,3.683c-1.758,3.207-15.238,14.065-32.056,25.817c-14.479,10.12-33.287,22.105-42.643,25.397
										L339.492,225.615z"/>
								</g>
							</g>
						</g>
					</g>
					<g>
						<g>
							<g>
								<g>
									<g>
										<path fill="#114452" d="M340.501,219.416c1.594,7.42,4.082,14.064,8.647,18.908c0,0-3.276,2.95-6.648,1.378
											c-2.577-1.198-8.342-12.476-7.101-18.907C337.344,219.442,339.076,218.87,340.501,219.416z"/>
									</g>
								</g>
							</g>
						</g>
					</g>
				</g>
				<g>
					<g>
						<path fill="#C66858" d="M284.569,167.199c0,0-4.872,6.577-6.708,7.776c-1.837,1.198-10.592,4.52-10.592,4.52
							s-3.943,2.509-4.168-1.296c0,0,0.95-2.669,2.93-4.036l-5.458,2.382c0,0-3.939,4.132-5.327,4.601
							c-1.388,0.469-2.488,0.602-2.687-0.181c0,0-1.369,0.787-1.588-0.854c-0.221-1.641,1.147-2.968,1.147-2.968
							s-1.335-0.202-0.634-1.361c0.7-1.158,9.69-13.024,9.69-13.024s12.854-8.388,18.682-6.591c5.827,1.795,5.827,1.795,5.827,1.795
							c0.155,0.16,2.228,2.374,1.601,5.409C286.781,165.822,284.887,167.008,284.569,167.199z"/>
					</g>
					<g>
						<path fill="#8E2517" d="M265.393,174.787l-0.114-0.491c0.125-0.03,3.058-0.757,3.893-0.849
							c0.544-0.059,2.646-1.869,3.842-2.996l0.329,0.373c-0.537,0.505-3.258,3.032-4.122,3.126
							C268.418,174.036,265.423,174.779,265.393,174.787z"/>
					</g>
					<g>
						<path fill="#8E2517" d="M252.317,180.981c-0.147-2.27,2.781-4.804,3.177-5.134c0.189-0.354,1.385-2.517,2.64-3.039
							c1.215-0.505,4.383-3.573,4.415-3.604l0.333,0.368c-0.133,0.129-3.267,3.164-4.566,3.704
							c-1.175,0.489-2.404,2.832-2.417,2.856l-0.063,0.079c-0.032,0.025-3.169,2.618-3.032,4.737L252.317,180.981z"/>
					</g>
					<g>
						<path fill="#8E2517" d="M251.869,177.342l-0.343-0.357c0.022-0.023,2.27-2.345,3.026-3.769
							c0.79-1.488,5.534-6.426,5.735-6.635l0.345,0.356c-0.048,0.05-4.896,5.096-5.652,6.52
							C254.19,174.945,251.964,177.245,251.869,177.342z"/>
					</g>
				</g>
				<g>
					<polygon fill="#8E2517" points="343.613,87.746 324.778,83.4 324.883,82.908 343.72,87.253 					"/>
				</g>
				<g>
					<polygon fill="#8E2517" points="359.481,86.664 359.365,86.174 378.092,81.352 378.211,81.841 					"/>
				</g>
				<g>
					<path fill="#279B94" d="M303.642,89.375c-3.777,6.039-7.745,13.259-11.392,21.66c-2.801,6.45-4.959,12.553-6.638,18.114
						c2.445,2.068,5.167,4.176,8.18,6.244c6.749,4.631,13.25,7.892,18.926,10.217h2.164c1.521-5.056,4.098-16.007,1.425-29.509
						C313.609,102.472,306.979,93.393,303.642,89.375z"/>
				</g>
				<g>
					<polygon fill="#114452" points="313.444,146.108 310.552,107.019 311.28,106.961 314.174,146.051 					"/>
				</g>
				<g>
					
						<rect x="318.352" y="81.629" transform="matrix(0.0144 0.9999 -0.9999 0.0144 405.459 -246.1453)" fill="#279B94" width="18.478" height="1.949"/>
				</g>
				<g>
					
						<rect x="368.739" y="82.784" transform="matrix(0.0144 0.9999 -0.9999 0.0144 456.2953 -295.3835)" fill="#279B94" width="18.478" height="1.95"/>
				</g>
				<g>
					<path fill="#8E2517" d="M301.175,156.051c-1.906-1.876-4.508-3.012-7.138-3.117l0.019-0.504
						c2.747,0.109,5.465,1.296,7.457,3.257L301.175,156.051z"/>
				</g>
				<g>
					<g>
						<path fill="#C66858" d="M422.827,162.668c0,0,4.873,6.578,6.709,7.775c1.837,1.199,10.592,4.521,10.592,4.521
							s3.943,2.508,4.168-1.296c0,0-0.949-2.67-2.931-4.036l5.458,2.381c0,0,3.94,4.132,5.327,4.601
							c1.387,0.47,2.487,0.603,2.687-0.18c0,0,1.368,0.787,1.588-0.854c0.221-1.642-1.147-2.97-1.147-2.97s1.335-0.202,0.635-1.36
							c-0.7-1.158-9.69-13.025-9.69-13.025s-12.854-8.386-18.683-6.591c-5.826,1.796-5.826,1.796-5.826,1.796
							c-0.155,0.16-2.229,2.374-1.602,5.41C420.617,161.292,422.511,162.478,422.827,162.668z"/>
					</g>
					<g>
						<path fill="#8E2517" d="M442.005,170.257c-0.029-0.008-3.027-0.751-3.829-0.837c-0.863-0.094-3.584-2.621-4.12-3.125
							l0.327-0.372c1.198,1.126,3.3,2.936,3.844,2.995c0.835,0.092,3.768,0.819,3.893,0.85L442.005,170.257z"/>
					</g>
					<g>
						<path fill="#8E2517" d="M455.08,176.452l-0.486-0.034c0.139-2.119-3.001-4.711-3.033-4.737l-0.061-0.08
							c-0.013-0.023-1.243-2.366-2.417-2.855c-1.3-0.54-4.435-3.575-4.565-3.704l0.333-0.369c0.032,0.033,3.198,3.1,4.414,3.606
							c1.253,0.522,2.449,2.684,2.64,3.037C452.299,171.647,455.228,174.181,455.08,176.452z"/>
					</g>
					<g>
						<path fill="#8E2517" d="M455.528,172.812c-0.095-0.096-2.32-2.397-3.111-3.884c-0.755-1.424-5.602-6.471-5.651-6.52
							l0.344-0.357c0.203,0.21,4.946,5.148,5.734,6.635c0.759,1.424,3.005,3.747,3.028,3.771L455.528,172.812z"/>
					</g>
				</g>
			</g>
		</g>
	</g>
</g>
</svg>
