<?xml version="1.0" encoding="utf-8"?>
<!-- Generator: Adobe Illustrator 16.0.2, SVG Export Plug-In . SVG Version: 6.00 Build 0)  -->
<!DOCTYPE svg PUBLIC "-//W3C//DTD SVG 1.1//EN" "http://www.w3.org/Graphics/SVG/1.1/DTD/svg11.dtd">
<svg version="1.1" id="Layer_1" xmlns="http://www.w3.org/2000/svg" xmlns:xlink="http://www.w3.org/1999/xlink" x="0px" y="0px"
	 width="558.43px" height="206.93px" viewBox="0 0 558.43 206.93" enable-background="new 0 0 558.43 206.93" xml:space="preserve">
<g>
	<path fill="#3A302C" d="M451.886,173.349h-10.508c-1.902,0-3.443,1.541-3.443,3.442v5.073c0,1.901,1.541,3.442,3.443,3.442h10.508
		c1.901,0,3.442-1.541,3.442-3.442v-5.073C455.328,174.89,453.787,173.349,451.886,173.349z"/>
	<path fill="#3A302C" d="M369.595,173.349h-15.691c-2.222,0-4.022,1.8-4.022,4.021v3.916c0,2.221,1.801,4.021,4.022,4.021h15.691
		c2.222,0,4.021-1.8,4.021-4.021v-3.916C373.615,175.148,371.816,173.349,369.595,173.349z"/>
	<g>
		<path fill="#E6672D" d="M215.65,129.953c0,0-2.451-26.473-0.095-32.09c2.355-5.617,7.066-15.764,7.066-15.764l8.516,2.176
			c0,0,0.543,11.051-0.906,18.66C228.781,110.546,215.65,129.953,215.65,129.953z"/>
		<path fill="#F68434" d="M231.096,84.265l-8.476-2.165c0,0-4.71,10.146-7.066,15.764c-1.149,2.738-1.153,10.434-0.858,17.603
			c4.894-2.213,10.085-8.297,13.385-16.379C230.224,93.84,231.203,88.639,231.096,84.265z"/>
		<g>
			<path fill="#933F37" d="M203.175,185.352c-0.078,0-0.157-0.009-0.236-0.027c-0.574-0.13-0.933-0.699-0.803-1.273l15.219-67.157
				c0.13-0.573,4.691-17.983,5.266-17.853c0.573,0.13-3.06,17.75-3.19,18.323l-15.219,67.157
				C204.1,185.016,203.661,185.352,203.175,185.352z"/>
		</g>
	</g>
	<path fill="#F8B128" d="M225.833,192.373h-18.359c5.314-66.191,43-151.226,89.625-192.052
		C304.827,49.844,277.288,139.71,225.833,192.373z"/>
	<path fill="#F8CB64" d="M252.186,142.214c8.776-2.602,9.235-27.161,1.026-54.854c-2.072-6.988-4.498-13.505-7.107-19.307
		c-7.393,13.854-13.979,28.514-19.549,43.403C234.62,131.285,245.052,144.329,252.186,142.214z"/>
	<path fill="#ED9723" d="M225.833,192.373c50.907-52.102,78.399-140.61,71.495-190.447
		c-43.542,50.987-75.606,130.087-82.253,190.447H225.833z"/>
	<path fill="#F49D30" d="M297.327,1.926c-21.388,25.045-40.003,56.875-54.201,89.933c15.238-1.451,34.512-13.654,50.262-30.973
		C298.152,38.834,299.595,18.294,297.327,1.926z"/>
	<path fill="#E5731E" d="M236.289,118.154c16.319-49.768,40.412-89.661,61.941-106.216c-0.163-3.482-0.462-6.827-0.903-10.013
		c-43.542,50.987-75.606,130.087-82.253,190.447h5.382C222.322,170.306,227.582,144.708,236.289,118.154z"/>
	<g>
		<path fill="#D14C28" d="M219.742,195.08l-0.623-0.341c0.802-1.462,80.05-146.266,77.488-193.987l0.49-0.431l0.183,1.225
			C299.853,49.468,220.545,193.617,219.742,195.08z"/>
	</g>
	<path fill="#3A302C" d="M496.879,173.41H265.692c-2.201,0-3.986,1.784-3.986,3.985v0.482c0,2.202,1.785,3.986,3.986,3.986h231.187
		c2.201,0,3.986-1.784,3.986-3.986v-0.482C500.865,175.194,499.08,173.41,496.879,173.41z"/>
	<path fill="#3A302C" d="M405.131,153.457c-0.062,0-0.121,0.005-0.182,0.006c-0.062-0.001-0.12-0.006-0.182-0.006
		c-0.061,0-0.12,0.005-0.181,0.006c-0.061-0.001-0.12-0.006-0.182-0.006s-0.12,0.005-0.182,0.006
		c-0.061-0.001-0.12-0.006-0.181-0.006s-0.12,0.005-0.181,0.006c-0.062-0.001-0.12-0.006-0.182-0.006s-0.12,0.005-0.182,0.006
		c-0.061-0.001-0.12-0.006-0.181-0.006s-0.12,0.005-0.181,0.006c-0.062-0.001-0.12-0.006-0.182-0.006s-0.12,0.005-0.182,0.006
		c-0.061-0.001-0.12-0.006-0.181-0.006s-0.12,0.005-0.181,0.006c-0.062-0.001-0.12-0.006-0.182-0.006s-0.12,0.005-0.182,0.006
		c-0.061-0.001-0.12-0.006-0.181-0.006s-0.12,0.005-0.181,0.006c-0.062-0.001-0.12-0.006-0.182-0.006s-0.12,0.005-0.182,0.006
		c-0.061-0.001-0.12-0.006-0.181-0.006c-0.062,0-0.12,0.005-0.181,0.006c-0.062-0.001-0.12-0.006-0.182-0.006
		s-0.12,0.005-0.182,0.006c-0.061-0.001-0.12-0.006-0.181-0.006c-0.062,0-0.12,0.005-0.182,0.006
		c-0.061-0.001-0.12-0.006-0.182-0.006c-0.061,0-0.12,0.005-0.181,0.006c-0.061-0.001-0.12-0.006-0.181-0.006
		c-0.062,0-0.12,0.005-0.182,0.006c-0.061-0.001-0.12-0.006-0.182-0.006c-0.061,0-0.12,0.005-0.181,0.006
		c-0.061-0.001-0.121-0.006-0.181-0.006c-0.062,0-0.121,0.005-0.182,0.006c-0.062-0.001-0.121-0.006-0.182-0.006
		s-0.121,0.005-0.181,0.006c-0.061-0.001-0.121-0.006-0.181-0.006c-0.062,0-0.121,0.005-0.182,0.006
		c-0.062-0.001-0.121-0.006-0.182-0.006s-0.121,0.005-0.181,0.006c-0.061-0.001-0.121-0.006-0.181-0.006
		c-0.062,0-0.121,0.005-0.182,0.006c-0.062-0.001-0.121-0.006-0.182-0.006c-8.755,0-15.688,8.712-15.485,19.459
		c0.203,10.745,7.465,19.457,16.221,19.457c0.061,0,0.121-0.005,0.181-0.006c0.062,0.001,0.121,0.006,0.182,0.006
		c0.062,0,0.121-0.005,0.182-0.006c0.061,0.001,0.121,0.006,0.181,0.006c0.061,0,0.121-0.005,0.181-0.006
		c0.062,0.001,0.121,0.006,0.182,0.006c0.062,0,0.122-0.005,0.182-0.006c0.061,0.001,0.121,0.006,0.181,0.006
		c0.062,0,0.121-0.005,0.181-0.006c0.062,0.001,0.122,0.006,0.182,0.006c0.062,0,0.122-0.005,0.182-0.006
		c0.061,0.001,0.121,0.006,0.181,0.006c0.062,0,0.121-0.005,0.182-0.006c0.061,0.001,0.121,0.006,0.182,0.006
		s0.121-0.005,0.181-0.006c0.061,0.001,0.121,0.006,0.181,0.006c0.062,0,0.121-0.005,0.182-0.006
		c0.062,0.001,0.121,0.006,0.182,0.006s0.121-0.005,0.182-0.006c0.06,0.001,0.12,0.006,0.181,0.006s0.12-0.005,0.182-0.006
		c0.061,0.001,0.12,0.006,0.182,0.006c0.06,0,0.12-0.005,0.181-0.006c0.06,0.001,0.12,0.006,0.181,0.006s0.12-0.005,0.182-0.006
		c0.061,0.001,0.12,0.006,0.182,0.006c0.06,0,0.12-0.005,0.181-0.006c0.06,0.001,0.12,0.006,0.181,0.006s0.12-0.005,0.182-0.006
		c0.061,0.001,0.12,0.006,0.182,0.006c0.06,0,0.12-0.005,0.181-0.006c0.06,0.001,0.12,0.006,0.181,0.006
		c0.062,0,0.121-0.005,0.182-0.006c0.061,0.001,0.12,0.006,0.182,0.006c0.06,0,0.12-0.005,0.181-0.006
		c0.06,0.001,0.12,0.006,0.182,0.006c0.061,0,0.12-0.005,0.181-0.006c0.061,0.001,0.121,0.006,0.182,0.006
		c0.06,0,0.12-0.005,0.181-0.006c0.06,0.001,0.12,0.006,0.182,0.006c0.061,0,0.12-0.005,0.182-0.006
		c0.06,0.001,0.12,0.006,0.181,0.006c0.06,0,0.12-0.005,0.181-0.006c0.061,0.001,0.12,0.006,0.182,0.006
		c8.755,0,15.688-8.712,15.485-19.457C421.148,162.169,413.885,153.457,405.131,153.457z"/>
	<path fill="#4E443E" d="M324.686,153.457c-0.061,0-0.12,0.005-0.181,0.006c-0.061-0.001-0.12-0.006-0.181-0.006
		c-0.062,0-0.12,0.005-0.182,0.006c-0.062-0.001-0.12-0.006-0.182-0.006c-0.061,0-0.12,0.005-0.181,0.006
		c-0.061-0.001-0.12-0.006-0.181-0.006c-0.062,0-0.12,0.005-0.182,0.006c-0.062-0.001-0.12-0.006-0.182-0.006
		c-0.061,0-0.12,0.005-0.181,0.006c-0.061-0.001-0.12-0.006-0.181-0.006c-0.063,0-0.12,0.005-0.182,0.006
		c-0.062-0.001-0.12-0.006-0.182-0.006c-0.061,0-0.12,0.005-0.181,0.006c-0.061-0.001-0.12-0.006-0.181-0.006
		c-0.063,0-0.121,0.005-0.182,0.006c-0.062-0.001-0.12-0.006-0.182-0.006c-0.061,0-0.12,0.005-0.181,0.006
		c-0.061-0.001-0.121-0.006-0.182-0.006c-0.062,0-0.121,0.005-0.182,0.006c-0.061-0.001-0.12-0.006-0.181-0.006
		s-0.12,0.005-0.181,0.006c-0.061-0.001-0.121-0.006-0.182-0.006c-0.062,0-0.121,0.005-0.182,0.006
		c-0.061-0.001-0.121-0.006-0.181-0.006c-0.061,0-0.121,0.005-0.181,0.006c-0.062-0.001-0.121-0.006-0.182-0.006
		c-0.062,0-0.121,0.005-0.182,0.006c-0.061-0.001-0.121-0.006-0.181-0.006c-0.061,0-0.121,0.005-0.181,0.006
		c-0.062-0.001-0.121-0.006-0.182-0.006c-0.062,0-0.121,0.005-0.182,0.006c-0.061-0.001-0.121-0.006-0.181-0.006
		c-0.061,0-0.121,0.005-0.181,0.006c-0.062-0.001-0.121-0.006-0.182-0.006c-0.062,0-0.121,0.005-0.182,0.006
		c-0.061-0.001-0.121-0.006-0.181-0.006c-0.062,0-0.121,0.005-0.181,0.006c-0.062-0.001-0.121-0.006-0.182-0.006
		c-0.062,0-0.121,0.005-0.182,0.006c-0.061-0.001-0.121-0.006-0.181-0.006c-0.062,0-0.121,0.005-0.182,0.006
		c-0.061-0.001-0.121-0.006-0.182-0.006s-0.121,0.005-0.181,0.006c-0.061-0.001-0.121-0.006-0.181-0.006
		c-8.757,0-15.689,8.712-15.486,19.459c0.203,10.745,7.466,19.457,16.222,19.457c0.061,0,0.121-0.005,0.181-0.006
		c0.061,0.001,0.121,0.006,0.181,0.006c0.062,0,0.121-0.005,0.182-0.006c0.062,0.001,0.121,0.006,0.182,0.006
		s0.121-0.005,0.181-0.006c0.061,0.001,0.121,0.006,0.181,0.006c0.062,0,0.121-0.005,0.182-0.006
		c0.062,0.001,0.121,0.006,0.182,0.006s0.121-0.005,0.181-0.006c0.061,0.001,0.121,0.006,0.181,0.006
		c0.062,0,0.121-0.005,0.182-0.006c0.062,0.001,0.121,0.006,0.182,0.006s0.121-0.005,0.181-0.006
		c0.061,0.001,0.121,0.006,0.181,0.006c0.062,0,0.121-0.005,0.182-0.006c0.062,0.001,0.121,0.006,0.182,0.006
		s0.121-0.005,0.181-0.006c0.061,0.001,0.121,0.006,0.182,0.006c0.062,0,0.121-0.005,0.181-0.006
		c0.062,0.001,0.121,0.006,0.182,0.006s0.121-0.005,0.181-0.006c0.061,0.001,0.121,0.006,0.182,0.006
		c0.062,0,0.121-0.005,0.181-0.006c0.062,0.001,0.122,0.006,0.182,0.006c0.061,0,0.121-0.005,0.181-0.006
		c0.062,0.001,0.121,0.006,0.182,0.006c0.062,0,0.121-0.005,0.182-0.006c0.061,0.001,0.121,0.006,0.181,0.006
		c0.061,0,0.121-0.005,0.182-0.006c0.061,0.001,0.12,0.006,0.182,0.006c0.061,0,0.12-0.005,0.182-0.006
		c0.06,0.001,0.12,0.006,0.181,0.006c0.06,0,0.12-0.005,0.181-0.006c0.061,0.001,0.12,0.006,0.182,0.006
		c0.061,0,0.12-0.005,0.182-0.006c0.06,0.001,0.12,0.006,0.181,0.006c0.06,0,0.12-0.005,0.181-0.006
		c0.061,0.001,0.12,0.006,0.182,0.006c0.061,0,0.12-0.005,0.182-0.006c0.06,0.001,0.12,0.006,0.181,0.006
		c0.06,0,0.12-0.005,0.181-0.006c0.061,0.001,0.12,0.006,0.182,0.006c0.061,0,0.12-0.005,0.182-0.006
		c0.06,0.001,0.12,0.006,0.181,0.006c8.756,0,15.688-8.712,15.485-19.457C340.704,162.169,333.441,153.457,324.686,153.457z"/>
	<path fill="#CC401F" d="M522.365,176.066H310.264c0,0,42.426-110.974,61.602-130.149c1.278-0.04,77.693-0.059,78.994-0.059
		C538.551,45.858,522.365,176.066,522.365,176.066z"/>
	<path fill="#DB4426" d="M523.365,143.578c-4.98-0.556-10.167-0.849-15.494-0.849c-38.024,0-68.85,14.925-68.85,33.337h83.344
		C522.365,176.066,524.084,162.229,523.365,143.578z"/>
	<path fill="#DB4426" d="M450.859,45.858c-1.301,0-77.716,0.02-78.994,0.059c-0.471,0.47-0.955,0.997-1.451,1.575
		c6.146,21.08,32.68,45.521,69.209,61.257c30.764,13.248,61.145,17.104,81.642,12.011C515.916,85.293,499.119,45.858,450.859,45.858
		z"/>
	<g>
		<path fill="#AF381C" d="M425.337,158.59c17.93,0.175,54.669,0.3,98.127,0.321c0.01-0.368,0.019-0.74,0.025-1.117
			c-43.81,0.02-80.709,0.145-98.494,0.32C425.109,158.274,425.224,158.431,425.337,158.59z"/>
		<path fill="#AF381C" d="M523.271,141.41c-0.018-0.362-0.036-0.727-0.055-1.092c-53.946,0.06-93.837,0.281-93.544,0.546
			C429.966,141.128,469.776,141.35,523.271,141.41z"/>
		<path fill="#AF381C" d="M403.089,123.071c0.107,0.204,0.215,0.406,0.322,0.608c22.046,0.156,60.394,0.26,103.902,0.26
			c4.874,0,9.679-0.002,14.402-0.005c-0.05-0.37-0.099-0.742-0.151-1.115c-5.078-0.003-10.251-0.004-15.5-0.004
			C462.786,122.815,424.846,122.917,403.089,123.071z"/>
		<path fill="#AF381C" d="M512.825,88.957c-0.154-0.371-0.31-0.742-0.467-1.111c-59.06,0.041-104.094,0.273-103.781,0.557
			C408.89,88.682,454.05,88.914,512.825,88.957z"/>
		<path fill="#AF381C" d="M394.962,105.359c0.135,0.353,0.271,0.705,0.41,1.06c13.059,0.021,27.124,0.032,41.779,0.032
			c31.232,0,59.682-0.053,81.279-0.14c-0.069-0.281-0.141-0.561-0.211-0.841c-21.882-0.089-50.739-0.144-82.318-0.144
			C421.532,105.327,407.757,105.339,394.962,105.359z"/>
		<path fill="#AF381C" d="M389.518,71.475c60.323-0.02,108.438-0.237,113.351-0.512c-0.023-0.033-0.048-0.063-0.071-0.097
			c-5.297-0.272-53.238-0.49-113.062-0.513C389.657,70.725,389.584,71.098,389.518,71.475z"/>
		<path fill="#AF381C" d="M474.679,53.232c-12.493-0.153-39.147-0.275-72.643-0.332c-0.551,0.34-1.076,0.695-1.588,1.057
			c35.334-0.056,63.224-0.185,75.359-0.346C475.431,53.481,475.055,53.358,474.679,53.232z"/>
	</g>
	<g>
		<path fill="#E1A33C" d="M522.679,176.421H309.747l0.184-0.481c0.426-1.109,42.674-111.264,61.683-130.273l0.1-0.099l0.141-0.004
			c1.304-0.041,78.234-0.06,79.006-0.06c20.142,0,36.458,6.909,48.494,20.533c16.786,19.002,22.243,47.927,23.865,68.846
			c1.756,22.642-0.479,41.044-0.502,41.227L522.679,176.421z M310.78,175.712h211.269c0.585-5.241,7.599-74.312-23.229-109.207
			c-11.896-13.465-28.032-20.292-47.961-20.292c-0.757,0-75,0.02-78.846,0.057C353.707,64.81,313.85,167.736,310.78,175.712z"/>
	</g>
	<path fill="#E25A34" d="M450.375,176.066H238.274c0,0,35.511-130.208,140.596-130.208
		C466.562,45.858,450.375,176.066,450.375,176.066z"/>
	<path fill="#E4693E" d="M346.668,176.066h103.707c0,0,3.434-27.616-1.429-57.414c-16.046,1.796-34.347,7.417-52.478,16.843
		C374.713,146.808,357.297,161.466,346.668,176.066z"/>
	<path fill="#E4693E" d="M249.394,146.58c21.274,6.786,53.351,6.137,87.214-3.367c54.914-15.413,93.717-48.267,86.668-73.381
		c-3.34-11.902-16.382-19.927-35.02-23.439c-2.989-0.349-6.114-0.535-9.387-0.535C306.174,45.858,266.776,108.168,249.394,146.58z"
		/>
	<g>
		<path fill="#D14C28" d="M451.48,158.706c0.006-0.234,0.011-0.469,0.017-0.707c-22.555-0.127-57.014-0.209-95.637-0.209
			c-49.225,0-91.689,0.133-111.355,0.324c-0.063,0.16-0.125,0.316-0.188,0.476c19.583,0.192,62.161,0.325,111.543,0.325
			C394.474,158.915,428.926,158.834,451.48,158.706z"/>
		<path fill="#D14C28" d="M268.35,140.864c0,0.311,55.079,0.563,123.022,0.563c21.751,0,42.179-0.026,59.907-0.072
			c-0.016-0.326-0.031-0.653-0.049-0.981c-17.718-0.045-38.128-0.071-59.858-0.071C323.429,140.303,268.35,140.555,268.35,140.864z"
			/>
		<path fill="#D14C28" d="M449.706,123.783c-0.036-0.271-0.072-0.542-0.11-0.813c-22.067-0.097-51.926-0.154-84.798-0.154
			c-43.278,0-81.33,0.102-103.26,0.256c-0.12,0.204-0.236,0.406-0.355,0.608c21.873,0.156,60.106,0.26,103.615,0.26
			C397.724,123.939,427.627,123.881,449.706,123.783z"/>
		<path fill="#D14C28" d="M305.553,88.402c0,0.311,55.078,0.562,123.021,0.562c4.139,0,8.229-0.001,12.263-0.003
			c-0.155-0.375-0.312-0.748-0.47-1.119c-3.883-0.002-7.814-0.003-11.793-0.003C360.631,87.839,305.553,88.092,305.553,88.402z"/>
		<path fill="#D14C28" d="M437.089,105.89c0-0.311-55.078-0.563-123.021-0.563c-14.369,0-28.158,0.012-40.977,0.032
			c-0.256,0.353-0.512,0.705-0.765,1.06c13.034,0.021,27.086,0.032,41.742,0.032C382.011,106.451,437.089,106.2,437.089,105.89z"/>
		<path fill="#D14C28" d="M306.765,70.354c-0.491,0.371-0.979,0.744-1.464,1.121c63.918-0.02,114.395-0.264,114.395-0.562
			C419.695,70.619,369.987,70.377,306.765,70.354z"/>
		<path fill="#D14C28" d="M410.734,53.232c-12.324-0.153-38.842-0.275-72.272-0.332c-0.931,0.34-1.851,0.695-2.766,1.057
			c35.398-0.056,63.431-0.185,75.746-0.346C411.209,53.481,410.97,53.358,410.734,53.232z"/>
	</g>
	<path fill="#AF381C" d="M437.27,58.844c1.274-1.822-2.155-4.625-7.657-6.259c-5.503-1.635-10.997-1.483-12.271,0.339
		c-1.273,1.822,2.156,4.624,7.658,6.259C430.503,60.817,435.996,60.666,437.27,58.844z"/>
	<path fill="#E25A34" d="M425.131,37.977h-8.214v14.809c0,2.793,2.729,4.771,5.386,3.903l0,0c1.687-0.552,2.828-2.127,2.828-3.903
		V37.977z"/>
	<path fill="#DB4426" d="M425.131,48.977v-11h-8.214v5.307C419.604,43.86,422.624,45.892,425.131,48.977z"/>
	
		<ellipse transform="matrix(0.9704 0.2415 -0.2415 0.9704 22.0429 -100.4642)" fill="#4E443E" cx="420.933" cy="39.707" rx="3.744" ry="2.637"/>
	<path fill="#EDBB60" d="M413.228,39.5c7.604,1.703,15.643-2.672,15.789-2.964c0.122-0.243-6.793-6.701-9.111-8.856
		c-0.37-0.345-0.967-0.227-1.183,0.23L413.228,39.5z"/>
	<g>
		<path fill="#EDBB60" d="M340.142,113.484h-37.023c-2.879,0-5.199-2.338-5.174-5.211c0.038-4.329,6.114-13.23,14.134-20.705
			c5.841-5.445,17.504-14.578,29.987-14.578c2.777,0,5.018,2.255,4.992,5.027l-0.258,28.881
			C346.768,110.529,343.78,113.484,340.142,113.484z M342.053,74.426c-20.828,0-42.605,26.694-42.67,33.848
			c-0.019,2.08,1.663,3.773,3.749,3.773h37.022c2.845,0,5.181-2.31,5.206-5.148l0.258-28.881
			C345.637,76.037,344.036,74.426,342.053,74.426z"/>
	</g>
	<path fill="#4E443E" d="M341.456,73.699L341.456,73.699c-20.564,0-42.487,26.514-42.487,34.153l0,0
		c0,2.451,1.988,4.438,4.439,4.438h36.508c3.202,0,5.798-2.596,5.798-5.798V77.957C345.714,75.605,343.808,73.699,341.456,73.699z"
		/>
	<path fill="#4E443E" d="M491.427,73.699c-6.741,0-32.937,0-39.678,0c-2.352,0-3.485,1.906-2.534,4.258l11.556,28.536
		c1.297,3.202,4.945,5.798,8.146,5.798h0.09h36.417h0.091c3.202,0,4.747-2.596,3.45-5.798L497.41,77.957
		C496.457,75.605,493.779,73.699,491.427,73.699z"/>
	<path fill="#AF381C" d="M461.584,162.297h-6.157c-0.817,0-1.492,0.64-1.537,1.455l-0.465,8.518
		c-0.049,0.881,0.653,1.623,1.536,1.623h6.156c0.818,0,1.493-0.639,1.538-1.456l0.466-8.516
		C463.169,163.039,462.467,162.297,461.584,162.297z"/>
	<path fill="#AF381C" d="M519.38,162.297h-6.156c-0.817,0-1.492,0.64-1.537,1.455l-0.466,8.518
		c-0.048,0.881,0.653,1.623,1.537,1.623h6.156c0.817,0,1.492-0.639,1.538-1.456l0.466-8.516
		C520.966,163.039,520.264,162.297,519.38,162.297z"/>
	<path fill="#D14C28" d="M517.615,164.542h-3.772c-0.502,0-0.915,0.393-0.942,0.892l-0.285,5.219
		c-0.029,0.54,0.399,0.995,0.942,0.995h3.771c0.501,0,0.915-0.392,0.942-0.892l0.285-5.219
		C518.587,164.996,518.155,164.542,517.615,164.542z"/>
	<path fill="#3A302C" d="M494.07,163.021h-5.888v14.313h40.886v-3.986h-28.082v-2.41c0-0.906-0.286-1.79-0.817-2.524l-2.603-3.605
		C496.755,163.687,495.455,163.021,494.07,163.021z"/>
	<path fill="#4E443E" d="M488.52,163.021h-2.854c-0.945,0-1.71,0.766-1.71,1.71v10.894c0,0.944,0.765,1.71,1.71,1.71h36.882v-3.986
		h-28.084v-3.024c0-0.508-0.16-1.001-0.456-1.412l-3.532-4.891C490.021,163.394,489.294,163.021,488.52,163.021z"/>
	<rect x="514.272" y="173.349" fill="#3A302C" width="14.735" height="3.986"/>
	<g>
		<rect x="532.873" y="154.506" fill="#3A312D" width="2.718" height="35.149"/>
		<path fill="#4E443E" d="M536.315,151.064h-4.167c-0.85,0-1.54,0.688-1.54,1.539v2.718c0,0.851,0.69,1.54,1.54,1.54h4.167
			c0.852,0,1.541-0.689,1.541-1.54v-2.718C537.856,151.753,537.167,151.064,536.315,151.064z"/>
		<polygon fill="#4E443E" points="535.436,188.387 533.028,188.387 529.793,192.373 538.672,192.373 		"/>
	</g>
	<path fill="#4E443E" d="M541.764,165.8H526.7c-1.06,0-1.92,0.859-1.92,1.92v10.955c0,1.062,0.86,1.921,1.92,1.921h15.063
		c1.06,0,1.92-0.859,1.92-1.921V167.72C543.684,166.659,542.823,165.8,541.764,165.8z"/>
	<path fill="#D14C28" d="M257.841,138.863c9.206,0,16.668-2.216,16.668-4.951c0-2.699-6.764-5.919-15.34-3.503
		c-1.821,3.314-4.479,5.112-6.03,8.254C254.632,138.793,256.208,138.863,257.841,138.863z"/>
	<path fill="#CC401F" d="M399.896,73.699h-35.229c-1.828,0-3.311,1.592-3.311,3.553v98.814h1.249V78.673
		c0-1.94,1.394-3.513,3.114-3.513h33.125c1.72,0,3.114,1.572,3.114,3.513v97.394h1.25V77.252
		C403.209,75.291,401.726,73.699,399.896,73.699z"/>
	<g>
		<path fill="#EDBB60" d="M450.689,176.421H237.81l0.122-0.447c0.089-0.327,9.146-32.982,30.939-65.21
			c12.808-18.938,27.442-34.029,43.499-44.854c20.085-13.541,42.459-20.406,66.5-20.406c20.142,0,36.458,6.909,48.493,20.533
			c16.788,19.002,22.244,47.927,23.866,68.846c1.757,22.642-0.479,41.044-0.501,41.227L450.689,176.421z M238.744,175.712H450.06
			c0.586-5.241,7.598-74.312-23.229-109.207c-11.896-13.465-28.032-20.292-47.961-20.292c-54.12,0-89.365,35.31-109.4,64.931
			C249.124,141.225,239.91,171.679,238.744,175.712z"/>
	</g>
	<path fill="#EDBB60" d="M335.743,172.217c-0.259-12.816-9.511-23.206-20.664-23.206c-11.155,0-19.987,10.39-19.729,23.206
		c0.03,1.481,0.186,2.929,0.444,4.333h39.681C335.677,175.146,335.773,173.698,335.743,172.217z"/>
	<path fill="#4E443E" d="M333.931,173.211c-0.235-12.732-8.657-23.053-18.811-23.053s-18.193,10.32-17.958,23.053
		c0.028,1.472,0.169,2.91,0.404,4.305h36.12C333.871,176.121,333.958,174.683,333.931,173.211z"/>
	<path fill="#E7D9BC" d="M332.12,172.916c-0.203-10.747-7.466-19.459-16.221-19.459c-8.756,0-15.689,8.712-15.485,19.459
		c0.202,10.745,7.466,19.457,16.221,19.457S332.323,183.661,332.12,172.916z"/>
	<path fill="#D8C7A9" d="M327.239,159.186c-1.104,9.173-7.478,16.156-15.315,16.156c-4.389,0-8.403-2.19-11.341-5.729
		c-0.129,1.074-0.191,2.176-0.169,3.303c0.202,10.745,7.466,19.457,16.221,19.457s15.688-8.712,15.485-19.457
		C332.019,167.557,330.161,162.705,327.239,159.186z"/>
	<path fill="#A4795B" d="M324.885,172.916c-0.11-5.843-4.058-10.578-8.817-10.578c-4.761,0-8.528,4.735-8.42,10.578
		c0.111,5.841,4.06,10.576,8.818,10.576C321.227,183.492,324.995,178.757,324.885,172.916z"/>
	<path fill="#E7D9BC" d="M324.178,172.916c-0.079-4.135-2.873-7.486-6.241-7.486s-6.035,3.352-5.956,7.486
		c0.077,4.133,2.871,7.484,6.239,7.484S324.255,177.049,324.178,172.916z"/>
	<path fill="#E7D9BC" d="M274.134,165.633l-38.047,2.753c-1.491,0.108-2.645,1.349-2.645,2.844v5.248c0,1.573,1.276,2.85,2.851,2.85
		h43.638c1.391,0,2.389-1.342,1.985-2.674l-2.157-7.15C279.021,167.057,276.684,165.448,274.134,165.633z"/>
	<path fill="#E7D9BC" d="M263.398,157.405c0-1.635-1.392-2.96-5.194-2.96c-3.802,0-5.194,1.325-5.194,2.96
		c0,1.634,1.392,2.959,5.194,2.959C262.006,160.364,263.398,159.039,263.398,157.405z"/>
	<path fill="#E6672D" d="M260.889,157.405c0-1.074-0.913-1.943-3.41-1.943c-2.497,0-3.411,0.869-3.411,1.943
		c0,1.073,0.914,1.942,3.411,1.942C259.976,159.348,260.889,158.479,260.889,157.405z"/>
	<path fill="#F4ECDA" d="M272.577,132.04c0-0.706-2.46-2.96-7.73-2.96s-21.862,1.653-21.862,2.96c0,1.306,16.592,2.959,21.862,2.959
		S272.577,132.746,272.577,132.04z"/>
	<path fill="#67A8AF" d="M340.669,76.682L340.669,76.682c-18.157,0-37.516,23.41-37.516,30.156l0,0c0,2.165,1.756,3.92,3.921,3.92
		h32.234c2.828,0,5.119-2.292,5.119-5.118V80.441C344.428,78.365,342.745,76.682,340.669,76.682z"/>
	<path fill="#589099" d="M489.126,75.971c-6.075,0-29.679,0-35.753,0c-2.119,0-3.142,1.718-2.283,3.837l10.413,25.713
		c1.168,2.885,4.453,5.224,7.339,5.224h0.082h32.815h0.08c2.886,0,4.277-2.339,3.109-5.224l-10.413-25.713
		C493.657,77.688,491.244,75.971,489.126,75.971z"/>
	<path fill="#67A8AF" d="M487.052,78.895c-5.434,0-26.545,0-31.979,0c-1.896,0-2.809,1.535-2.042,3.431l9.313,22.998
		c1.045,2.581,3.984,4.673,6.564,4.673h0.073h29.351h0.072c2.582,0,3.827-2.092,2.781-4.673l-9.313-22.998
		C491.106,80.43,488.947,78.895,487.052,78.895z"/>
	<path fill="#EDBB60" d="M398.931,73.699h-35.229c-1.83,0-3.313,1.592-3.313,3.553v98.814h1.25V78.673
		c0-1.94,1.395-3.513,3.115-3.513h33.125c1.721,0,3.114,1.572,3.114,3.513v97.394h1.249V77.252
		C402.242,75.291,400.76,73.699,398.931,73.699z"/>
	<path fill="#F4ECDA" d="M317.992,166.854c-2.704,0-4.846,2.69-4.782,6.01c0.001,0.05,0.007,0.098,0.008,0.147
		c0.881,0.93,2.019,1.497,3.256,1.497c2.705,0,4.846-2.69,4.782-6.009c-0.001-0.05-0.006-0.098-0.009-0.147
		C320.368,167.422,319.23,166.854,317.992,166.854z"/>
	<path fill="#E4693E" d="M459.775,164.525h-3.917c-0.521,0-0.951,0.407-0.979,0.927l-0.297,5.419
		c-0.031,0.563,0.416,1.034,0.978,1.034h3.919c0.52,0,0.949-0.407,0.978-0.927l0.297-5.42
		C460.784,164.998,460.338,164.525,459.775,164.525z"/>
	<path fill="#5B4F48" d="M526.7,165.8c-1.06,0-1.92,0.859-1.92,1.92v8.166h13.541c1.061,0,1.92-0.86,1.92-1.921V165.8H526.7z"/>
	<g>
		<path fill="#EDBB60" d="M390.203,99.328h-17.307c-2.219,0-4.022-1.771-4.022-3.945V84.568c0-2.174,1.804-3.945,4.022-3.945h17.307
			c2.218,0,4.022,1.771,4.022,3.945v10.814C394.226,97.558,392.421,99.328,390.203,99.328z"/>
	</g>
	<path fill="#4E443E" d="M389.469,81.702h-16.306c-1.701,0-3.081,1.379-3.081,3.079V95.17c0,1.701,1.38,3.08,3.081,3.08h16.306
		c1.702,0,3.081-1.379,3.081-3.08V84.781C392.55,83.081,391.171,81.702,389.469,81.702z"/>
	<path fill="#67A8AF" d="M388.999,83.16h-13.434c-1.401,0-2.537,1.136-2.537,2.537v8.557c0,1.402,1.136,2.538,2.537,2.538h13.434
		c1.401,0,2.538-1.136,2.538-2.538v-8.557C391.537,84.296,390.4,83.16,388.999,83.16z"/>
	<path fill="#F4ECDA" d="M271.354,172.806c1.391,0,2.388-1.342,1.986-2.675l-1.312-4.346l-35.942,2.601
		c-1.491,0.108-2.645,1.349-2.645,2.844v1.576H271.354z"/>
	<g>
		<ellipse fill="#3A302C" cx="485.767" cy="174.829" rx="0.725" ry="1.118"/>
		<ellipse fill="#3A302C" cx="492.35" cy="170.54" rx="0.725" ry="1.117"/>
		<ellipse fill="#3A302C" cx="485.767" cy="165.347" rx="0.725" ry="1.117"/>
	</g>
	<path fill="#67A8AF" d="M455.003,76.844c-0.481,0-0.9,0.096-1.249,0.269c2.76,13.394,17.404,23.617,35.068,23.617
		c4.238,0,8.303-0.591,12.071-1.671l-7.548-18.641c-0.8-1.975-3.049-3.574-5.023-3.574
		C482.661,76.844,460.664,76.844,455.003,76.844z"/>
	<polygon fill="#4E443E" points="500.624,90.791 454.874,90.791 454.273,89.221 500.624,89.221 	"/>
	<path fill="#80B5C1" d="M339.666,79.15L339.666,79.15c-16.299,0-33.675,21.014-33.675,27.07l0,0c0,1.942,1.575,3.518,3.519,3.518
		h28.936c2.538,0,4.596-2.058,4.596-4.595V82.525C343.041,80.662,341.529,79.15,339.666,79.15z"/>
	<path fill="#9ED0D1" d="M340.439,77.657c-15.737,0-32.396,18.193-35.663,26.646c7.288,0.55,15.624-0.354,24.129-2.916
		c5.565-1.676,10.678-3.905,15.167-6.502V81.289C344.072,79.283,342.446,77.657,340.439,77.657z"/>
	<path fill="#80B5C1" d="M388.779,84.871h-11.281c-1.176,0-2.13,0.954-2.13,2.131v7.186c0,1.177,0.954,2.131,2.13,2.131h11.281
		c1.177,0,2.131-0.954,2.131-2.131v-7.186C390.91,85.825,389.956,84.871,388.779,84.871z"/>
	<path fill="#9ED0D1" d="M388.274,83.67h-11.982c-1.251,0-2.265,1.013-2.265,2.264v5.636c1.709,0.338,3.531,0.523,5.427,0.523
		c4.208,0,8.068-0.901,11.082-2.401v-3.758C390.536,84.683,389.523,83.67,388.274,83.67z"/>
	<g>
		<circle fill="#AF381C" cx="368.482" cy="130.65" r="3.02"/>
		<polygon fill="#AF381C" points="375.97,128.417 368.543,128.417 368.543,131.678 375.97,129.806 		"/>
		<g>
			<circle fill="#D8C7A9" cx="367.383" cy="129.203" r="1.909"/>
			<polygon fill="#D8C7A9" points="375.016,127.294 367.421,127.294 367.421,129.355 375.016,128.172 			"/>
		</g>
	</g>
	<g>
		<path fill="#AF381C" d="M437.663,169.718h-17.574c-1.345,0-2.439-1.095-2.439-2.438v-15.582c0-1.344,1.095-2.438,2.439-2.438
			h17.574c1.344,0,2.438,1.095,2.438,2.438v15.582C440.102,168.623,439.007,169.718,437.663,169.718z M420.089,149.969
			c-0.954,0-1.729,0.775-1.729,1.729v15.582c0,0.953,0.774,1.729,1.729,1.729h17.574c0.953,0,1.729-0.775,1.729-1.729v-15.582
			c0-0.953-0.775-1.729-1.729-1.729H420.089z"/>
	</g>
	<path fill="#F6D899" d="M415.925,39.863c1.355,0.073,2.693-0.009,3.967-0.189c0.238-5.04-0.129-8.465-0.867-8.841
		C418.189,30.407,416.902,33.891,415.925,39.863z"/>
	<path fill="#AF381C" d="M430.144,166.403h-2.597c-0.533,0-0.966,0.433-0.966,0.967v1.147c0,0.534,0.433,0.966,0.966,0.966h2.597
		c0.534,0,0.968-0.432,0.968-0.966v-1.147C431.111,166.836,430.678,166.403,430.144,166.403z"/>
	<g>
		<path fill="#84362C" d="M278.697,151.019l-9.798,10.067c0,0-8.725,4.295-18.12,11.141l7.114-0.672l12.214-9.663l9.261-10.873
			H278.697z"/>
		<polygon fill="#84362C" points="270.913,160.684 286.153,156.75 286.616,156.388 271.986,159.341 		"/>
		<path fill="#994436" d="M281.784,193.098h-85.565c0,0-5.033-10.268-1.208-17.516c3.825-7.249,18.321-8.054,18.321-8.054
			l33.22,3.625l28.79-6.846l3.02,1.007c0,0,6.194-1.907,9.616,0.509C291.4,168.24,293.663,186.051,281.784,193.098z"/>
		<path fill="#84362C" d="M287.978,165.823c-0.02-0.013-0.04-0.022-0.061-0.035c-2.979,3.279-7.002,6.678-11.742,9.743
			c-12.184,7.876-24.456,10.557-27.41,5.987c-1.698-2.627,0.056-7.077,4.164-11.883l-6.377,1.518l-0.851-0.094
			c1.433,0.906,2.227,1.892,2.227,2.923c0,4.462-14.712,8.08-32.86,8.08c-8.171,0-15.64-0.735-21.388-1.949
			c-0.703,6.362,2.54,12.984,2.54,12.984h85.565C293.663,186.051,291.4,168.24,287.978,165.823z"/>
		<path fill="#6D2621" d="M196.79,192.507l41.974-2.464l6.011-1.675l0.985-1.971l2.66,3.646l27.884,2.168
			C254.101,193.31,226.57,193.169,196.79,192.507z"/>
		<path fill="#6D2621" d="M287.978,165.823c-3.422-2.416-9.616-0.509-9.616-0.509l-2.428-0.81
			c-10.675,1.765-17.593,9.207-15.994,18.124c0.007,0.038,0.014,0.077,0.022,0.115c1.134,6.056,6.573,10.354,12.732,10.354h9.09
			C293.663,186.051,291.4,168.24,287.978,165.823z"/>
		<path fill="#994436" d="M210.781,186.397c-2.077-1.889-8.907-3.528-17.193-4.354c0.013,3.678,1.097,7.205,1.872,9.25
			C206.807,191.02,213.57,188.933,210.781,186.397z"/>
		<path fill="#BA6149" d="M287.349,166.852c-3.172-2.296-8.977-0.485-8.977-0.485l-2.259-0.769
			c-9.989,1.677-16.527,8.75-15.126,17.224c0.006,0.037,0.013,0.074,0.019,0.111c0.997,5.754,6.032,9.838,11.786,9.838h8.49
			C292.449,186.075,290.521,169.147,287.349,166.852z"/>
		<path fill="#CC6A54" d="M281.562,175.183c0.477-3.148-0.717-6.268-3.062-8.853c-0.075,0.021-0.128,0.036-0.128,0.036l-2.26-0.769
			c-9.988,1.677-16.527,8.75-15.125,17.224c0.005,0.037,0.012,0.074,0.018,0.111c0.107,0.619,0.271,1.215,0.467,1.793
			c0.396,0.081,0.796,0.155,1.203,0.218C272.073,186.368,280.529,181.997,281.562,175.183z"/>
		<path fill="#84362C" d="M285.36,168.974c-2.719-1.984-7.478-0.419-7.478-0.419l-1.906-0.665
			c-8.242,1.45-13.421,7.561-11.949,14.88c0.006,0.032,0.013,0.064,0.02,0.097c1.037,4.971,5.371,8.5,10.153,8.5h7.057
			C290.298,185.58,288.081,170.957,285.36,168.974z M281.03,190.879h-6.765c-4.584,0-8.738-3.383-9.732-8.147
			c-0.006-0.03-0.013-0.062-0.019-0.092c-1.411-7.017,3.553-12.874,11.454-14.262l1.827,0.636c0,0,4.562-1.499,7.169,0.402
			C287.57,171.316,289.695,185.333,281.03,190.879z"/>
		<path fill="#994436" d="M283.969,171.87c-1.954-1.467-5.465-0.408-5.465-0.408l-1.327-0.496
			c-5.815,0.908-9.818,5.136-9.448,10.617c0.001,0.025,0.003,0.05,0.005,0.074c0.292,3.936,3.16,7.069,6.772,7.381l5.519,0.476
			C287.52,185.117,285.985,173.383,283.969,171.87z M279.866,189.078l-5.278-0.447c-3.459-0.293-6.213-3.285-6.501-7.057
			c-0.002-0.023-0.003-0.047-0.005-0.07c-0.366-5.264,3.478-9.327,9.065-10.193l1.273,0.478c0,0,3.368-1.014,5.239,0.399
			C285.587,173.643,287.027,184.874,279.866,189.078z"/>
		<path fill="#994436" d="M281.487,174.167c-1.416-0.757-3.732,0.077-3.732,0.077l-0.918-0.218
			c-3.922,0.888-6.683,3.773-6.462,7.431c0.001,0.017,0.002,0.035,0.003,0.052c0.19,2.814,2.379,5,5.171,4.996l4.288-0.005
			C285.155,182.688,282.976,174.965,281.487,174.167z M279.685,186.172l-4.086,0.013c-2.665,0.008-4.768-2.067-4.962-4.757
			c-0.001-0.016-0.002-0.032-0.003-0.049c-0.229-3.511,2.42-6.291,6.196-7.145l0.883,0.212c0,0,2.229-0.804,3.586-0.069
			C282.724,175.147,284.763,182.546,279.685,186.172z"/>
		<path fill="#994436" d="M278.079,182.833l-1.831,0.007c-1.194,0.004-2.012-1.072-1.938-2.466c0-0.009,0.001-0.018,0.001-0.025
			c0.107-1.82,1.459-3.261,3.201-3.703l0.383,0.109c0,0,1.046-0.416,1.61-0.036C280.099,177.118,280.57,180.953,278.079,182.833z"/>
		<path fill="#84362C" d="M199.615,171.196c0.81,0.074,1.633,0.147,2.465,0.219c13.482,1.157,24.469,1.421,24.541,0.589
			c0.064-0.755-8.887-2.151-20.623-3.268C203.878,169.283,201.604,170.069,199.615,171.196z"/>
	</g>
	<g>
		<path fill="#E2963A" d="M167.785,146.644c0.069-0.454-0.428-1.152-1.032-0.636c-0.322-1.049-2.299-1.05-2.284,0.087
			c0.07,0.024,0.102,0.044,0.13,0.06c-0.319-0.061-0.787-0.059-1.063-0.012c-0.127,0.021-0.579,0.241-0.644,0.238
			c-0.343-0.011-0.404-0.321-0.66-0.353c-0.416-0.051-0.748,0.349-1.149,0.425c-0.02-0.31-0.175-0.479-0.311-0.736
			c-0.159-0.303-0.263-0.448-0.353-0.917c-0.211-1.108-0.939-2.231-2.237-1.797c-0.668,0.223-0.983,0.673-0.624,1.336
			c-0.501-0.477-0.496,0.606-0.445,0.906c-0.597-0.599-1.819-0.406-2.411,0.114c-0.436-0.49-0.991-0.593-1.524-0.138
			c-0.104-0.291-0.581-1.05-0.813-0.627c0.247-2.69-2.691-4.622-5.071-3.296c-1.741,0.969-2.108,2.849-0.732,4.313
			c-0.445-0.421-1.182,0.119-1.699-0.085c-0.459-0.181-1.071-1.229-1.515-0.194c-0.358-0.41-1.294-1.552-1.855-1.122
			c-0.193-0.259-0.314-0.782-0.599-0.97c-0.587-0.392-1.457,0.121-1.822,0.612c-0.384,0.516-0.526,1.344-0.052,1.851
			c-0.277-0.106-0.556-0.149-0.826-0.245c-0.453-0.161-0.163,0.119-0.568-0.486c-0.776-1.163-3.175-0.071-3.121,1.263
			c0.005,0.116,0.379,1.831,1.14,2.005c5.326,1.216,26.593,2.036,26.593,2.036c0.587,0.631,1.731-0.171,2.299-0.453
			c1.168-0.58,3.012-1.221,3.817-2.305C168.839,146.866,168.295,146.073,167.785,146.644z"/>
		<path fill="#CE622C" d="M167.785,146.644c0.069-0.454-0.428-1.152-1.032-0.637c-0.322-1.048-2.299-1.049-2.284,0.088
			c0.07,0.024,0.102,0.044,0.13,0.06c-0.319-0.061-0.787-0.059-1.063-0.012c-0.127,0.021-0.579,0.241-0.644,0.238
			c-0.343-0.011-0.404-0.321-0.66-0.353c-0.416-0.051-0.748,0.349-1.149,0.425c-0.02-0.31-0.175-0.479-0.311-0.736
			c-0.112-0.215-0.197-0.354-0.269-0.582c-0.099,0.062-0.205,0.114-0.319,0.153c-0.902,0.303-1.924-0.319-2.344-1.394
			c-0.148,0.031-0.293,0.04-0.429-0.008c0.002,0.029,0.013,0.063,0.02,0.094c1.371,1.26,1.229,3.062-0.298,4.212
			c-2.174,1.641-5.35,0.13-5.475-2.569c-0.171,0.451-0.749-0.235-0.891-0.509c-0.466,0.524-1.029,0.498-1.529,0.072
			c-0.514,0.597-1.699,0.956-2.373,0.444c0.092,0.291,0.246,1.362-0.316,0.958c0.448,0.608,0.197,1.098-0.435,1.41
			c-1.227,0.607-2.101-0.403-2.463-1.473c-0.153-0.453-0.276-0.583-0.475-0.86c-0.169-0.237-0.346-0.383-0.409-0.688
			c-0.388,0.132-0.661,0.571-1.081,0.579c-0.257,0.004-0.36-0.294-0.702-0.26c-0.064,0.007-0.481,0.288-0.604,0.327
			c-0.269,0.082-0.732,0.148-1.056,0.132c0.03,0.014,0.064,0.028,0.137,0.042c0.17,1.124-1.788,1.394-2.251,0.399
			c-0.528,0.595-1.116-0.027-1.11-0.489c-0.426,0.637-1.075-0.074-0.684-0.787c0.025-0.046,0.061-0.088,0.089-0.132
			c-0.577,0.322-1.024,0.861-1.001,1.445c0.005,0.116,0.379,1.831,1.14,2.005c5.326,1.216,26.593,2.036,26.593,2.036
			c0.587,0.631,1.731-0.171,2.299-0.453c1.168-0.58,3.012-1.221,3.817-2.305C168.839,146.866,168.295,146.073,167.785,146.644z"/>
		<polygon fill="#493439" points="137.126,148.302 136.339,192.912 138.837,192.912 138.039,148.209 		"/>
		<polygon fill="#493439" points="170.858,148.302 176.206,192.912 173.707,192.912 169.936,148.209 		"/>
		<path fill="#F2C841" d="M158.32,169.404c0.864,1.11,0,4.442-2.128,3.054c-2.926-1.907-0.864-2.498-2.345-5.337
			c-1.48-2.838,2.098-4.072-0.37-5.8s-0.987-4.443-0.987-4.443s-3.208,0.741-2.468,3.703c0.741,2.961-0.864,6.787-3.332,7.156
			c-2.469,0.371-0.957-3.239-0.957-3.239c-2.777,1.79-5.347,5.445-4.628,9.997c0.277,1.758,1.296,3.239,1.111,4.904
			c-0.179,1.609-2.222,2.499-3.98,0.556c0.185,4.165,3.023,5.723,4.751,7.651l12.094-0.617
			C161.991,187.112,164.243,172.612,158.32,169.404z"/>
		<path fill="#F8DD7D" d="M158.102,175.251c-1.359,2.356-3.533,3.806-5.707,0.091c-1.723-2.942,0.939-8.67-1.45-10.69
			c0,0,0.362,2.084-1.54,4.168c-1.902,2.083-5.098,3.911-3.442,7.7c3.442,7.881-3.805,5.707-3.805,5.707s-1.211,2.266,5.617,7.61
			c2.083,1.63,7.791-0.454,7.157-0.635c-0.634-0.182-3.352-2.627,1.177-5.798S158.283,174.938,158.102,175.251z"/>
		<polygon fill="#D85341" points="178.031,192.912 125.285,192.912 124.353,190.786 145.042,184.792 148.023,186.532 
			151.938,184.213 156.784,186.919 158.461,186.146 178.404,191.172 		"/>
		<path fill="#994436" d="M178.031,192.912h-52.746l-0.933-2.126c5.368-1.393,10.623-2.563,14.181-0.406l9.49-3.848
			c0,0,1.874,4.453,3.284,4.663c1.718,0.254,5.477-4.276,5.477-4.276l6.21,4.457c4.124-1.956,9.353-1.853,15.41-0.204
			L178.031,192.912z"/>
		<polygon fill="#493439" points="134.534,148.302 127.962,192.912 130.461,192.912 135.459,148.209 		"/>
		<polygon fill="#493439" points="168.282,148.302 169.577,192.912 167.078,192.912 167.367,148.209 		"/>
		<polygon fill="#493439" points="131.85,148.672 131.85,147.099 172.11,147.099 172.11,148.58 152.211,154.04 		"/>
		<g>
			<path fill="#BAB5AA" d="M143.079,128.865c-0.575-4.028,3.826-11.6,3.332-15.672c-0.287-2.366-3.413-6.424-2.961-10.613
				c0,0-1.481,1.111,0.124,6.664c1.604,5.554-4.655,9.996-4.655,16.673c0,4.653,6.321,8.07,4.316,16.679
				C145.547,137.134,143.669,132.99,143.079,128.865z"/>
		</g>
		<path fill="#BAB5AA" d="M162.392,144.6c2.961-6.756-1.018-11.384-0.093-16.382c0.926-4.998,4.721-12.032,1.574-13.976
			c-3.146-1.944-0.555-5.275-0.555-5.275c-3.239,1.852-3.055,5.739-1.296,7.866c1.759,2.129-1.759,2.685-2.591,8.608
			c-0.833,5.924,1.341,5.599,2.776,10.459C163.41,139.973,162.392,144.6,162.392,144.6z"/>
		<path fill="#BAB5AA" d="M151.841,128.311c-3.517-6.664-1.481-11.384-0.278-12.957c1.203-1.574,0.463-4.999-0.463-7.034
			c-0.925-2.037,1.943-4.535,1.943-4.535c-1.295,3.98,3.055,7.589,1.944,11.384c-1.11,3.794-3.677,2.428-4.072,5.923
			C150.439,125.31,151.841,128.311,151.841,128.311z"/>
		<path fill="#724753" d="M162.801,151.134c-2.881-0.833-6.646-1.338-10.77-1.338c-4.14,0-7.919,0.51-10.805,1.349l10.985,2.896
			L162.801,151.134z"/>
	</g>
	<g>
		<path fill="#994436" d="M113.929,193.098H36.184c0,0-4.072-2.663-2.961-14.284s6.984-17.964,19.571-10.458
			c9.097,3.267,19.796,2.247,24.717,1.502c2.078-0.314,4.166-0.413,6.255-0.309l10.911,0.549c0,0,9.996-6.295,12.587-5.568
			C109.856,165.256,122.258,175.424,113.929,193.098z"/>
		<path fill="#84362C" d="M105.544,188.511c-6.731-1.537-10.519-10.098-8.459-19.121c0.066-0.289,0.138-0.575,0.214-0.858
			c-0.398,0.229-0.765,0.444-1.091,0.637c-0.961,5.208-4.425,10.638-9.875,14.612c-9.377,6.84-21.067,6.783-26.109-0.13
			c-2.746-3.764-2.948-8.787-1.053-13.686c-1.352-0.222-2.704-0.517-4.038-0.883c0.28,0.596,0.538,1.21,0.75,1.858
			c2.163,6.609-0.247,13.329-5.382,15.011c-5.135,1.681-11.052-2.315-13.215-8.925c-1.085-3.315-1.018-6.658-0.035-9.38
			c-2.267,2.389-3.565,6.314-4.029,11.167c-1.11,11.621,2.961,14.284,2.961,14.284h77.745c1.474-3.127,2.288-6.013,2.633-8.658
			C113.461,187.739,109.438,189.399,105.544,188.511z"/>
		<path fill="#6D2621" d="M52.745,192.645c5.255-1.843,6.463-6.613,6.463-6.613s0.271,6.734,12.863,6.281
			c12.592-0.453,17.001-3.11,17.001-3.11l1.812,1.54c0,0,5.073,2.899,3.805-3.171c-1.269-6.069,0.725-10.688,0.725-10.688
			s-2.265,12.5,6.341,15.58l-9.059,1.541l-29.08,0.452L52.745,192.645z"/>
		<path fill="#6D2621" d="M53.843,185.847c-1.412-10.137-5.621-18.093-10.371-20.659c-7-0.822-10.505,4.92-11.337,13.626
			c-1.111,11.621,2.961,14.284,2.961,14.284h19.225C54.342,190.765,54.188,188.328,53.843,185.847z"/>
		<path fill="#BA6149" d="M53.019,186.104c-1.324-9.776-5.27-17.451-9.723-19.926c-6.562-0.794-9.849,4.744-10.629,13.142
			c-1.042,11.21,2.776,13.778,2.776,13.778h18.025C53.487,190.848,53.343,188.497,53.019,186.104z"/>
		<path fill="#84362C" d="M66.696,179.146c1.117-0.086,0.613-8.535,17.417-9.58l-0.348-0.018c-2.089-0.104-4.177-0.006-6.255,0.309
			c-2.35,0.355-6.022,0.77-10.202,0.754C60.589,175.566,65.625,179.229,66.696,179.146z"/>
		<path fill="#CC6A54" d="M43.296,166.178c-4.464-0.541-7.41,1.855-9.084,6.085c0.27,1.016,0.611,2.042,1.04,3.066
			c3.176,7.593,9.568,12.152,14.276,10.183c1.223-0.513,2.207-1.422,2.945-2.61C50.799,174.676,47.25,168.375,43.296,166.178z"/>
		<path fill="#84362C" d="M42.485,168.961c-2.388-0.405-4.284,3.102-4.284,3.102l-1.345,0.323
			c-3.855,5.016-3.922,12.521,0.202,17.968c0.018,0.024,0.036,0.048,0.054,0.071c2.821,3.682,6.792,4.635,9.411,2.428l3.864-3.257
			C52.714,180.582,44.873,169.366,42.485,168.961z M50.041,189.294l-3.703,3.121c-2.51,2.116-6.317,1.202-9.021-2.327
			c-0.018-0.022-0.035-0.045-0.052-0.067c-3.953-5.222-3.89-12.415-0.193-17.224l1.289-0.31c0,0,1.818-3.36,4.107-2.973
			C44.756,169.903,52.272,180.653,50.041,189.294z"/>
		<path fill="#994436" d="M43.036,172.028c-1.735-0.327-3.177,2.18-3.177,2.18l-0.951,0.197c-2.772,3.443-3.048,8.829-0.361,13.247
			c0.012,0.02,0.024,0.039,0.036,0.06c1.944,3.159,4.934,4.458,7.053,3.052l3.237-2.149
			C50.983,181.477,44.825,172.363,43.036,172.028z M48.588,188.323l-3.092,2.063c-2.027,1.351-4.891,0.117-6.758-2.905
			c-0.012-0.02-0.023-0.039-0.035-0.058c-2.586-4.236-2.324-9.411,0.342-12.716l0.915-0.187c0,0,1.384-2.403,3.049-2.085
			C44.724,172.764,50.604,181.5,48.588,188.323z"/>
		<path fill="#994436" d="M42.718,175.096c-1.119,0.02-2.008,1.787-2.008,1.787l-0.602,0.241c-1.745,2.554-1.948,6.242-0.17,9.201
			c0.008,0.015,0.017,0.028,0.025,0.042c1.379,2.269,3.568,3.087,5.095,1.796l2.345-1.983
			C48.588,180.536,43.895,175.076,42.718,175.096z M47.171,185.976l-2.231,1.896c-1.455,1.236-3.547,0.469-4.873-1.691
			c-0.008-0.014-0.016-0.026-0.024-0.04c-1.717-2.832-1.526-6.382,0.154-8.84l0.58-0.229c0,0,0.855-1.7,1.932-1.713
			C43.84,175.347,48.309,180.597,47.171,185.976z"/>
		<path fill="#994436" d="M44.779,183.922l-1,0.85c-0.652,0.555-1.587,0.032-2.179-1.169c-0.003-0.007-0.007-0.014-0.011-0.021
			c-0.766-1.572-0.679-3.403,0.074-4.577l0.26-0.085c0,0,0.384-0.831,0.866-0.772C43.295,178.207,45.292,181.198,44.779,183.922z"/>
	</g>
	<rect x="320.409" y="82.819" fill="#4E443E" width="1.569" height="29.23"/>
	<g>
		<path fill="#E69B69" d="M103.794,149.611c4.191,4.238,7.018,14.182,5.396,17.576c-1.623,3.395-11.932-1.859-11.932-1.859
			s-1.441-6.968-2.968-8.915C92.763,154.465,103.794,149.611,103.794,149.611z"/>
		<path fill="#E44159" d="M109.717,157.736c-3.055-0.899-12.966,0.929-12.966,0.929s-3.577-14.846-3.835-17.709
			c-0.257-2.865,4.175-1.309,5.654-0.158C106.991,147.348,109.717,157.736,109.717,157.736z"/>
		<path fill="#C12644" d="M100.264,152.556c-2.217-4.672-3.092-9.262-2.589-12.313c-1.871-0.976-4.975-1.7-4.758,0.713
			c0.258,2.863,3.835,17.709,3.835,17.709s3.244-0.598,6.592-0.941C102.235,156.229,101.182,154.489,100.264,152.556z"/>
		<path fill="#E44159" d="M97.677,140.24c-1.254-2.06-10.334-5.494-11.768-5.494s-8.66,2.688-10.93,5.555
			c-2.269,2.866-10.033,22.097-11.347,40.133c16.408,3.316,31.936,5.631,37.744-3.105C98.152,172.072,98.643,141.828,97.677,140.24z
			"/>
		<path fill="#C12644" d="M97.677,140.24c-0.146-0.127-0.256-0.34-0.449-0.521c0.127,0.96,0.196,1.964,0.196,3.005
			c0,8.639-4.595,16.534-10.263,17.632c-5.668,1.099-3.572-6.28-3.572-14.919c0-3.299-6.018-5.219-4.874-7.964
			c-1.543,0.851-2.942,1.827-3.735,2.827c-2.269,2.866-10.033,22.097-11.347,40.133c16.408,3.316,31.936,5.631,37.744-3.105
			C98.615,172.072,99.494,141.827,97.677,140.24z"/>
		<path fill="#F2DEB8" d="M112.042,172.111c-3.6-0.289-16.517,8.711-20.458,8.441c-3.942-0.269-14.789-5.615-16.663-6.629
			c-3.643-1.971-9.458-0.711-10.551-0.039c-2.329,1.434-6.076,9.458-4.559,14.073c0.717,2.181,4.062,4.241,4.062,4.241h7.524
			l46.793-1.823C124.158,177.777,115.579,172.396,112.042,172.111z"/>
		<path fill="#E1C498" d="M119.268,181.712c-1.603,1.007-3.589,1.611-5.75,1.611c-5.294,0-9.585-3.583-9.585-8.002
			c0-0.02,0.003-0.039,0.003-0.058c-4.849,2.421-10.171,5.438-12.354,5.289c-0.305-0.021-0.654-0.074-1.035-0.151
			c-2.465,2.77-8.847,3.565-15.688,1.672c-5.383-1.489-9.664-4.263-11.586-7.152c-2.22,2.688-4.759,9.099-3.464,13.037
			c0.717,2.181,4.062,4.241,4.062,4.241h7.524l47.031-4.838C119.427,185.472,119.597,183.54,119.268,181.712z"/>
		<path fill="#5B2D24" d="M113.933,174.545c4.246,0,8.525,10.986,3.264,17.654h-14.044l-0.926-9.835
			C102.226,182.364,109.687,174.545,113.933,174.545z"/>
		<path fill="#EBB984" d="M83.97,192.199h32.91c0,0,2.831-4.139,2.315-9.012c-0.514-4.874-4.333-8.184-6.625-8.368
			c-2.292-0.184-28.719,16.735-28.719,16.735L83.97,192.199z"/>
		<path fill="#E69B69" d="M109.694,188.06c-6.255,0.369-11.932-0.759-15.774-2.831c-5.5,3.402-10.068,6.326-10.068,6.326
			l0.119,0.645h32.91c0,0,1.706-2.507,2.225-5.911C116.322,187.228,113.122,187.857,109.694,188.06z"/>
		<path fill="#E69B69" d="M68.262,153.32c-1.971,5.644-0.126,15.822,2.894,18.169c3.019,2.345,10.186-6.882,10.186-6.882
			s-1.792-6.898-1.254-9.316C80.624,152.872,68.262,153.32,68.262,153.32z"/>
		<path fill="#E44159" d="M65.216,163.354c3.673-2.24,16.573-4.031,16.573-4.031s1.702-11.557,1.433-14.961
			c-0.269-3.403-5.645-6.703-7.438-4.925C65.484,149.646,65.216,163.354,65.216,163.354z"/>
		<path fill="#C12644" d="M82.982,148.234c-1.646,6.795-5.777,11.625-9.228,10.79c-3.174-0.77-4.659-6.068-3.597-12.202
			c-4.777,8.401-4.942,16.531-4.942,16.531c3.673-2.24,16.573-4.031,16.573-4.031s1.064-7.23,1.376-11.937
			C83.107,147.668,83.051,147.95,82.982,148.234z"/>
		<path fill="#EBB984" d="M69.395,168.96c-0.841-5.183,7.348-7.521,11.214-7.153c3.867,0.369,14.466,3.64,15.922,4.277
			c1.456,0.639,2.462,3.866,1.077,5.295c-1.385,1.429-16.96,4.268-18.765,4.293C75.707,175.717,69.796,171.439,69.395,168.96z"/>
		<path fill="#E69B69" d="M96.53,166.084c-1.384-0.606-13.905-4.823-19.451-4.823c4.159,4.4,11.991,5.997,11.351,8.517
			c-0.736,2.894-6.137,3.674-12.064,1.742c-2.851-0.929-5.296-2.317-6.993-3.829c-0.052,0.403-0.051,0.824,0.021,1.27
			c0.402,2.479,6.312,6.757,9.448,6.712c1.805-0.025,17.38-2.864,18.765-4.293C98.993,169.95,97.986,166.723,96.53,166.084z"/>
		<path fill="#EBB984" d="M108.289,169.668c2.842-4.414-1.153-8.49-4.848-9.699c-3.695-1.21-14.328-3.828-15.919-3.825
			s-4.201,3.933-3.501,5.796c0.7,1.864,13.855,10.7,15.501,11.446C102.381,174.681,106.93,171.779,108.289,169.668z"/>
		<path fill="#EBB984" d="M108.289,169.668c2.842-4.414-1.153-8.49-4.848-9.699c-3.695-1.21-14.328-3.828-15.919-3.825
			s-4.201,3.933-3.501,5.796c0.7,1.864,13.855,10.7,15.501,11.446C102.381,174.681,106.93,171.779,108.289,169.668z"/>
		<path fill="#5B2D24" d="M71.352,175.268c-4.702,0-11.393,10.536-6.751,16.932h15.552l2.773-9.433
			C82.926,182.767,76.054,175.268,71.352,175.268z"/>
		<path fill="#EBB984" d="M98.899,192.199H67.008c0,0-2.33-4.031-1.344-8.78c0.985-4.747,5.017-7.972,7.256-8.151
			c2.24-0.179,26.158,16.305,26.158,16.305L98.899,192.199z"/>
		<path fill="#E69B69" d="M89.5,191.169c-11.317-1.221-20.102-5.818-19.622-10.271c0.214-1.981,2.23-3.6,5.396-4.678
			c-1.174-0.621-2.016-0.979-2.354-0.953c-2.24,0.18-6.271,3.404-7.256,8.151c-0.985,4.749,1.344,8.78,1.344,8.78h31.892
			l0.179-0.627c0,0-0.141-0.098-0.379-0.261C95.897,191.553,92.772,191.522,89.5,191.169z"/>
		<path fill="#F2DEB8" d="M106.782,192.199h-9.585c0,0,0.179-2.822,2.24-3.181C101.497,188.66,106.782,192.199,106.782,192.199z"/>
		<path fill="#C12644" d="M97.285,139.773c-2.137-2.072-10.045-5.027-11.375-5.027c-1.261,0-7.003,2.081-9.911,4.532
			c-0.073,0.051-0.151,0.095-0.215,0.158c-0.103,0.101-0.197,0.205-0.298,0.308c-0.022,0.021-0.041,0.043-0.063,0.064
			c-0.92,0.941-1.755,1.909-2.517,2.893c2.57,1.779,6.48,2.917,10.864,2.917C90.241,145.618,95.672,143.139,97.285,139.773z"/>
		<path fill="#E0C396" d="M91.459,141.355c1.031-1.021,1.609-2.447,1.757-4.027c-2.983-1.396-6.465-2.582-7.307-2.582
			c-0.779,0-3.269,0.798-5.744,1.982c0.367,0.879,0.848,1.734,1.456,2.526C84.472,142.972,88.877,143.912,91.459,141.355z"/>
		<path fill="#D27558" d="M80.976,136.351c0.538-3.402,0.813-9.308,0.813-9.308l9.615,0.298l0.452,9.378
			c0,0-0.511,3.642-3.318,3.821C83.769,140.844,80.976,136.351,80.976,136.351z"/>
		<path fill="#6B3A2D" d="M97.598,130.576c0.453-0.685,0.698-1.538,0.526-2.341s-0.818-1.523-1.631-1.646
			c-0.237-0.036-0.502-0.031-0.68-0.193c-0.257-0.233-0.168-0.651-0.047-0.978c0.366-0.979,0.785-2.233,0.011-2.936
			c0.752-0.585,1.201-1.54,1.171-2.493c-0.029-0.953-0.537-1.879-1.324-2.416c0.536-0.629,0.818-1.521,0.549-2.302
			c-0.269-0.78-1.185-1.335-1.96-1.05c0.743-0.946,0.687-2.326,0.212-3.431c-0.395-0.92-1.084-1.749-2.013-2.123
			c-0.928-0.373-2.101-0.205-2.761,0.546c-0.382-0.607-1.731-1.565-2.449-1.579c-0.717-0.013-1.416,0.222-2.084,0.481
			c-1.073,0.415-1.679,1.795-1.704,2.946c-1.382-0.352-2.721-0.901-3.985-0.242c-0.895,0.467-1.773,1.101-2.158,2.033
			c-0.423,1.027-0.239,3.296,0.61,4.012c-0.859-0.087-1.758-0.041-2.539,0.329c-1.45,0.687-2.218,2.548-1.674,4.058
			c0.543,1.511,2.321,2.454,3.876,2.06c0.119,1.428,1.255,2.713,2.658,3.006c-0.912,0.622-1.669,1.511-1.988,2.567
			c-0.32,1.057-0.156,2.28,0.547,3.131c0.705,0.85,1.971,1.233,2.982,0.791c-0.225,0.729-0.029,1.574,0.494,2.131
			c0.524,0.557,1.355,0.804,2.097,0.624c-0.313,1.284,0.734,2.628,2.017,2.95c1.282,0.322,2.656-0.188,3.696-1.003
			c0.259,0.963,0.467,2.089,1.349,2.555s3.098,0.502,3.497-0.579l0.193-0.187c0.712-0.04,1.39-0.467,1.733-1.092
			c0.342-0.626,0.338-1.428-0.011-2.049C98.383,134.83,98.741,132.285,97.598,130.576z"/>
		<path fill="#5B2D24" d="M97.598,130.576c0.288-0.437,0.476-0.94,0.542-1.457c-0.726-0.02-1.475-0.26-2.111-0.757
			c-0.786-0.616-1.363-1.513-1.802-2.437c-0.109,1.228-1.957,2.547-3.096,2.626c-1.035,0.073-2.106-0.513-3.044-1.196
			c-1.325-0.965-1.651-2.61-2.175-4.201c-1.008,0.548-2.561,0.616-3.562-0.276c-0.625-0.555-1.243-1.153-1.662-1.895
			s-0.397-2.602-0.102-3.296c-1.043-0.302-1.89-1.419-2.123-2.556s0.069-2.258,0.626-3.12c0.463-0.718,1.162-1.287,1.964-1.479
			c-0.553-0.046-1.096,0.013-1.625,0.288c-0.895,0.467-1.773,1.101-2.158,2.033c-0.423,1.027-0.239,3.296,0.61,4.012
			c-0.859-0.087-1.758-0.041-2.539,0.329c-1.45,0.687-2.218,2.548-1.674,4.058c0.543,1.511,2.321,2.454,3.876,2.06
			c0.119,1.428,1.255,2.713,2.658,3.006c-0.912,0.622-1.669,1.511-1.988,2.567c-0.32,1.057-0.156,2.281,0.547,3.131
			c0.705,0.85,1.971,1.233,2.982,0.79c-0.225,0.73-0.029,1.575,0.494,2.132c0.524,0.557,1.355,0.804,2.097,0.624
			c-0.313,1.284,0.734,2.628,2.017,2.95c1.282,0.322,2.656-0.188,3.696-1.003c0.259,0.963,0.467,2.089,1.349,2.555
			s3.098,0.502,3.497-0.579l0.193-0.187c0.712-0.04,1.39-0.467,1.733-1.092c0.342-0.626,0.338-1.428-0.011-2.049
			C98.383,134.83,98.741,132.285,97.598,130.576z"/>
		<path fill="#EBB984" d="M82.27,124.041c-0.982-1.569-2.5-2.249-3.389-1.517s-0.813,2.598,0.169,4.167
			c0.983,1.57,2.5,2.248,3.389,1.517C83.328,127.476,83.252,125.61,82.27,124.041z"/>
		<path fill="#EBB984" d="M84.777,128.372c0.619,0.573,9.146-0.49,9.747-0.763c0.602-0.272,0.412-6.437,0.113-7.029
			c-1.736-3.434-6.963-5.231-10.977-0.371C83.22,120.743,84.307,127.937,84.777,128.372z"/>
		<path fill="#D27558" d="M81.97,125.229c-0.627-1.001-1.594-1.434-2.161-0.967s-0.519,1.656,0.108,2.656
			c0.626,1.002,1.594,1.435,2.161,0.968S82.596,126.229,81.97,125.229z"/>
		<path fill="#EBB984" d="M82.072,126.477c-0.428-0.682-1.088-0.978-1.475-0.659c-0.387,0.319-0.354,1.13,0.074,1.813
			c0.427,0.684,1.087,0.979,1.475,0.659C82.533,127.973,82.5,127.16,82.072,126.477z"/>
		<g>
			<path fill="#6B3A2D" d="M87.702,120.824l-2.927,0.783c-0.246,0.066-0.386,0.315-0.313,0.557l0.275,0.91
				c0.073,0.241,0.332,0.384,0.578,0.317l2.927-0.783c0.246-0.066,0.386-0.315,0.313-0.557l-0.275-0.91
				C88.207,120.9,87.948,120.758,87.702,120.824z"/>
			<path fill="#6B3A2D" d="M95.426,121.769l-2.845-0.748c-0.239-0.063-0.471,0.088-0.519,0.335l-0.178,0.936
				c-0.047,0.248,0.108,0.5,0.348,0.563l2.844,0.748c0.239,0.063,0.471-0.087,0.519-0.335l0.178-0.936
				C95.821,122.083,95.665,121.832,95.426,121.769z"/>
			<path fill="#3E2D34" d="M93.679,131.072l-6.081-0.893c0,0-0.109,2.165,2.645,3.171C92.997,134.356,93.679,131.072,93.679,131.072
				z"/>
			<path fill="#F5EDDB" d="M92.555,132.456c0.416-0.562,0.554-1.225,0.554-1.225l-4.91-0.721c0,0-0.027,0.618,0.416,1.29
				L92.555,132.456z"/>
			<path fill="#5A4949" d="M87.421,125.533c0.259,0.023,0.49,0.138,0.684,0.309c-0.143-0.655-0.551-1.135-1.024-1.131
				c-0.573,0.003-1.017,0.709-0.993,1.575c0.001,0.028,0.006,0.055,0.008,0.082C86.373,125.828,86.876,125.482,87.421,125.533z"/>
			<path fill="#5A4949" d="M93.836,125.424c0.175,0.094,0.315,0.229,0.422,0.392c0.039-0.556-0.153-1.032-0.533-1.191
				c-0.528-0.221-1.213,0.255-1.53,1.063c-0.013,0.034-0.021,0.068-0.032,0.103C92.642,125.31,93.309,125.14,93.836,125.424z"/>
			<path fill="#D27558" d="M90.861,123.3c0.994,2.352,1.367,3.877,0.646,4.528c-0.451,0.406-1.141,0.375-1.691,0.258l-0.011,0.049
				c0,0,1.722,0.741,2.514,0.125C93.104,127.649,92.377,125.969,90.861,123.3z"/>
		</g>
		<g>
			<path fill="#EBB984" d="M79.502,157.586c-0.688,0.641-0.989,1.942-0.608,3.237c0.382,1.295,1.667,1.82,2.144,1.833
				c0.478,0.014,1.704-0.783,0.747-1.846c-0.956-1.063-0.227-1.683-0.227-1.683L79.502,157.586z"/>
			<path fill="#EBB984" d="M79.12,157.3c1.053-2.122,6.371-1.813,8.717-1.064s1.943,6.222,0.855,7.066
				c-1.088,0.844-2.702,1.096-3.954,0.128c-1.252-0.969-2.375,0.247-2.935,0.027C80.406,162.905,78.453,158.643,79.12,157.3z"/>
			<path fill="#EBB984" d="M80.04,160.66c-0.383,0.854-0.175,2.216,0.65,3.335c0.824,1.12,2.181,1.186,2.617,1.034
				c0.437-0.151,1.25-1.341-0.008-2.039c-1.257-0.698-0.829-1.547-0.829-1.547L80.04,160.66z"/>
		</g>
	</g>
	<g>
		<g>
			<path fill="#EBB984" d="M197.832,168.852c-1.674-0.019-3.501-0.645-3.916-0.198c-0.414,0.446,0.257,2.864,1.9,2.467
				c1.642-0.396,3.603-1.649,3.603-1.649L197.832,168.852z"/>
			<path fill="#EBB984" d="M196.441,168.336c-2.833,0.822-5.333-0.523-5.593-0.363c-0.261,0.16,1.595,1.503,3.382,1.457
				S196.441,168.336,196.441,168.336z"/>
			<path fill="#EBB984" d="M196.821,169.11c-2.694,1.112-5.749,0.035-6.034,0.263c-0.281,0.226,2.063,1.231,3.815,0.935
				C196.193,170.039,196.821,169.11,196.821,169.11z"/>
			<path fill="#EBB984" d="M197.484,170.075c-2.966,1.104-5.353,0.354-5.514,0.513c-0.155,0.152,1.478,0.877,3.024,0.675
				C196.793,171.029,197.484,170.075,197.484,170.075z"/>
		</g>
		<path fill="#66303D" d="M255.194,140.184c-1.429-1.058-3.196-1.659-4.456-2.912c-2.446-2.432-2.282-6.438-2.959-9.891
			c-0.836-4.26-3.222-8.112-6.614-10.682c-2.104-1.595-4.736-2.723-7.431-2.333c-1.003,0.145-2.02,0.52-2.759,1.247
			c-0.74,0.728-1.144,1.854-0.823,2.797c-1.847-0.624-4.078,0.52-5.094,2.287c-1.016,1.77-0.961,3.967-0.251,5.792
			c0.709,1.824,2,3.33,3.379,4.69l-0.151,3.737c-0.061,3.242,0.274,6.5,1.347,9.495c1.073,2.996,2.918,5.724,5.508,7.507
			c1.233,0.849,2.628,1.483,3.726,2.501c1.36,1.262,2.163,3.012,2.902,4.733c1.644,3.828,3.131,7.73,4.455,11.697
			c4.323-3.604,6.568-9.071,10.004-13.537c0.892-1.16,1.88-2.276,2.481-3.602c0.588-1.299,0.771-2.73,0.778-4.129
			C259.254,145.978,258.004,142.266,255.194,140.184z"/>
		<path fill="#542533" d="M255.194,140.184c-1.429-1.058-3.196-1.659-4.456-2.912c-2.446-2.432-2.282-6.438-2.959-9.891
			c-0.76-3.871-2.809-7.395-5.721-9.936c2.942,3.846,2.813,8.749-0.703,11.949c-3.298,3.002-8.594,3.607-13.173,1.868l-0.148,3.654
			c-0.061,3.242,0.274,6.5,1.347,9.495c1.073,2.996,2.918,5.724,5.508,7.507c1.233,0.849,2.628,1.483,3.726,2.501
			c1.36,1.262,2.163,3.012,2.902,4.733c1.644,3.828,3.131,7.73,4.455,11.697c4.323-3.604,6.568-9.071,10.004-13.537
			c0.892-1.16,1.88-2.276,2.481-3.602c0.588-1.299,0.771-2.73,0.778-4.129C259.254,145.978,258.004,142.266,255.194,140.184z"/>
		<path fill="#EBB984" d="M221.436,166.199c-6.879,2.01-26.679,4.114-28.079,3.878s24.491-9.723,27.835-9.806
			C224.535,160.19,228.619,164.1,221.436,166.199z"/>
		<path fill="#E69B69" d="M221.191,160.271c-1.101,0.027-4.649,1.076-8.859,2.476c-0.052,1.687-4.828,4.561-11.216,6.728
			c6.741-0.735,16.035-2.024,20.319-3.275C228.619,164.1,224.535,160.19,221.191,160.271z"/>
		<path fill="#E69B69" d="M230.229,146.643c-3.886,4.469-11.091,15.134-11.46,16.477c-0.369,1.342,2.111,4.305,4.777,2.438
			c2.666-1.866,13.624-17.343,14.454-19.152C238.831,144.596,235.117,141.022,230.229,146.643z"/>
		<path fill="#E1C29F" d="M252.123,160.275c-1.213-5.493-3.151-13.862-4.647-14.989s-8.633-4.234-10.698-4.042
			c-2.065,0.191-5.009,3.388-5.656,5.342c-0.884,2.671,10.356,30.378-0.578,34.263l14.916,9.481
			c3.862-0.395,6.043-5.405,6.757-9.041C252.93,177.654,253.335,165.768,252.123,160.275z"/>
		<path fill="#D8B593" d="M235.528,163.652c0,0,9.419-1.885,14.639,0.538c0,0-3.794-3.456-10.313-3.335
			C233.334,160.978,235.528,163.652,235.528,163.652z"/>
		<path fill="#D8B593" d="M238.997,169.172c-0.03-1.486,8.613,2.257,11.354,9.255c0,0-0.942-5.045-6.217-8.878
			C238.859,165.716,238.997,169.172,238.997,169.172z"/>
		<path fill="#EFDABB" d="M244.926,144.724c-0.415-0.911-7.167-3.591-8.414-3.438c0,0-3.707,0.68-5.392,5.301
			c-1.816,4.98-0.022,14.978-0.022,14.978s14.592,0.537,14.974-0.076C246.453,160.873,245.341,145.636,244.926,144.724z"/>
		<path fill="#E1C29F" d="M248.272,146.824c0.4-1.727-4.908-4.676-8.892-5.484c-3.983-0.809-7.076,1.941-7.476,3.668
			c-0.4,1.728,2.504,3.782,6.487,4.591S247.872,148.552,248.272,146.824z"/>
		<path fill="#E69B69" d="M235.279,141.338c-1.767,6.629,0.867,6.814,3.51,6.735c2.643-0.079,2.391-5.75,2.391-5.75L235.279,141.338
			z"/>
		<path fill="#E1C29F" d="M244.926,144.724c-0.16-0.35-1.256-0.962-2.615-1.572c0.458,5.641,1.012,16.779,0.717,17.358
			c-0.274,0.538-7.772,0.419-12.052,0.307c0.073,0.473,0.122,0.747,0.122,0.747s15.156,0.818,15.538,0.206
			C247.018,161.155,245.341,145.636,244.926,144.724z"/>
		<path fill="#9D3C58" d="M226.699,159.339c-0.646-5.699,2.201-7.764,3.957-7.652c3.398,0.214,19.442,27.07,19.072,32.256
			c-0.299,4.193-5.432,8.765-5.432,8.765s-3.799-2.151-6.563-6.785C232.693,177.473,227.179,163.584,226.699,159.339z"/>
		<path fill="#84304C" d="M241.288,165.424c1.242,3.312,1.541,5.783,0.573,6.349c-1.575,0.918-5.891-3.546-9.642-9.973
			c-1.943-3.328-3.346-6.523-4.036-8.965c-1.069,1.15-1.857,3.222-1.485,6.504c0.48,4.245,5.994,18.134,11.033,26.583
			c2.764,4.634,6.563,6.785,6.563,6.785s5.133-4.571,5.432-8.765C249.917,181.288,245.803,172.955,241.288,165.424z"/>
		<path fill="#9D3C58" d="M214.379,158.886c-0.173-5.683,2.404-8.005,4.104-7.737c4.457,0.701,17.863,29.164,17.92,31.676
			c0.045,1.996-2.233,9.51-2.233,9.51l-3.12-0.114c-1.116-0.042-2.125-0.667-2.654-1.651
			C225.252,184.731,214.55,164.474,214.379,158.886z"/>
		<path fill="#84304C" d="M236.404,182.824c-0.022-0.963-2.007-5.739-4.695-11.303c0.014,1.469-0.279,2.435-0.918,2.717
			c-2.103,0.925-7.132-5.885-11.233-15.211c-1.132-2.573-2.074-5.069-2.802-7.355c-1.307,0.977-2.495,3.296-2.375,7.214
			c0.171,5.588,10.872,25.846,14.017,31.683c0.53,0.984,1.539,1.609,2.654,1.651l3.12,0.114
			C234.17,192.334,236.449,184.82,236.404,182.824z"/>
		<path fill="#68233D" d="M235.282,159.576c-0.833-4.266-3.3-7.399-5.511-7.001c-2.211,0.399-3.33,4.181-2.497,8.446
			c0.833,4.266,3.301,7.399,5.512,7C234.997,167.623,236.115,163.842,235.282,159.576z"/>
		<path fill="#68233D" d="M223.056,159.065c-0.833-4.265-3.3-7.399-5.512-7.001c-2.211,0.399-3.329,4.181-2.497,8.446
			s3.3,7.4,5.511,7.001C222.771,167.112,223.888,163.331,223.056,159.065z"/>
		<path fill="#EBB984" d="M229.529,153.168c-2.209,0.457-8.74,26.751-9.68,37.474l0.547,0.199c0,0,14.431-27.258,14.38-29.859
			C234.725,158.38,231.738,152.712,229.529,153.168z"/>
		<path fill="#E69B69" d="M229.529,153.168c-0.282,0.059-0.635,0.543-1.037,1.355c1.434,3.066,0.3,12.07-2.995,22.186
			c-1.685,5.174-3.659,9.787-5.584,13.287c-0.022,0.217-0.046,0.439-0.064,0.646l0.547,0.199c0,0,14.431-27.258,14.38-29.859
			C234.725,158.38,231.738,152.712,229.529,153.168z"/>
		<polygon fill="#84304C" points="244.591,182.229 229.551,181.677 231.821,192.248 244.206,192.704 		"/>
		<path fill="#EBB984" d="M217.045,152.709c-2.134,0.459-4.95,26.891-4.383,37.668l0.572,0.2c0,0,9.375-28.34,8.959-30.955
			C221.779,157.007,219.179,152.25,217.045,152.709z"/>
		<path fill="#E69B69" d="M222.194,159.622c-0.415-2.615-3.015-7.372-5.148-6.913c-0.323,0.07-0.661,0.741-1,1.854
			c3.25,1.071,2.252,8.674,1.137,17.522c-0.798,6.33-3.3,14.057-4.542,17.759c0.007,0.178,0.013,0.362,0.022,0.532l0.572,0.2
			C213.234,190.577,222.609,162.237,222.194,159.622z"/>
		<path fill="#F2DEB8" d="M204.587,191.783l10.116,0.372c0,0,0.73-3.584-1.431-4.022
			C211.111,187.694,204.587,191.783,204.587,191.783z"/>
		<path fill="#F2DEB8" d="M211.869,192.051l10.116,0.373c0,0,0.73-3.585-1.431-4.022
			C218.392,187.963,211.869,192.051,211.869,192.051z"/>
		<path fill="#D27558" d="M241.18,142.323c-1.263-3.368-1.968-12.471-1.968-12.471l-4.563,2.208c0,0,0.026,6.849,0.78,9.996
			C236.181,145.205,241.358,144.712,241.18,142.323z"/>
		<path fill="#EBB984" d="M231.093,141.548c6.279-1.591,8.902-9.122,9.013-12.367c0.11-3.246-4.557-5.535-9.076-5.566
			c-2.088-0.015-4.321,2.459-3.934,6.986C227.548,135.869,231.093,141.548,231.093,141.548z"/>
		<path fill="#66303D" d="M242.551,124.592c-0.229-1.421-0.917-2.826-2.116-3.62l-6.323-0.417c-1.484,1.56-1.839,3.997-1.147,6.035
			s2.313,3.677,4.207,4.699c0.903,0.487,1.896,0.865,2.611,1.602c0.898,0.923,1.215,2.291,1.137,3.576
			c0.6-2.504,1.091-5.034,1.471-7.581C242.602,127.463,242.78,126.012,242.551,124.592z"/>
		<path fill="#EBB984" d="M240.642,131.28c0.573-1.564,0.242-3.045-0.74-3.31c-0.981-0.264-2.242,0.79-2.814,2.354
			c-0.573,1.564-0.242,3.046,0.74,3.31C238.809,133.898,240.069,132.845,240.642,131.28z"/>
		<path fill="#EBB984" d="M233.188,152.24c-7.036,0.077-26.704-2.428-28.044-2.976c-1.341-0.548,25.413-2.514,28.706-1.771
			C237.144,148.237,240.536,152.16,233.188,152.24z"/>
		
			<ellipse transform="matrix(0.9786 -0.2058 0.2058 0.9786 -26.1732 54.0748)" fill="#D27558" cx="246.822" cy="152.838" rx="2.932" ry="8.328"/>
		<path fill="#EBB984" d="M243.782,144.439c-3.904,0.268-12.174,2.423-12.942,3.088c-0.769,0.665-0.49,4.08,1.669,4.734
			c2.16,0.652,14.111-1.635,15.316-2.289C249.029,149.319,248.692,144.104,243.782,144.439z"/>
		<path fill="#E69B69" d="M243.782,144.439c-1.117,0.076-2.591,0.308-4.144,0.614c1.768,0.663,2.816,1.454,2.786,2.273
			c-0.066,1.801-5.288,3.094-11.953,3.054c0.206,1.05,0.733,2.048,1.735,2.351c2.159,0.653,14.414-2.104,15.619-2.759
			C249.029,149.319,248.692,144.104,243.782,144.439z"/>
		<g>
			<path fill="#66303D" d="M180.358,151.126c-1.649-0.325-3.267-0.791-4.837-1.394c-0.302-0.115-0.745,0.013-1.024,0.141
				c-0.154,0.07-0.49,0.285-0.185,0.402c1.57,0.602,3.188,1.067,4.837,1.393c0.34,0.068,0.709,0.005,1.024-0.139
				C180.285,151.479,180.697,151.193,180.358,151.126L180.358,151.126z"/>
		</g>
		<g>
			<path fill="#91564A" d="M197.24,172.691c-3.918-4.769-7.836-9.537-11.755-14.306c-0.965-1.174-2.006-2.319-2.886-3.559
				c-0.803-1.132-1.085-2.451-1.597-3.718c-1.034-2.561-2.683-4.805-4.308-7.015c-0.251-0.342-1.548,0.226-1.467,0.336
				c1.654,2.25,3.34,4.539,4.366,7.158c0.5,1.276,0.802,2.564,1.622,3.69c0.824,1.132,1.769,2.187,2.656,3.267
				c3.993,4.86,7.986,9.719,11.979,14.578C196.066,173.387,197.427,172.918,197.24,172.691L197.24,172.691z"/>
		</g>
		<path fill="#F2DEB8" d="M180.234,146.771l-1.175-1.881c-0.311-0.498-0.967-0.649-1.465-0.339l-1.957,1.223
			c-0.498,0.312-0.65,0.967-0.339,1.465l1.175,1.882c0.311,0.497,0.967,0.649,1.465,0.339l1.957-1.223
			C180.394,147.927,180.545,147.27,180.234,146.771z"/>
		<path fill="#E69B69" d="M218.133,150.344c-4.382-0.16-8.449-0.444-11.823-0.799c4.581,0.92,20.718,3.249,26.939,3.182
			c4.2-0.047,4.868-1.506,4.057-2.888C233.847,150.429,226.553,150.654,218.133,150.344z"/>
		<path fill="#D27558" d="M239.962,131.098c0.354-0.966,0.149-1.88-0.457-2.043c-0.605-0.163-1.384,0.487-1.738,1.453
			c-0.354,0.966-0.149,1.88,0.457,2.043C238.83,132.715,239.608,132.063,239.962,131.098z"/>
		<path fill="#EBB984" d="M239.253,131.921c0.262-0.712,0.111-1.387-0.336-1.508c-0.448-0.12-1.022,0.359-1.284,1.071
			c-0.262,0.713-0.111,1.388,0.336,1.508S238.991,132.634,239.253,131.921z"/>
		<path fill="#EBB984" d="M196.78,168.295c-1.854,0.01-4.956-1.531-5.165-1.208c-0.198,0.309,3.341,2.358,3.928,2.302
			C196.152,169.329,197.528,168.291,196.78,168.295z"/>
		<g>
			<path fill="#EBB984" d="M209.142,149.034c-1.674-0.019-3.501-0.645-3.915-0.198c-0.414,0.445,0.257,2.863,1.899,2.467
				c1.642-0.396,3.603-1.649,3.603-1.649L209.142,149.034z"/>
			<path fill="#EBB984" d="M207.751,148.52c-2.832,0.821-5.333-0.523-5.593-0.363c-0.261,0.159,1.595,1.503,3.382,1.456
				C207.327,149.566,207.751,148.52,207.751,148.52z"/>
			<path fill="#EBB984" d="M208.131,149.293c-2.694,1.111-5.749,0.035-6.034,0.263c-0.281,0.225,2.063,1.231,3.816,0.935
				C207.503,150.221,208.131,149.293,208.131,149.293z"/>
			<path fill="#EBB984" d="M208.793,150.258c-2.966,1.104-5.353,0.354-5.514,0.513c-0.155,0.152,1.478,0.877,3.024,0.676
				C208.104,151.212,208.793,150.258,208.793,150.258z"/>
		</g>
		<path fill="#EBB984" d="M209.015,148.97c-1.72-0.691-4.009-3.291-4.325-3.07c-0.3,0.211,2.202,3.446,2.767,3.615
			C208.042,149.69,209.708,149.249,209.015,148.97z"/>
		<g>
			<path fill="#66303D" d="M235.149,129.255l0.09-0.19c0.159-0.336,0.024-0.731-0.302-0.883l-2.685-1.244
				c-0.333-0.154-0.734-0.004-0.895,0.338l-0.056,0.118L235.149,129.255z"/>
			<path fill="#D27558" d="M231.336,131.971c0,0,0.042,0.172,0.081,0.426c-1.003,0.588-1.968,1.425-0.394,2.144
				c-0.026,0.02-0.042,0.047-0.072,0.063C228.495,133.705,230.536,132.348,231.336,131.971z"/>
			<path fill="#443239" d="M230.285,136.213c0.036,0.139,0.071,0.278,0.121,0.417c0.536,1.487,1.822,2.104,2.735,1.659
				c0.844-0.412,1.045-1.545,0.677-2.935L230.285,136.213z"/>
			<path fill="#66303D" d="M229.785,127.009l-0.062-0.097c-0.182-0.283-0.51-0.349-0.735-0.146l-1.856,1.679
				c-0.231,0.21-0.271,0.615-0.086,0.905l0.063,0.099L229.785,127.009z"/>
			<path fill="#F2E9D6" d="M231.001,137.2c-0.115-0.123-0.218-0.282-0.299-0.518c-0.037-0.106-0.062-0.215-0.087-0.322l3.04-0.809
				c0.122,0.51,0.078,0.799-0.075,1.006L231.001,137.2z"/>
			<path fill="#D27558" d="M234.366,129.465c-1.148,0.515-2.782,0.933-2.444,1.27c0.337,0.337,2.481,1.605,2.695,1.378
				c0.214-0.227-1.969-1.47-1.969-1.47L234.366,129.465z"/>
			<path fill="#D27558" d="M227.69,129.685c1.019,0.441,2.425,0.76,2.196,1.11c-0.23,0.35-1.812,1.718-2.021,1.506
				c-0.209-0.211,1.409-1.556,1.409-1.556L227.69,129.685z"/>
		</g>
	</g>
	<path fill="#C6BD54" d="M558.884,192.317l-559.848-0.063c0,0,238.083,14.699,302.642,14.706
		C366.237,206.968,558.884,192.317,558.884,192.317z"/>
</g>
</svg>
