<?xml version="1.0" encoding="utf-8"?>
<!-- Generator: Adobe Illustrator 16.0.2, SVG Export Plug-In . SVG Version: 6.00 Build 0)  -->
<!DOCTYPE svg PUBLIC "-//W3C//DTD SVG 1.1//EN" "http://www.w3.org/Graphics/SVG/1.1/DTD/svg11.dtd">
<svg version="1.1" id="Layer_1" xmlns="http://www.w3.org/2000/svg" xmlns:xlink="http://www.w3.org/1999/xlink" x="0px" y="0px"
	 width="566.93px" height="283.46px" viewBox="0 0 566.93 283.46" enable-background="new 0 0 566.93 283.46" xml:space="preserve">
<g>
	<path fill="#433735" d="M506.04,213.032H366.023c-2.92,0-5.287,2.367-5.287,5.287v5.192c0,2.92,2.367,5.287,5.287,5.287H506.04
		c2.921,0,5.289-2.367,5.289-5.287v-5.192C511.329,215.399,508.961,213.032,506.04,213.032z"/>
	<path fill="#433735" d="M370.374,215.973h-36.847c-1.097,0-1.987,0.889-1.987,1.987v4.242c0,1.097,0.891,1.987,1.987,1.987h36.847
		c1.098,0,1.988-0.891,1.988-1.987v-4.242C372.362,216.861,371.472,215.973,370.374,215.973z"/>
	<path fill="#433735" d="M337.772,209.424H202.976c-2.866,0-5.191,2.324-5.191,5.192V220c0,2.867,2.325,5.191,5.191,5.191h134.797
		c2.868,0,5.192-2.324,5.192-5.191v-5.384C342.965,211.748,340.641,209.424,337.772,209.424z"/>
	<path fill="#433735" d="M457.612,216.172h-19.108c-1.882,0-3.407,1.525-3.407,3.407v8.953c0,1.882,1.525,3.408,3.407,3.408h19.108
		c1.882,0,3.408-1.526,3.408-3.408v-8.953C461.021,217.697,459.494,216.172,457.612,216.172z"/>
	<path fill="#433735" d="M306.954,216.372h-16.437c-2.619,0-4.742,2.124-4.742,4.743v4.144c0,2.62,2.123,4.743,4.742,4.743h16.437
		c2.618,0,4.743-2.123,4.743-4.743v-4.144C311.697,218.496,309.572,216.372,306.954,216.372z"/>
	<path fill="#433735" d="M355.288,220.956c-0.342-11.453-6.714-20.737-14.233-20.737c-0.066,0-0.133,0.007-0.2,0.008
		c-0.066-0.001-0.133-0.008-0.2-0.008s-0.133,0.007-0.199,0.008c-0.067-0.001-0.135-0.008-0.201-0.008
		c-0.067,0-0.133,0.007-0.2,0.008c-0.067-0.001-0.134-0.008-0.201-0.008s-0.133,0.007-0.2,0.008
		c-0.066-0.001-0.133-0.008-0.201-0.008c-0.066,0-0.133,0.007-0.2,0.008c-0.066-0.001-0.133-0.008-0.199-0.008
		c-0.068,0-0.135,0.007-0.201,0.008c-0.067-0.001-0.133-0.008-0.2-0.008c-0.068,0-0.134,0.007-0.201,0.008
		c-0.066-0.001-0.133-0.008-0.2-0.008s-0.134,0.007-0.2,0.008c-0.066-0.001-0.134-0.008-0.2-0.008c-0.067,0-0.134,0.007-0.2,0.008
		c-0.067-0.001-0.135-0.008-0.201-0.008c-0.067,0-0.133,0.007-0.2,0.008c-0.067-0.001-0.134-0.008-0.201-0.008
		c-0.066,0-0.133,0.007-0.2,0.008c-0.066-0.001-0.133-0.008-0.201-0.008c-0.066,0-0.133,0.007-0.199,0.008
		c-0.067-0.001-0.134-0.008-0.2-0.008c-0.068,0-0.135,0.007-0.2,0.008c-0.068-0.001-0.134-0.008-0.201-0.008s-0.133,0.007-0.2,0.008
		c-0.067-0.001-0.134-0.008-0.201-0.008c-0.066,0-0.133,0.007-0.2,0.008c-0.066-0.001-0.133-0.008-0.2-0.008s-0.134,0.007-0.2,0.008
		c-0.067-0.001-0.134-0.008-0.201-0.008s-0.133,0.007-0.2,0.008c-0.067-0.001-0.133-0.008-0.2-0.008s-0.134,0.007-0.201,0.008
		c-0.066-0.001-0.133-0.008-0.2-0.008s-0.133,0.007-0.199,0.008c-0.067-0.001-0.135-0.008-0.201-0.008
		c-0.067,0-0.134,0.007-0.2,0.008c-0.066-0.001-0.133-0.008-0.201-0.008c-0.066,0-0.133,0.007-0.199,0.008
		c-0.066-0.001-0.133-0.008-0.201-0.008c-0.066,0-0.133,0.007-0.2,0.008c-0.066-0.001-0.133-0.008-0.199-0.008
		c-0.068,0-0.135,0.007-0.201,0.008c-0.067-0.001-0.134-0.008-0.2-0.008c-7.52,0-13.337,9.284-12.995,20.737
		c0.342,11.454,6.714,20.738,14.232,20.738c0.067,0,0.134-0.007,0.201-0.008c0.066,0.001,0.133,0.008,0.2,0.008
		s0.133-0.007,0.2-0.008c0.066,0.001,0.134,0.008,0.201,0.008c0.066,0,0.133-0.007,0.2-0.008c0.066,0.001,0.133,0.008,0.2,0.008
		s0.134-0.007,0.2-0.008c0.067,0.001,0.134,0.008,0.201,0.008s0.133-0.007,0.2-0.008c0.067,0.001,0.133,0.008,0.201,0.008
		c0.066,0,0.133-0.007,0.2-0.008c0.065,0.001,0.133,0.008,0.2,0.008s0.133-0.007,0.199-0.008c0.068,0.001,0.135,0.008,0.201,0.008
		c0.067,0,0.133-0.007,0.2-0.008c0.067,0.001,0.134,0.008,0.201,0.008s0.133-0.007,0.2-0.008c0.066,0.001,0.133,0.008,0.201,0.008
		c0.066,0,0.133-0.007,0.199-0.008c0.067,0.001,0.134,0.008,0.201,0.008s0.134-0.007,0.2-0.008c0.067,0.001,0.133,0.008,0.2,0.008
		s0.134-0.007,0.2-0.008c0.067,0.001,0.133,0.008,0.2,0.008c0.066,0,0.133-0.007,0.2-0.008c0.066,0.001,0.134,0.008,0.2,0.008
		c0.067,0,0.134-0.007,0.2-0.008c0.067,0.001,0.135,0.008,0.201,0.008c0.067,0,0.133-0.007,0.2-0.008
		c0.067,0.001,0.133,0.008,0.201,0.008c0.067,0,0.133-0.007,0.2-0.008c0.066,0.001,0.133,0.008,0.2,0.008s0.134-0.007,0.199-0.008
		c0.068,0.001,0.135,0.008,0.201,0.008c0.067,0,0.134-0.007,0.2-0.008c0.067,0.001,0.134,0.008,0.201,0.008s0.133-0.007,0.2-0.008
		c0.066,0.001,0.134,0.008,0.201,0.008c0.066,0,0.133-0.007,0.2-0.008c0.066,0.001,0.133,0.008,0.2,0.008s0.134-0.007,0.2-0.008
		c0.067,0.001,0.134,0.008,0.2,0.008c0.068,0,0.134-0.007,0.201-0.008c0.067,0.001,0.133,0.008,0.2,0.008s0.133-0.007,0.201-0.008
		c0.066,0.001,0.133,0.008,0.2,0.008C349.813,241.694,355.631,232.41,355.288,220.956z"/>
	<path fill="#433735" d="M501.002,220.956c-0.342-11.453-6.714-20.737-14.231-20.737c-0.068,0-0.133,0.007-0.2,0.008
		c-0.068-0.001-0.134-0.008-0.201-0.008c-0.066,0-0.133,0.007-0.2,0.008c-0.066-0.001-0.133-0.008-0.201-0.008
		c-0.066,0-0.133,0.007-0.199,0.008c-0.067-0.001-0.134-0.008-0.201-0.008s-0.134,0.007-0.2,0.008
		c-0.067-0.001-0.133-0.008-0.201-0.008c-0.067,0-0.133,0.007-0.2,0.008c-0.066-0.001-0.133-0.008-0.2-0.008s-0.134,0.007-0.2,0.008
		c-0.067-0.001-0.134-0.008-0.2-0.008c-0.067,0-0.134,0.007-0.2,0.008c-0.067-0.001-0.135-0.008-0.201-0.008
		c-0.067,0-0.133,0.007-0.2,0.008c-0.067-0.001-0.133-0.008-0.201-0.008c-0.066,0-0.133,0.007-0.2,0.008
		c-0.066-0.001-0.133-0.008-0.201-0.008c-0.066,0-0.133,0.007-0.199,0.008c-0.067-0.001-0.134-0.008-0.2-0.008
		c-0.068,0-0.134,0.007-0.201,0.008c-0.067-0.001-0.133-0.008-0.2-0.008s-0.133,0.007-0.2,0.008
		c-0.066-0.001-0.134-0.008-0.201-0.008c-0.066,0-0.133,0.007-0.2,0.008c-0.066-0.001-0.134-0.008-0.2-0.008
		c-0.067,0-0.134,0.007-0.2,0.008c-0.067-0.001-0.133-0.008-0.201-0.008c-0.067,0-0.133,0.007-0.2,0.008
		c-0.067-0.001-0.133-0.008-0.201-0.008c-0.066,0-0.133,0.007-0.2,0.008c-0.066-0.001-0.133-0.008-0.2-0.008s-0.133,0.007-0.2,0.008
		c-0.066-0.001-0.134-0.008-0.2-0.008c-0.067,0-0.133,0.007-0.2,0.008c-0.067-0.001-0.134-0.008-0.201-0.008
		c-0.066,0-0.133,0.007-0.2,0.008c-0.066-0.001-0.133-0.008-0.201-0.008c-0.066,0-0.133,0.007-0.199,0.008
		c-0.067-0.001-0.135-0.008-0.2-0.008c-0.067,0-0.134,0.007-0.2,0.008c-0.068-0.001-0.133-0.008-0.201-0.008
		c-0.067,0-0.133,0.007-0.2,0.008c-0.066-0.001-0.133-0.008-0.2-0.008s-0.134,0.007-0.2,0.008c-0.066-0.001-0.134-0.008-0.2-0.008
		c-7.52,0-13.338,9.284-12.996,20.737c0.342,11.454,6.715,20.738,14.234,20.738c0.067,0,0.133-0.007,0.2-0.008
		c0.066,0.001,0.133,0.008,0.2,0.008s0.134-0.007,0.2-0.008c0.067,0.001,0.134,0.008,0.2,0.008c0.067,0,0.135-0.007,0.2-0.008
		c0.067,0.001,0.134,0.008,0.201,0.008s0.133-0.007,0.2-0.008c0.067,0.001,0.134,0.008,0.201,0.008c0.066,0,0.133-0.007,0.2-0.008
		c0.066,0.001,0.133,0.008,0.2,0.008s0.134-0.007,0.2-0.008c0.067,0.001,0.134,0.008,0.2,0.008c0.068,0,0.134-0.007,0.201-0.008
		c0.067,0.001,0.133,0.008,0.2,0.008s0.133-0.007,0.201-0.008c0.066,0.001,0.133,0.008,0.2,0.008c0.066,0,0.133-0.007,0.199-0.008
		c0.067,0.001,0.135,0.008,0.201,0.008c0.067,0,0.134-0.007,0.2-0.008c0.067,0.001,0.133,0.008,0.201,0.008
		c0.067,0,0.133-0.007,0.2-0.008c0.066,0.001,0.133,0.008,0.2,0.008c0.066,0,0.133-0.007,0.2-0.008
		c0.066,0.001,0.133,0.008,0.199,0.008c0.068,0,0.135-0.007,0.201-0.008c0.067,0.001,0.134,0.008,0.2,0.008
		c0.068,0,0.134-0.007,0.2-0.008c0.068,0.001,0.134,0.008,0.201,0.008c0.066,0,0.133-0.007,0.2-0.008
		c0.066,0.001,0.134,0.008,0.201,0.008c0.066,0,0.133-0.007,0.199-0.008c0.067,0.001,0.135,0.008,0.201,0.008
		c0.067,0,0.133-0.007,0.2-0.008c0.067,0.001,0.133,0.008,0.201,0.008c0.067,0,0.133-0.007,0.2-0.008
		c0.066,0.001,0.133,0.008,0.2,0.008s0.134-0.007,0.2-0.008c0.067,0.001,0.134,0.008,0.2,0.008c0.067,0,0.134-0.007,0.2-0.008
		c0.067,0.001,0.134,0.008,0.201,0.008s0.133-0.007,0.2-0.008c0.067,0.001,0.134,0.008,0.201,0.008c0.066,0,0.133-0.007,0.2-0.008
		c0.066,0.001,0.133,0.008,0.201,0.008c0.066,0,0.133-0.007,0.199-0.008c0.067,0.001,0.134,0.008,0.2,0.008
		C495.527,241.694,501.345,232.41,501.002,220.956z"/>
	<path fill="#433735" d="M275.516,220.956c-0.343-11.453-6.715-20.737-14.233-20.737c-0.067,0-0.133,0.007-0.2,0.008
		c-0.067-0.001-0.133-0.008-0.2-0.008c-0.068,0-0.134,0.007-0.201,0.008c-0.067-0.001-0.133-0.008-0.2-0.008
		c-0.068,0-0.134,0.007-0.201,0.008c-0.067-0.001-0.133-0.008-0.2-0.008c-0.067,0-0.134,0.007-0.2,0.008
		c-0.068-0.001-0.134-0.008-0.201-0.008s-0.133,0.007-0.2,0.008c-0.067-0.001-0.134-0.008-0.201-0.008
		c-0.067,0-0.133,0.007-0.2,0.008c-0.067-0.001-0.133-0.008-0.201-0.008c-0.067,0-0.133,0.007-0.2,0.008
		c-0.067-0.001-0.133-0.008-0.2-0.008c-0.068,0-0.134,0.007-0.201,0.008c-0.067-0.001-0.133-0.008-0.2-0.008
		c-0.067,0-0.133,0.007-0.2,0.008c-0.068-0.001-0.134-0.008-0.201-0.008s-0.133,0.007-0.2,0.008
		c-0.067-0.001-0.134-0.008-0.201-0.008c-0.067,0-0.133,0.007-0.2,0.008c-0.067-0.001-0.134-0.008-0.201-0.008
		s-0.133,0.007-0.2,0.008c-0.067-0.001-0.133-0.008-0.201-0.008c-0.067,0-0.133,0.007-0.2,0.008c-0.067-0.001-0.133-0.008-0.2-0.008
		c-0.068,0-0.134,0.007-0.201,0.008c-0.067-0.001-0.133-0.008-0.2-0.008c-0.068,0-0.134,0.007-0.2,0.008
		c-0.067-0.001-0.134-0.008-0.201-0.008c-0.067,0-0.133,0.007-0.2,0.008c-0.067-0.001-0.134-0.008-0.201-0.008
		s-0.133,0.007-0.2,0.008c-0.067-0.001-0.133-0.008-0.201-0.008c-0.067,0-0.133,0.007-0.2,0.008c-0.067-0.001-0.133-0.008-0.2-0.008
		c-0.068,0-0.134,0.007-0.201,0.008c-0.067-0.001-0.133-0.008-0.2-0.008c-0.068,0-0.134,0.007-0.201,0.008
		c-0.067-0.001-0.133-0.008-0.2-0.008s-0.133,0.007-0.2,0.008c-0.066-0.001-0.134-0.008-0.201-0.008s-0.133,0.007-0.2,0.008
		c-0.067-0.001-0.133-0.008-0.201-0.008c-0.067,0-0.133,0.007-0.2,0.008c-0.067-0.001-0.133-0.008-0.201-0.008
		c-7.519,0-13.336,9.284-12.995,20.737c0.343,11.454,6.715,20.738,14.233,20.738c0.067,0,0.133-0.007,0.2-0.008
		c0.067,0.001,0.134,0.008,0.201,0.008c0.067,0,0.133-0.007,0.2-0.008c0.067,0.001,0.133,0.008,0.201,0.008
		c0.067,0,0.133-0.007,0.2-0.008c0.067,0.001,0.133,0.008,0.201,0.008c0.067,0,0.133-0.007,0.2-0.008
		c0.067,0.001,0.133,0.008,0.2,0.008c0.067,0,0.133-0.007,0.2-0.008c0.068,0.001,0.134,0.008,0.201,0.008s0.133-0.007,0.2-0.008
		c0.067,0.001,0.134,0.008,0.201,0.008c0.067,0,0.133-0.007,0.2-0.008c0.067,0.001,0.133,0.008,0.201,0.008
		c0.067,0,0.133-0.007,0.2-0.008c0.067,0.001,0.133,0.008,0.201,0.008c0.067,0,0.133-0.007,0.2-0.008
		c0.067,0.001,0.133,0.008,0.2,0.008c0.068,0,0.134-0.007,0.201-0.008c0.067,0.001,0.133,0.008,0.2,0.008s0.134-0.007,0.2-0.008
		c0.067,0.001,0.133,0.008,0.201,0.008c0.067,0,0.133-0.007,0.2-0.008c0.067,0.001,0.134,0.008,0.201,0.008s0.133-0.007,0.2-0.008
		c0.067,0.001,0.133,0.008,0.201,0.008c0.067,0,0.133-0.007,0.2-0.008c0.067,0.001,0.133,0.008,0.201,0.008
		c0.067,0,0.133-0.007,0.2-0.008c0.067,0.001,0.133,0.008,0.2,0.008c0.068,0,0.133-0.007,0.2-0.008
		c0.068,0.001,0.134,0.008,0.201,0.008c0.067,0,0.133-0.007,0.2-0.008c0.067,0.001,0.134,0.008,0.201,0.008s0.133-0.007,0.2-0.008
		c0.067,0.001,0.134,0.008,0.201,0.008c0.067,0,0.133-0.007,0.2-0.008c0.067,0.001,0.133,0.008,0.201,0.008
		c0.067,0,0.133-0.007,0.2-0.008c0.067,0.001,0.133,0.008,0.2,0.008c0.068,0,0.134-0.007,0.201-0.008
		c0.067,0.001,0.133,0.008,0.2,0.008c0.068,0,0.133-0.007,0.2-0.008c0.067,0.001,0.134,0.008,0.201,0.008s0.133-0.007,0.2-0.008
		c0.067,0.001,0.133,0.008,0.201,0.008C270.04,241.694,275.857,232.41,275.516,220.956z"/>
	<path fill="#433735" d="M423.234,220.956c-0.342-11.453-6.714-20.737-14.231-20.737c-0.068,0-0.135,0.007-0.201,0.008
		c-0.067-0.001-0.133-0.008-0.2-0.008c-0.068,0-0.133,0.007-0.2,0.008c-0.067-0.001-0.134-0.008-0.201-0.008
		c-0.066,0-0.133,0.007-0.2,0.008c-0.066-0.001-0.134-0.008-0.201-0.008c-0.066,0-0.133,0.007-0.199,0.008
		c-0.067-0.001-0.135-0.008-0.201-0.008c-0.067,0-0.133,0.007-0.2,0.008c-0.067-0.001-0.133-0.008-0.201-0.008
		c-0.067,0-0.133,0.007-0.2,0.008c-0.066-0.001-0.133-0.008-0.2-0.008s-0.134,0.007-0.2,0.008c-0.066-0.001-0.134-0.008-0.2-0.008
		c-0.067,0-0.134,0.007-0.2,0.008c-0.067-0.001-0.134-0.008-0.201-0.008s-0.133,0.007-0.2,0.008
		c-0.067-0.001-0.134-0.008-0.201-0.008c-0.066,0-0.133,0.007-0.2,0.008c-0.066-0.001-0.133-0.008-0.2-0.008s-0.134,0.007-0.2,0.008
		c-0.067-0.001-0.134-0.008-0.2-0.008c-0.068,0-0.134,0.007-0.2,0.008c-0.068-0.001-0.134-0.008-0.201-0.008s-0.133,0.007-0.2,0.008
		c-0.066-0.001-0.134-0.008-0.201-0.008c-0.066,0-0.133,0.007-0.199,0.008c-0.067-0.001-0.135-0.008-0.201-0.008
		c-0.067,0-0.134,0.007-0.2,0.008c-0.067-0.001-0.133-0.008-0.201-0.008c-0.067,0-0.133,0.007-0.2,0.008
		c-0.067-0.001-0.133-0.008-0.2-0.008s-0.134,0.007-0.201,0.008c-0.066-0.001-0.133-0.008-0.199-0.008
		c-0.068,0-0.135,0.007-0.201,0.008c-0.066-0.001-0.134-0.008-0.2-0.008c-0.067,0-0.133,0.007-0.2,0.008
		c-0.067-0.001-0.134-0.008-0.201-0.008c-0.066,0-0.133,0.007-0.2,0.008c-0.066-0.001-0.133-0.008-0.2-0.008
		c-0.066,0-0.133,0.007-0.199,0.008c-0.067-0.001-0.134-0.008-0.201-0.008s-0.134,0.007-0.2,0.008
		c-0.067-0.001-0.133-0.008-0.2-0.008c-0.068,0-0.134,0.007-0.201,0.008c-0.066-0.001-0.133-0.008-0.2-0.008
		c-7.519,0-13.337,9.284-12.995,20.737c0.342,11.454,6.714,20.738,14.233,20.738c0.067,0,0.134-0.007,0.2-0.008
		c0.067,0.001,0.134,0.008,0.2,0.008c0.067,0,0.134-0.007,0.2-0.008c0.067,0.001,0.134,0.008,0.201,0.008s0.133-0.007,0.2-0.008
		c0.067,0.001,0.134,0.008,0.201,0.008c0.066,0,0.133-0.007,0.2-0.008c0.066,0.001,0.133,0.008,0.201,0.008
		c0.066,0,0.133-0.007,0.199-0.008c0.067,0.001,0.134,0.008,0.2,0.008c0.068,0,0.134-0.007,0.201-0.008
		c0.067,0.001,0.133,0.008,0.2,0.008s0.134-0.007,0.201-0.008c0.065,0.001,0.133,0.008,0.2,0.008c0.066,0,0.133-0.007,0.199-0.008
		c0.067,0.001,0.135,0.008,0.201,0.008c0.067,0,0.134-0.007,0.2-0.008c0.067,0.001,0.133,0.008,0.201,0.008
		c0.067,0,0.133-0.007,0.2-0.008c0.067,0.001,0.133,0.008,0.201,0.008c0.066,0,0.133-0.007,0.2-0.008
		c0.066,0.001,0.133,0.008,0.199,0.008c0.068,0,0.135-0.007,0.2-0.008c0.067,0.001,0.134,0.008,0.2,0.008
		c0.068,0,0.134-0.007,0.2-0.008c0.068,0.001,0.134,0.008,0.201,0.008s0.133-0.007,0.2-0.008c0.066,0.001,0.134,0.008,0.201,0.008
		c0.066,0,0.133-0.007,0.199-0.008c0.067,0.001,0.134,0.008,0.201,0.008s0.134-0.007,0.2-0.008c0.067,0.001,0.133,0.008,0.201,0.008
		c0.067,0,0.133-0.007,0.2-0.008c0.066,0.001,0.133,0.008,0.2,0.008s0.134-0.007,0.2-0.008c0.067,0.001,0.134,0.008,0.2,0.008
		c0.067,0,0.134-0.007,0.2-0.008c0.067,0.001,0.135,0.008,0.201,0.008c0.067,0,0.133-0.007,0.2-0.008
		c0.067,0.001,0.134,0.008,0.201,0.008c0.066,0,0.133-0.007,0.2-0.008c0.066,0.001,0.133,0.008,0.201,0.008
		c0.066,0,0.133-0.007,0.199-0.008c0.067,0.001,0.134,0.008,0.2,0.008c0.068,0,0.135-0.007,0.201-0.008
		c0.067,0.001,0.133,0.008,0.2,0.008C417.759,241.694,423.577,232.41,423.234,220.956z"/>
	<path fill="#7A5343" d="M519.466,32.032c-0.457-2.397-2.556-4.133-4.996-4.133H404.298l-4.945,9.888H296.063
		c-8.589,7.839-16.902,16.583-19.509,29.402c-10.845,53.332,2.946,104.191,22.716,148.382h43.293l4.81,5.277h113.313l-2.014-109.91
		l6.156-5.005h44.183c2.374,0,4.433-1.638,4.967-3.95c0,0,10.093-33.225,10.313-44.688
		C524.412,50.868,519.466,32.032,519.466,32.032z"/>
	<path fill="#895A4A" d="M465.281,78.634c-45.543,6.281-80.993,22.042-79.179,35.2c1.641,11.897,33.185,17.594,72.878,13.935
		l-0.309-16.831l6.156-5.005h44.183c2.374,0,4.433-1.638,4.967-3.95c0,0,3.814-12.561,6.805-24.9
		C505.715,75.364,486.259,75.741,465.281,78.634z"/>
	<path fill="#895A4A" d="M514.47,27.899H404.298l-4.945,9.888h-95.816c12.225,11.794,83.455,20.844,169.51,20.844
		c17.849,0,35.058-0.39,51.236-1.111c0.002-0.075,0.006-0.151,0.008-0.224c0.122-6.428-4.824-25.264-4.824-25.264
		C519.009,29.634,516.91,27.899,514.47,27.899z"/>
	<path fill="#563229" d="M272.756,105.934c0.014,39.288,11.544,76.175,26.515,109.638h43.293l4.81,5.277h113.313l-2.014-109.91
		l6.156-5.005H272.756z"/>
	<g>
		<polygon fill="#AA947D" points="403.083,105.541 403.362,106.326 464.191,106.326 471.831,105.541 		"/>
		<path fill="#AA947D" d="M461.085,221.241H347.201l-4.81-5.277h-43.376l-0.103-0.232C274.41,160.962,266.97,112.347,276.17,67.11
			c2.694-13.25,11.544-22.233,19.629-29.613l0.111-0.102h103.201l4.943-9.888H514.47c2.623,0,4.883,1.865,5.381,4.439
			c0.245,0.938,4.953,18.979,4.832,25.358c-0.217,11.385-10.229,44.461-10.33,44.794c-0.57,2.479-2.77,4.229-5.342,4.229h-44.043
			l-5.9,4.796L461.085,221.241z M347.548,220.456h112.738l-2.01-109.702l6.412-5.213h44.322c2.203,0,4.088-1.499,4.583-3.646
			c0.109-0.357,10.088-33.329,10.304-44.607c0.119-6.301-4.762-24.968-4.811-25.156l-0.006-0.025
			c-0.422-2.211-2.361-3.815-4.611-3.815H404.54l-4.945,9.888H296.216c-7.963,7.277-16.643,16.13-19.277,29.087
			c-9.151,45.009-1.765,93.392,22.586,147.912h43.211L347.548,220.456z"/>
	</g>
	<path fill="#AA947D" d="M520.477,78.341H280.352c-0.11,0.801-0.225,1.604-0.323,2.404h239.846
		C520.077,79.947,520.278,79.146,520.477,78.341z"/>
	<path fill="#9E6752" d="M413.639,31.23c-0.458-2.398-2.556-4.134-4.998-4.134H298.469l-4.945,9.888H190.235
		c-8.588,7.841-16.902,16.583-19.509,29.402c-10.845,53.332,2.947,104.191,22.716,148.383h68.681l4.811,5.278h83.037V110.137
		l4.887-5.005h48.325c2.374,0,4.433-1.638,4.966-3.951c0,0,10.093-33.225,10.313-44.688C418.583,50.065,413.639,31.23,413.639,31.23
		z"/>
	<path fill="#AF755D" d="M410.366,28.202c-0.541-0.195-1.122-0.303-1.726-0.303H298.469l-4.945,9.888H190.235
		c-8.588,7.839-16.902,16.583-19.509,29.402c-4.091,20.122-4.672,39.891-2.752,59.084c16.337,0.303,33.294-0.422,50.629-2.29
		C311.529,113.968,387.043,74.37,410.366,28.202z"/>
	<path fill="#AF755D" d="M349.971,181.831c-16.493-14.989-39.119-27.676-65.487-35.4c-43.865-12.851-86.42-8.548-111.793,8.529
		c4.806,21.22,12.219,41.538,20.751,60.611h68.681l4.811,5.277h83.037V181.831z"/>
	<polygon fill="#C1B4AE" points="464.627,111.078 385.056,111.078 383.051,113.795 391.269,218.577 412.516,218.577 415.32,222.786 
		520.549,222.786 515.938,181.838 493.289,160.051 469.638,115.832 	"/>
	<polygon fill="#D2C3BC" points="464.627,111.078 385.056,111.078 383.051,113.795 383.204,115.756 469.558,115.756 	"/>
	<polygon fill="#E1D6D0" points="419.73,181.898 515.944,181.898 515.938,181.838 493.289,160.051 404.898,160.051 	"/>
	<path fill="#65524C" d="M379.43,214.97h-18.28c-1.482,0-2.685,1.202-2.685,2.685v5.587c0,1.483,1.202,2.685,2.685,2.685h18.28
		c1.484,0,2.687-1.201,2.687-2.685v-5.587C382.116,216.172,380.914,214.97,379.43,214.97z"/>
	<path fill="#765F5A" d="M370.913,221.784h-12.448v1.457c0,1.483,1.202,2.685,2.685,2.685h12.448v-1.457
		C373.598,222.986,372.395,221.784,370.913,221.784z"/>
	<polygon fill="#EEEAE4" points="387.861,111.078 358.598,111.078 356.594,113.795 356.594,214.034 360.47,218.577 377.839,218.577 
		380.646,222.786 431.757,222.786 427.146,181.838 407.504,160.051 392.872,115.832 	"/>
	<path fill="#E1D6D0" d="M523.153,208.154h-96.407c-2.94,0-3.341,17.238-0.401,17.238h96.809
		C525.826,225.393,525.826,208.154,523.153,208.154z"/>
	<path fill="#433735" d="M487.159,158.373h-74.185c-0.854,0-1.696-0.213-2.448-0.618l0,0c-1.158-0.625-2.034-1.667-2.448-2.916
		l-10.749-32.353c-0.254-0.761-0.145-1.597,0.295-2.269l0,0c0.486-0.742,1.313-1.189,2.199-1.189h66.076
		c0.919,0,1.825,0.221,2.641,0.643l0,0c1.025,0.53,1.865,1.357,2.414,2.372l17.995,33.329c0.215,0.398,0.29,0.858,0.216,1.304l0,0
		C489,157.655,488.151,158.373,487.159,158.373z"/>
	<path fill="#433735" d="M414.648,220.86c-0.391-12.481-7.657-22.601-16.229-22.601c-8.573,0-15.207,10.119-14.817,22.601
		c0.078,2.491,0.435,4.888,1.017,7.129h29.46C414.52,225.748,414.725,223.352,414.648,220.86z"/>
	<path fill="#65524C" d="M412.3,220.956c-0.328-11.452-6.456-20.737-13.687-20.737c-7.229,0-12.822,9.285-12.494,20.737
		c0.329,11.454,6.455,20.738,13.686,20.738C407.034,241.694,412.63,232.41,412.3,220.956z"/>
	<path fill="#765F5A" d="M386.162,218.115c2.292,2.716,5.114,4.338,8.131,4.338c6.622,0,11.867-7.79,12.452-17.898
		c-2.292-2.717-5.114-4.336-8.132-4.336C391.992,200.219,386.747,208.009,386.162,218.115z"/>
	<path fill="#563229" d="M505.207,38.989h-69.271c-2.301,0-3.88,1.918-3.529,4.285l0.336,2.254c0.351,2.367,2.501,4.284,4.801,4.284
		h69.272c2.301,0,3.88-1.917,3.528-4.284l-0.335-2.254C509.657,40.908,507.508,38.989,505.207,38.989z"/>
	<path fill="#2A787F" d="M502.096,40.429h-64.952c-2.157,0-3.639,1.533-3.31,3.423l0.314,1.8c0.33,1.89,2.345,3.423,4.502,3.423
		h64.953c2.155,0,3.637-1.533,3.308-3.423l-0.313-1.8C506.268,41.961,504.252,40.429,502.096,40.429z"/>
	<path fill="#245D60" d="M437.277,43.37h64.952c2.156,0,4.173,1.531,4.502,3.421l0.054,0.31c0.16-0.44,0.217-0.928,0.126-1.448
		l-0.313-1.8c-0.33-1.89-2.346-3.423-4.502-3.423h-64.952c-2.157,0-3.639,1.533-3.31,3.423l0.262,1.491
		C434.516,44.18,435.713,43.37,437.277,43.37z"/>
	<path fill="#613C31" d="M395.525,35.72h-76.063c-2.865,0-5.289,2.497-5.415,5.578l-0.12,2.937
		c-0.127,3.081,2.093,5.578,4.958,5.578h76.063c2.865,0,5.29-2.497,5.416-5.578l0.121-2.937
		C400.609,38.217,398.391,35.72,395.525,35.72z"/>
	<path fill="#2E909E" d="M392.732,38.455h-68.559c-2.582,0-4.768,1.849-4.881,4.129l-0.108,2.173
		c-0.113,2.281,1.888,4.129,4.469,4.129h68.56c2.582,0,4.767-1.848,4.881-4.129l0.109-2.173
		C397.315,40.304,395.315,38.455,392.732,38.455z"/>
	<polygon fill="#4EB0C6" points="337.341,48.886 353.04,48.886 358.025,38.455 342.327,38.455 	"/>
	<polygon fill="#4EB0C6" points="362.395,48.886 374.057,48.886 379.042,38.455 367.381,38.455 	"/>
	<path fill="#247177" d="M187.471,42.115h76.6c0.09,0,0.177,0.006,0.264,0.01c-0.155-2.064-2.055-3.67-4.461-3.67h-68.559
		c-2.432,0-4.51,1.64-4.838,3.736C186.799,42.143,187.132,42.115,187.471,42.115z"/>
	<g>
		<path fill="#563229" d="M324.691,196.662h-2.171v6.683h2.171c0.867,0,1.57-0.703,1.57-1.57v-3.541
			C326.262,197.366,325.559,196.662,324.691,196.662z"/>
		<path fill="#E6D3BA" d="M323.597,197.638h-1.866v4.731h1.866c0.661,0,1.196-0.534,1.196-1.194v-2.342
			C324.793,198.173,324.258,197.638,323.597,197.638z"/>
	</g>
	<g>
		<path fill="#563229" d="M324.691,122.102h-2.171v6.681h2.171c0.867,0,1.57-0.703,1.57-1.57v-3.541
			C326.262,122.805,325.559,122.102,324.691,122.102z"/>
		<path fill="#E6D3BA" d="M323.597,123.076h-1.866v4.732h1.866c0.661,0,1.196-0.535,1.196-1.194v-2.342
			C324.793,123.612,324.258,123.076,323.597,123.076z"/>
	</g>
	<g>
		<path fill="#E6D3BA" d="M319.188,219.111h-35.878c-1.76,0-3.191-1.403-3.191-3.128V113.96c0-1.725,1.432-3.129,3.191-3.129h35.878
			c1.759,0,3.19,1.404,3.19,3.129v102.023C322.379,217.708,320.947,219.111,319.188,219.111z M283.311,111.601
			c-1.326,0-2.406,1.059-2.406,2.359v102.023c0,1.301,1.08,2.358,2.406,2.358h35.878c1.326,0,2.405-1.058,2.405-2.358V113.96
			c0-1.3-1.079-2.359-2.405-2.359H283.311z"/>
	</g>
	<path id="XMLID_1_" fill="#E6D3BA" d="M257.824,111.625h-58.237c-1.726,0-3.125,1.399-3.125,3.125v35.302
		c0,1.727,1.399,3.126,3.125,3.126h58.237c1.726,0,3.125-1.399,3.125-3.126V114.75C260.95,113.024,259.55,111.625,257.824,111.625z"
		/>
	<path fill="#E6D3BA" d="M308.164,120.966h-13.829c-1.938,0-3.509,1.57-3.509,3.507V136.3c0,1.937,1.571,3.508,3.509,3.508h13.829
		c1.938,0,3.508-1.571,3.508-3.508v-11.826C311.672,122.536,310.102,120.966,308.164,120.966z"/>
	<g>
		<polygon fill="#623540" points="128.631,212.44 98.578,242.719 94.126,242.719 127.629,212.343 		"/>
		<polygon fill="#623540" points="89.452,173.486 117.5,242.83 121.508,242.83 90.342,173.263 		"/>
		<path fill="#D33462" d="M65.41,173.374c0,0,6.011,0.891,12.354,0.891c6.345,0,12.244-1.558,12.244-1.558
			s5.009,41.405,12.912,46.081l-15.805,6.343C69.75,215.671,65.298,181.055,65.41,173.374z"/>
		<path fill="#E9476E" d="M77.764,174.265c6.345,0,12.244-1.558,12.244-1.558s2.327,19.231,6.311,32.961
			c-8.12,2.925-19.871-6.471-26.6-21.451c-1.63-3.631-2.813-7.262-3.572-10.742C67.93,173.706,72.736,174.265,77.764,174.265z"/>
		<g>
			<path fill="#F9ECCE" d="M68.567,173.755c0.837,0.086,1.808,0.176,2.868,0.256c0.657,10.897,5.152,38.818,18.581,49.956
				l-2.424,0.973C73.471,213.728,69.03,184.052,68.567,173.755z"/>
			<path fill="#F9ECCE" d="M75.755,174.235c0.662,0.018,1.332,0.029,2.009,0.029c0.29,0,0.578-0.007,0.865-0.013
				c0.842,11.221,5.117,36.244,16.873,47.513l-2.564,1.029C80.708,211.387,76.458,185.12,75.755,174.235z"/>
			<path fill="#F9ECCE" d="M86.494,173.444c0.453,10.546,3.677,34.106,13.958,46.333l-2.579,1.037
				c-10.578-12.24-13.816-36.438-14.228-46.94C84.689,173.742,85.65,173.593,86.494,173.444z"/>
		</g>
		<g>
			<g>
				<path fill="#7C666C" d="M75.909,160.634c-0.305,0.599-0.698,1.217-1.326,1.462c-0.481,0.189-1.024,0.124-1.524-0.008
					c-2.426-0.637-4.725-2.996-4.486-5.493c0.127-1.316,0.798-2.51,1.465-3.651c0.768-1.313,1.898-2.666,2.882-3.827
					c0.981-1.158,1.604-1.787,2.486-3.023c2.573-3.6,0.289-10.849-1.037-10.058c-1.325,0.791,1.835,6.703-0.078,9.814
					c-1.781,2.898-5.774,5.916-6.64,9.207c-0.288,1.095-0.268,2.259-0.032,3.367c0.597,2.81,2.485,4.629,5.323,5.077
					c0.821,0.131,1.697,0.08,2.429-0.313c1.123-0.603,1.704-1.87,2.088-3.084c0.522-1.65,0.747-3.278,1.318-3.924l-0.87-2.34
					C77.304,154.665,76.629,159.221,75.909,160.634z"/>
				<path fill="#6B585E" d="M75.909,160.634c-0.305,0.599-0.698,1.217-1.326,1.462c-0.481,0.189-1.024,0.124-1.524-0.008
					c-2.426-0.637-4.725-2.996-4.486-5.493c0.127-1.316,0.798-2.51,1.465-3.651c0.768-1.313,1.898-2.666,2.882-3.827
					c0.981-1.158,1.604-1.787,2.486-3.023c0.166-0.232,0.311-0.479,0.437-0.738c-0.654,1.06-1.479,2.08-2.466,3.011
					c-0.923,0.871-1.918,1.588-2.938,2.162c-1.253,1.458-2.375,2.962-2.788,4.528c-0.288,1.095-0.268,2.259-0.032,3.367
					c0.597,2.81,2.485,4.629,5.323,5.077c0.821,0.131,1.697,0.08,2.429-0.313c1.123-0.603,1.704-1.87,2.088-3.084
					c0.522-1.65,0.747-3.278,1.318-3.924l-0.87-2.34C77.304,154.665,76.629,159.221,75.909,160.634z"/>
				<path fill="#59474E" d="M102.4,153.399c-1.395,4.584-2.989,13.883-2.035,17.733l-0.718-0.091c0,0-1.544-7.206-1.673-8.815
					c-0.13-1.61,0.433-6.998,0.684-8.217C98.909,152.792,102.4,153.399,102.4,153.399z"/>
				<path fill="#59474E" d="M86.714,152.134c-3.103-3.357-6.926,1.622-5.814,4.704c1.111,3.081,2.061,7.113,1.553,9.109
					c0.795,1.493,2.933,5.738,3.954,7.378l0.81-0.374c0,0-2.116-4.489-2.569-6.296C84.195,164.849,89.818,155.492,86.714,152.134z"
					/>
				<path fill="#7C666C" d="M99.796,153.417c-1.248,4.681-2.539,14.179-1.446,18.117l-0.728-0.095c0,0-1.797-7.372-1.982-9.019
					c-0.185-1.647,0.199-7.151,0.41-8.396C96.261,152.78,99.796,153.417,99.796,153.417z"/>
				<path fill="#7C666C" d="M99.006,147.877c-0.508-0.798-3.897-3.521-9.537-3.499c-5.64,0.023-10.69,5.523-11.773,10.884
					l6.222,4.906c1.236-5.59,8.211-5.679,10.344-5.003c2.133,0.675,6.678,0.169,6.678,0.169l2.36-5.963
					C103.299,149.371,99.515,148.675,99.006,147.877z"/>
				<path fill="#6B585E" d="M99.006,147.877c-0.119-0.188-0.403-0.483-0.833-0.822c-0.265,2.241-4.783,3.459-10.278,4.187
					c-2.279,0.303-4.233,1.147-6.018,0.984c-1.952-0.18-3.78,1.078-4.173,2.998l-0.009,0.038l6.222,4.906
					c1.236-5.59,8.213-5.424,10.346-4.748c2.133,0.675,6.676-0.086,6.676-0.086l2.36-5.963
					C103.299,149.371,99.515,148.675,99.006,147.877z"/>
				<path fill="#7C666C" d="M83.351,152.526c-3.418-3.477-6.906,1.63-5.532,4.809c1.373,3.18,2.658,7.337,2.3,9.39
					c0.928,1.542,3.149,5.589,4.316,7.284l0.99-0.416c0,0-2.417-4.265-3.02-6.127C81.802,165.604,86.771,156.002,83.351,152.526z"/>
				<path fill="#59474E" d="M86.246,172.114l0.161,1.342c0,0,2.212-0.555,1.825-1.499C87.874,171.087,87.011,171.296,86.246,172.114
					z"/>
				<path fill="#7C666C" d="M84.529,172.774c-0.475,0.457-0.468,1.404,0.353,1.31c0.621-0.072,2.16-0.441,1.76-1.392
					C86.272,171.815,85.347,171.985,84.529,172.774z"/>
				<path fill="#7C666C" d="M97.629,170.295c-0.056,0.017-0.108,0.043-0.158,0.072l0.216,1.085c0.564,0.148,1.461,0.243,1.503-0.463
					C99.236,170.222,98.504,170.015,97.629,170.295z"/>
				<path fill="#59474E" d="M99.668,170.148c-0.055,0.017-0.107,0.043-0.157,0.072l0.223,1.088c0.565,0.147,1.464,0.242,1.502-0.463
					C101.276,170.075,100.543,169.868,99.668,170.148z"/>
				<path fill="#6B585E" d="M98.453,160.541c0.356-2.699,0.853-5.283,1.343-7.124c0,0-3.536-0.637-3.746,0.607
					c-0.211,1.245-0.595,6.749-0.41,8.396c0.069,0.607,0.357,2,0.695,3.514C96.681,163.327,97.477,161.296,98.453,160.541z"/>
				<path fill="#59474E" d="M100.301,157.8c-2.316-4.227-1.303-6.571-1.303-6.571l2.458,4.163L100.301,157.8z"/>
				<path id="XMLID_2_" fill="#7C666C" d="M101.917,157.107c-2.746-1.519-3.29-5.942-3.29-5.942s3.576-1.609,4.595-1.845
					c1.019-0.236,3.599,0.683,4.078,1.752c0.48,1.07,1.385,4.786,1.385,4.786S103.846,158.174,101.917,157.107z"/>
				<path fill="#7C666C" d="M101.11,150.897c0.054-3.207,2.129-4.353,2.129-4.353l0.847,2.962L101.11,150.897z"/>
				<path fill="#7C666C" d="M108.018,154.207c1.987-2.339,1.155-4.202,1.155-4.202l-2.519,1.456L108.018,154.207z"/>
				<path fill="#6B585E" d="M102.292,154.857c-1.479-0.9-2.978-2.623-3.61-3.716c-0.032,0.015-0.053,0.023-0.053,0.023
					s0.544,4.424,3.29,5.942c1.929,1.066,6.769-1.249,6.769-1.249s-0.008-0.034-0.021-0.083
					C106.816,156.183,104.609,156.27,102.292,154.857z"/>
				<path fill="#7C666C" d="M103.733,155.975c0.362-0.516,0.011-0.883-0.461-1.245c-0.662-0.129-1.137,0.036-1.307,0.676
					c0,0,0.201,0.592,0.827,0.734C103.419,156.282,103.733,155.975,103.733,155.975z"/>
				<path fill="#89747A" d="M103.153,155.295c-1.523,0.837-3.219-1.242-2.845-2.055c0.374-0.813,2.298-0.051,2.8,0.625
					C103.612,154.539,103.469,155.122,103.153,155.295z"/>
				<path fill="#89747A" d="M103.145,154.514c1.167-1.289,3.525,0.349,3.438,1.239c-0.087,0.89-2.155,0.801-2.854,0.328
					C103.032,155.609,102.904,154.782,103.145,154.514z"/>
				<path fill="#59474E" d="M103.006,153.719l0.305,0.695l0.811-0.372C104.121,154.042,103.408,153.51,103.006,153.719z"/>
				<path fill="#66545A" d="M101.659,149.954c0.066-1.934,1.356-2.542,1.356-2.542l0.493,1.822L101.659,149.954z"/>
				<path fill="#66545A" d="M108.147,153.315c1.232-1.453,0.714-2.612,0.714-2.612l-1.564,0.906L108.147,153.315z"/>
				<path fill="#6B585E" d="M81.508,169.126c-0.083-1.244,0.115-2.104,0.61-2.282c0.078-0.028,0.162-0.033,0.25-0.026
					c0.176-2.16,2.479-7.505,2.165-11.325c0.042,0.568,0.039,1.168-0.019,1.786c-0.317,3.42-1.945,5.224-3.854,5.093
					c-0.25-0.018-0.666,0.776-0.893,0.668c0.349,1.462,0.513,2.778,0.354,3.686C80.451,167.276,80.952,168.152,81.508,169.126z"/>
				<path fill="#59474E" d="M103.167,152.906c0.206-1.164-0.77-1.205-1.285-0.662l0.004,0.002
					C102.448,152.021,103.058,152.181,103.167,152.906z"/>
				<path fill="#59474E" d="M106.129,154.256c0.207-1.165-0.769-1.206-1.284-0.663l0.005,0.002
					C105.411,153.371,106.021,153.531,106.129,154.256z"/>
				<path fill="#6B585E" d="M79.916,163.732c0.342-0.445,0.758-0.737,1.236-0.832c0.65-0.13,1.332,0.127,1.982,0.67
					c1.041-3.657,2.505-8.719,0.218-11.044c-0.33-0.336-0.661-0.59-0.989-0.775c0.972,0.936,1.671,2.491,1.795,4.284
					c0.205,2.976-1.247,5.468-3.245,5.565c-0.596,0.028-1.171-0.163-1.694-0.52C79.507,161.995,79.746,162.896,79.916,163.732z"/>
			</g>
			<path fill="#753726" d="M95.748,154.405c-0.115-0.042-0.249-0.072-0.314-0.177c-0.055-0.088-0.042-0.199-0.028-0.301
				c0.067-0.505,0.098-1.03-0.063-1.516c-0.2-0.607-0.708-1.105-1.317-1.291c-0.609-0.186-1.302-0.053-1.794,0.345
				c-0.059,0.047-0.122,0.1-0.197,0.099c-0.069-0.001-0.128-0.046-0.185-0.087c-0.649-0.466-1.565-0.402-2.258-0.021
				c-0.692,0.383-1.199,1.028-1.628,1.695c-0.316,0.492-0.611,1.043-0.568,1.63c0.008,0.101,0.024,0.203,0.002,0.301
				c-0.018,0.081-0.062,0.151-0.109,0.218c-0.176,0.244-0.425,0.435-0.706,0.543c-0.419,0.159-0.901,0.138-1.294,0.354
				c-0.333,0.187-0.557,0.523-0.708,0.876c-0.327,0.77-0.354,1.666-0.075,2.46c0.296,0.842,0.916,1.553,1.146,2.415
				c0.137,0.511,0.13,1.047,0.193,1.571c0.143,1.179,0.662,2.311,1.449,3.201c0.321,0.362,0.792,0.559,1.274,0.515l8.156-0.739
				c0.295-0.612-0.092-10.291-0.138-10.823C96.541,155.141,96.249,154.591,95.748,154.405z"/>
			<path fill="#602B1F" d="M89.023,156.276c-1.652-1.049-1.188-3.192,0.961-4.988c-0.135,0.047-0.268,0.102-0.393,0.169
				c-0.692,0.383-1.199,1.028-1.628,1.695c-0.316,0.492-0.611,1.043-0.568,1.63c0.008,0.101,0.024,0.203,0.002,0.301
				c-0.018,0.081-0.062,0.151-0.109,0.218c-0.176,0.244-0.425,0.435-0.706,0.543c-0.419,0.159-0.901,0.138-1.294,0.354
				c-0.333,0.187-0.557,0.523-0.708,0.876c-0.327,0.77-0.354,1.666-0.075,2.46c0.296,0.842,0.916,1.553,1.146,2.415
				c0.137,0.511,0.13,1.047,0.193,1.571c0.143,1.179,0.662,2.311,1.449,3.201c0.321,0.362,0.792,0.559,1.274,0.515l8.156-0.739
				c0.295-0.612-0.092-10.291-0.138-10.823c-0.01-0.111-0.032-0.224-0.063-0.334C93.928,156.901,90.693,157.335,89.023,156.276z"/>
			<path fill="#F1B647" d="M98.503,183.026c-2.774-3.182-1.471-13.359,5.905-10.833c7.376,2.526,17.48,13.178,20.625,24.339
				l-10.419,0.325C108.586,192.804,100.411,185.214,98.503,183.026z"/>
			<path fill="#EB8F31" d="M99.689,177.452c-0.821,0.454-1.51,1.1-2.067,1.892c0.001,1.815,0.465,3.536,1.332,4.518
				c1.869,2.116,11.973,11.823,15.575,15.064l3.259-4.847C115.446,184.771,103.884,175.131,99.689,177.452z"/>
			<path fill="#F1B647" d="M105.01,172.541c-3.045-2.012-12.411-2.127-13.987-2.014c-1.576,0.114-11.396,5.33-12.89,8.165
				l9.697,30.368l15.145-2.88l12.377-1.063C109.147,196.361,103.631,176.352,105.01,172.541z"/>
			<path fill="#EB8F31" d="M86.77,183.205c-0.602-0.331-1.18-0.448-1.715-0.314c-1.98,0.497-2.873,4.264-2.562,9.457l5.337,16.713
				l8.154-2.672C93.983,203.564,86.544,186.806,86.77,183.205z"/>
			<path fill="#DBD4B9" d="M102.534,208.166l-17.213,4.02l0.48,2.413c1.172,5.894,6.994,9.657,12.342,8.431l7.931-1.778
				L102.534,208.166z"/>
			<polygon fill="#DBD4B9" points="124.658,201.354 100.731,207.438 106.199,221.725 125.613,217.365 			"/>
			<path opacity="0.62" fill="#E8E2CD" d="M106.256,183.082c0,0-12.167,2.643-24.281,6.048l-0.28,2.492l25.137-6.382
				L106.256,183.082z"/>
			<path opacity="0.62" fill="#E8E2CD" d="M107.426,187.245l-0.258-0.966c0,0-12.167,2.641-24.281,6.047l-0.105,0.938
				C93.553,190.354,104.106,187.979,107.426,187.245z"/>
			<path fill="#E8E2CD" d="M118.118,188.24c-6.727,2.083-6.264,11.741,0.125,14.981c6.39,3.24,7.523-13.245,7.523-13.245
				S122.003,187.038,118.118,188.24z"/>
			<path fill="#EBB984" d="M123.302,200.813c-7.019,2.193-7.996-5.916-6.273-9.962c1.157-2.715,9.999-5.363,11.141-6.965
				c1.142-1.604,6.123,0.336,6.874,3.825C135.795,191.203,125.793,200.035,123.302,200.813z"/>
			<path fill="#E69B69" d="M117.029,190.851c0.155-0.363,0.452-0.727,0.846-1.086c-1.32,4.506-1.029,8.454,0.761,9.083
				c1.938,0.678,10.533-4.984,9.535-11.853c-0.644-1.483-0.257-2.75-0.001-3.109c1.142-1.604,6.123,0.336,6.874,3.825
				c0.752,3.492-9.25,12.324-11.742,13.102C116.283,203.006,115.306,194.896,117.029,190.851z"/>
			<g>
				<path fill="#E69B69" d="M136.408,180.092c1.11,0.115,2.377,1.051,3.019,2.42c0.643,1.368-0.119,2.648-0.541,2.967
					c-0.423,0.318-2.139,0.413-2.084-1.122c0.055-1.536-1.078-1.606-1.078-1.606L136.408,180.092z"/>
				<path fill="#E69B69" d="M135.722,180.846c-2.57-1.166-6.332,1.27-7.884,3.425s2.987,6.646,4.614,6.681
					c1.628,0.035,3.281-0.783,3.674-2.427c0.395-1.644,2.338-1.31,2.675-1.86C139.645,185.289,137.347,181.584,135.722,180.846z"/>
				<path fill="#E69B69" d="M138.266,183.106c1,0.494,1.847,1.811,1.955,3.311c0.108,1.5-1.069,2.428-1.58,2.577
					c-0.51,0.15-2.153-0.361-1.547-1.774s-0.429-1.875-0.429-1.875L138.266,183.106z"/>
			</g>
			<path fill="#EB8F31" d="M78.334,178.119c2.576,0.475,6.063,0.396,9.799-0.347c6.492-1.29,11.522-4.146,12.098-6.696
				c-3.762-0.599-8.171-0.623-9.208-0.549c-1.022,0.073-5.505,2.292-8.942,4.615C80.913,175.689,79.592,176.703,78.334,178.119z"/>
			<path fill="#DBD4B9" d="M98.432,170.837c-3.261-0.364-6.487-0.633-7.362-0.57c-0.5,0.037-1.877,0.849-3.508,1.672
				c0.001,0.002,0.002,0.003,0.002,0.004c0.594,2.06,3.47,3.082,6.391,2.5C96.368,173.964,98.543,172.399,98.432,170.837z"/>
			<path fill="#D27558" d="M88.573,171.444l-0.7-8.716l7.239-0.606l1.423,8.538C96.778,173.125,90.494,174.563,88.573,171.444z"/>
			<path fill="#EBB984" d="M90.201,169.409c-1.101-0.802-2.563-11.379-2.313-11.879c0.251-0.499,5.74-3.039,6.968-1.885
				c1.229,1.154,2.081,12.475,1.976,12.945C96.725,169.061,91.602,170.429,90.201,169.409z"/>
			<path fill="#602B1F" d="M86.887,156.931c2.404-2.905,3.54,2.394,3.511,5.93l-1.68,1.099l-0.797,2.523
				C87.92,166.482,85.732,158.325,86.887,156.931z"/>
			<path fill="#EBB984" d="M89.032,162.043c-0.536-1.034-1.36-1.589-1.842-1.235c-0.482,0.354-0.438,1.479,0.099,2.515
				c0.536,1.035,1.361,1.589,1.842,1.235C89.612,164.206,89.568,163.08,89.032,162.043z"/>
			<path fill="#D27558" d="M88.737,162.407c-0.357-0.646-0.889-0.98-1.187-0.749c-0.297,0.232-0.25,0.942,0.106,1.587
				s0.887,0.979,1.185,0.749C89.14,163.763,89.093,163.053,88.737,162.407z"/>
			<path fill="#EBB984" d="M88.928,163.331c-0.177-0.305-0.478-0.441-0.672-0.307c-0.193,0.135-0.208,0.491-0.032,0.795
				c0.176,0.304,0.478,0.441,0.672,0.306C89.09,163.99,89.104,163.635,88.928,163.331z"/>
			<g>
				<path fill="#D27558" d="M91.732,162.944c0.407-0.278,0.729-0.614,0.721-0.751c-0.01-0.137-0.35-0.02-0.759,0.261
					c-0.408,0.28-0.73,0.617-0.719,0.751C90.988,163.341,91.327,163.222,91.732,162.944z"/>
				<path fill="#D27558" d="M91.503,162.27c0.486,0.054,0.944,0.009,1.022-0.101c0.08-0.108-0.254-0.24-0.742-0.293
					c-0.489-0.054-0.946-0.008-1.022,0.101C90.686,162.086,91.018,162.217,91.503,162.27z"/>
				<path fill="#D27558" d="M95.167,161.22c-0.447,0.207-0.822,0.484-0.835,0.62c-0.014,0.136,0.341,0.077,0.791-0.131
					c0.451-0.208,0.823-0.486,0.833-0.621C95.967,160.954,95.613,161.014,95.167,161.22z"/>
				<path fill="#D27558" d="M95.28,161.923c-0.47-0.133-0.929-0.165-1.024-0.071c-0.096,0.095,0.21,0.28,0.685,0.414
					c0.472,0.134,0.93,0.164,1.023,0.069C96.056,162.24,95.75,162.057,95.28,161.923z"/>
				<path fill="#753726" d="M89.815,161.094l-0.077-0.133c-0.135-0.234-0.07-0.528,0.143-0.66l1.755-1.075
					c0.218-0.135,0.506-0.051,0.642,0.188l0.047,0.081L89.815,161.094z"/>
				<path fill="#D27558" d="M93.318,160.633c0,0-0.067,0.24-0.146,0.591c0.558,1.723,0.982,3.547-0.107,2.708
					c0.011,0.038,0.016,0.074,0.028,0.111C94.896,165.721,93.821,161.989,93.318,160.633z"/>
				<path fill="#443239" d="M94.794,165.277c0.001,0.125,0.002,0.25-0.009,0.379c-0.115,1.374-1.013,2.178-1.84,1.999
					c-0.761-0.165-1.163-1.078-1.162-2.334L94.794,165.277z"/>
				<path fill="#753726" d="M93.91,159.233l0.009-0.084c0.028-0.242,0.213-0.386,0.415-0.319L96,159.376
					c0.207,0.067,0.354,0.324,0.328,0.572l-0.01,0.084L93.91,159.233z"/>
				<path fill="#F2E9D6" d="M94.429,166.269c0.066-0.128,0.115-0.286,0.13-0.504c0.007-0.098,0.004-0.194,0.002-0.29l-2.604-0.021
					c0.009,0.456,0.105,0.692,0.272,0.834L94.429,166.269z"/>
			</g>
			<path fill="#D5CBBA" d="M137.339,179.568c1.113-2.504-0.597-4.611-1.432-7.871c-0.835-3.261-0.994-4.254,0.159-6.123
				c1.153-1.869-0.955-3.498-1.392-4.095s1.392-2.544,1.471-2.664c0.079-0.118-1.193,1.392-0.358,2.306
				c0.835,0.915,2.664,3.818,1.908,5.726c-0.755,1.908-2.218,2.435-0.517,5.646C139.287,176.468,137.339,179.568,137.339,179.568z"
				/>
			<path fill="#EBB984" d="M131.818,183.26c1.98-1.216,1.98-1.712,3.691-1.352c1.711,0.359,4.165,0.139,1.261-1.71
				c-1.033-0.658-2.341-1.441-3.466-0.676c-1.126,0.765-3.692,2.88-3.692,2.88L131.818,183.26z"/>
			<g>
				<path fill="#AA9E8A" d="M135.236,183.88c-0.074,0.023-0.15,0.044-0.23,0.054c-0.587,0.082-1.117-0.232-1.182-0.702
					s0.358-0.917,0.945-0.999c0.078-0.011,0.153-0.015,0.228-0.012c0-0.023-0.003-0.048-0.003-0.071
					c0-0.337,0.028-0.665,0.077-0.982c-0.146-0.001-0.294,0.005-0.445,0.026c-1.305,0.182-2.245,1.175-2.1,2.218
					c0.145,1.044,1.32,1.743,2.625,1.563c0.163-0.022,0.317-0.058,0.466-0.104C135.462,184.561,135.335,184.229,135.236,183.88z"/>
				<path fill="#C6BBA7" d="M136.933,186.271c-2.732-1.275-2.81-4.771-2.342-5.183c0.469-0.411,7.572-0.688,8.196-0.07
					c0.625,0.619-1.327,4.889-2.262,5.153C139.588,186.437,136.933,186.271,136.933,186.271z"/>
				<path fill="#D5CBBA" d="M142.536,183.003c-0.097-0.05-0.195-0.099-0.304-0.132c-1.122-0.347-2.345,0.384-2.73,1.632
					c-0.195,0.628-0.138,1.269,0.108,1.793c0.363-0.022,0.688-0.061,0.916-0.124C141.089,186.012,142.021,184.396,142.536,183.003z"
					/>
				<path fill="#D5CBBA" d="M141.057,180.695c-2.121-0.119-5.488,0.06-6.305,0.319c-0.32,2.09,0.393,3.619,1.851,3.619
					C138.136,184.634,139.984,182.946,141.057,180.695z"/>
			</g>
			<path fill="#EBB984" d="M127.316,184.43c1.838-2.34,4.502-3.512,5.178-3.197c0.674,0.315,2.385,2.566,2.07,3.872
				s-1.396,1.306-1.755,0.811c-0.36-0.495-1.306-2.025-1.306-2.025s0.47,4.799-2.321,4.979
				C126.391,189.049,126.821,185.059,127.316,184.43z"/>
		</g>
		<path fill="#9B2653" d="M128.631,212.44c-4.897,3.202-17.363,7.764-23.374,0c0,0-13.091,10.862-27.189,4.259
			c0,0,7.265,15.053,25.742,13.015C122.286,227.677,128.631,212.44,128.631,212.44z"/>
		<polygon fill="#623540" points="105.257,212.44 75.204,242.719 70.752,242.719 104.255,212.343 		"/>
		<polygon fill="#623540" points="64.964,173.486 93.013,242.83 97.021,242.83 65.854,173.263 		"/>
		<g>
			<path fill="#E8E2CD" d="M120.098,213.437c0.424-8.251,2.877-11.882,4.565-11.969c4.042-0.207,8.048,5.508,7.597,10.345
				c-0.457,4.892-0.917,8.551-10.16,31.872l-0.658-0.013C121.443,243.672,119.481,225.438,120.098,213.437z"/>
			<path fill="#DBD4B9" d="M122.214,215.437c0.875-8.257,3.497-11.896,5.168-11.989c0.692-0.038,1.373,0.103,2.022,0.381
				c-1.353-1.489-3.04-2.447-4.741-2.36c-1.688,0.087-4.671,3.309-5.101,11.563c-0.624,12.005,1.88,30.641,1.88,30.641l0.333,0.007
				C121.576,238.463,121.202,224.974,122.214,215.437z"/>
			<path fill="#E8E2CD" d="M120.132,215.683c-1.196-8.081-4.461-11.497-6.295-12.085c-4.778-1.533-9.287,5.017-7.913,10.757
				c1.332,5.561,2.545,8.507,14.785,29.525l0.571-0.171C121.28,243.709,121.768,226.723,120.132,215.683z"/>
			<path fill="#DBD4B9" d="M108.053,212.83c-0.374-4.261,5.147-10.111,10.192-4.053c-1.432-3.227-3.226-4.801-4.408-5.18
				c-4.778-1.533-11.086,4.571-9.659,10.422c1.383,5.664,4.291,8.842,16.53,29.86l0.15-0.045
				C112.98,226.953,108.49,217.795,108.053,212.83z"/>
			<path fill="#D8CC9C" d="M127.175,242.982l-5.62,0.777c0,0-0.763-2.221,0.32-2.744
				C122.951,240.495,127.175,242.982,127.175,242.982z"/>
			<path fill="#E2D7AA" d="M119.262,244.076l3.812-0.526c0,0-1.563-2.496-2.629-2.8
				C119.375,240.445,119.262,244.076,119.262,244.076z"/>
		</g>
		<g>
			<path fill="#F1B647" d="M84.574,174.773c-2.725-0.977-9.841,4.669-11.097,14.362c-0.988,7.617,3.487,20.886,10.861,23.007
				l3.055-13.865C82.996,195.256,90.132,176.766,84.574,174.773z"/>
			<path fill="#EB8F31" d="M77.714,192.673c-1.747-8.786,1.129-16.763,6.424-17.816c0.153-0.029,0.307-0.053,0.46-0.071
				c-0.009-0.003-0.016-0.009-0.024-0.012c-2.725-0.977-9.841,4.669-11.097,14.362c-0.988,7.617,3.487,20.886,10.861,23.007
				l1.4-6.354C82.121,203.764,78.941,198.84,77.714,192.673z"/>
			<path fill="#E8E2CD" d="M78.608,208.846c-2.207-5.335,3.354-12.59,8.329-11.582c4.976,1.009-3.557,14.456-3.557,14.456
				S79.882,211.926,78.608,208.846z"/>
			<path fill="#EBB984" d="M83.792,211.792c-3.588-3.585-0.603-13.229,1.767-14.003c2.344-0.765,20.129,1.565,22.329,1.284
				c2.174-0.277,3.691,4.795,1.325,7.574C106.821,209.456,85.85,213.85,83.792,211.792z"/>
			<path fill="#E69B69" d="M85.559,197.789c-0.681,0.222-1.414,1.182-2.026,2.521c2.091-1.551,2.532-1.364,15.043-1.894
				C93.051,197.909,86.857,197.366,85.559,197.789z"/>
			<path fill="#E69B69" d="M107.255,207.039c-21.411,4.999-23.855-6.576-21.732-9.234c-2.364,0.859-5.301,10.421-1.731,13.987
				c2.058,2.058,23.029-2.336,25.42-5.145c0.411-0.482,0.702-1.032,0.896-1.61C109.334,205.788,108.48,206.753,107.255,207.039z"/>
			<g>
				<path fill="#EBB984" d="M114.275,202.174c0.709,0.839,0.974,2.369,0.503,3.783c-0.471,1.416-1.879,1.813-2.394,1.752
					c-0.515-0.06-1.796-1.16-0.717-2.221c1.079-1.06,0.323-1.88,0.323-1.88L114.275,202.174z"/>
				<path fill="#EBB984" d="M114.7,201.908c-1.033-2.583-6.771-3.064-9.333-2.582c-2.56,0.484-2.383,6.783-1.252,7.914
					c1.131,1.133,2.857,1.674,4.25,0.769c1.393-0.908,2.545,0.654,3.158,0.49C113.053,208.09,115.354,203.543,114.7,201.908z"/>
				<path fill="#EBB984" d="M113.552,205.593c0.373,1.032,0.083,2.55-0.856,3.695c-0.939,1.145-2.401,1.008-2.864,0.767
					s-1.283-1.724,0.104-2.321c1.387-0.596,0.965-1.632,0.965-1.632L113.552,205.593z"/>
			</g>
		</g>
	</g>
	<path fill="#433735" d="M256.065,113.952h-54.719c-1.574,0-2.851,1.276-2.851,2.851V148c0,1.574,1.277,2.851,2.851,2.851h54.719
		c1.575,0,2.851-1.276,2.851-2.851v-31.198C258.916,115.228,257.64,113.952,256.065,113.952z"/>
	<path fill="#2E909E" d="M255.07,115.651h-51.124c-1.467,0-2.656,1.189-2.656,2.656v28.989c0,1.468,1.189,2.657,2.656,2.657h51.124
		c1.467,0,2.656-1.189,2.656-2.657v-28.989C257.726,116.84,256.537,115.651,255.07,115.651z"/>
	<path fill="#4EB0C6" d="M253.762,117.824h-46.637c-1.338,0-2.423,1.085-2.423,2.423v26.445c0,1.338,1.084,2.424,2.423,2.424h46.637
		c1.338,0,2.423-1.086,2.423-2.424v-26.445C256.185,118.909,255.1,117.824,253.762,117.824z"/>
	<path fill="#64C2D9" d="M231.276,119.644c0.195-0.607,0.404-1.214,0.614-1.82h-4.258c-4.846,11.841-12.193,22.946-20.303,31.292
		h22.476C227.063,142.254,227.332,131.913,231.276,119.644z"/>
	<path fill="#64C2D9" d="M234.741,147.296c-0.227,0.607-0.458,1.213-0.69,1.82h1.762c4.839-11.841,10.538-22.946,15.892-31.293
		h-9.301C241.896,124.685,239.31,135.026,234.741,147.296z"/>
	<path fill="#433735" d="M361.271,160.545v-37.846c0-2.027,1.639-3.67,3.661-3.67h23.816c0.999,0,1.955,0.41,2.646,1.135l0,0
		c0.844,0.886,1.472,1.956,1.833,3.126l11.322,36.682c0.286,0.932,0.193,1.939-0.262,2.801l0,0c-0.635,1.202-1.88,1.955-3.237,1.955
		h-35.64c-1.012,0-1.979-0.42-2.67-1.16l-0.479-0.513C361.625,162.375,361.271,161.478,361.271,160.545z"/>
	<path fill="#3392A0" d="M362.634,159.388v-35.501c0-1.901,1.541-3.442,3.443-3.442h22.393c0.941,0,1.84,0.384,2.49,1.064l0,0
		c0.794,0.831,1.384,1.834,1.724,2.933l10.646,34.41c0.27,0.873,0.182,1.819-0.245,2.627l0,0c-0.597,1.129-1.768,1.833-3.043,1.833
		h-33.514c-0.951,0-1.86-0.394-2.512-1.087l-0.45-0.48C362.967,161.105,362.634,160.264,362.634,159.388z"/>
	<path fill="#4EB0C6" d="M365.202,158.768v-32.693c0-1.751,1.388-3.171,3.101-3.171h20.163c0.847,0,1.656,0.355,2.241,0.981l0,0
		c0.716,0.765,1.247,1.69,1.553,2.7l9.586,31.689c0.243,0.805,0.163,1.675-0.222,2.419l0,0c-0.536,1.039-1.591,1.688-2.74,1.688
		h-30.176c-0.856,0-1.676-0.361-2.262-1.001l-0.406-0.443C365.501,160.349,365.202,159.573,365.202,158.768z"/>
	<path fill="#64C2D9" d="M380.291,139.81c4.613,0,9.015-0.276,13.053-0.773l-3.159-11.315c-0.262-0.939-0.717-1.798-1.33-2.507
		c-0.5-0.582-1.194-0.911-1.92-0.911h-17.275c-1.467,0-2.656,1.318-2.656,2.943v11.762
		C371.106,139.523,375.59,139.81,380.291,139.81z"/>
	<path fill="#27737A" d="M484.208,157.41h-70.559c-0.813,0-1.612-0.202-2.327-0.588l0,0c-1.103-0.593-1.935-1.585-2.329-2.771
		l-10.225-30.771c-0.24-0.724-0.137-1.52,0.281-2.158l0,0c0.463-0.705,1.249-1.13,2.092-1.13h62.846
		c0.875,0,1.736,0.209,2.512,0.611l0,0c0.975,0.504,1.774,1.291,2.297,2.257l17.114,31.698c0.204,0.379,0.276,0.815,0.205,1.24l0,0
		C485.959,156.729,485.151,157.41,484.208,157.41z"/>
	<path fill="#3392A0" d="M480.601,156.335h-66.5c-0.767,0-1.52-0.191-2.194-0.554l0,0c-1.038-0.56-1.824-1.495-2.195-2.613
		l-9.636-29.002c-0.226-0.682-0.129-1.432,0.266-2.034l0,0c0.436-0.665,1.176-1.066,1.972-1.066h59.23
		c0.824,0,1.636,0.198,2.367,0.576l0,0c0.919,0.476,1.673,1.218,2.165,2.127l16.128,29.876c0.194,0.357,0.263,0.769,0.194,1.169l0,0
		C482.25,155.692,481.489,156.335,480.601,156.335z"/>
	<path fill="#433735" d="M306.909,122.677H295.59c-1.585,0-2.871,1.285-2.871,2.871v9.678c0,1.585,1.286,2.871,2.871,2.871h11.319
		c1.585,0,2.87-1.285,2.87-2.871v-9.678C309.779,123.962,308.494,122.677,306.909,122.677z"/>
	<path fill="#2E909E" d="M306.74,123.725h-9.78c-1.368,0-2.479,1.111-2.479,2.481v8.361c0,1.37,1.11,2.48,2.479,2.48h9.78
		c1.37,0,2.48-1.111,2.48-2.48v-8.361C309.221,124.836,308.11,123.725,306.74,123.725z"/>
	<path fill="#E6D3BA" d="M268.794,220.781c-0.466-13.944-8.608-25.237-18.214-25.237s-17.042,11.293-16.635,25.237H268.794z"/>
	<path fill="#D2C2AB" d="M188.431,203.879h5.459c0.748,0,1.317-0.666,1.202-1.404l-1.624-10.395
		c-0.092-0.592-0.603-1.029-1.202-1.029h-8.814C185.036,195.38,186.699,199.656,188.431,203.879z"/>
	<path fill="#D15E3B" d="M188.7,202.352h4.159c0.569,0,1.003-0.509,0.916-1.07l-1.237-7.918c-0.071-0.451-0.458-0.784-0.916-0.784
		h-6.714C186.114,195.876,187.38,199.134,188.7,202.352z"/>
	<rect x="186.226" y="196.662" fill="#D2C2AB" width="7.416" height="1.471"/>
	<g>
		<path fill="#D2C2AB" d="M350.363,221.241H266.76l-4.81-5.277h-68.763l-0.104-0.232c-24.501-54.77-31.941-103.384-22.743-148.622
			c2.694-13.25,11.545-22.233,19.629-29.613l0.113-0.102h103.2l4.944-9.888h110.414c2.623,0,4.884,1.865,5.381,4.439
			c0.246,0.938,4.953,18.979,4.832,25.358c-0.218,11.385-10.229,44.461-10.33,44.794c-0.57,2.479-2.77,4.229-5.341,4.229h-48.161
			l-4.658,4.773V221.241z M267.106,220.456h82.472V110.778l5.112-5.237h48.492c2.203,0,4.088-1.499,4.582-3.646
			c0.109-0.357,10.089-33.329,10.304-44.607c0.12-6.301-4.761-24.968-4.809-25.156l-0.007-0.025
			c-0.423-2.211-2.361-3.815-4.612-3.815h-109.93l-4.944,9.888H190.387c-7.962,7.277-16.643,16.13-19.276,29.087
			c-9.152,45.009-1.765,93.392,22.585,147.912h68.601L267.106,220.456z"/>
	</g>
	<path fill="#E6D3BA" d="M241.62,210.626h-51.783c-1.409,0-2.379,1.442-1.87,2.78l2.482,6.538c0.299,0.786,1.042,1.306,1.87,1.306
		h53.335L241.62,210.626z"/>
	<path fill="#EDE2D3" d="M232.289,214.995l-1.66-4.369h-40.792c-1.409,0-2.379,1.441-1.87,2.78l1.659,4.369h40.792
		C231.828,217.775,232.796,216.334,232.289,214.995z"/>
	<path fill="#433735" d="M266.928,219.931c-0.391-12.481-7.671-22.601-16.263-22.601c-8.591,0-15.239,10.119-14.849,22.601
		c0.001,0.024,0.002,0.05,0.002,0.075c0.133,3.956,3.462,7.055,7.42,7.055h23.12C266.8,224.818,267.006,222.423,266.928,219.931z"/>
	<path fill="#65524C" d="M265.628,220.956c-0.343-11.452-6.715-20.737-14.233-20.737s-13.336,9.285-12.994,20.737
		c0.342,11.454,6.714,20.738,14.233,20.738C260.152,241.694,265.97,232.41,265.628,220.956z"/>
	<path fill="#765F5A" d="M263.468,210.526c-2.543-6.164-7.052-10.308-12.073-10.308c-7.193,0-12.826,8.5-13,19.266
		c3.028,5.88,8.345,9.506,13.813,8.735C259.138,227.244,263.882,219.549,263.468,210.526z"/>
	<path fill="#4E3E3B" d="M407.023,220.956c-0.197-6.835-3.854-12.376-8.169-12.376s-7.653,5.541-7.457,12.376
		s3.853,12.376,8.168,12.376S407.219,227.791,407.023,220.956z"/>
	<path fill="#D3C7C1" d="M405.827,220.956c-0.123-4.27-2.406-7.731-5.103-7.731c-2.695,0-4.781,3.462-4.658,7.731
		s2.406,7.731,5.104,7.731C403.864,228.688,405.95,225.226,405.827,220.956z"/>
	<path fill="#4E3E3B" d="M260.506,220.956c-0.196-6.835-3.854-12.376-8.168-12.376c-4.315,0-7.654,5.541-7.458,12.376
		s3.854,12.376,8.168,12.376C257.364,233.332,260.702,227.791,260.506,220.956z"/>
	<path fill="#D3C7C1" d="M259.31,220.956c-0.123-4.27-2.406-7.731-5.102-7.731c-2.696,0-4.781,3.462-4.659,7.731
		c0.123,4.27,2.408,7.731,5.104,7.731C257.348,228.688,259.433,225.226,259.31,220.956z"/>
	<g>
		<path fill="#433735" d="M381.424,209.616l-19.878-0.001l-0.033-48.495h0.786l0.032,47.711l18.342,0.001
			c0.676-13.24,8.859-20.579,23.099-20.711v-26.333h0.785v27.116h-0.393c-14.129,0-22.199,7.222-22.725,20.335L381.424,209.616z"/>
	</g>
	<g>
		<g>
			<path fill="#968A78" d="M159.699,179.747c-4.453-0.477-10.616,2.227-10.616,2.227l0.318,1.75l10.376-1.711L159.699,179.747z"/>
			<path fill="#C6BBA7" d="M145.665,184.081l2.982,2.385l1.152-3.776C148.884,182.809,145.665,184.081,145.665,184.081z"/>
			<path fill="#C6BBA7" d="M167.273,184.68c-0.909-3.639-4.208-3.442-6.904-3.208c-3.609,0.314-1.736,3.188,0.412,2.714
				c2.333-0.516,4.244-0.517,4.912,2.248c0.666,2.765-0.307,5.638-4.349,6.739c-0.776,0.212-0.608,1.21,0.982,0.98
				C166.991,193.48,168.183,188.318,167.273,184.68z"/>
			<path fill="#968A78" d="M162.167,181.366c0.078,0.81,1.361,1.456,2.948,1.456c0.409,0,0.797-0.044,1.152-0.121
				C165.242,181.582,163.713,181.343,162.167,181.366z"/>
			<path fill="#C6BBA7" d="M161.249,180.463c-4.618,0.043-8.919,0.925-12.881,2.703v13.597h14.79L161.249,180.463z"/>
			<path fill="#D5CBBA" d="M161.329,183.166c0-0.93-0.078-1.831-0.209-2.699c-4.568,0.059-8.827,0.937-12.751,2.699v8.037
				c1.37,2.245,3.3,3.652,5.447,3.652C157.964,194.855,161.329,189.622,161.329,183.166z"/>
		</g>
		<rect x="132.863" y="198.733" fill="#56342D" width="41.665" height="3.092"/>
		<polygon fill="#56342D" points="164.101,198.007 162.089,198.104 134.384,244.234 135.654,244.172 		"/>
		<polygon fill="#56342D" points="130.317,198.751 132.333,198.751 164.827,243.491 163.555,243.491 		"/>
		<rect x="147.494" y="221.333" fill="#56342D" width="12.828" height="1.273"/>
		<polygon fill="#56342D" points="177.072,198.751 175.058,198.751 145.161,243.491 146.433,243.491 		"/>
		<polygon fill="#56342D" points="142.192,198.751 144.207,198.751 176.701,243.491 175.429,243.491 		"/>
		<path fill="#754636" d="M177.334,196.206h-43.25c-0.733,0-1.328,0.595-1.328,1.328v1.479c0,0.732,0.595,1.327,1.328,1.327h43.25
			c0.734,0,1.329-0.595,1.329-1.327v-1.479C178.663,196.801,178.068,196.206,177.334,196.206z"/>
		<path fill="#AA533C" d="M146.75,199.015v-1.481c0-0.733-0.594-1.327-1.327-1.327h-16.588c-0.733,0-1.328,0.594-1.328,1.327v1.481
			c0,0.731,0.595,1.326,1.328,1.326h16.588C146.156,200.341,146.75,199.746,146.75,199.015z"/>
		<path fill="#93513F" d="M178.663,199.014v-1.479c0-0.733-0.594-1.328-1.329-1.328h-24.51c3.785,1.491,9.111,2.688,15.071,3.231
			c3.837,0.351,7.464,0.386,10.627,0.159C178.609,199.42,178.663,199.224,178.663,199.014z"/>
	</g>
	<path fill="#41ADBA" d="M479.374,155.368c0.484,0,0.923-0.207,1.238-0.536c-4.917-9.294-15.976-30.13-16.573-30.717
		c-0.629-0.617-1.485-0.966-2.373-0.966H440.54c-1.794,0-3.248,1.4-3.248,3.133v29.086H479.374z"/>
	<g>
		<path fill="#3392A0" d="M469.479,133.922c-1.27,0.094-2.273,1.143-2.273,2.437v16.006c0,1.355,1.098,2.454,2.454,2.454h2.472
			v0.549h0.784v-0.549h1.652c1.354,0,2.454-1.099,2.454-2.454v-4.31C474.609,143.514,471.843,138.316,469.479,133.922z"/>
		<path fill="#3392A0" d="M467.899,130.997h-4.897v0.785h5.322C468.18,131.514,468.039,131.255,467.899,130.997z"/>
	</g>
	<rect x="389.332" y="120.499" fill="#433735" width="1.202" height="43.695"/>
	<rect x="461.721" y="121.968" fill="#3392A0" width="1.203" height="33.773"/>
	<g>
		<path fill="#3392A0" d="M466.548,156.07c0.21-4.198-4.712-7.35-12.131-7.35c-7.418,0-14.879,3.151-18.052,7.35H466.548z"/>
		<path fill="#3392A0" d="M442.87,154.422c0.003-0.509,0.137-1.066,0.435-1.662c1.421-2.855,5.844-5.46,9.878-5.816
			c4.033-0.358,6.151,1.668,4.731,4.524c-0.075,0.149-0.163,0.299-0.255,0.447l2.029-0.344c0.112-0.185,0.222-0.37,0.315-0.558
			c1.915-3.849-0.938-6.577-6.374-6.096c-5.434,0.481-11.392,3.989-13.307,7.837c-0.392,0.786-0.574,1.522-0.586,2.198
			L442.87,154.422z"/>
	</g>
	<path fill="#9A8A84" d="M443.472,184.556h-11.679c-1.372,0-2.443,1.188-2.301,2.554l1.744,16.715
		c0.122,1.18,1.116,2.073,2.301,2.073h11.678c1.374,0,2.445-1.188,2.303-2.554l-1.744-16.714
		C445.649,185.45,444.656,184.556,443.472,184.556z"/>
	<path fill="#9A8A84" d="M512.688,184.556h-11.679c-1.372,0-2.443,1.188-2.301,2.554l1.743,16.715
		c0.124,1.18,1.117,2.073,2.303,2.073h11.679c1.372,0,2.443-1.188,2.301-2.554l-1.744-16.714
		C514.866,185.45,513.872,184.556,512.688,184.556z"/>
	<polygon fill="#D3C7C1" points="473.751,181.898 474.392,181.898 456.142,160.051 454.014,160.051 	"/>
	<g>
		<rect x="219.275" y="114.752" fill="#433735" width="0.748" height="35.878"/>
		<rect x="240.239" y="114.752" fill="#433735" width="0.749" height="35.878"/>
		<rect x="240.488" y="132.323" fill="#433735" width="18.093" height="0.737"/>
		<rect x="200.056" y="132.323" fill="#433735" width="19.592" height="0.738"/>
	</g>
	<path fill="#4EB0C6" d="M306.509,125.36h-8.113c-1.137,0-2.059,0.921-2.059,2.058v6.938c0,1.136,0.922,2.058,2.059,2.058h8.113
		c1.137,0,2.058-0.922,2.058-2.058v-6.938C308.566,126.281,307.646,125.36,306.509,125.36z"/>
	<g>
		<g>
			<path fill="#433735" d="M383.511,133.904h-4.908c-1.356,0-2.454,1.1-2.454,2.455v16.006c0,1.355,1.098,2.454,2.454,2.454h4.908
				c1.355,0,2.454-1.099,2.454-2.454v-16.006C385.965,135.004,384.866,133.904,383.511,133.904z"/>
		</g>
		<g>
			<path fill="#433735" d="M381.038,135.999h-0.785v-2.455c0-1.404,1.144-2.547,2.548-2.547h7.366v0.785h-7.366
				c-0.972,0-1.763,0.791-1.763,1.763V135.999z"/>
		</g>
		<g>
			<path fill="#433735" d="M390.167,158.039h-7.366c-1.404,0-2.548-1.018-2.548-2.267v-2.136h0.785v2.136
				c0,0.815,0.791,1.481,1.763,1.481h7.366V158.039z"/>
		</g>
	</g>
	<path fill="#D2C3BC" d="M523.153,208.154h-87.381c2.673,0,2.673,17.238,0,17.238h87.381
		C525.826,225.393,525.826,208.154,523.153,208.154z"/>
	<path fill="#E1D6D0" d="M523.153,208.154h-81.75c-1.444,0.415-2.231,0.852-2.231,1.304c0,2.711,27.863,4.91,62.235,4.91
		c8.376,0,16.36-0.131,23.654-0.368C524.832,210.792,524.199,208.154,523.153,208.154z"/>
	<g>
		<path fill="#8E5949" d="M203.128,57.85h-6.59c-1.06,0-1.919,0.858-1.919,1.918v2.217c0,1.06,0.859,1.918,1.919,1.918h6.59
			c1.06,0,1.918-0.859,1.918-1.918v-2.217C205.046,58.708,204.188,57.85,203.128,57.85z"/>
		<path fill="#E6D3BA" d="M201.932,57.596h-6.445c-0.89,0-1.611,0.721-1.611,1.611v1.381c0,0.89,0.722,1.612,1.611,1.612h6.445
			c0.89,0,1.611-0.722,1.611-1.612v-1.381C203.543,58.317,202.822,57.596,201.932,57.596z"/>
		<path fill="#D15E3B" d="M199.917,58.367h-4.287c-0.592,0-1.072,0.479-1.072,1.072v0.918c0,0.592,0.48,1.072,1.072,1.072h4.287
			c0.592,0,1.072-0.48,1.072-1.072v-0.918C200.989,58.846,200.509,58.367,199.917,58.367z"/>
	</g>
	<g>
		<path fill="#9A8A84" d="M441.527,222.722h6.589c1.06,0,1.92-0.858,1.92-1.919v-2.216c0-1.06-0.86-1.919-1.92-1.919h-6.589
			c-1.06,0-1.92,0.859-1.92,1.919v2.216C439.607,221.863,440.468,222.722,441.527,222.722z"/>
		<path fill="#E6D3BA" d="M442.189,220.636h6.443c0.891,0,1.611-0.721,1.611-1.61v-1.381c0-0.889-0.721-1.61-1.611-1.61h-6.443
			c-0.891,0-1.612,0.721-1.612,1.61v1.381C440.577,219.915,441.299,220.636,442.189,220.636z"/>
		<path fill="#D15E3B" d="M444.202,219.866h4.288c0.592,0,1.071-0.48,1.071-1.072v-0.918c0-0.592-0.479-1.071-1.071-1.071h-4.288
			c-0.591,0-1.07,0.479-1.07,1.071v0.918C443.132,219.386,443.611,219.866,444.202,219.866z"/>
	</g>
	<g>
		<path fill="#9A8A84" d="M512.882,222.722h6.589c1.06,0,1.92-0.858,1.92-1.919v-2.216c0-1.06-0.86-1.919-1.92-1.919h-6.589
			c-1.06,0-1.919,0.859-1.919,1.919v2.216C510.963,221.863,511.822,222.722,512.882,222.722z"/>
		<path fill="#E6D3BA" d="M513.543,220.636h6.444c0.891,0,1.611-0.721,1.611-1.61v-1.381c0-0.889-0.721-1.61-1.611-1.61h-6.444
			c-0.89,0-1.612,0.721-1.612,1.61v1.381C511.931,219.915,512.653,220.636,513.543,220.636z"/>
		<path fill="#D15E3B" d="M515.557,219.866h4.287c0.592,0,1.071-0.48,1.071-1.072v-0.918c0-0.592-0.479-1.071-1.071-1.071h-4.287
			c-0.591,0-1.07,0.479-1.07,1.071v0.918C514.486,219.386,514.966,219.866,515.557,219.866z"/>
	</g>
	<path fill="#E6D3BA" d="M168.387,80.746h245.454c0.204-0.797,0.407-1.599,0.608-2.404H168.71
		C168.6,79.143,168.486,79.945,168.387,80.746z"/>
	<g>
		<path fill="#E6D3BA" d="M394.947,50.205h-76.063c-1.423,0-2.755-0.572-3.753-1.61c-1.082-1.13-1.666-2.725-1.599-4.375
			l0.121-2.937c0.134-3.283,2.739-5.955,5.808-5.955h76.063c1.421,0,2.753,0.572,3.751,1.612c1.084,1.129,1.666,2.724,1.6,4.375
			l-0.12,2.937C400.621,47.534,398.016,50.205,394.947,50.205z M319.462,36.112c-2.652,0-4.907,2.333-5.022,5.202l-0.12,2.937
			c-0.06,1.439,0.443,2.823,1.38,3.8c0.848,0.883,1.979,1.369,3.186,1.369h76.063c2.652,0,4.907-2.333,5.023-5.201l0.12-2.937
			c0.06-1.438-0.443-2.824-1.381-3.8c-0.848-0.883-1.979-1.37-3.185-1.37H319.462z"/>
	</g>
	<rect x="329.803" y="35.715" fill="#E6D3BA" width="1.27" height="14.231"/>
	<rect x="382.049" y="35.715" fill="#E6D3BA" width="1.27" height="14.231"/>
	<g>
		<polygon fill="#AA947D" points="445.888,39.056 444.618,39.056 446.655,49.946 447.924,49.946 		"/>
		<polygon fill="#AA947D" points="498.133,39.056 496.864,39.056 498.901,49.946 500.172,49.946 		"/>
		<g>
			<path fill="#AA947D" d="M506.815,50.205h-69.272c-2.483,0-4.812-2.072-5.188-4.619l-0.336-2.255
				c-0.191-1.291,0.133-2.499,0.911-3.402c0.74-0.858,1.809-1.333,3.006-1.333h69.271c2.483,0,4.812,2.072,5.189,4.619l0.336,2.255
				c0.192,1.291-0.131,2.499-0.911,3.402C509.08,49.732,508.014,50.205,506.815,50.205z M435.936,39.382
				c-0.967,0-1.823,0.376-2.412,1.06c-0.627,0.728-0.887,1.712-0.729,2.774l0.335,2.255c0.324,2.178,2.304,3.949,4.414,3.949h69.272
				c0.965,0,1.822-0.375,2.412-1.06c0.627-0.728,0.886-1.712,0.728-2.774l-0.335-2.255c-0.323-2.177-2.302-3.949-4.413-3.949
				H435.936z"/>
		</g>
	</g>
	<path fill="#7A5343" d="M288.415,152.571L288.415,152.571c-1.2,0-2.173,0.973-2.173,2.173v32.695c0,1.199,0.973,2.173,2.173,2.173
		l0,0c1.2,0,2.173-0.974,2.173-2.173v-32.695C290.588,153.544,289.615,152.571,288.415,152.571z"/>
	<g>
		<path fill="#E6D3BA" d="M286.564,154.186L286.564,154.186c-0.674,0-1.222,0.547-1.222,1.222v29.998
			c0,0.675,0.548,1.222,1.222,1.222l0,0c0.675,0,1.221-0.547,1.221-1.222v-29.998C287.785,154.732,287.239,154.186,286.564,154.186z
			"/>
		<path fill="#E6D3BA" d="M288.488,182.365h-0.685c-0.347,0-0.627,0.28-0.627,0.627v0.218c0,0.345,0.28,0.626,0.627,0.626h0.685
			c0.346,0,0.627-0.281,0.627-0.626v-0.218C289.115,182.646,288.834,182.365,288.488,182.365z"/>
		<path fill="#E6D3BA" d="M288.488,156.511h-0.685c-0.347,0-0.627,0.278-0.627,0.625v0.218c0,0.346,0.28,0.625,0.627,0.625h0.685
			c0.346,0,0.627-0.279,0.627-0.625v-0.218C289.115,156.789,288.834,156.511,288.488,156.511z"/>
	</g>
	<g>
		<path fill="#E6D3BA" d="M343.365,219.111h-9.32c-1.486,0-2.697-1.21-2.697-2.697v-9.221c0-1.487,1.211-2.697,2.697-2.697h9.32
			c1.487,0,2.697,1.21,2.697,2.697v9.221C346.063,217.901,344.853,219.111,343.365,219.111z M334.045,205.282
			c-1.055,0-1.912,0.857-1.912,1.911v9.221c0,1.055,0.857,1.912,1.912,1.912h9.32c1.055,0,1.912-0.857,1.912-1.912v-9.221
			c0-1.054-0.857-1.911-1.912-1.911H334.045z"/>
	</g>
	<g>
		<g>
			<path fill="#563229" d="M343.049,215.704h-8.686c-0.218,0-0.394-0.176-0.394-0.394c0-0.215,0.176-0.391,0.394-0.391h8.686
				c0.216,0,0.393,0.176,0.393,0.391C343.441,215.528,343.265,215.704,343.049,215.704z"/>
		</g>
		<g>
			<path fill="#563229" d="M343.049,213.366h-8.686c-0.218,0-0.394-0.176-0.394-0.392c0-0.218,0.176-0.393,0.394-0.393h8.686
				c0.216,0,0.393,0.175,0.393,0.393C343.441,213.19,343.265,213.366,343.049,213.366z"/>
		</g>
		<g>
			<path fill="#563229" d="M343.049,211.027h-8.686c-0.218,0-0.394-0.174-0.394-0.392c0-0.217,0.176-0.393,0.394-0.393h8.686
				c0.216,0,0.393,0.176,0.393,0.393C343.441,210.854,343.265,211.027,343.049,211.027z"/>
		</g>
		<g>
			<path fill="#563229" d="M343.049,208.688h-8.686c-0.218,0-0.394-0.175-0.394-0.392c0-0.218,0.176-0.393,0.394-0.393h8.686
				c0.216,0,0.393,0.175,0.393,0.393C343.441,208.514,343.265,208.688,343.049,208.688z"/>
		</g>
	</g>
	<path opacity="0.6" fill="#64C2D9" d="M482.397,154.814c0.068-0.4,0-0.812-0.194-1.169l-6.74-12.487
		c-11.411-3.049-24.793-5.787-39.195-7.87c-12.198-1.764-23.828-2.871-34.276-3.357l7.72,23.237
		c0.371,1.118,1.157,2.054,2.195,2.613c0.675,0.362,1.428,0.554,2.194,0.554h66.5C481.489,156.335,482.25,155.692,482.397,154.814z"
		/>
	<g>
		<path fill="#9A8A84" d="M375.335,167.567h-7.717c-1.053,0-1.904,0.853-1.904,1.903v0.902c0,1.052,0.852,1.904,1.904,1.904h7.717
			c1.051,0,1.903-0.853,1.903-1.904v-0.902C377.238,168.42,376.386,167.567,375.335,167.567z"/>
		<path fill="#E1D6D0" d="M373.062,167.594h-5.442c-0.741,0-1.344,0.601-1.344,1.342v0.637c0,0.741,0.603,1.344,1.344,1.344h5.442
			c0.742,0,1.343-0.603,1.343-1.344v-0.637C374.404,168.194,373.804,167.594,373.062,167.594z"/>
	</g>
	<path fill="#433735" d="M418.342,182.499h-3.369c-1.1,0-1.99,0.892-1.99,1.99v1.899c0,1.1,0.891,1.99,1.99,1.99h3.369
		c1.099,0,1.99-0.891,1.99-1.99v-1.899C420.332,183.391,419.44,182.499,418.342,182.499z"/>
	<path fill="#D15E3B" d="M417.535,183.737h-2.502c-0.69,0-1.248,0.56-1.248,1.249v0.905c0,0.689,0.558,1.248,1.248,1.248h2.502
		c0.689,0,1.248-0.559,1.248-1.248v-0.905C418.783,184.297,418.225,183.737,417.535,183.737z"/>
	<path fill="#C1B4AE" d="M432.109,196.766l0.629,6.022c0.094,0.896,0.849,1.576,1.75,1.576h8.882c1.044,0,1.858-0.903,1.749-1.941
		l-0.632-6.073c-0.097-0.914-0.867-1.609-1.786-1.608c-2.269,0.002-6.388,0.019-8.83,0.045
		C432.815,194.798,432,195.716,432.109,196.766z"/>
	<path fill="#C1B4AE" d="M431.299,187.634l0.502,4.813c0.074,0.717,0.679,1.261,1.399,1.261h9.237c0.835,0,1.485-0.723,1.399-1.553
		l-0.507-4.854c-0.076-0.731-0.691-1.286-1.427-1.285c-1.813,0.001-7.244,0.014-9.197,0.034
		C431.863,186.06,431.211,186.793,431.299,187.634z"/>
	<path fill="#C1B4AE" d="M501.325,196.766l0.629,6.022c0.093,0.896,0.849,1.576,1.75,1.576h8.883c1.043,0,1.858-0.903,1.75-1.941
		l-0.634-6.073c-0.096-0.914-0.865-1.609-1.784-1.608c-2.269,0.002-6.389,0.019-8.832,0.045
		C502.031,194.798,501.216,195.716,501.325,196.766z"/>
	<path fill="#C1B4AE" d="M500.514,187.634l0.503,4.813c0.076,0.717,0.68,1.261,1.399,1.261h9.238c0.835,0,1.485-0.723,1.399-1.553
		l-0.507-4.854c-0.077-0.731-0.691-1.286-1.427-1.285c-1.813,0.001-7.244,0.014-9.197,0.034
		C501.079,186.06,500.427,186.793,500.514,187.634z"/>
	<g>
		<path fill="#E1D6D0" d="M493.052,186.407h-39.705c-1.139,0-2.042,1.063-1.921,2.262l1.388,13.639
			c0.103,0.994,0.885,1.738,1.831,1.738h39.704c1.14,0,2.044-1.063,1.921-2.262l-1.388-13.639
			C494.781,187.151,493.998,186.407,493.052,186.407z"/>
		<path fill="#9A8A84" d="M491.23,187.998h-35.929c-0.936,0-1.676,0.871-1.575,1.854l1.139,11.18c0.082,0.814,0.725,1.424,1.5,1.424
			h35.929c0.934,0,1.674-0.872,1.574-1.853l-1.137-11.18C492.647,188.607,492.007,187.998,491.23,187.998z"/>
		<g>
			<path fill="#E1D6D0" d="M494.36,199.195h-39.437c-0.41,0-0.751,0.353-0.761,0.786l-0.003,0.09
				c-0.009,0.436,0.315,0.786,0.725,0.786h39.439c0.409,0,0.749-0.351,0.759-0.786l0.002-0.09
				C495.095,199.548,494.771,199.195,494.36,199.195z"/>
			<path fill="#E1D6D0" d="M493.833,195.947h-39.438c-0.41,0-0.75,0.353-0.761,0.787l-0.002,0.091
				c-0.009,0.435,0.314,0.786,0.724,0.786h39.438c0.41,0,0.75-0.352,0.76-0.786l0.002-0.091
				C494.567,196.3,494.242,195.947,493.833,195.947z"/>
			<path fill="#E1D6D0" d="M493.306,192.7h-39.438c-0.41,0-0.75,0.353-0.76,0.787l-0.002,0.09c-0.011,0.435,0.314,0.787,0.724,0.787
				h39.438c0.41,0,0.749-0.353,0.76-0.787l0.002-0.09C494.038,193.053,493.715,192.7,493.306,192.7z"/>
			<path fill="#E1D6D0" d="M492.777,189.453h-39.439c-0.408,0-0.748,0.353-0.759,0.786l-0.002,0.091
				c-0.01,0.434,0.314,0.787,0.724,0.787h39.438c0.409,0,0.75-0.354,0.76-0.787l0.002-0.091
				C493.511,189.806,493.187,189.453,492.777,189.453z"/>
		</g>
	</g>
	<path fill="#E1D6D0" d="M443.395,201.921l-0.531-5.087c-0.025-0.253-0.118-0.482-0.253-0.681c-0.513-0.065-1.052-0.095-1.609-0.079
		c-3.241,0.099-5.824,1.639-5.771,3.438c0.056,1.8,2.726,3.182,5.967,3.083c0.776-0.024,1.512-0.132,2.186-0.304
		C443.4,202.17,443.408,202.048,443.395,201.921z"/>
	<path fill="#E1D6D0" d="M442.228,192.058l-0.439-4.216c-0.021-0.209-0.1-0.399-0.209-0.563c-0.426-0.054-0.872-0.079-1.335-0.064
		c-2.686,0.081-4.825,1.355-4.78,2.848c0.044,1.492,2.258,2.634,4.942,2.554c0.644-0.02,1.254-0.109,1.811-0.252
		C442.232,192.264,442.239,192.161,442.228,192.058z"/>
	<path fill="#E1D6D0" d="M512.61,201.921l-0.531-5.087c-0.025-0.253-0.118-0.482-0.252-0.681c-0.514-0.065-1.053-0.095-1.61-0.079
		c-3.24,0.099-5.824,1.639-5.77,3.438c0.054,1.8,2.726,3.182,5.966,3.083c0.776-0.024,1.513-0.132,2.186-0.304
		C512.616,202.17,512.624,202.048,512.61,201.921z"/>
	<path fill="#E1D6D0" d="M511.443,192.058l-0.439-4.216c-0.021-0.209-0.098-0.399-0.209-0.563c-0.426-0.054-0.872-0.079-1.335-0.064
		c-2.685,0.081-4.826,1.355-4.78,2.848c0.045,1.492,2.259,2.634,4.942,2.554c0.645-0.02,1.253-0.109,1.813-0.252
		C511.448,192.264,511.455,192.161,511.443,192.058z"/>
	<g>
		<g>
			<path fill="#EBB984" d="M253.783,151.904c-0.926-0.762-1.642-1.901-2.089-1.859c-0.449,0.04-1.248,1.572-0.139,2.108
				c1.11,0.536,2.813,0.779,2.813,0.779L253.783,151.904z"/>
			<path fill="#EBB984" d="M253.76,151.657c-0.814-1.02-1.244-3.34-1.529-3.326c-0.271,0.013,0.046,2.776,0.335,3.077
				C252.867,151.721,254.088,152.068,253.76,151.657z"/>
			<path fill="#EBB984" d="M253.257,151.017c-1.981-0.854-2.724-2.66-2.946-2.697c-0.224-0.035,0.16,1.482,1.18,2.262
				C252.512,151.358,253.257,151.017,253.257,151.017z"/>
			<path fill="#EBB984" d="M253.093,151.582c-2.044-0.645-3.228-2.564-3.498-2.577c-0.265-0.012,0.554,1.553,1.677,2.19
				C252.291,151.772,253.093,151.582,253.093,151.582z"/>
			<path fill="#EBB984" d="M252.994,152.371c-2.192-0.771-3.161-2.224-3.328-2.218c-0.161,0.009,0.399,1.111,1.36,1.703
				C252.146,152.546,252.994,152.371,252.994,152.371z"/>
		</g>
		<path fill="#814955" d="M286.953,142.979c-0.237-1.45-0.684-2.886-1.58-4.057s-2.29-2.052-3.877-2.147
			c1.961-2.686,1.607-6.518-0.794-8.586c-2.401-2.067-6.568-2.127-9.333-0.134c0.512-2.881-1.784-5.601-4.733-6.361
			c-2.95-0.759-6.291,0.149-8.965,1.807c-0.478,0.296-0.951,0.626-1.267,1.069c-0.57,0.796-0.53,1.842-0.121,2.66
			c0.411,0.818,1.138,1.446,1.896,2.001c-1.213,0.842-2.275,2.016-2.506,3.372c-0.231,1.357,0.622,2.847,2.059,3.033
			c-0.928,1.379-1.803,2.919-1.652,4.479c0.15,1.559,1.787,2.979,3.422,2.438l0.546-0.189c0.637,0.357,1.346,0.611,2.089,0.746
			c-0.584,1.66-0.466,3.423-0.136,5.086c0.448,2.252,1.295,4.46,2.849,6.181c1.552,1.721,3.878,2.911,6.381,2.849
			c1.173-0.029,2.337-0.323,3.482-0.635c2.214-0.599,4.433-1.271,6.454-2.353c2.022-1.081,3.853-2.607,4.897-4.538
			C287.194,147.608,287.318,145.208,286.953,142.979z"/>
		<path fill="#703A47" d="M286.953,142.979c-0.237-1.45-0.684-2.886-1.58-4.057s-2.29-2.052-3.877-2.147
			c1.961-2.686,1.607-6.518-0.794-8.586c-2.401-2.067-6.568-2.127-9.333-0.134c0.195-1.101-0.021-2.178-0.526-3.132
			c0.005,0.133,0.011,0.266,0.011,0.4c0,5.428-4.833,9.828-10.796,9.828c-1.434,0-2.803-0.256-4.055-0.719
			c0.357,0.628,0.958,1.104,1.729,1.205c-0.928,1.379-1.803,2.919-1.652,4.478c0.15,1.56,1.787,2.98,3.422,2.439l0.546-0.189
			c0.637,0.357,1.346,0.611,2.089,0.746c-0.584,1.66-0.466,3.423-0.136,5.086c0.448,2.252,1.295,4.46,2.849,6.181
			c1.552,1.721,3.878,2.911,6.381,2.849c1.173-0.029,2.337-0.323,3.482-0.635c2.214-0.599,4.433-1.271,6.454-2.353
			c2.022-1.081,3.853-2.607,4.897-4.538C287.194,147.608,287.318,145.208,286.953,142.979z"/>
		<path fill="#836D9A" d="M283.123,158.804l-6.59,1.854c0,0-3.966,8.335-5.307,13.695c-0.826,3.307-0.181,36.554,5.38,66.207h0.545
			c0,0,15.313-51.803,15.519-61.069C292.876,170.223,283.123,158.804,283.123,158.804z"/>
		<polygon fill="#6A5487" points="279.379,174.91 274.019,172.901 277.919,177.034 276.364,239.463 276.716,239.583 
			279.604,177.367 285.299,171.561 		"/>
		<path fill="#6A5487" d="M283.123,158.804l-6.59,1.854c0,0-1.112,2.156-2.618,5.962c4.486,0.938,8.628-0.047,10.638-0.568
			c1.761,0.776,3.222,4.795,3.798,9.604c0.895,7.468-8.746,51.089-11.749,64.89c0.001,0.005,0.002,0.01,0.003,0.015h0.545
			c0,0,15.312-51.803,15.519-61.069C292.876,170.223,283.123,158.804,283.123,158.804z"/>
		<path fill="#F1E6D9" d="M269.552,242.345h8.346c0,0-0.117-3.388-1.113-3.614C275.788,238.505,269.552,242.345,269.552,242.345z"/>
		<path fill="#F1E6D9" d="M281.372,242.345h-5.544c0,0,0.744-3.232,1.455-3.516C277.993,238.546,281.372,242.345,281.372,242.345z"
			/>
		<path fill="#EFD275" d="M266.948,145.04c-0.746,3.801-5.088,14.485-5.602,15.617c-0.516,1.133,0.875,3.243,2.059,2.522
			c1.184-0.72,6.506-12.524,6.962-14.637C271.417,143.681,267.727,141.081,266.948,145.04z"/>
		<path fill="#EDB35F" d="M269.161,143.346c0.344,0.94,0.465,2.208,0.146,3.69c-0.457,2.111-5.778,13.916-6.962,14.637
			c-0.352,0.214-0.719,0.174-1.052-0.011c0.242,1.027,1.234,2.054,2.113,1.518c1.184-0.72,6.506-12.524,6.962-14.637
			C270.927,145.948,270.137,143.999,269.161,143.346z"/>
		<path fill="#EFD275" d="M274.628,164.544c5.217,1.859,11.284-2.421,11.284-2.421s-3.406-5.241-5.398-9.291
			c-1.971-4.013-4.735-9.13-5.697-9.816c-0.96-0.686-5.834,0.069-6.247,0.893c-0.411,0.823-0.411,6.246,4.394,11.464
			C274.435,156.969,274.628,164.544,274.628,164.544z"/>
		<path fill="#EDB35F" d="M276.085,154.92c1.685-0.367,6.11,4.455,7.359,8.59c1.497-0.702,2.468-1.387,2.468-1.387
			s-3.406-5.241-5.398-9.291c-1.971-4.013-4.735-9.13-5.697-9.816c-0.96-0.686-5.834,0.069-6.247,0.893
			c-0.411,0.823-0.411,6.246,4.394,11.464c1.471,1.597,1.665,9.172,1.665,9.172c0.244,0.087,0.49,0.155,0.737,0.217
			C274.499,160.547,274.352,155.297,276.085,154.92z"/>
		<path fill="#EFD275" d="M267.875,143.284c-0.481,5.56,0.764,11.126,1.382,11.264s8.1-0.755,8.306-1.579
			c0.206-0.824-1.922-8.954-2.686-9.905C273.623,141.505,268.051,142.822,267.875,143.284z"/>
		<path fill="#EDB35F" d="M274.692,143.296c-0.028-0.024-0.062-0.045-0.098-0.064c-0.526-0.281-1.132,0.233-1.015,0.817
			c0.586,2.901,0.792,7.929,0.522,8.602c-0.204,0.508-2.881,1.041-5.199,1.369c0.125,0.317,0.246,0.505,0.354,0.527
			c0.618,0.139,8.762-0.367,8.968-1.191C278.432,152.532,275.633,144.069,274.692,143.296z"/>
		<path fill="#EFD275" d="M272.939,145.137c-0.261,4.121-3.431,15.149-3.8,16.376c-0.37,1.229,1.289,3.518,2.381,2.736
			c1.092-0.781,4.905-13.581,5.092-15.872C277.041,143.104,273.211,140.844,272.939,145.137z"/>
		<path fill="#EDB35F" d="M274.494,142.909c0.461,0.953,0.744,2.309,0.61,3.96c-0.187,2.291-4,15.091-5.091,15.872
			c-0.216,0.154-0.455,0.186-0.694,0.132c0.448,1.013,1.456,1.909,2.201,1.376c1.092-0.781,4.905-13.581,5.092-15.872
			C276.868,145.233,275.609,143.161,274.494,142.909z"/>
		
			<ellipse transform="matrix(0.8754 -0.4834 0.4834 0.8754 -45.2748 146.9377)" fill="#F1E6B6" cx="262.374" cy="161.287" rx="1.986" ry="2.606"/>
		<path fill="#EBB984" d="M263.086,163.251c-4.309,0.323-11.306-12.792-11.347-13.178c-0.042-0.386,9.208,8.059,10.502,9.536
			C263.538,161.087,263.086,163.251,263.086,163.251z"/>
		<path fill="#E69B69" d="M262.242,159.609c-0.114-0.131-0.294-0.319-0.522-0.549c-0.029,0.078-0.068,0.147-0.126,0.196
			c-0.706,0.599-3.299-1.3-5.792-4.24c-1.188-1.402-2.136-2.785-2.729-3.916c-0.818-0.703-1.343-1.12-1.333-1.027
			c0.041,0.386,7.038,13.501,11.347,13.178C263.086,163.251,263.538,161.087,262.242,159.609z"/>
		
			<ellipse transform="matrix(0.8754 -0.4834 0.4834 0.8754 -44.7062 150.5917)" fill="#F1E6B6" cx="269.74" cy="162.01" rx="2.161" ry="3.086"/>
		<path fill="#EBB984" d="M270.974,164.158c-4.583,0.36-13.696-13.129-13.696-13.488c0-0.361,12.254,8.546,13.283,10.039
			S270.974,164.158,270.974,164.158z"/>
		<path fill="#E69B69" d="M270.561,160.709c-0.174-0.252-0.671-0.718-1.37-1.311c-0.015,0.042-0.026,0.087-0.054,0.12
			c-0.641,0.78-4.618-1.432-8.883-4.938c-0.283-0.233-0.56-0.466-0.83-0.698c2.979,4.072,8.36,10.527,11.55,10.276
			C270.974,164.158,271.59,162.202,270.561,160.709z"/>
		<polygon fill="#6A5487" points="278.002,165.902 277.407,165.902 277.667,169.96 278.263,169.96 		"/>
		<polygon fill="#6A5487" points="279.943,167.242 278.417,167.242 278.486,168.21 280.012,168.21 		"/>
		<path fill="#EDB35F" d="M277.214,146.549c-0.375-0.658-0.733-1.263-1.059-1.778c-0.333-0.839-0.799-1.424-1.273-1.702
			c-0.002-0.002-0.003-0.003-0.005-0.005c-1.254-1.558-6.826-0.241-7.002,0.221c0,0.002-0.001,0.004-0.001,0.004
			c-0.402,0.264-0.743,0.827-0.926,1.752c-0.034,0.176-0.078,0.369-0.127,0.574c1.132,1.253,3.292,2.102,5.774,2.102
			C274.393,147.716,276.021,147.27,277.214,146.549z"/>
		<path fill="#F1E6B6" d="M270.532,145.976c1.446,0,2.618-1.532,2.618-3.422c0-0.067-0.005-0.133-0.008-0.199
			c-1.772-0.108-4.639,0.477-5.181,0.843C268.192,144.778,269.254,145.976,270.532,145.976z"/>
		<path fill="#D27558" d="M268.747,143.189c-1.072-3.557-2.099-6.352-2.099-6.352l2.261-2.966c0.57,2.454,1.991,5.32,3.637,8.47
			c0,0-0.136,2.665-1.984,2.665C269.687,145.007,269.109,144.393,268.747,143.189z"/>
		<path fill="#EBB984" d="M266.546,143.851c-4.971-2.231-6.101-7.383-6.282-8.513c-0.184-1.13-1.258-6.234,2.598-6.835
			c2.833-0.441,5.518,2.672,6.337,6.439C270.256,139.799,266.546,143.851,266.546,143.851z"/>
		<path fill="#814955" d="M272.034,131.131c-0.166-0.328-0.408-0.603-0.617-0.905c-4.602-6.634-9.75-2.86-9.75-2.86
			c-0.848,0.475-1.414,1.418-1.434,2.39c-0.026,1.274,0.833,2.434,1.902,3.128c1.069,0.695,2.333,1.014,3.565,1.34
			c1.233,0.326,2.492,0.686,3.516,1.446c1.306,0.971,2.098,2.494,3.324,3.566c0.174,0.152,0.417,0.302,0.622,0.195
			c0.145-0.076,0.204-0.248,0.245-0.406C274.092,136.382,273.271,133.566,272.034,131.131z"/>
		<path fill="#703A47" d="M272.604,130.871c-0.166-0.328-0.408-0.603-0.617-0.905c-0.546-0.787-1.67-1.164-2.222-1.68
			c0.45,0.943,0.551,1.893,0.21,2.733c-0.917,2.264-4.679,2.878-8.44,1.399c0.189,0.17,0.388,0.33,0.6,0.467
			c1.069,0.695,2.333,1.014,3.565,1.34c1.233,0.325,2.492,0.686,3.516,1.446c1.306,0.971,1.901,2.951,3.127,4.022
			c0.175,0.153,0.763,0.219,0.968,0.112c0.145-0.076,0.555-0.587,0.595-0.745C274.593,136.416,273.841,133.307,272.604,130.871z"/>
		
			<ellipse transform="matrix(0.9933 0.1158 -0.1158 0.9933 17.3202 -30.2809)" fill="#EBB984" cx="269.248" cy="133.912" rx="1.21" ry="2.24"/>
		
			<ellipse transform="matrix(0.9933 0.1154 -0.1154 0.9933 17.2682 -30.1955)" fill="#D27558" cx="269.331" cy="133.989" rx="0.728" ry="1.344"/>
		
			<ellipse transform="matrix(0.9933 0.1156 -0.1156 0.9933 17.4142 -30.2045)" fill="#EBB984" cx="269.149" cy="135.053" rx="0.53" ry="0.979"/>
		<g>
			<path fill="#5A4949" d="M264.693,136.634c-0.165-0.409-0.043-0.795,0.274-0.861c0.317-0.067,0.708,0.211,0.874,0.621
				c0.165,0.408,0.042,0.794-0.274,0.86C265.25,137.321,264.858,137.042,264.693,136.634z"/>
			<path fill="#5A4949" d="M261.821,138.101c-0.181-0.404-0.072-0.777,0.242-0.834c0.314-0.057,0.715,0.225,0.894,0.628
				c0.181,0.404,0.073,0.778-0.241,0.834C262.401,138.786,262,138.504,261.821,138.101z"/>
			<path fill="#814955" d="M263.615,134.317l1.504-0.378c0.184-0.046,0.382,0.051,0.442,0.218l0.117,0.331
				c0.06,0.167-0.042,0.341-0.228,0.387l-1.503,0.377c-0.185,0.047-0.382-0.051-0.441-0.218l-0.118-0.331
				C263.329,134.537,263.43,134.364,263.615,134.317z"/>
			<path fill="#814955" d="M260.139,136.274l1.212-0.749c0.149-0.092,0.342-0.045,0.43,0.106l0.175,0.298
				c0.088,0.151,0.039,0.348-0.109,0.439l-1.212,0.75c-0.149,0.092-0.341,0.044-0.43-0.106l-0.175-0.299
				C259.94,136.564,259.99,136.367,260.139,136.274z"/>
			<path fill="#D27558" d="M263.818,137.868c0,0,0.054,0.07,0.129,0.182c-0.223,0.604-0.435,1.618,0.487,1.375
				c-0.003,0.026,0.001,0.054-0.003,0.078C262.896,140.158,263.611,138.252,263.818,137.868z"/>
			<path fill="#3F3132" d="M266.183,139.608c0.03,0.042,0.063,0.081,0.09,0.126c0.467,0.788,0.275,1.687-0.37,1.969
				c-0.583,0.256-1.327-0.098-1.706-0.761c-0.016-0.028-0.026-0.058-0.041-0.086L266.183,139.608z"/>
			<path fill="#F6F2D6" d="M264.732,141.364c-0.139-0.113-0.265-0.254-0.363-0.425c-0.013-0.024-0.023-0.049-0.035-0.074
				l1.705-1.031c0.025,0.035,0.052,0.067,0.075,0.104c0.119,0.201,0.18,0.413,0.2,0.619L264.732,141.364z"/>
		</g>
		<path fill="#E6D3BA" d="M257.038,147.467h-5.597c-0.315,0-0.552,0.286-0.493,0.597l0.618,3.184
			c0.045,0.235,0.251,0.406,0.491,0.406h5.598c0.314,0,0.552-0.288,0.491-0.596l-0.616-3.185
			C257.485,147.636,257.279,147.467,257.038,147.467z"/>
		<path fill="#F1E6B6" d="M256.633,147.556h-5.597c-0.314,0-0.552,0.287-0.492,0.598l0.617,3.185
			c0.045,0.235,0.251,0.405,0.492,0.405h5.597c0.315,0,0.552-0.287,0.493-0.597l-0.617-3.185
			C257.08,147.728,256.873,147.556,256.633,147.556z"/>
		<path fill="#814955" d="M252.176,149.279h-0.735c-0.041,0-0.072,0.038-0.065,0.078l0.081,0.418
			c0.007,0.032,0.033,0.054,0.065,0.054h0.735c0.042,0,0.073-0.037,0.064-0.077l-0.081-0.42
			C252.234,149.302,252.207,149.279,252.176,149.279z"/>
		<g>
			<path fill="#EBB984" d="M259.616,152.57c-0.926-0.762-1.642-1.9-2.09-1.859c-0.447,0.041-1.247,1.572-0.138,2.108
				c1.11,0.536,2.813,0.78,2.813,0.78L259.616,152.57z"/>
			<path fill="#EBB984" d="M259.594,152.324c-0.815-1.019-1.245-3.34-1.529-3.327c-0.271,0.014,0.045,2.776,0.335,3.077
				C258.7,152.387,259.922,152.735,259.594,152.324z"/>
			<path fill="#EBB984" d="M259.09,151.684c-1.981-0.854-2.724-2.662-2.946-2.696c-0.223-0.036,0.161,1.481,1.181,2.26
				C258.344,152.026,259.09,151.684,259.09,151.684z"/>
			<path fill="#EBB984" d="M258.925,152.249c-2.044-0.645-3.226-2.564-3.496-2.577c-0.266-0.012,0.553,1.553,1.677,2.189
				C258.124,152.438,258.925,152.249,258.925,152.249z"/>
			<path fill="#EBB984" d="M258.827,153.037c-2.193-0.771-3.161-2.225-3.328-2.216c-0.16,0.007,0.399,1.11,1.361,1.702
				C257.978,153.212,258.827,153.037,258.827,153.037z"/>
		</g>
	</g>
	<g>
		<g>
			<circle fill="#E85C77" cx="221.769" cy="191.343" r="0.666"/>
			<circle fill="#E85C77" cx="213.864" cy="190.261" r="0.666"/>
			<circle fill="#E85C77" cx="217.42" cy="190.948" r="0.395"/>
			<circle fill="#E85C77" cx="212.636" cy="192.028" r="0.396"/>
			<path fill="#E85C77" d="M226.411,192.737c-0.209-0.589-1.404-0.552-1.504-0.07c-0.111-0.169-0.515-0.131-0.432,0.203
				c-0.031-0.607-0.37-1.415-1.172-1.14c-0.384,0.133-0.937,0.771-0.583,1.088c-0.521-0.151-1.277,1.125-0.507,1.314
				c-0.276,0.002-0.614,0.176-0.237,0.349c-0.171,0.001-0.316,0.106-0.353,0.229c-0.274,0.056-0.529,0.235-0.844,0.205
				c-0.452-0.044-0.181-0.198-0.462-0.354c-0.17-0.093-0.421-0.04-0.612-0.043c0.002-0.072-0.068-0.177-0.069-0.235
				c-0.002,0-0.005,0-0.008,0c0.404-0.284,0.766-0.81,0.754-1.146c-0.036-1.013-2.221-1.55-2.875-0.853
				c-0.54,0.574-0.058,1.611,0.56,1.917c0.211,0.104,0.466,0.193,0.717,0.272c-0.172,0.015-0.234,0.17-0.593,0.211
				c-0.295,0.035-0.937-0.307-1.028,0.101c-0.073-0.41-0.375-0.407-0.547-0.295c-0.037-1.537-1.419-2.794-2.89-1.875
				c-0.655,0.408-1.146,1.024-0.559,1.697c0.124,0.142,0.299,0.306,0.486,0.37c-0.311-0.028-0.577,0.063-0.872,0.077
				c-0.101,0.005-0.276,0.035-0.372-0.002c-0.094-0.037-0.097-0.253-0.193-0.276c-0.132-0.028-0.232,0.078-0.278,0.188
				c0.007-0.23-0.191-0.462-0.427-0.355c-0.002,0.01-0.001,0.019-0.002,0.027c-0.091-0.561-0.209-1.142-0.513-1.604
				c-0.733-1.114-2.166-0.872-2.885,0.102c-0.516,0.698-0.621,1.837,0.008,2.534c0.213,0.234,0.463,0.385,0.776,0.257l15.897-0.396
				C225.614,194.964,226.741,193.676,226.411,192.737z"/>
		</g>
		<path fill="#473234" d="M206.709,193.943L206.709,193.943c-0.724,0-1.311,0.586-1.311,1.31l0,0c0,0.724,0.587,1.311,1.311,1.311
			l0,0c0.724,0,1.31-0.587,1.31-1.311l0,0C208.019,194.529,207.433,193.943,206.709,193.943z"/>
		<path fill="#473234" d="M226.241,193.943L226.241,193.943c-0.724,0-1.311,0.586-1.311,1.31l0,0c0,0.724,0.586,1.311,1.311,1.311
			l0,0c0.724,0,1.311-0.587,1.311-1.311l0,0C227.551,194.529,226.964,193.943,226.241,193.943z"/>
		<rect x="197.806" y="193.506" fill="#5B4345" width="0.833" height="47.675"/>
		<rect x="233.375" y="193.673" fill="#5B4345" width="0.833" height="48.757"/>
		<path fill="#5B4345" d="M199.202,206.88h-1.897c-0.5,0-0.903,0.404-0.903,0.902l0,0c0,0.499,0.404,0.904,0.903,0.904h1.897
			c0.5,0,0.903-0.405,0.903-0.904l0,0C200.105,207.284,199.702,206.88,199.202,206.88z"/>
		<polygon fill="#7C4832" points="222.268,232.361 209.704,231.696 202.132,233.026 200.802,236.272 227.093,237.52 
			227.177,236.021 		"/>
		<polygon fill="#5E3122" points="229.256,237.271 225.097,235.274 207.873,236.104 201.717,242.18 205.128,242.096 
			229.839,240.433 		"/>
		<polygon fill="#7C4832" points="229.673,239.434 203.464,241.431 203.631,242.43 232.668,242.43 		"/>
		<path fill="#7C4832" d="M190.235,242.43c0,0,1.664-7.406,2.329-7.572c0.666-0.166,15.81,0.998,16.058,1.164
			c0.25,0.168-4.575,6.408-4.575,6.408H190.235z"/>
		<path fill="#9B673D" d="M192.564,234.857c-0.666,0.166-2.329,7.572-2.329,7.572h9.514c-0.048-2.934-2.676-6.055-6.638-7.586
			C192.817,234.838,192.627,234.841,192.564,234.857z"/>
		<path fill="#EDBA43" d="M212.616,235.772c1.748-3.411-1.94-4.259-3.771-3.927c0,0-1.886-4.31,0.111-7.888
			c4.368-0.999,4.804-4.54,4.056-7.114c-0.999-3.432,1.269-7.176,2.433-8.174c0,0-0.905,3.695,0.25,5.366
			c1.123,1.622,2.059,1.809,2.246,6.24c0.171,4.038,1.499,5.678,3.578,6.345c0.999,2.828-0.333,5.658-0.333,5.658
			s-1.415,1.163-1.83,1.829c0,0-0.666,2.329-2.663,2.579C214.696,236.938,212.616,235.772,212.616,235.772z"/>
		<g>
			<path fill="#F4D691" d="M214.979,221.029c0.062-0.392,0.073-0.648,0.073-0.648S215.008,220.628,214.979,221.029z"/>
			<path fill="#F4D691" d="M212.903,234.836c7.13,2.252,8.308-6.004,4.818-7.717c-2.769-1.359-2.846-4.681-2.743-6.09
				c-0.171,1.109-0.743,3.312-2.597,3.927c-2.252,0.748-2.934,2.709-1.996,6.714C211.87,231.853,213.443,232.786,212.903,234.836z"
				/>
		</g>
		<path fill="#F4D691" d="M215.403,217.649c0.344-0.965,0.206-1.518-0.415-2.344c-0.62-0.828-0.689-2.346-0.689-2.346
			s-0.759,1.518-0.345,2.758C214.369,216.96,215.403,217.649,215.403,217.649z"/>
		<path fill="#EDBA43" d="M211.45,210.903c1.438-1.582,2.085-3.452,1.079-3.884c-1.006-0.431-2.661-1.366-2.445-2.373
			c0,0-0.673,2.021,0.348,3.232C211.582,209.246,211.45,210.903,211.45,210.903z"/>
		<path fill="#5B4345" d="M206.885,193.839c0.172,5.938,2.744,10.649,9.684,10.649c6.939,0,9.511-4.711,9.682-10.649H206.885z"/>
		<path fill="#884E55" d="M216.069,198.747c-2.984,0-5.651,0.737-7.414,1.893c1.49,2.359,4.01,3.849,7.914,3.849
			c3.62,0,6.043-1.291,7.567-3.361C222.423,199.696,219.453,198.747,216.069,198.747z"/>
		<path fill="#D8CFBF" d="M215.695,191.135c0-3.808-4.681-5.866-2.059-9.36c1.506-2.008,2.959-4.14,1.586-6.386
			c-1.338-2.188,0.535-4.972,0.535-4.972c-0.375,3.557-0.25,3.745,1.56,5.242s-1.185,6.864-0.063,9.11
			C218.377,187.017,215.695,191.135,215.695,191.135z"/>
		<path fill="#D8CFBF" d="M220.371,187.827c0-2.005-1.359-3.091-0.598-4.932c0.438-1.059,0.861-2.181,0.461-3.364
			c-0.389-1.153,0.156-2.62,0.156-2.62c-0.109,1.874-0.072,1.973,0.453,2.763c0.526,0.788-0.345,3.616-0.018,4.799
			C221.151,185.657,220.371,187.827,220.371,187.827z"/>
		<path fill="#D8CFBF" d="M211.635,180.34c0-0.85-1.36-1.308-0.598-2.085c0.438-0.447,0.859-0.922,0.46-1.423
			c-0.389-0.486,0.156-1.106,0.156-1.106c-0.108,0.792-0.072,0.833,0.454,1.167c0.526,0.333-0.344,1.528-0.018,2.029
			C212.416,179.422,211.635,180.34,211.635,180.34z"/>
		<path fill="#EDBA43" d="M215.777,231.529c-0.957-1.623-1.29-2.621-1.29-2.621c-0.885,3.652-2.75,1.778-3.917,2.787
			c1.639,0.256,2.732,1.686,2.154,3.848C215.798,234.676,216.578,232.887,215.777,231.529z"/>
		<path fill="#473234" d="M215.289,194.94c4.252,0,8.042,0.939,10.518,2.407c0.262-1.097,0.409-2.274,0.444-3.509h-19.366
			c0.025,0.835,0.102,1.643,0.227,2.421C209.382,195.433,212.215,194.94,215.289,194.94z"/>
		<rect x="196.974" y="193.506" fill="#5B4345" width="37.94" height="0.832"/>
		<circle fill="#5B4345" cx="198.035" cy="194.067" r="1.498"/>
		<circle fill="#5B4345" cx="233.791" cy="194.067" r="1.497"/>
		<circle fill="#473234" cx="233.791" cy="194.067" r="0.749"/>
		<circle fill="#473234" cx="198.035" cy="194.067" r="0.687"/>
	</g>
	<g>
		
			<rect x="73.194" y="182.834" transform="matrix(0.9935 0.114 -0.114 0.9935 23.6725 -7.2365)" fill="#CBAF85" width="3.865" height="41.169"/>
		<path fill="#754636" d="M78.989,179.614l-2.594-0.844c-1.177-0.383-2.402,0.397-2.469,1.571l-0.464,8.237
			c-0.027,0.494,0.38,0.917,0.9,0.935l3.958,0.14c0.851,0.03,1.584-0.546,1.711-1.344l0.896-5.684
			C81.133,181.317,80.314,180.046,78.989,179.614z"/>
		<path fill="#754636" d="M84.017,225.664c-1.91-2.503-1.883-5.805-0.454-8.565c0.202-0.394,0.337-0.806,0.387-1.236
			c0.477-4.157-5.975-6.112-9.502-6.518c-3.527-0.404-10.254,0.042-10.73,4.199c-0.049,0.431-0.013,0.862,0.097,1.291
			c0.768,3.014,0.046,6.235-2.38,8.242c-2.266,1.874-3.861,4.366-4.19,7.231c-0.79,6.895,6.276,11.274,13.415,12.092
			s15.012-1.852,15.802-8.744C86.789,230.789,85.799,228.002,84.017,225.664z"/>
		<path fill="#985341" d="M57.988,227.573c1.654,0.743,3.446,1.255,5.343,1.471c9.799,1.124,18.657-5.868,19.98-15.666
			c-1.666-2.472-6.133-3.72-8.863-4.033c-3.527-0.404-10.254,0.042-10.73,4.199c-0.049,0.431-0.013,0.862,0.097,1.291
			c0.768,3.014,0.046,6.235-2.38,8.242C59.926,224.325,58.727,225.85,57.988,227.573z"/>
		<circle fill="#CBAF85" cx="72.151" cy="229.378" r="4.199"/>
		<path fill="#CBAF85" d="M74.618,235.255l-6.2-0.709c-0.432-0.051-0.822,0.26-0.872,0.69l0,0c-0.049,0.433,0.26,0.822,0.693,0.872
			l6.2,0.711c0.431,0.05,0.822-0.261,0.871-0.692l0,0C75.36,235.694,75.049,235.305,74.618,235.255z"/>
		
			<rect x="70.021" y="223.292" transform="matrix(0.9935 0.1138 -0.1138 0.9935 25.9463 -6.8298)" fill="#754636" width="5.534" height="1.062"/>
		<path fill="#E4CCAA" d="M72.734,207.326c0.848,0.199,1.718,0.377,2.61,0.53c0.402,0.068,0.8,0.13,1.197,0.187l1.803-15.734
			c-0.106-0.019-0.213-0.039-0.32-0.058c-1.192-0.205-2.365-0.355-3.511-0.458L72.734,207.326z"/>
		<path fill="#985341" d="M78.989,179.614l-2.594-0.844c-1.177-0.383-2.402,0.397-2.469,1.571l-0.365,6.491
			c0.555,0.421,1.187,0.692,1.876,0.771c2.43,0.279,4.724-1.927,5.496-5.084C81.081,181.249,80.279,180.034,78.989,179.614z"/>
		<path fill="#754636" d="M57.896,230.787c0.329-2.866,1.924-5.357,4.189-7.231c2.426-2.008,3.148-5.229,2.38-8.244
			c-0.108-0.428-0.146-0.859-0.097-1.289c0.477-4.157,7.204-4.604,10.731-4.199c2.027,0.232,5.015,0.98,7.104,2.362
			c-2.072-1.689-5.506-2.582-7.756-2.841c-3.527-0.404-10.254,0.042-10.73,4.199c-0.049,0.431-0.013,0.862,0.097,1.291
			c0.768,3.014,0.046,6.235-2.38,8.242c-2.266,1.874-3.861,4.366-4.19,7.231c-0.426,3.724,1.449,6.707,4.38,8.798
			C59.068,237.048,57.501,234.231,57.896,230.787z"/>
		<path fill="#754636" d="M84.017,225.664c-1.91-2.503-1.883-5.805-0.454-8.565c0.202-0.394,0.337-0.806,0.387-1.236
			c0.477-4.157-5.975-6.112-9.502-6.518c-1.844-0.21-4.558-0.183-6.8,0.479c2.131-0.522,4.577-0.531,6.279-0.336
			c3.527,0.404,9.979,2.359,9.502,6.517c-0.049,0.431-0.183,0.843-0.387,1.235c-1.43,2.762-1.455,6.063,0.454,8.567
			c1.783,2.338,2.772,5.125,2.444,7.992c-0.487,4.253-3.674,6.893-7.718,8.103c4.288-1.135,7.732-3.813,8.239-8.245
			C86.789,230.789,85.799,228.002,84.017,225.664z"/>
		<circle fill="#3F2A25" cx="72.151" cy="229.379" r="3.265"/>
	</g>
	<path fill="#C6BD54" d="M563.043,241.673L2.631,241.608c0,0,248.396,16.259,310.999,16.267
		C376.233,257.883,563.043,241.673,563.043,241.673z"/>
</g>
</svg>
